<svg xmlns="http://www.w3.org/2000/svg" viewBox="0 0 140.51 136.54"><defs><style>.cls-1{fill:#412313;}.cls-2{fill:#d0ab89;}.cls-3{fill:#bc946f;}.cls-4{fill:#ba9573;}.cls-5{fill:#bc9674;}.cls-6{fill:#9a7b64;}.cls-7{fill:#604128;}.cls-8{fill:#302016;}.cls-9{fill:#6f5d4a;}.cls-10{fill:#a2836d;}.cls-11{fill:#967e6a;}.cls-12{fill:#331e11;}.cls-13{fill:#422c18;}.cls-14{fill:#93704b;}.cls-15{fill:#fbd098;}.cls-16{fill:#f5c188;}.cls-17{fill:#5f3516;}.cls-18{fill:#896c59;}.cls-19{fill:#956e46;}.cls-20{fill:#8d5a27;}.cls-21{fill:#fee5ba;}.cls-22{fill:#facb91;}.cls-23{fill:#d59c61;}.cls-24{fill:#97693a;}.cls-25{fill:#7f5322;}.cls-26{fill:#e5aa6f;}.cls-27{fill:#996835;}.cls-28{fill:#e3b07b;}.cls-29{fill:#f3be85;}.cls-30{fill:#c4905a;}.cls-31{fill:#e0b180;}.cls-32{fill:#ba8858;}.cls-33{fill:#e5b376;}.cls-34{fill:#95612f;}.cls-35{fill:#916533;}.cls-36{fill:#9d6634;}.cls-37{fill:#9a682f;}.cls-38{fill:#946632;}.cls-39{fill:#855622;}.cls-40{fill:#683b19;}.cls-41{fill:#996831;}.cls-42{fill:#875622;}.cls-43{fill:#dfb17d;}.cls-44{fill:#ad824a;}.cls-45{fill:#885a26;}.cls-46{fill:#9e6e35;}.cls-47{fill:#754d22;}.cls-48{fill:#845829;}.cls-49{fill:#89612c;}.cls-50{fill:#90622e;}.cls-51{fill:#86592a;}.cls-52{fill:#996a36;}.cls-53{fill:#cd9150;}.cls-54{fill:#855927;}.cls-55{fill:#6b401a;}.cls-56{fill:#52351c;}.cls-57{fill:#ab7946;}.cls-58{fill:#a97743;}.cls-59{fill:#72421d;}.cls-60{fill:#9a713b;}.cls-61{fill:#ebb073;}.cls-62{fill:#d4a16c;}.cls-63{fill:#ce9a65;}.cls-64{fill:#d49e68;}.cls-65{fill:#9f6d37;}.cls-66{fill:#dfb183;}.cls-67{fill:#9e6b39;}.cls-68{fill:#c89663;}.cls-69{fill:#c29366;}.cls-70{fill:#7d4f23;}.cls-71{fill:#6f4720;}.cls-72{fill:#d1a171;}.cls-73{fill:#8b5c29;}.cls-74{fill:#71461c;}.cls-75{fill:#d0a379;}.cls-76{fill:#b98a5c;}.cls-77{fill:#b37e4a;}.cls-78{fill:#83582a;}.cls-79{fill:#b78559;}.cls-80{fill:#daa26d;}.cls-81{fill:#f2bd83;}.cls-82{fill:#ecb47b;}.cls-83{fill:#966228;}.cls-84{fill:#b98758;}.cls-85{fill:#bb8c5d;}.cls-86{fill:#f1be8d;}.cls-87{fill:#734b21;}.cls-88{fill:#f5c68e;}.cls-89{fill:#e1b486;}.cls-90{fill:#e4b587;}.cls-91{fill:#c6925f;}.cls-92{fill:#5d3614;}.cls-93{fill:#e8b987;}.cls-94{fill:#331d11;}.cls-95{fill:#ecb680;}.cls-96{fill:#522b11;}.cls-97{fill:#b78251;}.cls-98{fill:#c38e56;}.cls-99{fill:#ecbe8c;}.cls-100{fill:#e5b485;}.cls-101{fill:#e7b98d;}.cls-102{fill:#eaba8d;}.cls-103{fill:#d9ab79;}.cls-104{fill:#f6cb9c;}.cls-105{fill:#f8c487;}.cls-106{fill:#d19963;}.cls-107{fill:#e8b179;}.cls-108{fill:#e3ad76;}.cls-109{fill:#e7b27c;}.cls-110{fill:#efc08e;}.cls-111{fill:#f5c592;}.cls-112{fill:#835222;}.cls-113{fill:#9b6632;}.cls-114{fill:#96612d;}.cls-115{fill:#70431c;}.cls-116{fill:#a06932;}.cls-117{fill:#7f5022;}.cls-118{fill:#e8b785;}.cls-119{fill:#9b6b37;}.cls-120{fill:#966430;}.cls-121{fill:#68401f;}.cls-122{fill:#a7723d;}.cls-123{fill:#653d1b;}.cls-124{fill:#4e2f1a;}.cls-125{fill:#613a1f;}.cls-126{fill:#93612d;}.cls-127{fill:#563519;}.cls-128{fill:#573217;}.cls-129{fill:#b88658;}.cls-130{fill:#8d5a29;}.cls-131{fill:#723f12;}.cls-132{fill:#af7a45;}.cls-133{fill:#b07c47;}.cls-134{fill:#a06934;}.cls-135{fill:#673f1e;}.cls-136{fill:#ce9760;}.cls-137{fill:#a7743f;}.cls-138{fill:#cf9a62;}.cls-139{fill:#5e391d;}.cls-140{fill:#f0be8b;}.cls-141{fill:#c68f5a;}.cls-142{fill:#f0be88;}.cls-143{fill:#af7d49;}.cls-144{fill:#8e5828;}.cls-145{fill:#5f391f;}.cls-146{fill:#6f4319;}.cls-147{fill:#ecb785;}.cls-148{fill:#e4b183;}.cls-149{fill:#e1ac76;}.cls-150{fill:#95652f;}.cls-151{fill:#e4b07b;}.cls-152{fill:#7d4a1d;}.cls-153{fill:#c9955f;}</style></defs><g id="Layer_2" data-name="Layer 2"><g id="Layer_1-2" data-name="Layer 1"><path class="cls-1" d="M108.26,124.36l-3.54,2.27c-2.94-.28-4.85,2-7.25,3-5.34,2.3-11,3.3-16.6,4.77-1.08.36-2.09,1-3.3.89-6.2-1.12-12.52,0-18.75-1.19a57.34,57.34,0,0,1-13.11-3.76c-2.65-1.23-5.57-1.9-8-3.56-1.19-.81-3-1.81-.39-3.21,2-.22,3.55.88,5.24,1.59C59.15,132.1,76,133,93,126.89c23.22-8.43,37.25-24.9,41.54-49.08,3-17.15-1.25-33.11-12.09-46.68C105.49,9.94,83.06,2.5,56.51,6.69,54.28,7,52.1,8,49.76,7.38c-.67-.35-1.11-.82-.84-1.65,2.82-3,6.87-2.8,10.35-3.25C81.59-.46,101.35,5.31,118,20.76A72.08,72.08,0,0,1,135.84,49a58.62,58.62,0,0,1,1.4,34.46c-3.41,13.49-10.05,25-20.75,34.09-1,.84-1.64,2-2.65,2.78C111.84,121.51,109.71,122.44,108.26,124.36Z"/><path class="cls-2" d="M117.38,21.44c-13.31-12.11-29-18.24-47-18.76A58.47,58.47,0,0,0,49,6.06c-2,2.2-4.91,2.76-7.48,3.82-5,2.07-9,5.88-14.06,7.75a3,3,0,0,1-2.75-1.57c9-7.33,18.82-13,30.81-13.94C56.72,2,57.62.32,59.22.86c2.39.75,4.81.18,6.29.32,1.49-.27.79-1,1-.53.09.21,0,.32-.22.35-1.31.2-2.65.66-3.83-.4A42.72,42.72,0,0,1,78.67,1C83.21,2,88,2.15,92.61,3.59c10.3,3.26,19.09,9,27,16.25a.47.47,0,0,1,0,.4c0,.12-.21.18-.33.26C118.84,21.22,118.39,21.88,117.38,21.44Z"/><path class="cls-3" d="M117.38,21.44l1.94-.94C130.1,31.83,137.48,45,140,60.5a55.72,55.72,0,0,1-1.69,23.6c-1.18-.21-.3,2.1-1.73,1.46-.83-.37-.52-1.14-.27-1.79,3.67-17,1.35-33-7.56-48C125.56,30.51,121.5,26,117.38,21.44Z"/><path class="cls-4" d="M.23,64.32A23.55,23.55,0,0,1,2.51,52.15c.93-.31,1.35.29,1.73,1,1,2.58-.13,5.06-.38,7.58-.47,4.85.06,9.69,0,14.53.22,3.44.6,6.83,2.73,9.74.94,3.54,1.66,7.14,3.42,10.4,1.51,3,2.81,6.2,5.14,8.76.68,1.61,2.75,2.61,2.11,4.8a2,2,0,0,1-1.78.22c-3.35-2.78-5.05-6.73-7.19-10.35a22.4,22.4,0,0,0-3-4.61C4.4,90,1.82,86.33,1.64,82c-.13-3.16-2.23-6-1.47-9.22A21.84,21.84,0,0,0,.23,64.32Z"/><path class="cls-5" d="M3.57,53.16l-1.06-1c.85-10.07,6.19-18.09,12-25.84A49.65,49.65,0,0,1,24.73,16.07l2.83,1c.29,1.63-1.1,2.22-2,3A68.7,68.7,0,0,0,5.84,50C5.42,51.2,5.59,53,3.57,53.16Z"/><path class="cls-6" d="M136.26,83.79c.15,3.24,1.71-2,2,.33-3.4,14-10.36,25.76-21.69,34.81-1.09.87-2.1,1.84-3.15,2.76-.37.17-.79.25-1-.17-.35-.77.14-1.19.76-1.51a16.21,16.21,0,0,1,1.85-2.2C125.66,108.67,132.42,97.15,136.26,83.79Z"/><path class="cls-7" d="M37.21,124c-1.28,1.41.2,1.64.94,2,2.45,1.11,5,2.11,7.43,3.15a1.62,1.62,0,0,1-1.17,1.41c-1.56,0-2.85-.93-4.33-1.17-4.81-2.78-10.09-4.78-14.36-8.48a5.66,5.66,0,0,1-.37-2.11c-.07-1-.33-2,.7-2.59C30.42,117.88,34.5,120,37.21,124Z"/><path class="cls-8" d="M77.84,134.55l2.8-.94c6.91-.36,13.1-3.51,19.69-5.11a2.29,2.29,0,0,1-1.43,1.92c-17.13,7.29-34.44,8.36-52,1.64a1.82,1.82,0,0,1,1.22-.77A98.3,98.3,0,0,0,77.84,134.55Z"/><path class="cls-9" d="M26.6,119l-.88,1.92c-9.33-7-15.67-16.24-20.45-26.7,1.92-.34,1.91,1.42,2.4,2.39a58.36,58.36,0,0,0,8,12C19.84,111.48,22.94,115.52,26.6,119Z"/><path class="cls-10" d="M100.3,128.5c-6.39,2.39-12.47,5.93-19.69,5.11,7.51-2.22,15.2-3.93,22.25-7.54a1.42,1.42,0,0,1,1.86.56C103.35,127.51,102.38,129.3,100.3,128.5Z"/><path class="cls-11" d="M113.2,120c-.18.6-.88,1.26.22,1.68a6.67,6.67,0,0,1-5.16,2.67C108.44,121.24,111,120.87,113.2,120Z"/><path class="cls-12" d="M48.25,131.82l-1.39.24a12.69,12.69,0,0,1-6.78-2.68l4.62.77C46.13,130.17,47.69,129.92,48.25,131.82Z"/><path class="cls-13" d="M.23,64.32C1.11,67.14,1.5,70,.15,72.75.17,69.94.19,67.13.23,64.32Z"/><path class="cls-14" d="M62.53.6,66.67,1c-2.47,0-5,1.66-7.4-.16Z"/><path class="cls-15" d="M50,6.86C64.56,3.15,79,3.29,93.25,8.48c27.84,10.11,44.86,35.9,43,65.4-1.43,22.86-18.89,45.66-40.61,53-.64.22-1.25.55-1.88.83-1.11-1.34-1.12-1.36.3-2.53,2-1.68,4.93-2.07,6.61-4.32,3.34-1.71,7.06-2.69,9.92-5.38a11.71,11.71,0,0,0,3.35-4.23c2.62-1.76,3-4.67,3.75-7.37.78-7.83,5.56-14.09,8.13-21.2a53.72,53.72,0,0,0,3-20.46c-.07-1.5-1.09-2.59-1.82-3.79-1.14-3.73-2.84-7.42-1-11.41a3.44,3.44,0,0,1,.69-1c.83-.33,1.63-.56,2.14.54-.32-3.74-2.66-6.54-4.52-9.51-.49-.8-.35.59-.78.65-2.62.35-3-3-5.28-3.16-4.28-.83-8.7-.92-12.82-2.59a4.16,4.16,0,0,0-3.7-.17,5.49,5.49,0,0,1-3.83,0A24.77,24.77,0,0,0,78.49,33c-3.71,1.4-6.64,4.5-10.79,4.92-4.74,1.31-9.77.41-14.47,1.92-1.37.43-2.65,1.06-4,1.51-1.3.26-3.06-.32-3.34,1.83a1.94,1.94,0,0,1-1.39,1c-2.77-.19-2.56-2.26-2.38-4.08.29-3.06,2.7-3.18,5.21-3.08-2.85-3.67-6.08-3.63-9.18-1.23-4,3.08-6.53,7.81-11.64,9.6-2.3.8-2.62,2.81-1.2,4.88.55.82,1.42,1.41,1.8,2.36a3,3,0,0,1-.41,3.21,2,2,0,0,1-2.82.28A1.45,1.45,0,0,1,23.7,56c-2.64-2.15-5.26-1.58-7.92-.11-1.47.14-2.53-.92-3.82-1.34-1.14-.66-1-1.6-.54-2.59,1.14-2.77,2.31-4.87,5.94-2.52,2.29,1.5,1.63-1.36,2.27-2.27.72-1.26,1.78-2.49.24-3.88a1.62,1.62,0,0,1-.32-1.06c.72-2.4,3.59-1.76,4.81-3.42.39-.56.5-1-.44-.92-1.2.1-2.43.75-3.54-.25a2.74,2.74,0,0,1-.28-2.3c3-4,3-4,8.19-1.54-.13-1.86-1.38-2.43-2.61-3-1.32-.74-2.62-1.17-3.8.25-1,.77-2,1.41-3.06,2.12a2.63,2.63,0,0,0-1.37,2.52c.13,1.55.24,3-1.47,4-1.37.73-1.45,2.28-2,3.52a11.39,11.39,0,0,1-4,4.35c-1.58.88-2.75.8-2.88-1.38C14.52,26.89,28.27,14.21,47.47,7.18,48.31,6.86,49.19,7.34,50,6.86Z"/><path class="cls-16" d="M101.23,121.6a8.76,8.76,0,0,1-4.66,3.11c-1.15.41-3.1.91-2.8,3-17.37,6.71-34.52,5.63-51.49-1.48-1.71-.71-3.38-1.5-5.07-2.25l-11.37-7.81a22.34,22.34,0,0,1-8.56-7.46c-.64-1.49-2.46-2.21-2.63-4-2.3-2.65-3-6.33-5.54-8.81C6.88,92.52,6.18,88.71,6,84.76,3.76,81.2,3.42,77.25,3.54,73.2c.09-.85.12-1.89,1.11-2.06s1.28.89,1.59,1.64C7.37,75.54,7.82,78.51,9,81.24c.6,1.58,1,3.3,2.61,4.23.33.19.64.39,1,.59a12.15,12.15,0,0,1,1.88,1.23,7.73,7.73,0,0,1,2,4,7.69,7.69,0,0,0,1.21,3c.67,1.6-2.91,2.92-.31,4.65,1.33,2.66,4.37,3.64,6,6,.3,1.35-.34,3,1.17,4q1.29,1.41,2.73,2.7c1,1.12,2.71,1.12,3.82,2.13a12,12,0,0,0,6.76,5.43c3.51,1.27,6.37,3.88,10.11,4.54,3.87,2.31,8.15,3.12,12.57,3.41,3.08-1,6.1.49,9.23.22,4.53-.4,9-.71,13.25-2.51-1.31-1.15-3.12-1.57-4.76-2.31-.9-.41-2.42-.5-1.66-2.21,1.88-1.1,4-.87,6.06-1.29,2.68-.48,5.36-1.78,7.59,1.35,1.15,1.63,3.17.31,4.79.18a13.79,13.79,0,0,1,1.82-.12C98.3,120.74,100.14,119.6,101.23,121.6Z"/><path class="cls-17" d="M50,6.86C37.44,11.37,26.32,17.94,18,28.58A60.57,60.57,0,0,0,7.84,46.22c-.8,1.61,0,3.46-.74,5.09A74,74,0,0,0,5.22,64.22C4.49,67,4.75,69.85,4,72.58,3.51,73.7,5,75.47,2.84,76c-.9-7.66-.12-15.26.76-22.86,4.5-14.35,12-26.69,24-36.08,6.59-4.77,13.46-9,21.46-11Z"/><path class="cls-18" d="M48.25,131.82l-3.55-1.67.88-1a51.82,51.82,0,0,0,22.26,4.52c3.37,0,6.75-.25,10,.88-6.32,1.83-12.59.61-18.83-.44C55.38,133.51,51.84,132.59,48.25,131.82Z"/><path class="cls-19" d="M17.29,108.74a35.24,35.24,0,0,1,8.56,7.46L26.6,119c-4.7-2.37-7.85-6.36-10.94-10.43Z"/><path class="cls-20" d="M2.84,76c1.15-.91.46-2.29.85-3.39.31-.21.52-.13.62.23A54.5,54.5,0,0,0,6,84.76c-2.09.93-1.49-.91-1.76-1.76C3.51,80.74,2.63,78.48,2.84,76Z"/><path class="cls-21" d="M9.12,95.9c3.33,2,4,5.66,5.54,8.81C11.74,102.45,10.68,99,9.12,95.9Z"/><path class="cls-22" d="M76.37,120.91,83.79,124c.85.35,2.3.31,1.44,1.84-.46.82-1.1,1.78-2.38,1-.46-.3-1.2-.76-1.5-.59-6.23,3.49-12.88,2.11-19.45,1.81a3.66,3.66,0,0,0-1.22.36,5.08,5.08,0,0,0-2.92-2.86,1.54,1.54,0,0,1-.6-.92c.36-2.71,1.27-5.71-3.12-5.92-1.27-.67-2.57-1.4-4-1-2.13.56-4.09,1.32-4.63-2-.15-1-1.52-1.1-2.52-.41-.46.33-.83.79-1.3,1.1-1.52,1-2.87,4.11-4.64,2.23-1.52-1.62,1.46-3.21,2.46-4.8.88-1.18.27-2-.73-2.61a31.31,31.31,0,0,1-7.25-5.75c-1.91-2-3.78-3.38-6.1-.47a1.49,1.49,0,0,1-2,.49.91.91,0,0,1-.16-.11c-2.16-1.76-5.63-2.21-5.83-5.9A6.64,6.64,0,0,0,17.91,96c2-.59,4.48.61,6.55-1.77-3.4-.15-7.19,1.9-8.9-2.48,0-1.64-1.12-2.83-1.7-4.23,0-1.65.62-1.64,1.64-.82-1-2-2.3.7-3.4-.12h.07c-3.36-3-3.21-3.29.6-5.35,1.56-.84,3.71,0,4.75-1.88-.57-.89-1.79-1.63-.65-2.87.56-1.42-.7-1.23-1.4-1.53a5.81,5.81,0,0,1-1.55-.79c-1.19-1-2.55-2-2.36-3.85.47-2,2.6-1.48,3.68-2.48a6.53,6.53,0,0,0-4.1-.54,9.12,9.12,0,0,1-1.15.17,2.1,2.1,0,0,1-1.59-.64,2.38,2.38,0,0,1-.33-1.12c.41-2.71,3.65-3.84,3.72-6.74a1.66,1.66,0,0,1,.39-1,21.07,21.07,0,0,1,3.36-2.15c2.48-3.12,5.23-3.34,8.28-.81.67.56,1.33,1.9,2.38.57A2.31,2.31,0,0,0,26,52.44c-4.11-5.21-3.63-6.25,2.18-9.08a25.23,25.23,0,0,0,9.48-8.81c2-3,4.19-1.46,5.89-1.44,2.11,0,4.94,1.15,5.83,3.41.75,1.91-1.34,2.18-2.77,1.91s-3-1-3.38,1.1C42.94,41,42,43.08,44.64,43.71,44,46.4,41,47.38,40.28,50a8.32,8.32,0,0,0-.55,2.88c-.15,1.7-.76,3.3-.91,5-.58,6.3-3.59,10.49-10,11.91-1.75.39-3.69,1-3.44,3.52a14.81,14.81,0,0,0,3,7.85,8,8,0,0,1,1.67,5.92c.23,1.24-.31,2.54.35,3.74,1.6,2,3.66,3.55,4.7,5.94,1,2.07,1.56,4.46,4,5.5,1.81,1.17,4,1.51,5.83,2.62,2.16,1.37,3.33,3.79,5.51,5.14,1.87,1.28,4.13,1.07,6.19,1.62,1.14.4,2.2,1,3.37,1.32,2.65,1.06,5.77.75,8.06,2.83,1.35,1.14,2.45,2.62,4.14,3.36C73.4,119.89,75.35,119.34,76.37,120.91Z"/><path class="cls-23" d="M128,58.18c4,4.47,1.74,9.72,1.28,14.45a41.39,41.39,0,0,1-7.12,20,10.51,10.51,0,0,0-2.19,6.72c.07,1.75-.09,3.69-1.6,5.07-2.66.09-2.75-1.93-3-3.74s.28-3.69,0-5.54c-.8-2.7.14-5,1.47-7.32,1.48-2.57,3.62-4.81,4.25-7.85,2.5-2.87,1.28-7.06,3-9.83,1.89-3,1.35-5.46.69-8.27a1,1,0,0,0-.5-.62c-1.26.8-.46,3.44-2.87,3.15-3.13-3.27-2.2-9.51,1.74-11.73C124.69,54.59,125.43,57.17,128,58.18Z"/><path class="cls-24" d="M49.07,13.67c0-1.3-.12-2.59,1.8-2.65,5.91-.2,11.81-.47,17.71-.66.29,0,.6.47.89.73-2.19,2.62-5.15.17-7.59,1.13-2.2.63-4.51,0-6.32.49,3.13.85,6.76-1.72,10.26.42a1.19,1.19,0,0,1,.45,1c-1.84,2-4.44-.29-5.81,1.06,4.82-.39,4.82-.39,4.64,4.4-1.53,1.83-2.92,3.51-.5,5.86,1.09,1,1,2.82.13,4.28-1.57,1.21-2.54-.48-3.74-.86s-2.29-1.13-3.3.4c1.24,1.58,3.7-1.06,4.68,1.29a4.06,4.06,0,0,1,.23,1.21c-.25,2.31-1.71,3-3.81,2.87a36.18,36.18,0,0,1-4.53-.71c-1.29-.73-2.63-1.4-3-3A3.51,3.51,0,0,1,53.36,28c.59-1,0-2.51,1-3.16,2.59-1.78,1.47-3.28-.17-4.61.55,2.39-.33,4.9-.58,7.47-2.49-.14-2.5-.13-2.59-2.52-.13-3.3.41-6.63-.6-9.86A15.87,15.87,0,0,0,49.07,13.67Z"/><path class="cls-25" d="M61.84,11.74c2.42-1.57,5.13.29,7.61-.62,1.6,6.43.82,13,.77,19.46A4.28,4.28,0,0,1,66,34.93h-.19a106.5,106.5,0,0,1-13.37-.08c-2.6-.22-4.48-1.74-4.2-5.07.46-5.35.54-10.74.78-16.11a1.59,1.59,0,0,1,1.67.94c1,4.79-.1,9.6.11,14.4-.86,2.79,1.1,3.52,3.09,4.23,1.76.21,3.55.3,5.29.65,2,.4,2.43-.76,2.59-2.31.88-.44,1.63.12,2.44.31,2.67.64,4.2-.93,3.64-3.16-1.25-5-.28-10.2-1.8-15.12l-.22-.09C64.84,12.17,62.84,13,61.84,11.74Z"/><path class="cls-26" d="M116.58,95c.68,3.13-2.22,6.93,1.76,9.45-.5,2.87-.37,6.11-4.11,7.12-.12-.14-.24-.28-.37-.41-.91-.94,2.16-2.25-.3-3a2,2,0,0,1-1.06-1.25c-.55-2.9-.53-5.87-1.12-8.77-.37-1.82-.5-3.87,1.34-4.93S115.23,94.45,116.58,95Z"/><path class="cls-27" d="M6.24,50.64a6.56,6.56,0,0,1,1.6-4.42c.39,2.21,1.29,1.09,2.18.36,1.4-1.14,1.76-3.33,3.82-3.78l.57.24a1.89,1.89,0,0,1,.72,1.58c-.8,1.3-2.58,1.74-2.87,3.36.73-.77,1-2.54,2.92-1.64.48.22-.18-.67.15-1,1.85-1.29,3,.16,4.19,1.13l.29.53a3,3,0,0,1-.55,4.1c-1.57,1.39-2.06-.59-2.84-1.25-3.71-3.12-2.85,1.7-4.33,2.43A5.61,5.61,0,0,1,9.7,53,3.66,3.66,0,0,1,6.24,50.64Z"/><path class="cls-28" d="M29.54,22.12c1.59-2,2,1.11,3.24.74a2.35,2.35,0,0,0,.32-1.18c0-.8-.29-1.93.78-2.09s.74,1.31,1.39,1.79l-.05-.08A7.49,7.49,0,0,1,36,25.76c-.54,3.77-4.16,5.29-7.66,3.3h.06a10.59,10.59,0,0,1-2.22-2c-.57-.82-.57-2.06.51-1.78C30.14,26.27,28.14,22.74,29.54,22.12Z"/><path class="cls-29" d="M101.23,121.6c-1.48-1-3,.38-4.51-.1-1.2-4.08,2.39-2.58,4-3.43a15.47,15.47,0,0,0,9.27-5.26,7.81,7.81,0,0,1,1.91-1.31c.72-.29,1.43-.67,2.2-.15l.16.2c-.51,5.29-5.54,5.93-8.75,8.45C104.26,121,102.36,120.28,101.23,121.6Z"/><path class="cls-30" d="M119.12,33.45c2.58.23,2.47,3.29,4.4,4.2,2.12,1.37,5.26,2.35,2.24,5.73-1.72.52-3.4.76-4.86-.65-.66-.45.69-.71-.05-1.64-1.82-2.25-5.26-3.41-5.16-7C116.76,33.45,118.07,34.18,119.12,33.45Z"/><path class="cls-31" d="M20.71,35.22l-.08,2.23c1.06,1.31,2-.1,3-.09,2,0,1.53,1,.69,2-.87.88-2.12.58-3.13,1s-2.25.85-1.38,2.41l0-.08c.69.6,1.87,1.25,1.08,2.23-1.11,1.38-2.47-.27-3.75-.11a2.34,2.34,0,0,1-2.05-1.71c-.67-1.4-1.56-2.93.64-3.75,2.76-1,1.55-2.64.75-4.22a2.32,2.32,0,0,1,1.72-2.64A3.44,3.44,0,0,1,20.71,35.22Z"/><path class="cls-32" d="M52.31,39.28c4.9-2.63,10.51-.82,15.57-2.43,1,.87,2.36-.15,3.39.61,0,2.39-2.06,1.9-3.36,2.25-2.22.61-3.93,1.56-4.32,4A2.19,2.19,0,0,1,61.38,43c-1.55-2.47-4.3-1.49-6.46-2.23A4.4,4.4,0,0,1,52.31,39.28Z"/><path class="cls-33" d="M126,42.91c1.6-2.89-2-3.36-2.47-5.26.24-1.25-1.27-2.26-.34-3.93,3.3,4.72,7.08,8.92,7,15.18-2,.15-1-3-3-2.66C125.78,45.47,125.21,44.43,126,42.91Z"/><path class="cls-34" d="M78,32c6.1-3.44,12.48-3.54,19-1.55a12.48,12.48,0,0,0,1.62.29c.2.81-.29,1.19-.92,1.48-3.39.26-7.21-1.63-10-.17-3,1.58-5.87.95-8.74,1.5a1.47,1.47,0,0,1-1.17-.38A1.12,1.12,0,0,1,78,32Z"/><path class="cls-35" d="M20.71,35.22a6.43,6.43,0,0,1-2.53-2.69c1-1,1.83-2.17,3.42-2.18.07.12.19.23.21.36a1.21,1.21,0,0,1-.11.37c1.23-.84,2.42-1.34,3.85-.19.29.23-.3-.76.23-1,1.28,0,1.92,1.05,2.86,1.61,1.21.72,2,1.51.8,3s-2.14.92-3-.24C23.84,30.51,22.47,33.94,20.71,35.22Z"/><path class="cls-36" d="M128,58.18c-3.1-.32-5.13-1.58-4.59-5.14-.35-2-1.4-4.2,1.4-5.39,1.14,1.28,1-1.48,2-.63C126.27,50.84,126.26,54.6,128,58.18Z"/><path class="cls-37" d="M52.31,39.28c.93.13,2-.22,2.62.9a5.12,5.12,0,0,1-2.32,1.87c-4.06,2-8,4-11.07,7.49-.64.72-.73.65-2.2,0a12.5,12.5,0,0,1,5.26-6l1-.59c.46-1.49,2-1.37,3-2C49.57,39.74,51.1,39.87,52.31,39.28Z"/><path class="cls-38" d="M28.33,29.06c4.12,2.47,8.31-1.58,6.89-7.76,2.51,4.33,1.2,8.55-3.25,10.27C29.63,32.47,29.24,30.34,28.33,29.06Z"/><path class="cls-39" d="M119.12,33.45c-.91,1.06-2.26.64-3.38,1a2.53,2.53,0,0,1-1.78.34c-2.53-.7-5.27,0-7.72-1.23-.36-.14-.72-.31-1.07-.48-1.34-.7-3-.91-3.87-2.35,1.73-1.72,3.63-.32,5,.23C110.5,32.59,114.84,32.74,119.12,33.45Z"/><path class="cls-40" d="M126.84,47c-.71,0-.49,2-1.74.79-1.42-3.66-4.19-3.07-7-2.22a1.51,1.51,0,0,1-1-1.5c.6-1.84,1.16-3.78,3.7-2,1.65.9,3.51.42,5.23.8l1.17,3.33A3,3,0,0,0,126.84,47Z"/><path class="cls-41" d="M29.54,22.12C29,23.79,31,25.3,29.81,27c-1.43.63-1.94-1.42-3.71-1.16.84,1.17,1.56,2.2,2.29,3.23-1.43,0-2.15-1.21-3.18-1.88-1.54-1-.44-2.56.27-2.43C27.92,25.22,27.94,22.55,29.54,22.12Z"/><path class="cls-42" d="M78,32l.09,1.29c.22,2.13-1.82,2-2.87,3-.65.33-1.3.66-1.93,1s-1.25.77-2,.38c-1.13-.31-2.52.47-3.39-.85C71.84,36.53,74.46,33.29,78,32Z"/><path class="cls-43" d="M25.78,29.9l2.5,3.29c-2.73-.15-5.41-5.64-8.1-.19l1.42-2.64C22.66,27.1,24.3,29.26,25.78,29.9Z"/><path class="cls-44" d="M35.27,18.83c-.26-1.44.06-2.49,1.76-2.62-.53,2.47,3.63,2,2.85,4.37-.29.89-1.4,2-2.56.66-.7-.84-.93-2.06-2.12-2.48Z"/><path class="cls-45" d="M16.46,35.17l1.43-.5c-1.27,1.43,1.85,3.86-.71,4.63-2.4.72-1.55,2.24-1.68,3.63a1.3,1.3,0,0,1-1.72-.19v.06c-.81-1.51-.4-3.3.93-3.6C17.63,38.56,16,36.53,16.46,35.17Z"/><path class="cls-46" d="M15.5,55.67c-.17,2.1-1.69,2.35-3.34,2.44-2.28-1.39-2.13-2.77,0-4.16C13.93,53.25,14.35,55.16,15.5,55.67Z"/><path class="cls-22" d="M12.16,54c-1.51,1.39-.95,2.77,0,4.16l-.11.13A2.64,2.64,0,0,1,9,58.67c-1.86-2.34-.12-4.38.53-6.52l2.57.17C11.92,52.88,11.14,53.47,12.16,54Z"/><path class="cls-47" d="M19.84,42.8c-1.52-.71-2.71-1.58-.28-2.57a24.09,24.09,0,0,1,4.45-1,.68.68,0,0,1,1-.07.5.5,0,0,1,.15.17C24.23,41.84,20.48,39.9,19.84,42.8Z"/><path class="cls-48" d="M17.33,44.44c.12-.86.64-.67,1.2-.47s1.15,1.51,2,.52c.19-.23-.45-1.16-.71-1.76,1.18,0,2.47.41,2.43,1.58A2.56,2.56,0,0,1,19.86,47h0C18.84,46.32,17.7,45.74,17.33,44.44Z"/><path class="cls-30" d="M101.3,30.74l4.31,1.65c-3.61,2.2-6.26,1.94-7.78-.78l.82-.82C99.53,30.74,100.44,32,101.3,30.74Z"/><path class="cls-49" d="M25.14,39.38,24,39.28c.2-.54,1.47-1.47-.43-1.26-1.06.13-2.3,1.37-3-.57a24,24,0,0,1,3.27-.68c.89-.07,2-1.07,2.66,0S26.08,38.74,25.14,39.38Z"/><path class="cls-38" d="M35.27,21.38c-3.26-3.58-.79,2.45-2.49,1.48-1-4.34-.85-4.65,2.49-4l-.07-.07C35.22,19.63,35.25,20.5,35.27,21.38Z"/><path class="cls-22" d="M48.66,41c-.54,1.36-1.94,1.45-3,2-.18-.77-1.28-1.75-.49-2.21A3.59,3.59,0,0,1,48.66,41Z"/><path class="cls-50" d="M40.57,113.89C39.84,115.6,37.5,116,37,119c1.85-1.67,3.08-2.86,4.4-4,1-.78,1.3-2.7,3.33-1.57,1.78,1,2.62,2.12,1.27,4.71,3.23-1.78,5.9-3.22,8.43-.35a1.13,1.13,0,0,1-.76.8c-4.94,0-5.37.36-5.88,5a1.24,1.24,0,0,1-.79.8,56.84,56.84,0,0,1-16-8.13c-1.15-.85-.71-1.63,0-2.45l.55-.19c2.63-.19,5.46,1.9,7.9-1.29C40.29,111.26,40.84,112.81,40.57,113.89Z"/><path class="cls-51" d="M23.08,105.28c5.27-4.17,5.47-4.37,10.24.29,1.93,1.89,4.24,3.12,6.15,4.92-.48,2.79-2.8,1.15-4,1.28-1.93.2-3.39.64-4.55,2.14H31a4.09,4.09,0,0,1-4.91-1.68,1.86,1.86,0,0,1,1-.63c2.81.2,2.81-2.07,3.39-3.84a.67.67,0,0,1,.52-.48c-.62-.44-.47.36-.75.48-1.27,2.08-2.71,1.94-4.28.38a1.52,1.52,0,0,1-.31-2.13,1.42,1.42,0,0,1,.51-.43c-.74.5-1.75,1.21-.29,2.47.14,1.34-.82,1.51-1.78,1.68C22.21,108.56,20.1,107.5,23.08,105.28Z"/><path class="cls-50" d="M54.4,117.87c5.35.61,5.35.61,3.14,7.2-2.12-.09-1-1.5-1.18-2.27a3.45,3.45,0,0,0,0,2.47,1.41,1.41,0,0,0,1.3.86c0-.38-.6-.66-.22-1.12,2.62-.36,4,.47,3.19,3.35-4.86-.3-9.63-.89-13.71-3.92l.5-.5c.19-.6,1.26.4,1.14-.52-.59-4.72-.09-5.23,5.15-5Z"/><path class="cls-52" d="M8.68,66.46l1.69.24a3,3,0,0,1,.9,2.87c-.29,2.92,1.65,4.92,3,7.18.69,2.59,3.24.87,4.57,2,.5.91,1.75,2.32-.32,2.39-2.54.09-4.71,1-7,1.76-1.31.43-1.35.32.65,3.63C9,86.76,8.88,84.42,8.6,82.24a5.1,5.1,0,0,1,.46-1.62c1.34-2.27,0-4.22-.77-6.23a7.28,7.28,0,0,1-2.71-4.94,2.08,2.08,0,0,1,.47-1.07,2,2,0,0,1,1.24-.06,3.16,3.16,0,0,1,1.55,1.07c.07-.66-.56-1.1-.54-1.76A1.75,1.75,0,0,1,8.68,66.46Z"/><path class="cls-53" d="M9.44,81.22l-.88,1c-2.11-2.91-2.13-6.54-3.4-9.72-.63-1.55-.54.31-.88.37a3,3,0,0,1-.62-.22C4,69.77,3,66.81,4.21,64c2.12,1.25.21,3.93,1.89,5.34a6.33,6.33,0,0,0,3.29,4.4C7.72,76.23,10.1,78.74,9.44,81.22Z"/><path class="cls-54" d="M15.52,91.62c2,1.8,4.3,2.8,6.87,1.38,1.87-1,3.39-.22,3.84,1.19.52,1.63-1.53,1.58-2.59,2-1.79.8-3.62,1.69-5.45,0-.8-.4-.16-1.68-1.17-2C14.93,94.31,15.57,92.74,15.52,91.62Z"/><path class="cls-55" d="M95.23,121.48c-2.64.73-5.25,2.48-7.18-1.55-1.17-2.42-3.28,1-5,.13,0-.92-.4-1.93.49-2.7,2.13-1.54,4.22-1.07,6.31.09,1,.6,1.71,2.46,3.39,1a2,2,0,0,1,2.51,1.23A1.93,1.93,0,0,1,95.23,121.48Z"/><path class="cls-56" d="M83.24,118.16c.2.66.8,1.38-.21,1.9l-6.66.85c-1.64-.54-3.51,0-5-1.08.13-2,1.82-1.82,3-1.91,2.07-.15,4.06-.75,6.13-.82A3.54,3.54,0,0,1,83.24,118.16Z"/><path class="cls-57" d="M24.07,109.68l1.69-1.85h0c1.54.35,3.18,1.23,4.22-.86,1.37,2.76.48,4.45-2.44,5.2H26.1Z"/><path class="cls-58" d="M17,94.33c1.13.2,1,1.13,1.17,1.94.92,1.41,0,2.25-.94,3.11C13.54,98.09,13.53,97.81,17,94.33Z"/><path class="cls-59" d="M95.23,121.48l.1-1.87c.38-1.82,1.24-3,3.35-2.81,1,.49,2.65.28,2.4,2.16-.87,1.84-4.61-1.23-4.36,2.54Z"/><path class="cls-60" d="M12.06,86.45c2.39-1.94,2.39-1.94,4.54.9-.92,1.09-2-2.21-2.78,0C13,87.46,12.28,87.45,12.06,86.45Z"/><path class="cls-61" d="M6.1,69.32c-.8.29-1.67.74-1.73-.72S4.26,65.52,4.21,64a41.91,41.91,0,0,1,2-13.34c1.15.36,1.73,2,3.25,1.51,1.12,2.16-.59,3.92-.82,5.9-.64,2-2.89,3.64-1.58,6.17.09,1.54.25,3.09-.95,4.34C6.12,68.81,6.11,69.06,6.1,69.32Z"/><path class="cls-62" d="M38.66,102.74c-3.48-.47-3.53-3.47-4.35-5.9.4-2-2.18-2.72-2.1-4.61.76-1.47,1.18-3.65,3.24-3.42,1.91.22,2.07,2.23,2.71,3.85s.55,4.26,3.89,4.24c2,0,1.48,3.09,2.54,4.55a2.46,2.46,0,0,1,.1,2.3C42.54,104.3,40.67,103.08,38.66,102.74Z"/><path class="cls-63" d="M29.06,87.47c.57-3.85-2.51-6.31-3.62-9.53-.5-1.44-1.38-2.77-1.29-4.38A1.93,1.93,0,0,1,26,72.35h.42c5.58-.19,5.66-.19,5.68,5.45,0,1.23,0,2.2,1,3,1.67,1.32,1.81,2.6-.09,3.83A5.73,5.73,0,0,0,31,86.52C30.5,87.09,30.08,87.88,29.06,87.47Z"/><path class="cls-64" d="M39.34,49.58c4.15-3.15,8.06-6.67,13.09-8.46,1.94.56,2.42,1.36.47,2.65-1.32.88-3.37,1.34-2.41,3.71,0,2.39,1.1,6-3.59,2.88-1.29-.85-2.41,1-3.16,2.12-.89,1.36-1.21,3.22-3.19,3.63a2.28,2.28,0,0,1-1.17-.34c-.83-1.07.29-2.53-.72-3.57C38.6,51.25,38.39,50.27,39.34,49.58Z"/><path class="cls-65" d="M38.66,52.2c1.48.82.79,2.28,1,3.47.86,7.73-1.31,11.59-8.17,14.27-2,.78-3.8,2-5.78,2.77l-1.6.85c.19-1.56-.74-3.89,1.67-4.18,9.29-1.14,12-7.45,12.64-15.5C38.51,53.32,38.6,52.74,38.66,52.2Z"/><path class="cls-66" d="M30.91,113.91c.31-.92.59-1.84.93-2.75.21-.55-.4-1.61.71-1.57.77,0,1.73.31,1.1,1.56-.19.37.36.93.44.71,1.2-3,3.72-.49,5.38-1.37,1.45.79,2.49,1.7,1.1,3.4-.28-.4-.43-1.84-.73-1.1-.74,1.8-3,1.64-3.56,3.4-.08.26-.49.42-.75.62C35.56,113.34,32,115.67,30.91,113.91Z"/><path class="cls-67" d="M6.15,63.28c-1.48-2.86.22-4.19,2.52-5.23l3.38.19c2.63,3.6-2.27,4-2.69,6.34a5.67,5.67,0,0,1-.67,1.35C5.65,67.14,7.09,64.08,6.15,63.28Z"/><path class="cls-68" d="M49.68,110.52c-2.34-1.06-3.33-3.46-5.08-5.1,1.34-2.45,3.94-.92,5.77-1.84,1.41.79,4.19,4.18,5.05,6.16C53.84,112.06,51.55,110,49.68,110.52Z"/><path class="cls-69" d="M80.68,118.11c-3,1.1-6.43.07-9.34,1.72a8.85,8.85,0,0,1-3.51-3.38,3.66,3.66,0,0,1,3.4-1.61c2,.39,4.22-.27,6.17.65C78.66,116.08,80.55,116,80.68,118.11Z"/><path class="cls-70" d="M71.1,115.57l-3.27.88c-2.47-2-5.76-1.41-8.43-2.77-1-1.54.06-1.92,1.23-2s2.47.2,3.71.21C66.84,112.74,69.84,112.48,71.1,115.57Z"/><path class="cls-71" d="M49.68,110.52c1.52-1.71,3.53-.5,5.28-.89,2-1.49,3.93-2.32,5.33.71-1,1.06-2.07,2.09-3.71,2C54.23,111.94,51.56,112.74,49.68,110.52Z"/><path class="cls-72" d="M13.65,77.12c-3.1-1.38-2.9-4.26-3.17-6.94a1.23,1.23,0,0,1,1.75,0l0,0c0,1.74,1.6,2.36,2.48,3.49a6.8,6.8,0,0,1,1,3.14c-.06.73-.21,1.4-1.14,1.39C13.91,78.2,13.7,77.74,13.65,77.12Z"/><path class="cls-73" d="M50.71,104.34c-1.75,2-4.36-.86-6.11,1.08-2.06-.72-4.19-1.26-5.94-2.67,2.15-1,4,.59,6,.71C46.93,102.06,49,102.11,50.71,104.34Z"/><path class="cls-62" d="M29.06,87.47a2.15,2.15,0,0,0,1.09-1.92c2-.19,3.49.7,3.71,2.53a2.84,2.84,0,0,1-2.21,3.34,3.18,3.18,0,0,1-.62.06,4.86,4.86,0,0,1-2-.72C28.23,89.67,29.68,88.57,29.06,87.47Z"/><path class="cls-53" d="M6.15,63.28c.9.84.68,2.74,2.54,2.65a.62.62,0,0,1,0,.53c.35,1.59,1.39,3.1.26,5.32-.54-1.66-1.17-3-2.8-3.22Z"/><path class="cls-74" d="M13.65,77.12c.48.41,1.13,1.23,1.28-.13a20.29,20.29,0,0,0-.18-3.31l.85.7c.71,1,2.85.66,2.48,2.65-1.48,1.3,1.76.57.72,1.68a28.54,28.54,0,0,1-4.41.53C12.89,79.18,11.55,78.64,13.65,77.12Z"/><path class="cls-75" d="M12.27,70.19H10.48c0-1.16-.07-2.32-.11-3.48l0,.05a25.8,25.8,0,0,1,6.88.81C16.64,70.48,13.49,68.53,12.27,70.19Z"/><path class="cls-76" d="M56.58,112.37c1-1,1.84-2.1,3.44-2a7.28,7.28,0,0,1,2.13-.26c1.2.54,2.25,1.21,2.31,2.72-1.49,1.49-3.81-2.15-5.06.82A4.32,4.32,0,0,1,56.58,112.37Z"/><path class="cls-77" d="M29.05,90.74h2.17a9.87,9.87,0,0,1,1.48,1.55c-.12,1.75,3.55,2.14,1.61,4.54Z"/><path class="cls-78" d="M24.43,102.74c.1-.31-.59.28-1.43.29a1.93,1.93,0,0,1-2-1.85,2,2,0,0,1,0-.25,1.61,1.61,0,0,1,1.55-1.69,1.73,1.73,0,0,1,.45.05c1.9.48,0,.82-.06,1.3C22.45,102.88,25.11,99.18,24.43,102.74Z"/><path class="cls-52" d="M17.2,67.56c-2.35.22-4.72.58-6.88-.81C12.73,66,15.14,65.26,17.2,67.56Z"/><path class="cls-79" d="M18.08,77c-.21-1.45-3.25-.27-2.48-2.65C18.84,73.05,18.64,74.85,18.08,77Z"/><path class="cls-80" d="M118.32,45.25c1.79-2.46,3.93-1.23,6-.57s.6,2.06.75,3.13c-3,.94.13,3.9-1.71,5.23a9.38,9.38,0,0,0-1.61,11c1.84,2,.29,4.13.09,6.19a10.77,10.77,0,0,1-.41,1.21,32.84,32.84,0,0,1-17.59,16.64,56.16,56.16,0,0,1-7.75,2.64,4.62,4.62,0,0,1-2.47-.3c-3.05-2.83-2.87-6.58-2.78-10.22,0-2.24.68-4.47-.29-6.67-.28-.61.12-1.25.2-1.88-.32.6-.53,1.33-1.43,1.31-1.66-1.38-1.17-4.06-3.18-5.22a9.05,9.05,0,0,0-5.6-2.44c-3.91-2.07-4.06-5.63-3.75-9.38,0-1.06,1.64.5,1.36-.74-.59-2.56.17-5.33-1.21-7.76-.14-.75.13-1.88.64-1.79,2.15.38,2.1-2,3.5-2.48a2.72,2.72,0,0,1,2.85,2.09c.61,2.85-.91,5.58-.5,8.42a10.75,10.75,0,0,0,.15,2.12c.66,2.09.73,5.61,3.14,5.34,2.63-.29.9-3.42,1-5.32a34,34,0,0,0-.61-8,4,4,0,0,1,2.09-4.67,4.43,4.43,0,0,1,3.28-.07,4.54,4.54,0,0,1,2.36,2.23c-.21,5.28-.64,10.58.16,16.64,3-4,3.86-7.7,2.58-11.82a3.19,3.19,0,0,1-1.85-2.7A3.51,3.51,0,0,1,96,46.2c1-2.34,2.32-4,5.24-3.14,2.23,1,3.13,2.56,3.2,5.23.09,3.12-.18,6.38,1,9.43.76,1.55.4,2.66-1.26,3.27-2.32,2.89-5.39,4.81-8.45,6.81-1.42.93-1.35,2.91-.73,4.32.88,2,2.48.49,3.69.22a7.82,7.82,0,0,0,5.94-5.48c1.48-4.29,3-8.55,2.46-13.23-.08-2,.18-4-.75-5.86a2.9,2.9,0,0,1,.56-3.54,5,5,0,0,1,4.41-1.2,5.83,5.83,0,0,1,3.35,3.71c.12,2.56.18,5.13.34,7.7-1.14,6.16-2,12.38-5.75,17.72-1.68,2.42-3.67,4.34-6.63,5A34.27,34.27,0,0,0,96,79.58c-1.15,1.23-1.87,2.72-.78,4.15s2.74,1,3.93.4c2.61-1.23,5.83-1.3,7.75-3.9,7.21-5.89,9.6-14,10.36-22.77.24-2.81,1.25-5.54.83-8.4C118.08,47.79,117.32,46.45,118.32,45.25Z"/><path class="cls-81" d="M116.58,95c-1.5.42-2.57-2.2-3.67-1s-.84,2.83-.35,4.64c.74,2.76.45,5.79.6,8.71-3,.63-5.67-.36-8.4-1.23-4.39-1.74-7.47-4.69-8.68-9.37-.42-2.85-1.26-5.89,3-6.57,1.18-.38,2.39-.69,3.57-1.11,5.52-2.07,10.37-5,13.84-10,.69-1,1.22-2.32,2.76-2.41,1.46.49,2.75,1.13,2.56,3,.58,3.82-2.62,5.87-4.13,8.7C116.58,90.48,115.21,92.46,116.58,95Z"/><path class="cls-82" d="M121.84,79.65,119.18,77c-1-2.48,2-3.77,1.8-6v.09a20.13,20.13,0,0,0,2.12-8.18,5.9,5.9,0,0,1,1.43-3.89c2.9,2.6,1.13,6.52,2.69,9.5-2.52.94-3.57,3.83-3,5.32C125.4,77,123.1,78,121.84,79.65Z"/><path class="cls-83" d="M124.49,59c-1.3,2.59-.57,5.54-1.41,8.19-.44,1.39-.39,3.17-2.14,3.88q.39-3.52.83-7C123.51,62.84,121.61,59.65,124.49,59Z"/><path class="cls-84" d="M66.1,13.61c1.45,1,1.22,2.52,1.61,4,1,3.6-.67,7.45,1.54,10.94.65,1,0,3.55-1.68,4.45-2.16,1.19-4.07,0-5.75-1.41,0-.22,0-.44,0-.65.58-1.44,2.25,0,3-1.15.24-3.41-.45-6.77-.43-10.16,1.3-5.45-3.18-3.62-6.47-4C61,13.48,64,15.83,66.1,13.61Z"/><path class="cls-85" d="M50,29.19l.78-14.58c2.36,3,.82,6.55,1.19,9.83.15,1.34-.94,3.17,1.37,3.73v-.06c-.53.93-.72,2.08-1.77,2.66C49.91,31.27,50.52,29.67,50,29.19Z"/><path class="cls-86" d="M64.37,19.62c.73.09,1.27.15,1,1.26-.61,3,.67,6.12-.3,9.15-.29.27-.5.2-.64-.16,0-2.4-.17-4.59-2.62-6.11C60.38,22.85,60.59,22.52,64.37,19.62Z"/><path class="cls-87" d="M64.47,29.87a2.5,2.5,0,0,1,.64.16c-.85,1.2-2.22.46-3.27.9-2.22-.11-4.67.8-6.33-1.55C58.72,25,61.55,28.18,64.47,29.87Z"/><path class="cls-88" d="M53.3,28.17V18.49l5,4.31c-2.48,1.09-3.83,3.13-5,5.31Z"/><path class="cls-89" d="M61.84,11.74c1.1,1.14,4.08-1.9,4,1.81-4.5-1-9.15.64-14.8-.78C55.33,11.28,58.67,12.21,61.84,11.74Z"/><path class="cls-90" d="M50,29.19c.51.53,1,1,1.52,1.58.44,1.2,2.45.85,2.46,2.47C50.77,33.74,49.3,32.49,50,29.19Z"/><path class="cls-91" d="M99.55,90.86c-3.84.68-2.42,3.75-2.73,6,.73,6.36,2,7.81,8.13,9.29,3.11.19,6.06,1.17,9.06,1.9.22-.73.12-1.83,1.38-1.49a1,1,0,0,1,.81,1.15,1.09,1.09,0,0,1-.22.49c-.59,1.06-1.27,2.09-1.91,3.13l-1.82.76c-6.65-1.61-13.51-2.09-20.18-3.63,1.91-5.87.69-11.8.37-17.72,0-.64.34-1,1.06-.88h2.59C97.17,90.47,98.71,89.43,99.55,90.86Z"/><path class="cls-92" d="M114,108.07l-9.17-1.19c-.7-.19-1.26-.56-1.07-1.37.1-.45.56-.46,1-.38l8.41,2.17Z"/><path class="cls-93" d="M15.39,44.91C15.54,47,18,47.28,19,50.09c-3.56-3.57-6.43-4.33-8.81.53,2.24-1.92,1.47-5.58,4.74-6.15C15.23,44.42,15.39,44.57,15.39,44.91Z"/><path class="cls-15" d="M15.39,44.91a.69.69,0,0,0-.51-.44l-1.1-1.73,1.72.19a2.64,2.64,0,0,0,1.83,1.51,5.07,5.07,0,0,1,2.51,2.63C17.91,47.27,17.06,45.25,15.39,44.91Z"/><path class="cls-94" d="M91.84,107.74c4.51.63,9,1.34,13.55,1.88,2.52.31,5,.47,6.91,2.5l-1.55,1c-1.14.71-2.37.41-3.58.31-8.7-.47-17.4.2-26.1,0-3.18-.32-6.39.21-9.55-.41a3,3,0,0,1-1.24-.8,2.14,2.14,0,0,1,1.29-2.38c5.17-.7,10.3-1.67,15.4-2.83C88.57,106.64,90.32,106.48,91.84,107.74Z"/><path class="cls-91" d="M108,112.32l2.66.79c-2.12,3.74-5.7,5.07-9.62,5.85l-2.44-1.51c-.43-.71,0-1.09.54-1.44,2.13-.57,4.63.43,6.45-1.48A6.18,6.18,0,0,1,108,112.32Z"/><path class="cls-95" d="M97.84,31.6c2.42,2,5.12,1.14,7.78.78h0c2.39,2.62,5.65,1.37,8.51,1.91l1.62.15c1.74,2.38,4.43,3.88,5.91,6.51.73,1.3-.61.76-.89,1.15-2-.62-2.78.78-3.45,2.26a1.2,1.2,0,0,1-1.08.32c-3.18-1.61-6.37-3.07-9.81-.61a3.76,3.76,0,0,1-1.2.11c-3.22-1.57-6.46-2.13-9.74-.17-2.78-.86-5.56-2.52-8.3.09a3.4,3.4,0,0,1-2.26.68c-2.61-2.49-5.42-2.5-8.39-.69a3.92,3.92,0,0,1-1.76.23,7.33,7.33,0,0,1-2.23-.84c-2.11-.27-4.21-2.08-6.32,0a5.49,5.49,0,0,1-.64,1,1.62,1.62,0,0,1-1.08.32,1.3,1.3,0,0,1-.89-1.35c-.75-1.9-1.68-3.64,1.78-3.88,2-.13,3.92-1.2,5.88-1.84l1.63-1c2.2-.25.35,1.69,1.19,2.2,1.21-.88.59-2,.37-3,1-1.18,2.85-1.08,3.63-2.54,1.34-.58,2.42-2.09,4.21-.92,2.54,1.65,3.52-2.08,5.83-1.74C91.34,31.13,94.59,31.3,97.84,31.6Z"/><path class="cls-29" d="M49.84,47.05c-1.15-1.93-1.15-1.93,1.74-3.82.77-.5,3-.42.88-2.11l2.5-.94c2.24.94,5.82-1.84,6.84,2.48-1.47,1.76-3.68.33-5.34,1.26-2,1-2.74,4.59-6,3.23Z"/><path class="cls-96" d="M55.7,42.74c2-1,4,.08,6.07-.08l1.84.76.86,1c.13.89-.41,1.19-1.15,1.31C60.65,45.09,57.28,46.19,55.7,42.74Z"/><path class="cls-30" d="M114.12,34.3c0,.81,2,2.66.39,2.13-3-1-7-.4-8.9-4C108.18,34.21,111.58,32.34,114.12,34.3Z"/><path class="cls-97" d="M116.74,44.44a1,1,0,0,1,.57-.07l1,.88.84,3.61a2.31,2.31,0,0,1-1,.48,6.48,6.48,0,0,1-3.15-.27c-.6-.47-.42-1.29-.82-1.85l-2.74-3.48C113.57,41.57,114.84,44.92,116.74,44.44Z"/><path class="cls-98" d="M74.46,35.87c3.53,1.67,1.29,3.5-.14,4.78-1,.9-2.12.23-2.12-1.41,0-.93,1.74-1.36.7-2.55Z"/><path class="cls-99" d="M38.51,119c2.87-1.7,4.13-4.88,5.71-3.85,2.35,1.54-.12,4.54.57,7.64C42.67,121.26,41.9,119.17,38.51,119Z"/><path class="cls-100" d="M53.76,118.39c-.94,1.08-2.12.3-3.18.42-.88.1-2,.63-1,1.45,1.29,1,1.32.52-.16,1.53-1.9,1.3,1.52,1.65,1.55,3-1.42.72-2.37-.46-3.52-.85-.82-1.77-1.12-3.47.48-5C49.77,117.06,51.72,117.38,53.76,118.39Z"/><path class="cls-101" d="M27.52,112.18c2.17-1.1,3.08-2.78,2.44-5.2,1.14-1.24,2.21-.89,3.59.44-1.5.38-3.09.38-2.72,2.66S29.56,112.93,27.52,112.18Z"/><path class="cls-102" d="M25.76,107.83l-2.85-.22,5.32-5.09c.18,2.51-2.84,2.91-2.49,5.32Z"/><path class="cls-103" d="M57.49,125c.12,1,1.19.94,2.53,1.52-5.54.07-5.85-.94-2.91-6.8,1.41,1.69-1.73,3.73.43,5.34Z"/><path class="cls-104" d="M54.63,120c.76,2.19-.35,3.79-.89,5.68C51.46,123.24,52.84,121.74,54.63,120Z"/><path class="cls-105" d="M9.44,81.22c-.26-2.5-3.7-5,0-7.5C9.37,76.22,12.53,78.74,9.44,81.22Z"/><path class="cls-29" d="M99.77,116.44l-1.13,1c-2-.65-1.9,1.91-3.31,2.16-.71-1.11-1.74-.45-2.65-.47-.77-.56-1-2.51-2.59-.93-2.28-.32-4.55-2-6.85,0H80.68c-2.72-2.62-6.5-1.24-9.58-2.54l-6.64-2.71-2.62-2.39c-1,.45-1.34-.39-1.46-1-.63-3.11-1.28-5.61-5.5-3.47-1.29.65-1.75-1.53-1.07-2.31,2.93-3.34,1.41-8.42,5-11.6,2-1.78-2.31-3.07-1.23-5.43a19.26,19.26,0,0,0-3.38,4.73c-.65,1-1.14,2-.27,3.14,1.55,2,2,3.58-1.15,4.24.12,4.28-3.21,2.61-5.28,3-1.21.24-2.44,1.06-3.66,0a5.48,5.48,0,0,0-1-1.38c-.85-.65,1.12-4.66-2.43-2.07-1.21-1.79-4.37-2.45-3.27-5.58.63-1.8-1.32-2.27-1.44-4l-3,3.5a1.74,1.74,0,0,1-1.49-1.55C36,88,31.66,87,30.15,85.52c.48-1.19,1.56-1.44,2.63-1.85,2.19-.83.2-1.58-.15-2.35-1.19-3.51,1.46-3.37,3.53-3.55.75-.07,1.22,1.07,2.09-.52,2.46-4.46,3.25-4.31,5.89.47.48-2.85-4.45-4.66-1.19-7.8a11.63,11.63,0,0,0-2.06,2.86,2.41,2.41,0,0,1-3.1,1.39,2.73,2.73,0,0,1-.48-.25c-1.4-.72-2.2-2.17-1.45-3.57.92-1.75,1-4,2.66-5.24,3-2.15,3.08-4.79,1.92-7.86a1.82,1.82,0,0,1,0-1.64c1.85-.82,1.68-2.86,2.57-4.26,1.91-3,4.42-3.21,6-.44,1.5-1.06.58-2.62.87-3.89h0c1.58-1,2.89.67,4.39.46,1.53.92,1.59,2.54,2,4,1.68,6.31,2.64,12.78,4.85,19,3,8.27,8.21,14.16,16.28,17.57a30,30,0,0,0,4.35,2.19c2,1.37,2.15,4.26,5,5.26,1.41.49-.19,3.29-.85,5-2.23,3.47-5.77,4.73-9.48,5.93-2.8.92-6.37,1.41-6.07,5.76h.05a41.6,41.6,0,0,0,10.4.13,188.58,188.58,0,0,1,27.31-.09l-1.73,2.5C104.38,116.37,102,115.92,99.77,116.44Z"/><path class="cls-106" d="M90.09,118.21A3.9,3.9,0,0,1,91.78,115c1.61,1.12.55,2.78.9,4.12,0,.52,0,1.39-.67,1.16C91.13,120,89.63,119.89,90.09,118.21Z"/><path class="cls-107" d="M43.84,101.88a13.33,13.33,0,0,1,7.95-1c.67-1.86-2.55-1.34-1.48-3.09s1.85-.14,2.79.2c.23.09.75-.28,1-.57A.93.93,0,0,0,54,96c-5.16-3.49.88-5.45,1.41-8.13a5.44,5.44,0,0,1,2.86-3.23c.55,1.62-1.09,3.81,1.92,4.84,1.83.63.8,2.84-.52,3.81a5.61,5.61,0,0,0-2.54,5.82c.38,2.6-2.54,3.82-3,7,1.92-1.5,3.16-3.32,5.36-1.84,1.86,1.27,2,2.7,1.32,4.62-.13.39.73,1.11,1.13,1.68-.66.83-1.26.72-1.82-.11-1.32-2.63-3.44-.09-5.06-.77-1.47-1.72-3.27-3.18-4.25-5.29-1.89-1.14-4-.7-6-.88Z"/><path class="cls-108" d="M40.4,55.64c3,4.83,3,6.37-.76,9.6-1.86,1.61-1.26,4.36-3.23,5.9-.36.28.4,1.91,1.45,2.26s1.66.26,2.17-1.12c.76-2.11,2.48-3.61,5.38-4.72-1.66,2.83-4,5.1-.76,7.71.81.66,2.16,2.42,0,3.36-2,.87-2.17-.93-2.57-2.21-.16-.52-.29-1-.61-2.17-1.56,2.35-3.37,3.88-3.89,6.26-1.34.09.27-2.51-1.83-1.85-1.5.47-3.13.56-3.14,2.69-4.33-2-.25-5.63-2.33-8.69-.91-.42-2.91,2.3-4.55,0,.79-3.31,4.18-3.43,6.29-4,4.65-1.18,5.68-4.4,6.51-8.17.36-1.64.76-3.27,1.15-4.9A3,3,0,0,0,40.4,55.64Z"/><path class="cls-109" d="M85,100.24c.54-1.87,2.82-3.94-1.18-5.09-1.08-.3-1.54-2.76-2.28-4.24,1.24-1.51,2.91.36,4.3-.56-2.37-.55-4.93-.27-6.9-2,.93-1.73,1.19-3.07-1.24-3.93-1.2-.42-2.54-1.37-2.29-3.15,2-1.23,3.41.45,5.08.93,1.93.56,3.42,2.71,5.79,1.61a5.48,5.48,0,0,0-.72-3.43c-1.37-3-5.2-2.24-7-4.56-1-1.06-2.33-1.9-2.34-3.6,1.9-2.21,3.92-.78,5.91-.21,2.26,1.66,4.71,1.42,7.21.75l1.92-2.64c2.29,6.4-1,13.45,2.29,19.74,1.71,4.85-1.23,10.11,1.77,15.07,1.5,2.48-3.11.75-3.48,2.79-7,.17-13.52,3.3-20.57,2.71-.37-1.63-.37-1.94,1.67-2.45,4-1,7.71-3,11.87-3.56a2.67,2.67,0,0,0,1.93-1C86.49,102.23,85,101.63,85,100.24Z"/><path class="cls-110" d="M103.94,60.81c.59-.79,1.69-1.45.65-2.63-.77-2.91,0-5.91-.56-8.83-.16-.85-.18-1.87.76-2.23,1.21-.45,1.71.65,2.25,1.46,1.15,1.71.08,3.64.53,5.43.61,5.21-1.51,9.75-3.53,14.31-1.43,3.26-4.67,4-7.51,5.19-1.34.58-1.87-.2-2-1.32-.28-1.91-.26-4,1.77-4.83C99.6,66,101.55,63.17,103.94,60.81Z"/><path class="cls-111" d="M77.32,55.53c.35,3.6.41,7.32,4,9.58a43.4,43.4,0,0,1,5.82,2.63c1.08,1.41,1.69,3,.71,4.61s-2.44.86-3.78.53c-7.94-3.07-9.43-10.06-10.49-17.31a6.58,6.58,0,0,1,.67-3.52c.89-1.06,1.9-1.62,3.24-.76A3.7,3.7,0,0,1,77.32,55.53Z"/><path class="cls-112" d="M103.94,60.81c-1.71,3.16-3.49,6.12-7.3,7.34-2,.64-1.91,1-1.18,4.89,7.11-1.3,11.13-8.3,11.85-19.13.23-.27.43-.24.59.07,1,5-.87,9.52-2.64,14-1.68,4.29-5.5,5.46-9.42,6.45-.87.22-2,.1-2.09-.9-.27-2.22-.88-4.61.88-6.52a6.66,6.66,0,0,1,2.52-1.52c2.48-1,4.5-2.37,5.55-5C103.33,59,103.72,59.74,103.94,60.81Z"/><path class="cls-113" d="M84.84,44.49l1.32-.89c1-.4,2.08-.8,3.07.09a4.24,4.24,0,0,0-1.14,4.1c.82,3.8.8,7.79,1,11.7.09,1.37.35,3.17-1.48,3.51a3.46,3.46,0,0,1-3.49-2c-2.15-3.77-2.25-7.82-1.51-12,.23-1.24.41-2.5.61-3.74C83.63,44.61,84,44.08,84.84,44.49Z"/><path class="cls-114" d="M121,71c1.22,2.55-1.7,3.86-1.8,6-3.89,6.18-9,10.87-16.22,12.8-.57-1.12.19-1.79.83-2.51A37.37,37.37,0,0,0,121,71Z"/><path class="cls-115" d="M118.38,48.74l.78.09a60.07,60.07,0,0,1-5.54,25.81c-1.31,2.92-4.22,4.47-6.4,6.65-1,.69-1.65.41-2-.75,1.44-3.66,5.28-5.42,6.89-9.08A48.49,48.49,0,0,0,116,56.25C116.84,53.81,115.73,50.68,118.38,48.74Z"/><path class="cls-116" d="M102,76.29c6.84-1.87,8.28-8,10.26-13.46,1-2.86,1.34-6,2-9a.9.9,0,0,1,1.15.37,3.66,3.66,0,0,1,.41,1.26c0,5.22-1.67,10.09-3.75,14.74-2.21,4.94-5.7,8.77-11.49,9.65C98.92,77.8,101.24,77.36,102,76.29Z"/><path class="cls-117" d="M97.73,49.62c2.19,4,1.7,9.44-1.1,12.49-.6.65-1.24,1.25-2.2,1s-1-1.25-1-2.09c-.07-5.24-.58-10.52.93-15.67,1.26-.39,1.75.14,1.66,1.38a1.81,1.81,0,0,0,.2.48c-.16,3.61-1,7.18-.53,11C97.48,55.5,95.75,52.11,97.73,49.62Z"/><path class="cls-118" d="M97.73,49.62c.23,4.09.42,8.17-3.2,12.76.25-5.87-1.19-10.65,1.64-15.17Z"/><path class="cls-119" d="M107.9,54a5.6,5.6,0,0,1-.59-.07c-1.4-1.83,1-4.83-2.26-6.37-.75,3.6.57,7.21-.46,10.64-1.31-.15-1.53-.76-1.14-2,1-3.23-.92-6.49,0-9.83.39-1.34-1.91-1.4-2.37-2.62,1.46-1.86,2.86.31,4.3,0a2.29,2.29,0,0,1,.82-.24,1.13,1.13,0,0,1,1,1c-1.62,1.81.51,3,.69,4.49A39.74,39.74,0,0,1,107.9,54Z"/><path class="cls-120" d="M105.5,80.47c.3.84,1,.83,1.72.85A18.94,18.94,0,0,1,96,85.61c-2.8.2-3.15-2.9-.84-6.9,1,.1,2,0,2.8.85.43,1.2-1.51,1.72-.86,3C100.15,82.85,102.35,79.74,105.5,80.47Z"/><path class="cls-121" d="M105.43,43.74c-1.45,1.21-2.85-.83-4.3,0-2.94-1.1-3.52,1.87-5.16,3a2.22,2.22,0,0,0-1.66-1.38l-1.57-1.75c.84-.88,1.66,0,2.5,0C98.67,41.5,102.08,40.45,105.43,43.74Z"/><path class="cls-122" d="M84.1,71.89c1.09-.32,2.28,1.56,3,.32a3.66,3.66,0,0,0-.53-4.37c-.45-.43-.41-.81.11-1.15,2.35,1.39,2.47,3.73,2.56,6.09-2.39,3.19-4.83,1.78-7.28.07a1.24,1.24,0,0,1,.72-.63C83.19,72.16,83.71,72.3,84.1,71.89Z"/><path class="cls-123" d="M107.25,44.5l-1-1c3.79-3.11,7.22-2.09,10.49.91-2,1.79-3.32-1.76-5.25-.74Z"/><path class="cls-124" d="M103.84,87.32,103,89.83l-3.41,1c-1.15-.31-2.69.73-3.46-1C98.44,88.4,101.24,88.23,103.84,87.32Z"/><path class="cls-125" d="M84.84,44.49l-1.58.78a2.31,2.31,0,0,0-2.6-1.43c-1.44.45-2.9,1.14-4.25-.22C79.89,41.1,82.26,41.34,84.84,44.49Z"/><path class="cls-126" d="M77.32,55.53c-.06-1.39-.12-2.79-.19-4.18a7.44,7.44,0,0,1-.41-3.27,1.67,1.67,0,0,1,.51-1c3.54,2.69,1.29,6.31,1.38,9.52C78.62,56.9,77.84,55.74,77.32,55.53Z"/><path class="cls-127" d="M97.84,79.82c-1-.27-2.16.1-2.72-1.11L102,76.29c.34,1.52-1.76,1.72-1.68,3.1A1.64,1.64,0,0,1,98,80Z"/><path class="cls-128" d="M95.24,43.63c-.85,1-1.67-.33-2.5,0l-3.47.09-3.06-.09C89.22,40.74,92.23,40.92,95.24,43.63Z"/><path class="cls-129" d="M77.23,47.12a3.43,3.43,0,0,1-.09.84c-1.85,0-1.48-1.85-2.3-2.72a1.63,1.63,0,0,1-.21-1.58h1.82l4.25.22C81.06,46.53,77.7,45.3,77.23,47.12Z"/><path class="cls-130" d="M86.72,66.74a11.45,11.45,0,0,1-.11,1.15,6.44,6.44,0,0,1-5.3-2.73C83.84,63.21,84.91,66.19,86.72,66.74Z"/><path class="cls-131" d="M114.77,53.82h-.55c-.44-2.2-1.09-4.4,0-6.6,2-.33,1,.84.83,1.6C116.21,50.56,116.44,52.24,114.77,53.82Z"/><path class="cls-132" d="M104.75,105.13c-1.08.65-.28,1.19.1,1.75-6.9-.59-9.87-4.29-8-10A15.33,15.33,0,0,0,104.75,105.13Z"/><path class="cls-133" d="M85,100.24c.61,1.88,4.18,1,3.7,3-.61,2.5-3.72,1.66-5.57,2.5-3.9,1.76-8.59,1.52-11.88,4.71-.31.59-.63,1.18-.94,1.78-2.89-3,0-4,1.92-5.25,3.12-1.92,7.1-1.75,10.07-4.16C83.25,102,84.4,101.45,85,100.24Z"/><path class="cls-133" d="M80.73,112.41a17.25,17.25,0,0,1-10.4-.13Z"/><path class="cls-134" d="M99.77,116.44a18.72,18.72,0,0,1,6.54-1.62C104.84,118.06,102.15,116.74,99.77,116.44Z"/><path class="cls-32" d="M63.53,45.33l.94-.9a3.86,3.86,0,0,1,.68,0c1.53-.22,3-2.22,4.58,0,0,1.73-1.74,2.4-2.27,3.82a3.16,3.16,0,0,1-1.62,1.58c-.54-.68-1.46-.32-2.68,1C60.69,49.05,60.72,48.63,63.53,45.33Z"/><path class="cls-135" d="M69.54,44.55c-1.42-1.83-3,1.75-4.39-.11a2,2,0,0,0,.21-.7c2.19-2.86,5-1,7.62-1.09l1.65,1,.75.82a.65.65,0,0,1,.2,1.05c-1.71.8-3.34,0-5-.27A2.66,2.66,0,0,1,69.54,44.55Z"/><path class="cls-32" d="M73,42.65c-2.53.43-5.31-.89-7.62,1.09.23-2.43.66-4.14,3.6-1.94C70,42.55,71.78,41.55,73,42.65Z"/><path class="cls-136" d="M63.53,45.33c-.38,1-.69,2.08-1.14,3.07-.68,1.48-.15,2.07,1.35,2.07,1.76,3.53,1.64,7.36,1.81,11.15a4.24,4.24,0,0,1-2.33,1.83c-3.44-2.38-2-6.43-3.24-9.59-.58-1.51-.9-2.4-2.26-.67-1.76.26-1.79-1.06-1.86-2.17-.1-1.35-.31-2.57-1.77-3.11l-4.31-.84c2.86-.24,4.27-2.45,5.92-4.33C57.84,45.06,61.31,43.3,63.53,45.33Z"/><path class="cls-80" d="M114.77,53.82l.3-5c1.1-.11,2.19-.91,3.31,0-1.37,2.45-.21,5.42-1.64,7.86-.92-.3-1.07-1.34-1.77-1.85Z"/><path class="cls-137" d="M54.09,47.91c4-.09,1.76,3.77,3.32,5.23,1.9,2.33,2.11,5.3,2.47,8,.66,4.92,2.82,9.23,4.61,13.71a9.51,9.51,0,0,0,5.87,5.83c2.39,2.39,5.94,3.51,7.49,6.82A1.75,1.75,0,0,1,77,89.18C63.23,83.84,59.39,71.74,56.68,59,55.89,55.25,55,51.59,54.09,47.91Z"/><path class="cls-138" d="M53.51,63.29c1.93.2,2.79,1.94,3.47,3.69.25.65-1.1,1.46-1.19,1.24-.9-2.34-2.72.06-3.73-.8s-2.84,1.07-3-1.11c-.14-1.57,1.15-2.1,2.47-2.32C52.19,63.88,52.35,62.74,53.51,63.29Z"/><path class="cls-139" d="M77,89.2l.21-1.88c.82-.43,1.31,0,1.73.65l9.08,2c-1.88,3.51-4.3,1.56-6.55,1A7.06,7.06,0,0,1,77,89.2Z"/><path class="cls-140" d="M65.14,61.74a45.14,45.14,0,0,1-1.41-11.27c-.19-1.29.55-2.31,1-3.47.86.69.14,2.17,1.39,2.59,2,.19,1.73,1.87,2,3.15.65,3.72,1.07,7.47,1.7,11.18,1.27,5.51,4,10,9.27,12.49,2.16,1.33,4.32,2.68,6.53,3.93,2.45.76,2.55,2,.82,3.72-5.21-.24-9.29-3.33-13.75-5.45C70.76,77.22,71,74.39,69,73.06,66.71,69.61,64.37,66.2,65.14,61.74Z"/><path class="cls-141" d="M70.37,44.56c1.82-.58,3.39.6,5.11.71a6.34,6.34,0,0,1-.8,6.93l-.15,3.63c-.26,5.74,1,10.82,5.84,14.59.78.61,2.25.8,2.16,2.3a2.42,2.42,0,0,0-.53.13c-1.84.25-3.58-2.3-5.49-.21-2,.14-4,.39-3.92-2.57.15-.39.58-.86.46-1.15-2.31-5.7-.55-12-2.73-17.71C69.46,49,70.52,46.74,70.37,44.56Z"/><path class="cls-142" d="M79,88l-1.73-.65c-2.18-2.11-5.32-3.07-7-5.82-.61-1.2-3.15-2-.82-3.82,2.11,0,3.44,1.88,5.42,2.19.54.34,1,.74.64,1.46.59,1.61,2.2,2.19,3.44,2.84C81.76,85.63,81.26,86.74,79,88Z"/><path class="cls-143" d="M73,70.16c.32,2,3,.68,3.54,2.48l2.43,2.72c.1.55.38,1.09.06,1.65-5.9-1.87-8.44-6.59-10.2-12a4.74,4.74,0,0,1,2.48,0C72.29,66.6,73.28,68.17,73,70.16Z"/><path class="cls-144" d="M75.52,81.33l-.84-.87c-.86-.76-2.46-1-1.89-2.73,4.44,2.32,8.83,4.75,13.61,6.33.31.76,1.91.58,1.48,1.71-.27.73-1.22.49-1.88.21C82.5,84.44,79,82.88,75.52,81.33Z"/><path class="cls-145" d="M79,77c.19-.56-.88-1.08-.06-1.65,2.35.84,4.29,2.72,7,2.66.66,0,1.62.1,1.57,1s-1.32.82-1.93,1.35C82.59,80.81,80.93,78.64,79,77Z"/><path class="cls-146" d="M82.53,72.74c-4.7-2.89-8.11-6.69-8.62-12.46-.13-1.51-.76-3.12.62-4.43,1.17,6.56,2.52,13,9.57,16.06C83.84,72.74,83.16,72.65,82.53,72.74Z"/><path class="cls-95" d="M74.68,52.2c0-2.34,1.41-4.52.8-6.93a1.51,1.51,0,0,0-.1-.79c1.53.69.53,2.65,1.76,3.48a2.81,2.81,0,0,1,0,3.39Z"/><path class="cls-147" d="M87.29,61.33c-3.12-2.77-4.46-11-2.55-13.85.33-.48.55-1.15,1.18-.61A3.1,3.1,0,0,1,87,48.58,57.82,57.82,0,0,1,87.29,61.33Z"/><path class="cls-148" d="M115,54.74c1.24,0,1.67.76,1.77,1.85-.2,9.62-3.23,17.9-11.23,23.84-2.19.93-4.34,2-6.57,2.73-1.11.39-2.43,2.43-3.48.39s.39-3.28,2.41-3.77l2.44-.43c8.86-2.61,11.53-10.11,13.77-17.86A46.55,46.55,0,0,0,115,54.74Z"/><path class="cls-149" d="M73,70.16c-1.52-1.42-1.58-3.52-2.45-5.24-2.39-3.8-2.23-8.21-2.78-12.4A27.69,27.69,0,0,0,67,47.9c-.27-2,1.73-2.22,2.58-3.35a1.08,1.08,0,0,1,.83,0c.49.49,1.47,1.32,1.38,1.44-2.83,4.32,2.28,8.13.64,12.61-1,2.59.57,5.71,1.64,8.45C74.54,68.38,75.38,69.83,73,70.16Z"/><path class="cls-150" d="M67,47.9c.45.93,2.3-.34,2,.71-1.7,5.7,1,10.89,1.58,16.31-.5,1.12-1.13.4-1.72.11-1.25-5.09-1.06-10.42-2.68-15.44C66.11,48.88,66.2,48.23,67,47.9Z"/><path class="cls-151" d="M69.54,78c-1.21,1.49,1.33,2.18.74,3.53-6.31-1.25-7-7.15-9.1-11.58-2.53-5.21-2.91-11.09-3.77-16.78,1.16-.68-.34-3,1.5-2.92,1.53.08,1.72,1.78,2.12,3.17.93,3.27.12,7,2.59,9.86l.4.42c1,3.66,1.4,7.56,4.21,10.5A6.91,6.91,0,0,1,69.54,78Z"/><path class="cls-152" d="M65.14,61.74c1.37,3.71,2,7.71,4.45,11a1.08,1.08,0,0,1,0,1.52,1.57,1.57,0,0,1-.21.17c-.66.38-1.21-.21-1.72-.61-2.49-3.08-2.76-7-4.05-10.54h0C63.62,62.24,64,61.56,65.14,61.74Z"/><path class="cls-153" d="M67.84,73.46c1.08.93,1.78,1,1.72-.73,2.8.56,2.06,3.38,3.2,5l1.89,2.73c-2.33.44-3.44-1.62-5.14-2.49a5.22,5.22,0,0,1-1.76-3.45.61.61,0,0,1-.17-.85A.59.59,0,0,1,67.84,73.46Z"/><path class="cls-136" d="M67.84,73.46l-.09,1.06c-3.76-2.87-4-7-4.18-11.25C66,66.26,65.84,70.31,67.84,73.46Z"/></g></g></svg>