<svg xmlns="http://www.w3.org/2000/svg" viewBox="0 0 132.02 132.73"><defs><style>.cls-1{fill:#312921;}.cls-2{fill:#4a3f36;}.cls-3{fill:#7b6d62;}.cls-4{fill:#dfd1c4;}.cls-5{fill:#7a6c61;}.cls-6{fill:#42372e;}.cls-7{fill:#3b3129;}.cls-8{fill:#4d4238;}.cls-9{fill:#44382e;}.cls-10{fill:#8d7f73;}.cls-11{fill:#4e4339;}.cls-12{fill:#584c42;}.cls-13{fill:#cebfb2;}.cls-14{fill:#98897d;}.cls-15{fill:#695c51;}.cls-16{fill:#322920;}.cls-17{fill:#796c61;}.cls-18{fill:#76685d;}.cls-19{fill:#beb0a3;}.cls-20{fill:#dbcdc0;}.cls-21{fill:#75685d;}.cls-22{fill:#6b5e53;}.cls-23{fill:#918276;}.cls-24{fill:#7a6d61;}.cls-25{fill:#a5978b;}.cls-26{fill:#908276;}.cls-27{fill:#eaddd2;}.cls-28{fill:#a79789;}.cls-29{fill:#d2c2b4;}.cls-30{fill:#928377;}.cls-31{fill:#a09184;}.cls-32{fill:#b7a89b;}.cls-33{fill:#938478;}.cls-34{fill:#8f8074;}.cls-35{fill:#e0d1c3;}.cls-36{fill:#c2b2a3;}.cls-37{fill:#ede0d4;}.cls-38{fill:#d7c8bb;}.cls-39{fill:#cbbcae;}.cls-40{fill:#97897d;}.cls-41{fill:#493e34;}.cls-42{fill:#c4b4a6;}.cls-43{fill:#d1c3b6;}.cls-44{fill:#d6c7bb;}.cls-45{fill:#d4c6ba;}.cls-46{fill:#e8d9cb;}.cls-47{fill:#c0b2a5;}.cls-48{fill:#d2c3b6;}.cls-49{fill:#cbbbab;}.cls-50{fill:#a6978a;}.cls-51{fill:#d7c9bb;}.cls-52{fill:#c9b8a9;}.cls-53{fill:#c6b7aa;}.cls-54{fill:#8e8074;}.cls-55{fill:#8b7d71;}.cls-56{fill:#cdbfb2;}.cls-57{fill:#85776b;}.cls-58{fill:#62554a;}.cls-59{fill:#ddcfc2;}.cls-60{fill:#c8baad;}.cls-61{fill:#8e7f73;}.cls-62{fill:#d6c7b9;}.cls-63{fill:#6e6055;}.cls-64{fill:#6f6156;}.cls-65{fill:#5e5046;}.cls-66{fill:#b0a195;}.cls-67{fill:#ece0d4;}.cls-68{fill:#d9c9bb;}.cls-69{fill:#95867a;}.cls-70{fill:#cebcab;}.cls-71{fill:#cabbad;}.cls-72{fill:#c8b9ac;}.cls-73{fill:#f1e5da;}.cls-74{fill:#e8d9cc;}.cls-75{fill:#bbaca0;}.cls-76{fill:#c6b8ac;}.cls-77{fill:#afa094;}.cls-78{fill:#9f9084;}.cls-79{fill:#a59689;}.cls-80{fill:#8d7e72;}.cls-81{fill:#7c6e63;}.cls-82{fill:#c2b3a7;}.cls-83{fill:#baab9f;}.cls-84{fill:#a6978b;}.cls-85{fill:#ac9e91;}.cls-86{fill:#d6c7ba;}.cls-87{fill:#8b7c70;}.cls-88{fill:#8c7d71;}.cls-89{fill:#84766a;}.cls-90{fill:#aa9b8e;}.cls-91{fill:#ad9e92;}.cls-92{fill:#8a7b70;}.cls-93{fill:#8f8175;}.cls-94{fill:#8a7c70;}.cls-95{fill:#97887c;}.cls-96{fill:#8c7d72;}.cls-97{fill:#afa093;}.cls-98{fill:#9d8e81;}.cls-99{fill:#96877b;}.cls-100{fill:#87796d;}.cls-101{fill:#a99a8e;}.cls-102{fill:#b2a396;}.cls-103{fill:#ab9c8f;}.cls-104{fill:#b7a99d;}.cls-105{fill:#b2a397;}.cls-106{fill:#ab9c8e;}.cls-107{fill:#bfb0a3;}.cls-108{fill:#b9aa9d;}.cls-109{fill:#dacbbe;}.cls-110{fill:#a8998c;}.cls-111{fill:#b7a89c;}.cls-112{fill:#73655a;}.cls-113{fill:#97877b;}.cls-114{fill:#9c8d80;}.cls-115{fill:#a29386;}.cls-116{fill:#85766b;}.cls-117{fill:#ae9f93;}.cls-118{fill:#95877a;}.cls-119{fill:#a8998d;}.cls-120{fill:#9b8b7f;}.cls-121{fill:#c1b2a6;}.cls-122{fill:#938579;}.cls-123{fill:#87786c;}.cls-124{fill:#a7988c;}.cls-125{fill:#b8a99d;}.cls-126{fill:#b5a69a;}.cls-127{fill:#948579;}.cls-128{fill:#b6a89b;}.cls-129{fill:#bdb0a4;}.cls-130{fill:#958679;}.cls-131{fill:#c9baae;}.cls-132{fill:#887a6e;}.cls-133{fill:#e2d4c8;}.cls-134{fill:#85766a;}.cls-135{fill:#65574d;}.cls-136{fill:#e6d9cd;}.cls-137{fill:#e1d2c5;}.cls-138{fill:#cdbfb3;}.cls-139{fill:#c3b4a8;}.cls-140{fill:#ede1d6;}</style></defs><g id="Layer_2" data-name="Layer 2"><g id="Layer_1-2" data-name="Layer 1"><path class="cls-1" d="M130.41,57.15a28.4,28.4,0,0,1,.5,17.3c-1.4,5.4-3.1,10.7-4.4,16.1-2,8.2-6.6,14.5-13.1,19.8a1,1,0,0,1-1.4,0c-.1-.1-.2-.2-.2-.3-.5-1.4.5-2.3,1.2-3.3,1.8-2.2,3.6-4.3,5.5-6.3,1.1-1.2.9-2.8,1.5-4.2,2.6-1.9,3-4.8,3.5-7.6a103,103,0,0,0,3.8-12.3c1.2-2.7.2-5.3-.1-8a2.92,2.92,0,0,1,.2-.9,5.52,5.52,0,0,0,.1-3.8c-.1-.3-.1-.6-.2-.9a8.32,8.32,0,0,1,1.3-4.3C129.11,57.75,129.51,57,130.41,57.15Z"/><path class="cls-2" d="M112.11,109.55a1.28,1.28,0,0,0,1.3.7c-6.5,7.4-13.3,14.6-23.4,17.2a28.37,28.37,0,0,1-3.1.6c-.8.2-1.6.5-2.2-.4,2.1-2.7,5.7-2.5,8.3-4.2.7-2.5,2.7-2.5,4.8-2.5a10.48,10.48,0,0,0,3.8-2.5c2.7-2.2,4.9-4.8,7.4-7.1C110,110.55,110.61,109.25,112.11,109.55Z"/><path class="cls-3" d="M4,45.65a46.62,46.62,0,0,1,8.9-18.3c.2-.2.4-.5.6-.7.5-.5.9-1.4,1.7-1.1,1.1.5.4,1.4.2,2.2l-.3,1.2a3.85,3.85,0,0,1-2.1,2.4c-1.1.6-.2,1.2.1,1.7.4.8-1.5,1.9.4,2.5a1.59,1.59,0,0,1,1,.8c.1,2,0,4-2,5.2a1.65,1.65,0,0,1-1.8-1.2,3.08,3.08,0,0,1,.3-1.3,2.11,2.11,0,0,0-.4,1c-.2.8-.2,1.8-1.3,2-.6.5,0-1.9-1.1-.5-1.2.7-1.1,2-1.7,2.9s-1,2.2-2.5,1.7c-.1,0-.1-.2-.1-.2S3.91,45.75,4,45.65Z"/><path class="cls-4" d="M14.81,28.85c-.9-1.1,1-1.8.4-3-1.1-.1-1.4,1.4-2.4,1.5,2.8-3.6,5.1-7.8,10.1-8.8,1.2-.2.7-.9.8-1.6a4.27,4.27,0,0,1,5-2.9c.2,2.2-1.8,3.2-2.9,4.5a88.49,88.49,0,0,1-10.1,10.2A1,1,0,0,1,14.81,28.85Z"/><path class="cls-5" d="M7.71,41.25,9,39.85c.1.8.1,1.5.2,2.2.6,2.3-.5,4.4-1.1,6.5a73.17,73.17,0,0,1-2.4,9.2c-.1,1.3-.5,2.5-.7,3.8-.1.7-.2,1.3-.3,1.9-.7,1.9.2,4-.9,5.8-2.3.6-1.5-1.4-1.6-2.2-.3-1.8,0-3.8-1.8-5a25.38,25.38,0,0,1,1.9-8.9c1-.2,1.1.5,1.3,1.2.2,1.6-.5,3-1,4.4,1.6-5.2,2.8-10.5,4.3-15.7A1.74,1.74,0,0,1,7.71,41.25Z"/><path class="cls-6" d="M119.81,28.55a32,32,0,0,1,6.9,13.9c.3,1.1.7,2.3-.3,3.3-2.3-1.1-1.9-3.5-2.9-5.3-.1-.3-.2-.8-.3-.8-3.2.7-2.2-2.4-3.2-3.6a6.89,6.89,0,0,1-.3-.8,4.1,4.1,0,0,0-1.3-2.4,5.42,5.42,0,0,1-2.1-2.4c-.1-.7,1.6-1.3.1-2.1-.7-.7-1.2-1.4-.7-2.4C118.21,25.35,118.51,27.65,119.81,28.55Z"/><path class="cls-7" d="M77.41,130.55c-8,3.1-16,2.6-24,.3-.1-1.4,1-1.5,2-1.8,2.1-.5,4.3,1.3,6.5-.1,2.4-1.3,4.5.6,6.7.5a12.92,12.92,0,0,0,4.4-.3,8.1,8.1,0,0,1,3.1-.1C76.91,129.35,77.61,129.55,77.41,130.55Z"/><path class="cls-8" d="M87.51,4.45c5.2,1.4,10.2,3.2,14.6,6.4a24.43,24.43,0,0,1,2.9,2.7c.5.5.6,1.1-.2,1.4s-1.7-1-2.5.2a1.13,1.13,0,0,1-1.1.3c-3.2-4.3-8.5-4.9-12.9-6.8.8-1.4.8-1.4,2.8-1.2a5.66,5.66,0,0,0-1.8-.3,3.22,3.22,0,0,1-2-1.2A1.34,1.34,0,0,1,87.51,4.45Z"/><path class="cls-9" d="M58.51.85A35.43,35.43,0,0,1,73,.65c.4.5.9.4,1.4.4s1.2.1,1.1.7-.6.7-1.2.9c-1,.1-2,.2-3,.2-1.2.1-2.2.5-3.4.5-4.1-1.3-7.5,1.5-11.3,1.9a2.43,2.43,0,0,1-2.1-.9.83.83,0,0,1,.3-.8C56.41,3.15,57.81,2.55,58.51.85Z"/><path class="cls-3" d="M15.31,28.55c4.5-4.8,9.4-9.2,13.4-14.4l3.2-2.5c.7-.5,1.1-.3,1.4.4a4,4,0,0,1-1.4,2.7c-4.5,4.6-9,9.1-13.6,13.6a3,3,0,0,1-2.2,1.2A1.33,1.33,0,0,1,15.31,28.55Z"/><path class="cls-10" d="M28,120.35a88.09,88.09,0,0,1-15.8-15.9c1.3-.8,1.6,1.6,2.9.9.3,0,.7-.1.9.1,3.6,4,7.9,7.3,11,11.7C26.81,118.55,28.61,119.05,28,120.35Z"/><path class="cls-11" d="M14.91,105.65c-1.4.8-1.6-1.3-2.7-1.1a35.8,35.8,0,0,1-5.8-10c-.2-.8-.5-1.5.3-2.2,1,0,1.2.8,1.6,1.4.1,1.6,1.3,1.2,2.3,1.3.8,2.7,3.5,4.1,4.5,6.7.1.8-1.4,1.3-.6,2.4A2,2,0,0,1,14.91,105.65Z"/><path class="cls-12" d="M28,120.35c.1-1.1-2-1.3-1.1-2.7,1.3-.1,1.9,1,2.9,1.5a2.42,2.42,0,0,0,2.7.2,4.47,4.47,0,0,1,2.3,1.1c1.6.4,1.4,2.5,2.9,3,1.6,1.2,3.9,1.2,5.2,2.8,0,.7,0,1.4-1,1.1C36.51,126.55,32.21,123.55,28,120.35Z"/><path class="cls-13" d="M7.71,41.25l-3,12a22.93,22.93,0,0,1-2.2,6.2c-.7-1.6.7-3,.3-4.6-.2-1.8,1.1-3.5,0-5.3a5,5,0,0,1,1.1-3.9c2.8-.4,1.9-3.2,3-4.7,0-.1.2-.1.2-.1A2.09,2.09,0,0,0,7.71,41.25Z"/><path class="cls-14" d="M104.51,14.85c.4-2.1-2.1-2.3-2.5-3.9,4.7,3,8.3,7.2,11.9,11.4a1.76,1.76,0,0,1-1.5.8C109.51,20.75,106.11,18.65,104.51,14.85Z"/><path class="cls-15" d="M126.11,45.75c1.2-.9.3-2.2.7-3.2a105.4,105.4,0,0,1,3.7,14.7l-1.2,1.2c-1.6-1.1-1.2-3-1.9-4.5C126.91,51.15,125.21,48.65,126.11,45.75Z"/><path class="cls-16" d="M.21,62.15c2.7-.8,2.1,1.5,2.5,2.8.4,1.5-.7,3.3.9,4.6a1.88,1.88,0,0,1,.2.8,1.17,1.17,0,0,1-1.1.9h-.1c-.8-.2-1.6.5-2.3-.2A37.91,37.91,0,0,1,.21,62.15Z"/><path class="cls-17" d="M41.81,127.35a1.09,1.09,0,0,0,.7-1.2c.7-.8,1.5-.5,2.3-.3,3.1.7,6.2,1.8,9.3,2.7a1.49,1.49,0,0,1,1.2,1.3l-1.9,1.1Z"/><path class="cls-18" d="M74.11,2.25c.3-.1.7-.1.8-.3.4-.5-.2-.4-.4-.5-.6-.1-1.2,0-1.5-.7a71.76,71.76,0,0,1,14.5,3.7v1.2c-.1.1-.1.2-.2.2C82.71,5.55,78.11,4.85,74.11,2.25Z"/><path class="cls-19" d="M41.31,5.25c3.1-.2,5.7-2.4,8.8-2.6.7-.3,1.2-.3,1.5.4a1.14,1.14,0,0,1-.6,1.3,14.46,14.46,0,0,1-2.9,1.1c-1,.4-2.3,0-2.8,1.3-.3.9-1.2,1.1-1.9,1.4a9.74,9.74,0,0,1-3.4.6,1.16,1.16,0,0,1-.7-.5C39.21,6.85,40.31,6.05,41.31,5.25Z"/><path class="cls-20" d="M45.21,6.65c-.5-.2-1.5-.4-.2-.9,1.8-.7,3.6-1.1,5.4-1.7s.8-1-.2-1.3c.9-1,2.1-.5,3.2-.6.5.7,2.1.4,1.9,1.9-.2,0-.3.1-.5.2C52,6.45,48.81,7.55,45.21,6.65Z"/><path class="cls-21" d="M77.41,130.55c-.2-.7-.9-.7-1.5-.9,1.8-2.2,6.3-3.3,9-2.2l2,.6A34.15,34.15,0,0,1,77.41,130.55Z"/><path class="cls-22" d="M.31,71c.9.3,1.6-1.8,2.6-.1v.5c-.2,2.3.7,4.5.6,6.8-.2.8-.1,1.8-1.4,1.8A27.73,27.73,0,0,1,.31,71Z"/><path class="cls-18" d="M7.11,92.55c-.8.5-.5,1.3-.7,2-1.6-2.3-1.8-5-2.5-7.6-.2-1-.8-2,.5-2.8A9.37,9.37,0,0,1,7.11,92.55Z"/><path class="cls-23" d="M33.11,12.15c-.2-.5-.7-.6-1.2-.6,1.5-1.7,3.9-1.9,5.6-3.3a1.66,1.66,0,0,1,2-.1v.3c.8.5,2-.5,2.6.7C39.51,11.35,36.21,11.45,33.11,12.15Z"/><path class="cls-24" d="M112.71,23.05a1.36,1.36,0,0,1,1.3-.7c2.2,1.8,4.5,3.6,5.9,6.2-1.7-.3-2.1-2.5-3.9-2.5C113.91,26.05,113,24.85,112.71,23.05Z"/><path class="cls-25" d="M55.21,4c-.4-.8-2.1-.4-1.9-1.9,1.6-1.2,3.5-.4,5.2-1.1C59.11,3.75,57.11,3.75,55.21,4Z"/><path class="cls-26" d="M4.51,84.35c-.9.7-.4,1.7-.6,2.6A21.33,21.33,0,0,1,2,79.85c.8-.4.7-1.3.8-2a.81.81,0,0,1,.9.3C4.61,80.15,5.51,82.15,4.51,84.35Z"/><path class="cls-27" d="M39.41,8.25l-2,.1c-.2-2.9,1.7-3.1,3.8-3.1Z"/><path class="cls-3" d="M2.81,49.65c1.7,0,1.1,1.2,1,2-.3,1.1-.6,2.2-1,3.3a1.62,1.62,0,0,0-.8-1.6Z"/><path class="cls-28" d="M101.91,119a8.42,8.42,0,0,1-3.7,2.5c-2.2-1.4-4.2-.6-6.3.2-2.8.9-5.6,2-8.5,2.7-2,.5-4,.6-5.9,1.5-1.2.5-2.4,1-3.7.4-.9-.7-.4-1.4,0-2.1a4.35,4.35,0,0,1,.7-.6c.3-.1.5-.3.8-.3,1.4-.6,3-.7,4.4-1.5.3-.1.5-.1.8-.2,2.5-.6,5-.9,7.2-2.2.3-.1.5-.2.8-.3a15.79,15.79,0,0,0,12.6-7.7c2.4-1.3,3.5-3.8,5.3-5.6a93.53,93.53,0,0,0,8.7-9.1c.9-1.2,2.1-2.1,2.3-3.6a1,1,0,0,1,1.4-.8c2.3.7,3.4,1.9,1.5,4.2,0,1.6,0,3.2-1.3,4.3-.6-.4-.6-1.1-.8-1.9-5.8,5.4-11.1,11.1-16.5,16.8C100.61,117,101.31,117.85,101.91,119Z"/><path class="cls-29" d="M101.91,119c-3.6-1.6-1.5-3,.1-4.6,5.5-5.9,11.2-11.7,17.3-17.5-.1,1.6-.1,2.7-.2,3.9-2.2,3-5.3,5.3-7,8.7C108.51,112.45,105.81,116.35,101.91,119Z"/><path class="cls-30" d="M128,54c1,1.3.6,3,1.3,4.4-.3,1.5-1.4,2.8-1.3,4.5a3.39,3.39,0,0,1-3,1c-2-1.6-1.8-3.8-1.2-5.8.2-.8-.2-.8-.4-1.1-.3-.9.3-1.6.6-2.3.6-1.2.6-2.8-.4-3.5-2.3-1.7-2.6-3.6-1.8-6.2s-1.4-5.3-4.3-6c-1.8-3.6,1.7-2.5,3-3.4,1.1,1,1.1,2.4,1.4,3.8.9-.5.2-1.5.8-2.1a3.93,3.93,0,0,1,1.5,2.8c-.1,3.3,1.1,6.4,2,9.5a43.11,43.11,0,0,1,1.1,4.9c0,.1-.1.5.1.3S127.71,54.15,128,54Z"/><path class="cls-31" d="M128,67.85c.4,2.8,1.8,5.5.1,8.3-1.3.5-1,1.8-1.2,2.7-.3,1.1-.5,2.2-1.7,2.7a2.77,2.77,0,0,1-.9.1,3.37,3.37,0,0,1-2.2-1.7c-1-1.6-.4-3.3-.1-4.8a23.81,23.81,0,0,1,3-8.2A2.43,2.43,0,0,1,128,67.85Z"/><path class="cls-32" d="M124.81,81.15c2.1-1.7,1-4.6,2.4-6.7,1,.2.6,1.1.8,1.7a48.9,48.9,0,0,1-3.8,12.5c-.3.3.1,0-.2.2-1.4.6-.8,2.8-2.4,3s-1.1-2.4-2.6-2.7c-.8-3.2,1-5.8,1.9-8.7a1.08,1.08,0,0,1,1.4-.7c.1,0,.1,0,.2.1l1.9,1.3c1.1,1.5-.4,2.2-1.1,3.2C124.81,83.75,124.21,82.15,124.81,81.15Z"/><path class="cls-33" d="M119.11,89.35c2.4-.2,2.4-.2,2,2.2,2,.1-.1-4.1,3-2.9-.3,3-.5,6.1-3.7,7.7-.2-1.1,1.7-3.4-1.5-2.9,0-.4.1-.8.1-1.2C118.81,91.35,117.11,90.25,119.11,89.35Z"/><path class="cls-19" d="M128,67.85c-1.1,0-2-1-3.1-.6-1.1-1.3-.7-2.5,0-3.8,1.1.1,1.9-1,3-.6a1.09,1.09,0,0,1,.1.5c.7,1.3-1.3,2.6.1,3.9A1.27,1.27,0,0,0,128,67.85Z"/><path class="cls-34" d="M128.11,67.25c-2.4-1.3-2.4-1.3-.1-3.9C128.91,64.65,129.21,66,128.11,67.25Z"/><path class="cls-35" d="M73.61,126a7.62,7.62,0,0,0,3.7-.6,1.91,1.91,0,0,1,1.8,0c.3.2-.3,1.9,1,.6a3.31,3.31,0,0,1,2.3-.7c1.8,0,.6-1.1.7-1.7l8.8-2.6c.6-.5,1.4-.4,1.3.4-.1,1,.7,1.7.5,2.6l-8.8,3.3a34.85,34.85,0,0,0-9,2.2l-3,.2a2.86,2.86,0,0,1-2.4.1c.8-1.2-.9-2.5.3-3.7C71.71,125.55,72.61,125.15,73.61,126Z"/><path class="cls-36" d="M93.81,124c-.8-.6-2.5-.9-1-2.5.3-.3-.4-.5-.8-.5,1.1-1,2.7-.7,4-1.2s2.2.2,2.3,1.7C96.41,121.75,94.51,122,93.81,124Z"/><path class="cls-37" d="M12.31,41.35c1.5-1.4,1-3.5,1.9-5.2a6.45,6.45,0,0,1,4.2-3.7c2.3,2,4.2-.7,6.4-.5,1.3.7,2.4,1.8,3.7,2.5,2.1,1.2,1,3.4,1.5,5.1.8,2.5-2.1,2.5-2.8,3.9-.7.4-1.3.8-2.1.3-1.3-1.5-2.5-3.1-4.7-3.4,1.3,1.3,3.3,1.8,4.5,3.2,2.3,2,2.3,2,3.7-1,3.9-3.1,3.9-3.1,7.3.2.8.8,1.6,1.7,2.9,1.6a4.22,4.22,0,0,1,3.6,1.6,3.54,3.54,0,0,0,4,.9c1.5-.6,1.7-2,1.7-3.4a7.78,7.78,0,0,1,.4-3.4c.3-.7.7-1.4,1.5-.5.9,3.3.2,6.7.5,10.1.1,1.2-.4,2.6.7,3.6a3.53,3.53,0,0,0,1.4.3c4.1-.2,8.2-1.3,12.4,0,6.8,2.2,9.3,8.7,5.7,14.8,2.8-4.4,2-9.4-1.9-13-.8-.7-1.9-1-2.3-2.1,0-.9.5-1.5,1.3-1.4,2.9.3,5.2-1.5,7.7-2.2,3.6.4,5.4,3,7,5.8a17.54,17.54,0,0,1,1.2,10.1c-1.7,6.6-6,10.7-12.4,12.7a40.82,40.82,0,0,1-18.4.3c-.5-.1-1-.3-1.5-.4a3.18,3.18,0,0,1-2.5-3.7c0-.2.1-.3.1-.4.5-2.3,2.3-1.2,3.6-1.1,4.1.5,8.1,1.2,10.7.6-1.9.6-5.4-.1-8.8-.3-1-.4-2.3,0-3.1-1.1,0-.4.3-.9.1-1.2-1.9-2.8-1.9-2.8,1.1-4.1-2.9-.7-6.3.1-7.5-4.2a4.31,4.31,0,0,1-4.7,2.7c-3.4-.1-6.1,1.7-8.5,4.3,4.8-.1,6.9,1.7,8.2,6.4.2.6.3,1.3-.4,1.6a2.13,2.13,0,0,1-2.4-.3c-3-3.1-6.5-3.2-10.4-2.4-2,.4-4.1-.4-6.2.2-3.7-2.3-3.8-2.5-2-6.1.6-1.2.6-2.2-.7-2.9a2.25,2.25,0,0,1-1.1-2.7,19.73,19.73,0,0,1,.7-2.6,7.05,7.05,0,0,0,1.8-5.7,22.45,22.45,0,0,1,1.2-8.1,4.09,4.09,0,0,0,.3-2.2c-.1-.4-.4-.8-.8-.8a.78.78,0,0,0-.9.6v.1c0,1.8-1.5,3.3-.8,5.2l.3,1.2c.3,3-.7,4.6-3.4,5.7a2.74,2.74,0,0,1-1.3,1.3c-.4.2-.8-.2-1.1.3a1.45,1.45,0,0,1,1,.7c.4,1.1-.3,1.7-1.1,2.2-.5.4-1.3.5-1.2,1.2s1.1.8,1.7,1.1a3.07,3.07,0,0,1,1.5,1,4.61,4.61,0,0,1,1,2.6c.4,2.4.8,4.9-2.2,6.2,1.2,1.1,2.6.5,3.7.9,1.5.9,3,1.8.7,3.5-.3.3.8.3.9.8-.2,3.2,1.3,6.5-.8,9.6-.2.3.2.8.4,1.1.9,1.4,2,2.7,1.6,4.6-1.8,2.1-3.7,2.1-5.8.5-.7-.5-1.4-1-2.1-1.6a1.14,1.14,0,0,1-.3-.8,6.87,6.87,0,0,0-.2-3.2l-.3-1.2a31.91,31.91,0,0,1-2.7-10.5L8.41,76c-.1-.7-.4-1.3-.5-2a2.2,2.2,0,0,1-.1-.8,18.87,18.87,0,0,0-.9-3.4c-.1-.2-.3-.5-.4-.7a5.34,5.34,0,0,1-.4-3.3,6.55,6.55,0,0,0,.3-2.8,4,4,0,0,1,.6-1.5c.7-.7.5-1.7.7-2.5.5-2.8,1.7-5.3,2.1-8.1.8-2.8,1.9-5.5,2.1-8.5A.89.89,0,0,1,12.31,41.35Z"/><path class="cls-38" d="M33.11,12.15c2.5-2.2,6-1.7,8.8-3.2A5.75,5.75,0,0,1,45,7.65a6.65,6.65,0,0,1,3.4-.6c.7.2,1.3.4,1.4,1.2-2.9,2.1-6.3,2.9-9.6,3.8-3,.8-5.5,1.6-7.7,4.1-4.3,4.7-9,9.2-13.3,13.8-2.3,1.8-3.9,4.4-6.4,6.1-4-1,.2-2.1,0-3.1.5-1.8,1.3-3.3,3.3-3.7C22.11,24,27.61,18.05,33.11,12.15Z"/><path class="cls-39" d="M12.31,41.35a.75.75,0,0,1-.1.5,13.07,13.07,0,0,0-1.9,4.4c-.2,1-.5,2-1.7,2.3a1.29,1.29,0,0,1-1.2-.4c.6-2,1.2-4.1,1.8-6.2.4-.7.7-1.4,1.1-2.1.3-.3.5-.3.7,0Z"/><path class="cls-40" d="M12.71,36.15c1.3-2.7,3.7-4.4,5.7-6.4a2.7,2.7,0,0,1,.7.8,2.18,2.18,0,0,1-.7,2.5c-2,.3-2.2,2.9-4.2,3.2Z"/><path class="cls-41" d="M16,29.25,12.71,33c-2-1.2-2-1.4-.5-2.1a6.55,6.55,0,0,0,2.6-2.1.55.55,0,0,1,.5-.3Z"/><path class="cls-42" d="M11,40.05h-.7v-.3c.3-.9-.5-2.2,1-2.6a1.14,1.14,0,0,1,.8.3C12.81,38.65,11.21,39.05,11,40.05Z"/><path class="cls-43" d="M6.61,65.35c.1,1.2-.1,2.5.6,3.7l-.8.8a3,3,0,0,0,.8-.8c.9,1.2.9,2.6,1.1,3.9-1.1.2-2.1.2-3.2.3a6.89,6.89,0,0,1-.8-.3c-1.3-.9-.4-2.2-.8-3.3v-.1c.1-2.1-.8-4.2.4-6.3a1,1,0,0,1,.5,1c0,.2-.1.5,0,.5s.2-.4.4-.4A2,2,0,0,1,6.61,65.35Z"/><path class="cls-44" d="M7.31,48.25h1.2a2.29,2.29,0,0,1,1,2.4c-.7,2.6-1.2,5.4-1.9,8-.4.8-.9,1.4-1.8,1.2s-.6-1.3-.8-2.1C5.71,54.65,6.51,51.45,7.31,48.25Z"/><path class="cls-45" d="M4.91,57.75c.6,1.2,1.1,2.8,2.3.4.5,0,.8.2.6.7.3,1,1.5,2.2-.6,2.6a2.71,2.71,0,0,1-3.1-.1Z"/><path class="cls-44" d="M4.21,61.45c1-.7,2,.3,3.1.1l-.7,1.2a3.92,3.92,0,0,1-1.8,1.8c-1.3,1.9-.5-.3-.7-.4s-.1-.6-.1-.9A11,11,0,0,1,4.21,61.45Z"/><path class="cls-46" d="M18.41,33c.1-.7.2-1.5.3-2.2,5-5.1,9.9-10.2,14.9-15.2a11.84,11.84,0,0,1,4.9-2.7c5.1-1.6,10.2-3.1,15.3-4.6,3.1-1.3,6.4-1.7,9.6-2.7a8.9,8.9,0,0,1,6.4.8,16.58,16.58,0,0,0,4.5,1.2,214.53,214.53,0,0,1,20.9,5.6c.2.2.5.3.7.5a13.3,13.3,0,0,0,1.4,1.9c.6.5.9,1.2,1.5,1.7.3.2.7.4,1,.6,2.4,2,4.7,4.2,7,6.3,1.1,1,1.9,1.1,2.8-.2,1.8-.3,2.4.9,2.9,2.3a1.16,1.16,0,0,1-.5.7c-.5.4-1.3.5-1,1.4,1.7,2.2,4.1,3.8,6,5.8,1,1.2,2.5-.4,3.5.6a4.33,4.33,0,0,0,.1.5c-.1,1.1-.8,1.2-1.7,1.2-1.3.1-1.8.8-.9,2a17,17,0,0,1,3,7.8c.2,1.2,2,2.6,0,3.8-1.6,1.3-.7,3.4-1.6,5-3,.2-3.2,0-3.3-2.7-1.5.7-3.8.5-3.1,3.3a2.49,2.49,0,0,1-.3,1.7c-2.3.7-1.7-1.8-3.2-2.9,1,1.7-.2,4.3,3,3.4a1.43,1.43,0,0,1,1.2.6,3.63,3.63,0,0,1-.4,4.1,4,4,0,0,1-2.4.5c-1.6,0-2.5.6-2.6,2.4-.1,1.6-4.3,4.4-5.9,4.2-.9-.1-1.1-.8-1.2-1.6-.1-1,1-1.6,1.2-2.7a7,7,0,0,0-4.3.2c-1.9.5-3.8,0-4.4-1.6-1.6-4.1-5.4-4-8.5-5.2-1.9-.8-2-2.8-2.9-4.4a13.62,13.62,0,0,0-8.2-6.3c-2.6-1-5.4-.5-8.1-.7-3.1-.2-3.7-.9-3.7-4.5,0-3.3.6-4,3.7-4.2,4.1-.2,8.2.2,12.2-.2,2-1.4,1-3,.3-4.6-1.6-.8-3.3-.3-5-.4-6.4,0-12.8-.1-19.1.5-2.3.2-3.9.6-3.8,3.4a1.7,1.7,0,0,1-.9,1.6c-1,1.5-.4,3.2-.5,4.9s-.3,3-1.9,3.6a4.24,4.24,0,0,1-5-.7c-1.2-1.3-2-2.5-4.1-1.6-.9.4-1.6-.8-2.2-1.5-3.2-3.5-3.2-3.5-7.2-.9a1.27,1.27,0,0,1-1.8,0h0c2.8-1.4,2.1-4.1,2.5-6.4.2-.9-.7-1.1-1.2-1.6.5-1,.8-1.9-.2-2.8-1.2-1.1-2.1-.2-3.1.1-.4,0-1.1,0-1.2.2C22,36.05,20.21,34.25,18.41,33Z"/><path class="cls-47" d="M116.41,35.05l-6.7-6.5a5.17,5.17,0,0,0,1.8-1.8h.7c1.4-.4,2,.9,2.9,1.3s1.2,1.5,1.6,2.3l2.3,2.2C119.11,34.25,119,34.35,116.41,35.05Z"/><path class="cls-48" d="M112.71,23.05c1,1,1.7,2.5,3.2,3.1a2.4,2.4,0,0,0,1.2,2c-.4,1.6-1.2.6-1.9.2-4.1-3.7-7.9-7.6-11.8-11.5a4,4,0,0,1-1.2-2.1c-.2-.4-.6-.8-.5-1.1.2-.6.7-.1,1,.1l1.8,1.2C107.31,17.55,110,20.35,112.71,23.05Z"/><path class="cls-49" d="M128,54c-.2.9.4,1.8-.8,3.1-1-5.5-3-10.2-3.6-15.4-.1-.6-.1-1.3.6-1.6.6,1.9,1.2,3.8,1.9,5.7Z"/><path class="cls-23" d="M116.41,35.05c.3-1.4,2.5-.8,2.6-2.5a2.28,2.28,0,0,1,1.3,2.5C119,34.75,117.71,37.45,116.41,35.05Z"/><path class="cls-24" d="M115.51,27.85c.5.2,1,1.2,1.6.2a1.62,1.62,0,0,1,1.4,1.6v.1c-.2,1-1.3-.3-1.7.6l-2-1.8C114.61,28.05,114.81,27.75,115.51,27.85Z"/><path class="cls-50" d="M37,124c-1.9-.1-.9-2.8-2.7-3-.1-1.4-2.8-3.2.6-4.2,6.3,2.7,13,4.2,19.6,5.9.7.2,1.4.3,1.7,1.1-.2,3.4-2,1.7-3.5,1.5,4.2,0,8,2.9,12.5,2.1a3.79,3.79,0,0,1,1.5,0c1.2.6,4,.2,1.8,2.9-2.2.4-4.2-2.1-6.4-.5a2.86,2.86,0,0,1-2.7-.1c-7-2.1-14.1-3.7-21.1-5.8A2.77,2.77,0,0,0,37,124Z"/><path class="cls-51" d="M37,124c2-1.2,3.8,0,5.6.5,6.5,1.7,13,3.6,19.5,5.4-2.3,1.5-4.5-.2-6.8-.1l-12.8-3.6C40.51,125.85,38.81,124.65,37,124Z"/><path class="cls-52" d="M68.51,130.35C70,128,67,129,66.71,128c1.2-1.4,2.5-2.3,4.4-1.2.8.9-1,3.5,1.9,3.1C71.61,130.75,70.11,130.45,68.51,130.35Z"/><path class="cls-53" d="M98.21,17.85c-.4-.6-.9-1.2-1.3-1.8,1-1.6-.6-1.4-1.2-2h0a2.27,2.27,0,0,0-1.7-1.7c-7-1.4-13.8-4-20.8-5.4a37.42,37.42,0,0,1-4.8-1.2c-4-1.7-7.5.3-11.1,1.4-2,.6-4,1.3-6,1.8a2.38,2.38,0,0,1-1.8-.5c-.3-.6-.8-.6-1.4-.7,1-2.2,3.4-1.5,5.1-2.4,1-.5,2.2-.3,3.4-.5,3.7-.9,7.1-3.3,11.1-1.9,2,.6,4.3.2,6.2,1.3,3.6,1.3,7.5,1.7,11.2,2.9,1.1.4,2.2.5,3.1,1.4,5.2.9,10,2.4,13.3,6.9,2.5,1.5,4.2,4,6.4,5.9a1.05,1.05,0,0,1,0,1.2c-2.9,1.5-4-1.2-5.5-2.6-.7-.7-1.1-1.7-1.9-2.4C99.51,16.65,99,17.65,98.21,17.85Z"/><path class="cls-54" d="M107.81,22.35c-1.5-2.9-4.7-4.3-6.3-7.1l.8-.7,13.2,13.2-.7.7-2.5-1.8a7.46,7.46,0,0,0-2.6-2.7C108.51,24.05,107.51,23.85,107.81,22.35Z"/><path class="cls-55" d="M88.21,8.35a105.4,105.4,0,0,1-14.7-3.7c.7-.9,1.7-.9,2.7-1.1,4.4.7,8.6,2.6,13.1,3,1.4-.3,2.3.5,3.4,1.5C91.21,9.05,89.51,6.75,88.21,8.35Z"/><path class="cls-56" d="M89.31,6.65c-2.8,1.1-5.2-.5-7.8-1A56.18,56.18,0,0,1,76,4.15c-1.9.1-3.7.1-4.7-1.9h2.8l13.4,3.4Z"/><path class="cls-57" d="M56.61,4.75c-2.6,1.5-5.9,1.1-8.4,2.9l-3.2.6c-.6-.4-1.5.2-1.9-.6l2.1-1c3.3-.4,6.4-1.6,9.5-2.5C55.21,4.85,56,4.55,56.61,4.75Z"/><path class="cls-58" d="M71.31,2.15A12.94,12.94,0,0,0,76,4.05c-.7.8-1.7.4-2.5.6-1.9-.8-4.1-.5-5.8-1.8Z"/><path class="cls-59" d="M29.21,119.55l-2.3-1.9-12-12-.8-1.1c.4-1.5.7-1.6,1.7-1.1s1.6,1.7,2.4,2.4c3.3,3.2,6.6,6.4,9.8,9.8C28.91,116.65,31.11,117.55,29.21,119.55Z"/><path class="cls-60" d="M35,117.15c-.9,0-1.4.3-1,1.3.3.8,1,1.6.3,2.5l-1.8-1.3c-2.4-.7-3.5-2.9-5.1-4.5-4.2-4.4-9-8.2-12.6-13.1-1.8-2.1-4.4-3.7-4.5-6.9a2.24,2.24,0,0,1-.6-2.1c.4-1.3,1.1-1.9,2.5-1.1v.8c.1,1.5,1.5,1.3,2.3,1.8,2.5,4.1,6.1,7.2,9.5,10.4s6.5,6.5,10,9.5C34.71,115.15,35.71,115.85,35,117.15Z"/><path class="cls-61" d="M14.81,102c6.2,5.6,12,11.6,17.7,17.7-1.1,1.8-2.2.5-3.3,0,.9-.9.2-1.5-.4-2.1-4.3-4.4-8.6-8.8-13-13.2-.3-.3-1.5-2.1-1.7.2a2.17,2.17,0,0,1-1.1-2.1C13.21,101.35,14.31,102.75,14.81,102Z"/><path class="cls-62" d="M4.51,84.35c-.4-2.1-.9-4.2-1.3-6.3-.3-.8-.5-1.6.4-2.1a1,1,0,0,1,.8.5c1.8,4.2,2.6,8.7,3.9,13.1.1,1.7,1.9,3.5-.6,4.8L7,92.55C6.81,89.65,5.11,87.15,4.51,84.35Z"/><path class="cls-63" d="M7.81,94.35c1.7-1.7-.4-3.2-.1-4.9-.2-.8-.7-1.7.6-2.1,2,1.6,1.7,3.9,1.9,6.1v1.7C9.11,96.15,8.21,96.15,7.81,94.35Z"/><path class="cls-64" d="M3.51,69.65c.4,1.1.8,2.2,1.2,3.2a2.51,2.51,0,0,1,.5,1.9c-.2.6-.3,1.4-1.2,1.2l-.1.1c-1.2-1.5-1.9-3-1.3-4.9.1-.1.1-.2.2-.3Z"/><path class="cls-65" d="M43.11,7.65c.6.2,1.4,0,1.9.6l-3.1.8c-.8-.1-1.7.3-2.4-.5A7.4,7.4,0,0,1,43.11,7.65Z"/><path class="cls-66" d="M2.61,71.15c-.2,1.8,1.5,3.1,1.3,4.9-.8.4-.5,1.3-.7,1.9a.76.76,0,0,1-.4-.2C2.91,75.65,1.31,73.45,2.61,71.15Z"/><path class="cls-67" d="M85,59.05c.1-1.3.8-.9,1.5-.5,1.7.9,3.3,2.1,5.5,1.9,1.1-.1,1,1,1.2,1.8.7,2.9,2.2,3.8,4.9,2.9a8,8,0,0,1,3.1-.3c.9,0,2.1-.5,2.5.7s-.8,1.3-1.5,1.7a1.36,1.36,0,0,0-.7,1.8h0c.6,1.1,1.2.2,1.7-.2a3.54,3.54,0,0,1,2.6-1,1.37,1.37,0,0,0,1.5-1.3v-.4c-1.2-4.6,2-3.4,4.4-3.4a2.77,2.77,0,0,1,.9.1c1.3.4,2.7.3,3.9.9,1,.6.8,2,2,2.8a9.38,9.38,0,0,0,.1-5.5,5.28,5.28,0,0,1-.1-1.3c.3-1.5-1.3-3.2.5-4.5-.2-1.8-1.1-3.9,1.2-5.1,2.4,1.1,2.3,3.5,2.7,5.5a2.39,2.39,0,0,0,.5,1.4c.8.4,1.5-.9,2.5.1-4.3,1.4-1.1,4.1-1.2,6.2.7,1.3-.4,2.6,0,3.8-.8,4.2-2.9,8.2-2.5,12.6-2,2.2-2.1,5.1-2.7,7.7a8.45,8.45,0,0,1-.5,1.7c-1.4,1,1.1,2-.1,3-1.7,1.7-2.2,4-4.1,5.8s-3.6,3.7-5.3,5.6c-2.1,2.4-5,4.2-6.4,7.2-.6,1.4-1.2.6-1.9.5-.4.4-.2,1.2-.6,1.4-4.2,2.3-7.8,5.8-12.6,6.8h0c-2.3,1.6-5.3,1.1-7.6,2.4h-.6c-1.6.4-3.5.2-4.5,2h-.6c-.9-.5-2.2-.1-2.7-1.4,1.5-3.7,3.7-4.8,7.4-3.8a3.73,3.73,0,0,0,3.8-.5,5.68,5.68,0,0,1,2.6-1.2c5.4-1.1,9.4-4.5,13.3-8.1a2.69,2.69,0,0,0,.8-2.8c1.2-1,2.4-1.8,2.5-3.9.1-2.5,2.9-3.7,4.4-5.5s1.4-3.1-.9-3.9c-1.6-.6-2.3,0-1.8,1.6.8,2.4-.1,4.3-1.4,6.1a4.55,4.55,0,0,1-3.3,1.6c-1.6.3-1.9-.7-2.3-1.9-.1-.3-.8-.2-1.1-.5-.7-.8-1.5-1.6-.9-2.7s1.8-.9,2.8-.7c1.3.3,2.7.5,3.6-1.5-5.1.3-2.8-4-4-6.2-1.8.4-3.7,2.1-5.2-.1-1.3-1.8-.7-3.8.7-5.6-1.3,0-3-1.4-2.8,1.4.1,2-2,2.2-3.2,3a7.06,7.06,0,0,0-3.4,3,1,1,0,0,1-1.1-.5c-.4-1.1-.9-2-2-.5-.3.5-.6,1-1.4,1-.6-.4-.8-1.1-1.3-1.7a4.35,4.35,0,0,0-.7-.6,51.71,51.71,0,0,0-10.4.1h-1c-1.2-.3-2.4-.3-3.6-.5-1.1-.4-2.3-1.3-3.5-.1-4,2-8.1,1-12.2.6-.3-.3-.8-.8-.3-1a6.32,6.32,0,0,0,3.2-3.6c.3-.7,1.4-1.1,1.9-.5,1.7,2.1,2.8.5,4-.5a7.17,7.17,0,0,1,5.1-1.3,32,32,0,0,0,13.4-1.8c2.6-1,4.9.9,7.4.4.3-.6-.3-.7-.6-.8-3.1-1-3.2-1.3-.9-3.5.1-.1,1.3-.1.3-.8-.2-.2-.6-.1-.9-.2-.7-1.3.5-1.9,1.1-2.6a13.31,13.31,0,0,0,2.7-4.6,12.81,12.81,0,0,0,1-5.5C84.11,61.15,84,60,85,59.05Z"/><path class="cls-68" d="M88.11,119.65c4.4-2.7,9.1-5,13.3-8.2-.4,3.6-3.5,5.1-5.9,6.7A10.15,10.15,0,0,1,88.11,119.65Z"/><path class="cls-69" d="M71.11,126.75l-4.4,1.2-1.3-.1c-3.2.5-5.9-1.1-9-1.8.1-1.3,1-1.8,2-2.2a1.39,1.39,0,0,1,.9,0c4.2,1.3,8.4,1.8,12.7.3.7-.2,1.5-.9,2.3,0l-.6,1.7A5.38,5.38,0,0,0,71.11,126.75Z"/><path class="cls-52" d="M74.21,124.25a19.53,19.53,0,0,1-15,.6c-.1,0-.1-.4-.1-.6a2.09,2.09,0,0,1,1.6-.8c3.9-.1,7.8-.4,11.7-.5a3.34,3.34,0,0,1,2.5,1.2Z"/><path class="cls-70" d="M83.11,123.55c.6,1.1,2.1.1,3,1.4l-8.8,2.4c-.2-1.8,1.1-1,1.5-1.8l-1.5-.2C79,124,81.31,124.45,83.11,123.55Z"/><path class="cls-52" d="M80.51,122.15c2.2-1.9,5.2-1.4,7.7-2.4C86,121.75,83.21,121.85,80.51,122.15Z"/><path class="cls-52" d="M75.51,124.15c.5-2.9,2.5-2.3,4.5-2C78.91,123.75,76.71,123,75.51,124.15Z"/><path class="cls-71" d="M123.61,57.05c-2-.9-1.2-3.1-2-4.6a10.08,10.08,0,0,1-1.2-2.3c1.4-1.2-.4-2-.4-2.7.1-3.1-2.1-5.6-2.1-8.7,1.8-.4,3.6-.8,3.7,2,.1,2,2.5,3.8,0,5.9-.6.5.2.7.8.5s1.1.2,1,.3c-2.2,2.4.9,3,1.5,4.3C126,54.15,124,55.35,123.61,57.05Z"/><path class="cls-23" d="M124.81,81.15a7.44,7.44,0,0,1-1,4.6,3.55,3.55,0,0,0-2.5-1.4c.4-1.6,3.3-.9,2.8-3.2Z"/><path class="cls-72" d="M125.31,73.35c1-1.1.5-2.7,1.2-4.3C126.91,71.75,126.81,71.75,125.31,73.35Z"/><path class="cls-73" d="M72.31,122.85c-3.1,1.9-6.6,1.1-9.9,1.2-1.1.1-2.3.1-3.4.1h0c-.9-.7-2.4,1-3.1-.7-7.2-1.5-14.4-2.6-20.9-6.3-2.2-3.2-5.3-5.4-8.1-8-3.3-3.1-6.3-6.6-9.6-9.7-1.5-1.5-3-2.8-3.2-5-.1-.2-.1-.4.1-.5h.1a4.65,4.65,0,0,0,5.5,0c1.9.8,2.2,3.2,4,4.2.4.5.6,1.2,1.1,1.8,1.4.8,2.2,3.5,4.3,1.7,1.9-1.7-.6-2.8-1.3-4.1-.7-1.5-2-2.7-2.8-4.1a3.16,3.16,0,0,0-1.4-1.4c-1.8,0-1.5-2.3-2.4-2.5s-2.2,1.1-3.3,0c-.9-.2-2.4-.5-1.2-1.6,1.9-1.7,1.7-3.5,1.2-5.6a4.61,4.61,0,0,1,.6-3.6,15,15,0,0,1,1.9-3.8c1.7-.7,3.3-1.8,5.2-.3.6.5,1.1-.2,1.7-.5,1.4-.7,2.8-1.4,4.3,0a2.08,2.08,0,0,0,2,.5c1.7-.6,3.1-.6,3.4,1.7a1.32,1.32,0,0,0,1.6,1.1c.2,0,.3-.1.4-.1,1.1-.6.2-1.5-.3-1.9a3.6,3.6,0,0,1-1.3-2.3c-.5-2.1-1.5-3.8-4.2-2.3a1.85,1.85,0,0,1-2.5-.3c-.1-.1-.1-.2-.2-.3-.8-1.4.9-1.3,1.4-1.9a12.59,12.59,0,0,1,6-3.5c.7-.2,1.4-.7,2.1-.4,2.1,1,3.4.4,3.9-2a1.42,1.42,0,0,1,.8-.9c.6-.1.9.4,1,1,.6,3.5,3.3,3.3,5.8,3.2,1.2,0,2.2-.1,2.3,1.2s-.8,1.8-2.1,1.3c-.7-.2-1.3-.1-1.4.7s.7.9,1.3,1,1.6.4,1.4,1.3c-.2.7-1,.5-1.6.6-1.4.7-3.1.9-2.9,3.2.2,1.7.5,2.8,2.4,3.1,1,.2,2,.5,3,.8a34.6,34.6,0,0,0,16,.1c1.2-.7,2.7-.7,4-1.4,1.8-.9,3.3-2.4,5.5-2.7a8.8,8.8,0,0,0,1.5-.5c.5-.3,1.1-.9,1.5-.1a1.13,1.13,0,0,1-.3,1.6c-.1.1-.2.1-.3.2a4.85,4.85,0,0,0-2.7,2c.9,1,2,.4,3,.6a1.24,1.24,0,0,1,1.2,1.3.37.37,0,0,1-.1.3c-.1.9-.6,1.6-1.7,1.3a12.78,12.78,0,0,1-2.3-.6c-3.7-1.4-6.8.6-10.1,1.3a23.49,23.49,0,0,1-5.9.2c-3.4-.2-6.7,0-9.1,2.9-.9,1.1-2.3,1.8-2.2-.8,0-.5-.1-.8-.6-.8s-1.3.5-1.2.8c1,3.4-2.1,2.5-3.4,3.5.3.9-1.2,1.5-.4,2.4a5.83,5.83,0,0,1,.6,2.6c0,1.4.9,1.7,2,1.6,1.6-.1,3.2.3,4.7-.5,1-1.3.2-3,1.1-4.3a.78.78,0,0,1,.8-.2c1,1.2,1.1,2.9,2.5,3.8,1.5,2.7,1.2,3.6-1.7,4.1-.8.2-1.6.3-2.4.5a47,47,0,0,1-5.3.2c-.8.1-2-.4-2.3,1l.3,1.2c.5,3.5,2.9,4.9,6.3,3.7,1.4-.5,1-1.7,1.2-2.6.3-1.1,0-3.5,2.2-1.3,1,1,2.1-1.6,3.3,0,.8,1,.7,2.5,1.5,3.4,1.1,1.3,5.2.5,6.5-1.1a9.24,9.24,0,0,1,1.7-2.2c2.3-1,3.6,0,4.2,2.3a1.79,1.79,0,0,0,.7.5c1.6,0,1.2-1.4,1.5-2.3s.7-1.6,1.7-1.6,1.3.9,1.5,1.7c.2,1.3.7,2.4,2.3,2.4,1.2-.4,2.6,1.7,3.6-.3.2-1.4,0-3,1.2-4.1,1.1-1.8-.4-1.5-1.3-1.8-1.1-.3-2.7-.1-2.3-2.1,3.4-1.3,3.2-4.8,4.5-7.3a1.52,1.52,0,0,1,1.4-1.5c1.8-.2,2-1.1,1.3-2.6-1-1.9.2-1.9,1.6-1.6.8.1,1.6.3,2.5.5.6.1,1.3,0,1.5.8s-.6.9-1.2,1.2c-2.1.9-1.4,2.8-.8,4,.7,1.7,2.2,1.2,3.4.2.5-.5,1.1-1.2,1.9-.8,1,.4.7,1.4.7,2.2v2.5c0,1.2,0,2.2,1.7,1.6.8-.3,1.8-.3,2,.8a2.19,2.19,0,0,1-1.3,2.6,5.19,5.19,0,0,1-3,.3c-.9-.2-1.7-1.2-2.5-.3s.8,1.5.6,2.5a10.47,10.47,0,0,0,.5,3c.3.8.8,1.7,0,2.3-1,.8-1.9.1-2.7-.6-.3-.1-.6-.8-.7.1a2.23,2.23,0,0,0,1,1.8,3,3,0,0,1,.5.7c.2,1.1,0,2.2-1.4,1.7-2.4-.9-4.2.1-5.8,1.4s-4,2-5.3,3.9a1.64,1.64,0,0,1-2.2.7h0c-1.7-1.3-2.5-.3-3.1,1.2-.2.1-.1.1.2.1,2.6,0,5.3,1.3,6.9-2.5.5-1.2,3.7-1,5.6-1.4.5-.1,1.5,0,1.5-.3-.2-4.1,3.2-1.1,4.4-2.3.9-1.2,1.4-2.7,2.8-3.5.5-.3,1.2-1.1,1.6.1.8.8,2.2,1.1.4,2.7-4.5,4.1-9.1,7.7-15.2,9.5-2.7.8-4.7,1.9-7.7.8C75.41,118.45,73.71,121,72.31,122.85Z"/><path class="cls-74" d="M75.51,50.15c-2.4,1.3-4.7,3.1-7.7,2.3-.6-.2-.9.4-1.2.8-2.4.9-4.8-.3-7.2,0-1.1.2-2.2-.1-3.4.1-1.6.2-3.1,1-4.7.1a3.33,3.33,0,0,1-.6-1c-.4-5-.1-10-.1-15,0-2,.9-2.9,3.1-3,6.2-.4,12.3.1,18.5-.5,2,0,4-.5,5.9.4a4.29,4.29,0,0,1,.2,4.5c-1.8,1.3-3.8.6-5.8.7q-3.9.15-7.8,0c-2.2-.1-3,.8-2.9,3,0,1.4,0,2.7.1,4.1a2.18,2.18,0,0,0,.5.8c2.2.8,4.5.2,6.8.4,1.2.1,2.5-.2,3.7.5C74,48.45,75.31,48.55,75.51,50.15Z"/><path class="cls-75" d="M23.61,98.15c-2.6-.3-2.7-2.8-3.9-4.3-.6-1.5-1.2-3-1.8-4.4,1.2,0,2.5.1,3.2-1.3a.85.85,0,0,1,1.1-.5c.1,0,.1.1.2.1.3.2.5.9.4,1-1.4,2,.5,2,1.5,2.5.2,1-.7,1.2-1.2,1.7.8-.1,1.4-1.4,2.3-.4,1.9,2.4,3.3,5.1,5.4,7.3.9.9,0,1.6-.7,1.9-1.2.5-2.3,2.5-3.8.7a13.63,13.63,0,0,0-2.4-2.4c-.1-1-.7-2.4,1.8-1.8C24.71,97.35,24.21,98.05,23.61,98.15Z"/><path class="cls-50" d="M14.71,56.45c0-2,0-2,2.2-.9,1.6-3.6-.8-7.8,1.5-11.4.4-.7.4-2,1.5-1.4s2.5,1.3,2,2.8c-1.3,4-2.7,8-1.6,12.4.3,1.5-1.2,2.3-2.4,2.9-1-1-.7-2.9-2.5-3.3A10.54,10.54,0,0,1,14.71,56.45Z"/><path class="cls-76" d="M4.81,74.65c0-.6-.1-1.2-.1-1.8l.6.1c.9.4,1.9.2,2.9.5l.8,2c-.3.4-1.1.8-.1,1.2.3.5,1.1,1.2,1,1.6-.9,3.5,1.6,6.2,2.1,9.4-.5.3-.9.7,0,1,.7,1.1,1.1,2.1.1,3.2-1.1-.1-1.9.3-2,1.5-.6-2-1.3-3.9-1.9-5.8A41,41,0,0,1,4.81,74.65Z"/><path class="cls-77" d="M72.41,34.45c-5,1.1-10,.4-15,.5-6,.2-6,.1-6,6,0,4.1,0,8.2.1,12.3-1,.3-1-.5-1-1.1V38c.2,4.6-.4,10.6.3,16.7-1.8-.3-1.2-1.7-1.2-2.7-.1-4.2-.1-8.3-.2-12.5a20.9,20.9,0,0,0,.1-2.5c-.2-2.4,1-3.1,3.1-3.3,7-.4,14-.7,20.9-.5-.3,1.4-1.5.8-2.2.8-3.1.1-6.2,0-9.3.1-.4.2,0,.8-.1.4,0-.1,0-.1.1-.2A32.94,32.94,0,0,1,72.41,34.45Z"/><path class="cls-78" d="M53.41,79.35a12.66,12.66,0,0,0-2.8-.6c-3.3-.3-2.9-2.7-2.9-4.9,0-2.8,2-2.1,3.6-2.2l2.7,1.1c-.3.6-1,.2-1.4.7-.9.7-2.5-1.7-3,.5-.4,1.9.3,3,2.5,3.4a47.94,47.94,0,0,0,19.6-.1c.7.5,1.7-.3,2.3.5-1,1-2.5.7-3.7,1.4A34.52,34.52,0,0,1,53.41,79.35Z"/><path class="cls-79" d="M20.51,74.75a3.49,3.49,0,0,1-1.9,3.8l-.6-.1c-1.1,0-2.5-.5-2.2-1.5.5-1.8,1.6.8,2.6-.2.2-.7-.7-1.3-1.1-2.1-1.4-1.1-2.3-2.7-1.6-4.4s-.5-2.2-.8-3.2a4.07,4.07,0,0,0-.8-2.4c-.4-1.9.4-1.5,1.5-.8s1.2,2.4,3,2c2.1.2,1.4,2.8,1.4,2.9C16.11,71.25,18.91,73,20.51,74.75Z"/><path class="cls-10" d="M55.91,52.65a29.59,29.59,0,0,1,10.7.5c6.5,3.2,9,13.1,1.8,18.2,4.2-7.2,4.7-13.1-3-17-2.2-1.4-4.7-.6-7-.9C57.51,53.45,56.21,54.35,55.91,52.65Z"/><path class="cls-80" d="M74.11,78c-.8-.1-1.7.3-2.3-.5,5.5-2.2,9.5-5.8,11.2-11.7,1.1.7.5,1.8.7,2.7-.6,2.7-2.7,4.4-4.4,6.3Z"/><path class="cls-81" d="M83.61,68.45c-.9-.7-.4-1.8-.7-2.7.9-3.6-.5-7-1.2-10.4-.3-.7.1-.9.7-.8l2.5,4.5C85,62.25,85.31,65.45,83.61,68.45Z"/><path class="cls-82" d="M14.91,67.15c.9.8,2.2,1.1,1.2,3-.8,1.5.9,3,1.2,4.6h-4a1.38,1.38,0,0,1-1.3-1.1.73.73,0,0,1,.4-1h0C16.21,72.15,14.81,69.25,14.91,67.15Z"/><path class="cls-83" d="M18.51,66c-1.3.9-2.2.6-2.8-.8,0-.1-.7-2.4-1.6-.3l-1.2-.8c-.5-1.3-1.1-2.7.7-3.5,3.7-.7,4.1-.3,3.8,3A1.77,1.77,0,0,0,18.51,66Z"/><path class="cls-84" d="M9,50.75c-.2-.8-.4-1.7-.6-2.5,1.9-1,.9-3.1,1.8-4.6a4.51,4.51,0,0,1,1.9-1.7c.4,3.2-.9,6-1.9,8.8a.75.75,0,0,1-1.2,0Z"/><path class="cls-85" d="M24.61,32.45c.2-1.2.8-2.2,2-1.7a4.72,4.72,0,0,1,3.1,2.9c.4,1.3-.8,1.4-1.8,1.5C26.91,34.25,25.41,33.85,24.61,32.45Z"/><path class="cls-77" d="M24.91,43.75a14.16,14.16,0,0,1-5.5-2.7,1.47,1.47,0,0,1-.7-1.9c.5-.8,1.2-.1,1.6.1,1.9,1.3,4.7,1.4,4.6,4.5Z"/><path class="cls-86" d="M17.31,63.45c.2-3.9-2.7-2.3-4.5-2.5a.47.47,0,0,1-.6-.1.1.1,0,0,0-.1-.1c.4-.5,1.4-.7,1.3-1.7.5-.8,2.1-.6,1.9-2,2.9-.2,2.4,2,2.5,3.8C17.81,61.75,18.21,62.75,17.31,63.45Z"/><path class="cls-87" d="M9,50.75h1.2a23.14,23.14,0,0,1-2.5,8.1l-.6-.7C7.81,55.75,7.21,53,9,50.75Z"/><path class="cls-88" d="M82.41,54.55l-.7.8c-1.7-2.1-3.3-4.5-6.2-5.2a5.22,5.22,0,0,0-2.5-1.4c.3-1.4,1.2-.7,2-.6A14.12,14.12,0,0,1,82.41,54.55Z"/><path class="cls-88" d="M52.71,73.55c.3-.6.9-.6,1.4-.7,3.8-.1,7.5.5,11.9-.2C61.31,75.55,56.91,73.55,52.71,73.55Z"/><path class="cls-89" d="M50.81,54.55c-1.2-3-.5-6.2-.6-9.3a38.48,38.48,0,0,1,.6-9.6v14.4c0,1.1-.5,2.3.7,3.2h0c.2.4.9.6.5,1.3Z"/><path class="cls-77" d="M52,54.45l-.5-1.3,4.4-.5c1.9,1.3,4.1.3,6.1.6,1.2.2,2.6-.2,3.4,1.2C60.91,53.05,56.51,54.55,52,54.45Z"/><path class="cls-77" d="M26.81,43.15h1.8c.2,1.5-.2,3.1-1.5,3.3s-2.2-1.2-2.1-2.7h0Z"/><path class="cls-90" d="M15.41,57.05c2.2,3.4-1.3,1.3-1.9,2-1.2-.1-2.3-.2-2.8-1.6,1.2-1,3.4,1.6,4.1-1Z"/><path class="cls-69" d="M12.21,60.75l.6.2c-.1,1,.7,2,0,3-1.4.3-2.7-.3-2.9-1.6S11.31,61.15,12.21,60.75Z"/><path class="cls-91" d="M25.31,36.35c-.2.6-.3,1.5-1.2,1.5-.7,0-1.7-.2-1.5-1.1a2.76,2.76,0,0,1,1.5-1.5C24.71,35.05,25.21,35.55,25.31,36.35Z"/><path class="cls-26" d="M14.21,93.75a1.27,1.27,0,0,0-.1.6c-.6.3-1,1.5-2,.8s-.3-1.6.1-2.4C13.31,92.35,13.71,93.05,14.21,93.75Z"/><path class="cls-92" d="M4.71,64.55c0-1.2.9-1.5,1.8-1.8,1.2.9.5,1.8,0,2.6A1.84,1.84,0,0,1,4.71,64.55Z"/><path class="cls-93" d="M8.31,73.35c-1.1.9-2.1,1.1-2.9-.5,1-.8,2-1.1,2.9.1Z"/><path class="cls-23" d="M9,76.65c-.8.5-2,1.1-2.1-.4s1.4-.7,2.2-.9A6.15,6.15,0,0,0,9,76.65Z"/><path class="cls-94" d="M12.11,88.65c-.6.4-1.2,1-1.8.2a1.3,1.3,0,0,1-.2-1c.6-.6,1.3-.3,2-.2Z"/><path class="cls-95" d="M49.51,8.35l1.8-.1c.9.2,1.9-.1,2.6.7-4.4,1.4-8.8,3.3-13.3,4.1-4.8.9-7.6,4-10.7,7-3.2,3.2-6.3,6.6-9.4,9.9a3.18,3.18,0,0,1-2,.8c-.1-.4-.1-.8-.2-1.1,4.5-5.1,9.6-9.5,14-14.5,4-4.6,10-3.2,14.4-6.1A10.44,10.44,0,0,1,49.51,8.35Z"/><path class="cls-96" d="M7.21,69.05c0,1,0,2-1.4,1.9-.5,0-1.1-.2-.9-.9C5.21,69,6.21,69.05,7.21,69.05Z"/><path class="cls-97" d="M82.11,16.55c-.5,1.6-2.7,2.1-4.6,1.3a2.92,2.92,0,0,0-.9-.2c-2.3.6-2.4.4-1.9-2.2a5.94,5.94,0,0,0-.5-1.2c-.7,1.3-1.2,2.3-1.8,3.3-.4.6-1,1.2-1.9.8s-.7-1.2-.2-1.8c1.3-1.8.5-2.4-1.4-2.4-1,0-1.7-.4-1.6-1.5a1.5,1.5,0,0,1,1.5-1.3.76.76,0,0,1,.4.1c3,1.5,7.2.3,9.5,3.6.2.2.7.5.8.4,3.2-2.7,5.5,1,8.3,1.1,1,0,2,1,1.4,2-.8,1.2-.5,3.3-2.5,3.7-.6.1-.9-.3-1.1-.9C84.81,18.35,84.81,18.35,82.11,16.55Z"/><path class="cls-98" d="M75,48.15c-.7.2-1.5-.1-2,.6-2.8-.9-5.8-.5-8.6-.6-1,0-2.1.7-2.8-.5.8-2,0-4.2.4-6.3-.4,2.1.3,4.2-.5,6.3-1.3-2.3-.7-4.8-.6-7.3.1-1.7,1.6-1.6,2.9-1.6l14.1-.1a1.43,1.43,0,0,1,1.2.6c-2.5,1.3-5.3.4-7.9.7-1.4.1-2.7.1-4.1.1-4,0-5.5,2.2-4.3,6,.5,1.4,1.5.9,2.3.9C68.51,47.05,71.91,46.25,75,48.15Z"/><path class="cls-99" d="M73.61,6.55c3.6.2,6.9,1.6,10.3,2.4s7.1,2.3,10.7,2.7c2.6.3,1.7,1.2,1.1,2.5l-21.5-5.8C75.11,7.35,73.11,7.35,73.61,6.55Z"/><path class="cls-100" d="M73.61,6.55c.4.5,1.3.9.6,1.8-1,.4-1.9-.3-2.7-.7-6.1-3-11.8-.1-17.6,1.3-.9-.1-2,.3-2.6-.7,4-1.3,8.1-2.3,12-4,2.1-.8,3.6.5,5.2.7A15.18,15.18,0,0,1,73.61,6.55Z"/><path class="cls-101" d="M91.11,24c1.6-.6,2.2-2.8,4.1-2.9.1.4.2.6.2.7-.6,1.1-3,1.8-1.8,3,1,1.1,2.2-.9,3.1-1.7.4-.3.8-.9,1.3-.4s0,1-.4,1.5c-3.1,3.2-5.7,3.2-8.8,0a1.55,1.55,0,0,1-.3-2l.2-.2c.9-1.1.8-3.1,2.6-3.3,1.1-.1.9.9.9,1.6C92,21.65,90.61,22.45,91.11,24Z"/><path class="cls-102" d="M41.31,24.15c-1.9,3.3-5.1,4.1-7.1,1.7-1.3-1.7-1.4-2.6.8-3.3a2,2,0,0,0,1.3-.9c1.7-2.3,2.5-1,3.1.7.4,1.1.8,1.8,1.9,1.8Z"/><path class="cls-103" d="M107.71,42c-1.1,0-4.5-4.2-4.1-5,.5-1.1,1.5-1,2.3-.2.5.6,1,1.3,1.5,2a1,1,0,0,0,1.3.4c.8-.5.6-1,.1-1.5-.1-.2-.3-.3-.3-.5-.1-1.2-2.5-1.6-1-3a1.52,1.52,0,0,1,2,0,2.09,2.09,0,0,1,.4.6c.5,1.4,3.7,2.1,1.3,4.3C109.91,40,109.21,41.45,107.71,42Z"/><path class="cls-104" d="M119.11,55.25c-1.2,1.4.9,2.9,0,4.3-1.6,1.3-3.1.4-4.7-.1-1.1-.7-.8-1.9-1.2-2.8-.2-.5-.2-1.4-1.2-.8-.9-1.1-.8-2.1.5-2.8,1.5-.8,3.6-2,4.8-1.2,1.6,1-1.2,1.2-1.2,2.2A4.41,4.41,0,0,0,119.11,55.25Z"/><path class="cls-105" d="M41.31,24.25v-1.6c-.2-2.3.2-3.1,2.4-4.4.8-.5,1.5-2.1,2.1-1.4,1,1.1,1.7,2.5,2.6,3.7.1.1-.2.8-.3.7-2.8-.3-4,3.2-6.8,3Z"/><path class="cls-106" d="M107.81,22.35c.2,1,1.3,1,1.8,1.7,0,.9.6,2-.6,2.5s-1.7-.6-2.3-1.2c-2.6-2.3-5.2-4.7-7.8-7,.1-1.2,1.2-1.3,2-1.8l4.6,5.2C106.11,22.55,107,22.25,107.81,22.35Z"/><path class="cls-83" d="M30.61,32.35c-.2-1.2,1.5-1,1.7-2.2-1.8-.1-4.3,1.3-4.7-1.4s2.5-2,3.7-3.2c.8,1.3-1,1.7-.5,2.8a1.7,1.7,0,0,0,.7.1c.9-.2,1.4-2.3,2.7-.7,1.1,1.3.1,2.3-.7,3.3a17.41,17.41,0,0,1-1.2,1.4,1.24,1.24,0,0,1-1.7.1C30.71,32.45,30.71,32.45,30.61,32.35Z"/><path class="cls-107" d="M48.81,18.65c-.6-1.1-1.9-2.9-.5-3.2,1.8-.4,4-2.4,5-1.2a7.25,7.25,0,0,1,1.7,4.8c-.2,1.5-2.5,1.4-4.1,1.4a1.53,1.53,0,0,1-.4-1.7.91.91,0,0,0-.7-1.2C49.31,17.45,49.31,18.45,48.81,18.65Z"/><path class="cls-108" d="M111,45a17,17,0,0,0,2.2-.1c1-.2,2.2-1.1,2.7.3s-1.2,1.4-2,1.8l-.9.6a2.42,2.42,0,0,0,2.7.2,1,1,0,0,1,1.4.5.35.35,0,0,0,.1.2c.3.9-.4,1.3-1.2,1.5l-3.7.6c-.5-.7-.3-1.8-1-2.3C109.51,47.25,110.11,46.15,111,45Z"/><path class="cls-109" d="M114,59l5.1.7v1.2c-.3,3.3-.5,3.4-3.4,1.9-.3-.3-.2.6.1.2a.77.77,0,0,1,.3.1c.4.2.7.5.5.9-1.3-.3-3.2.9-3.9-1.2,0-1.3,1-2.6.2-4A.81.81,0,0,1,114,59Z"/><path class="cls-110" d="M57.91,15.25c-.7,2,.1,2.3,1.8,1.7.4-.2.9-.3,1,.3.1.2,0,.8-.1.8-1.4.7-3.2,1.2-4.4.1a3.63,3.63,0,0,1-.6-4.4,1.79,1.79,0,0,1,1.7-.4C58.21,13.65,57.61,14.65,57.91,15.25Z"/><path class="cls-67" d="M112.21,58.25c-.2.8-.3,1.8-1.4,1.8-.9,0-1-.9-1.3-1.6-.3-1.1-.8-2.2-1.1-3.3a1.28,1.28,0,0,1,.9-1.6h.1c1-.2,1.3.4,1.3,1.3,0,1.2-.1,2.4,1.2,3,.1.1.2.2.2.3C112.31,58.15,112.31,58.25,112.21,58.25Z"/><path class="cls-98" d="M111,45c.4.9-1.2,2.5,1.1,2.8a3.29,3.29,0,0,1,.1,2.9c-1.7-.4-4-3.9-3.4-5.3C109.21,44.45,110,44.05,111,45Z"/><path class="cls-98" d="M72.41,34.45H61.61c4-1.3,8.1,0,12-1.3,1.9.2,3.8-.7,5.5.7a1.43,1.43,0,0,1-1.2.6Z"/><path class="cls-111" d="M113,39.65c1.5-.1,1.9,1.1,2.1,2,.2,1.3-1.1,1-1.8,1.2-1.4.4-1.8-1-2-1.8C111.11,40.05,112.41,40.05,113,39.65Z"/><path class="cls-112" d="M77.91,34.35c.2-.5.7-.6,1.2-.6.4,1.8,1.8,3.7,0,5.5l-1.2-.6Z"/><path class="cls-113" d="M112.21,58.25a.75.75,0,0,0-.1-.5V56c.2-.7-.2-1.9,1-1.8s.3,1.2.6,1.6a2.86,2.86,0,0,1,.3,3.3l-1.1-.1Z"/><path class="cls-79" d="M101.41,26.25a1.9,1.9,0,0,1-2.1,1.7h-.1c-.7,0-1.1-.6-.6-1,.8-.7-.3-2.6,1.5-2.6C101.11,24.45,101.41,25.35,101.41,26.25Z"/><path class="cls-114" d="M48.81,18.65c.6-.8-1-2.3.6-2.4a2.24,2.24,0,0,1,1.7,2.6c0,.1-.1.3-.1.4a4.87,4.87,0,0,0-.1,1.2A1.93,1.93,0,0,1,48.81,18.65Z"/><path class="cls-99" d="M95.71,14.15c.9.1,2.1-1.2,2.7.1.5,1-.5,1.6-1.5,1.8C95.81,15.85,95.61,15.05,95.71,14.15Z"/><path class="cls-115" d="M102.91,30c.7,0,1.2.3,1.2,1,0,.5-.5.8-1.1.9s-1.3,0-1.4-.8S102.31,30.15,102.91,30Z"/><path class="cls-116" d="M100.81,16.55c0,1.4-1.4,1.1-2,1.8l-.6-.5C98.61,16.45,99.11,15.25,100.81,16.55Z"/><path class="cls-117" d="M65.81,14.85c0,.9-.5,1.1-1.2,1.1-.4,0-.9-.1-1-.6-.2-.8.4-1.1,1-1.2a.84.84,0,0,1,1.1.4C65.81,14.75,65.81,14.75,65.81,14.85Z"/><path class="cls-118" d="M111.51,26.75c1.2,2.4-.5,1.9-1.8,1.8C109.61,27.25,110.31,26.65,111.51,26.75Z"/><path class="cls-37" d="M30.61,32.35l1.9.1c.9.7.5,1.4-.3,1.6C30.81,34.35,30.71,33.25,30.61,32.35Z"/><path class="cls-52" d="M55.91,123.45c.9,1,2.4-.9,3.1.7l-2.2,1.5,8.6,2.2c-1,1.3-2.3.7-3.5.4-3.4-.8-6.6-2.3-10.6-2.7C53,124.15,56,127.15,55.91,123.45Z"/><path class="cls-60" d="M44.11,122.65c-2.3,1.6-3.9-.6-6.5-.5C40.41,120.85,42.11,122.85,44.11,122.65Z"/><path class="cls-93" d="M4.81,74.65a111.43,111.43,0,0,1,3.5,12.9c-.7.5-.4,1.2-.6,1.9-1.2-4.5-2.5-9-3.7-13.4A1.72,1.72,0,0,0,4.81,74.65Z"/><path class="cls-91" d="M94.41,107.05h-.5c-1.6-2.6-1.5-2.9.5-3.1.5.7,1.1,1.6,2,1,.7-.4.1-1.6-.2-1.9-1.3-1.2-.8-2.2.2-3.1.7,0,1.2-1.1,2-.6,1.2.9-.5,1.6-.2,2.5,4.9-.7,6.3-2.6,5.1-7.5-.7-2.5.6-2.8,2.4-2.4a5.27,5.27,0,0,1,3.7,2.6c.7,1.5-1.1,2-1.9,2.9-.9,1.2-2.1,2.1-3,3.2-.7.8-1.9,1.1-1,3,.7,1.4-1.2,2.8-3.2,2.6-2.5.1-2.6,2.6-3.8,4C95,109.65,95.11,108.05,94.41,107.05Z"/><path class="cls-84" d="M86.71,87.65c0,5.2-.7,6.5-4.3,7.5-3.3,1.2-4.5,1-6.5-1.6-1,1.1-1.9,2.6-3.7,1.8-1.5-.6-.5-2-.7-3-1,1.2.3,3.2-1.6,4a1.21,1.21,0,0,1-.7-.7,12.76,12.76,0,0,1-.1-5.5c2.8-2.4,6-2.6,9.4-2.1a.9.9,0,0,1,.1.5c-.2,1.8-.2,1.8.7,1.8.2-.4.5-.9.7-1.3.5-.8,1-1.7,2.1-1.5,1.3.3.7,1.5.9,2.3-.2,2.1.1,4.6-3.6,3,2.6.9,4,.2,4.3-2.4C83.81,88.65,84.41,87.25,86.71,87.65Z"/><path class="cls-119" d="M57.11,93.65c-2.2-.3-1.7-2.2-2-3.6-.6-1.6.4-1.8,1.5-1.7a2,2,0,0,0,2.4-1.3.37.37,0,0,1,.1-.3c1.3-.8,2.3-.7,3.1.8.7.2-1.4,1.6.5,1.2a1.72,1.72,0,0,1,1.2.2c1,1.2,1.1.6,1.2-.5,0-.4.5-.6.9-.4a1.27,1.27,0,0,1,.6.1,3.65,3.65,0,0,1,2.8,2.8c.2,1.7-.3,3.4.2,5.1l.2.3c-2.3,1.3-3,.8-3.4-2.6,0-.2,0-.4-.2-.5l-.2.2a3.32,3.32,0,0,1-1.7,1.8c-1.5.3-2.6.1-2.8-1.7-.1-.8.8-1.7-.3-2.2s-1.8.2-2.5,1A1.81,1.81,0,0,1,57.11,93.65Z"/><path class="cls-120" d="M119.61,72.05c-.3,4.6-1.8,5.7-5.9,4.5-.6-.2-1.3-.3-1.2-1.1s.7-.8,1.2-.7c2.5.4,2.7-1.4,3-3.1.2-1,.5-1.9,1.8-1.7S119.71,71.05,119.61,72.05Z"/><path class="cls-121" d="M59,86.85c.2,1.1.5,2.1-1.3,1.9-1.1-.1-2.4-.3-2.7,1.4l-.3-.1c-1,.4-2,.8-3,1.3a6.89,6.89,0,0,1-.8.3,3.07,3.07,0,0,1-2.1-.2c-1.2-.5-2.3-1.3-3.8-1.1-1.9-2,.9-1.6,1.2-2.4,3.4,0,6.9-.1,10.3,0C57.81,88.15,58.31,87.35,59,86.85Z"/><path class="cls-82" d="M69.11,90.55l-2.5-2.4a20.45,20.45,0,0,1,12,0l-8.8,2A1,1,0,0,1,69.11,90.55Z"/><path class="cls-80" d="M116.61,64.05a5.5,5.5,0,0,0-.9-.7c-.6-.2-1.6.2-1.6-1a1.14,1.14,0,0,1,.3-.8c1-.8,1.2.5,1.6.8,2.5,2.2,2.2-1,3.2-1.6,1.1,1.4.4,3,.6,4.5.1,1.1,0,2.3-1.3,2.4s-.4-1.5-1.3-2C116.71,65.55,116.81,64.65,116.61,64.05Z"/><path class="cls-77" d="M106.61,86.85c2.7-2.2,4.7-1.7,7.3,1.9-.5.6-.9,1.5-1.9,1.6-.5,0-1.2,0-1.4-.5-.7-1.4-.6.2-1,.2C107.91,89.75,107.41,88.15,106.61,86.85Z"/><path class="cls-82" d="M66,88.15c-1.2.8-.2,2.2-1.1,3.6-.3-3.2-2.8-1.9-4.4-2.6.2-1,1.6-.5,1.6-1.5C63.41,87.65,64.81,87,66,88.15Z"/><path class="cls-62" d="M83.71,90.65c.7,3.3.3,3.5-5.2,2.8,2.2-.3,4.2-.9,4.6-3.5Z"/><path class="cls-122" d="M106.61,86.85a5.87,5.87,0,0,1,2.8,3.2,1.3,1.3,0,0,1,.5,1.3.92.92,0,0,1-1.1.7C107.61,90.55,106.41,89.05,106.61,86.85Z"/><path class="cls-123" d="M79.41,90.45c-.1.6.5,1.2-.2,1.7-.4.2-1,.2-1-.3-.1-1.1-1.3-2.4.5-3.2C79.41,89.05,79.21,89.85,79.41,90.45Z"/><path class="cls-57" d="M112.11,90c.7-.3.8-1.4,1.8-1.2a2.8,2.8,0,0,1-1,3.2.92.92,0,0,1-1.1-.7A1.59,1.59,0,0,1,112.11,90Z"/><path class="cls-77" d="M112,91.15l.9.9c-1.3,1.4-2.7,1.7-4,0l.8-.8A2.66,2.66,0,0,1,112,91.15Z"/><path class="cls-124" d="M69.31,100.75c-1.5,3.9-4.2,5.3-8.1,4.3-.8-.2-.8-.2-2.7-4.6-.9.5-.5,2.2-2,2s-.8-1.7-1.5-2.5c-.1.1-.3.2-.4.3-.4,1.5.8,3.6-.8,4.4a9.4,9.4,0,0,1-6.8.2c-2.2-.7-.7-3.2-1.4-4.7a.66.66,0,0,1,.6-.1c1.1.7.3,1.7.4,2.6.3-.5-.1-1.6,1.1-1.2a2.34,2.34,0,0,1,1.2,1c.6.2-.7,1.1.3,1a23,23,0,0,0,2.6-.3,5.85,5.85,0,0,0-1-1.7c-.6-.6-1.6-.6-2.1-1.3a.78.78,0,0,1,.2-.8c1.3-.8,2.9-.6,4.2-1.3,2.9-.8,5.8-1.3,8.6-.3,1.3.4,2.4-.9,3.6-.1,1.3,4.1.7,5.3-2.5,5.7,1.9.4,3.5.2,3.1-2.5a3.77,3.77,0,0,1,.8-2.7c2.6-.9,5.3-1.7,8.1-.9,1.7,1,1,2.3.5,3.6s-.7,2.4-1.8,3.3H73C72.51,102,72.81,99.05,69.31,100.75Z"/><path class="cls-125" d="M47,117.15c-4.9-3-9.7-6.1-14.7-8.8-2.5-1.4-1-2.8-.3-4,.8-1.4,2.3-2.4,3.5-.7,3.2,4.4,8.7,5,12.9,7.7.1.4-1.1.2-.5,1s1.1.3,1.5-.1c1.9.3,4-.5,5.6,1.2-.4.9-2.2.7-1.6,2.5.3,1-.9.8-1.6.7A8.93,8.93,0,0,0,47,117.15Z"/><path class="cls-67" d="M75.51,97.55l-6.2-.1c-1,0-1.9-.1-2.1,1.2-1.2.5-1.3-.7-1.9-1.1-2.2,2.4-4.7.1-7.1.3-1.5.1-3.2,0-4.8.2q-.45-.15-.3-.3l.2-.2a8.3,8.3,0,0,1,2.1-.6c2.9.1,3.4-1,1.6-3.3a15.38,15.38,0,0,1,1.2-1.3,3.39,3.39,0,0,0,3.9.8c-.3,2.1.9,2.2,2.5,1.8,1.4,0,1.3-.9,1.2-1.9.3-.7-.1-1.7,1.4-2.3,0,1.5-.1,2.8,0,4.1.1,1.7.8,2.6,2.7,1.6,1.2-1.5.2-3.2.7-4.8.2-.7.5-1.5,1.5-1.2.8.2.6.9.6,1.6,0,1-1.8,2.2-.2,2.8,1.9.7,2.3-1.1,2.9-2.5l.6-1.5c.1,5.5,3.8,3.8,6.4,4.2.4,1.9,2,1,3,1.2,2,.4,2.7,1.3,1.3,3.1-.5-.5-.9-.8-1.5-.1s-1.2,1.2-2.1.5a1.77,1.77,0,0,0-.8-.5C79.51,101.15,77.71,98.65,75.51,97.55Z"/><path class="cls-126" d="M94.41,107.05a5.69,5.69,0,0,1,2,3.2c-1.4,2.3-2.8.5-4.2-.3.8,2.1,1.8,3.9-2,3.1-1.9-.4-3.9,1.3-6,1.3-.2.1-.4.2-.4.4-.3,4.3-2.3,3.9-5.1,2-.3-.2-1.2.2-1.8.4a1.57,1.57,0,0,1-1.7-.5,1.23,1.23,0,0,1,.1-1.3c3,2.5.2-4.9,3.5-2,1.4,1.3,3.5,3.7,3.2-1a.55.55,0,0,1,.3-.5c1.8.5,3.3.4,3.5-2,1.9.7,2.7-1.2,4-1.8a4.13,4.13,0,0,1,3.6.2C95.11,109.25,94.31,107.65,94.41,107.05Z"/><path class="cls-127" d="M75.51,97.55c1.4,0,2.9-.6,3.5,1.5.3,1.1,1.2.2,1.7-.1,1.2-.9,2.2-1.2,3,.5a1.83,1.83,0,0,1-.7,1c-1.5.7-.6,2.6-1.7,3.4-2.1,1-2.8,0-3-2-.1-.8.4-2.2-1.1-2.1-1.1.1-.8,1.3-.8,2,0,1.9-.4,3.2-2.7,2C73.41,101.55,75.41,99.85,75.51,97.55Z"/><path class="cls-84" d="M57.11,114.05a1,1,0,0,1,.3,1.3c-.2.5-.1,1.3.6,1.4,1,.1.8-.9,1-1.5,1.2-1.6,2.5-.8,3.5,0s2.1,1.9,1.7,3.1c-.6,1.9-1.9.9-2.9.1-1-.4-1.3,1.5-2.4.6-1.6-.5-3.3-1-3.6-3C55.31,115.05,54.81,113.35,57.11,114.05Z"/><path class="cls-128" d="M61.41,118.45c.8.1,1.6,1,2.3.2s-.5-1.4-.9-2c-.9-1.5-2-2.3-3.8-1.4.2-.3.3-.9.6-1,2.8-.7,5.4.8,8.2.5.5,1.2-2.1,2.5.1,3.7A4.78,4.78,0,0,1,61.41,118.45Z"/><path class="cls-84" d="M47,117.15c1.5-2.6,3.9-.6,6-1.3.7-.8-2.7-.6-.9-1.7a9.42,9.42,0,0,1,3-.7h0a13.1,13.1,0,0,1,0,2.8c-.1,1.7-1,2.2-2.5,1.5a2.87,2.87,0,0,0-3.5-.3C48.31,117.85,47.61,118.05,47,117.15Z"/><path class="cls-129" d="M54,95.15c-1.9,1.1-3.9.5-5.8.5-1.6-1.3-2.3-2.4.4-3.2,1.1-.1,2.2-.2,2.9-1.2l.2-.1C53.81,91.55,54,93.35,54,95.15Z"/><path class="cls-130" d="M48.91,93.15c-3.1-.1-.7,1.6-.8,2.4-1.7.2-2.5-.4-2.5-2.2,0-1,.3-2-.5-2.9.9-.8,2.6-.5,3.7.8A1.3,1.3,0,0,1,48.91,93.15Z"/><path class="cls-131" d="M53.41,97.55v.5c-1.1,1.8-2.9,1.4-4.5,1.5-1.3,1.7-2.6-.2-3.8,0-.8-1.9.6-1.9,1.7-1.9C49,97.45,51.21,97.55,53.41,97.55Z"/><path class="cls-132" d="M83,100.25c.2-.3.4-.5.6-.8.8.4,1.1-.2,1.3-.8s.4-1.5,1.4-1.1.5,1.2.5,1.8c-2.2,1-.5,3-1.2,4.4-1,.6-2,.7-2.7-.2A2.46,2.46,0,0,1,83,100.25Z"/><path class="cls-67" d="M53.41,79.35a53.86,53.86,0,0,0,17,0,3.41,3.41,0,0,1-2.5,1.1C63,80,58,81.75,53.41,79.35Z"/><path class="cls-128" d="M52.71,117.85c1.2.1,2-.2,1.9-1.7a4.46,4.46,0,0,1,.6-2.7c.7,0,1.5-.2,1.9.6-2.1.6-1.1,1.7-.6,2.9s1.8,1.4,2.5,2.2C56.81,119,54.61,119,52.71,117.85Z"/><path class="cls-67" d="M83,100.25c0,1.8-1,4.4,2.6,3.6-1.5,2.7-3-.4-4.4,0,0-1,0-2,.1-3C81.31,99.25,82.11,99.55,83,100.25Z"/><path class="cls-30" d="M54,95.15c-1-1.2-1.1-3-2.4-4,.7-1.4,1.7-1.9,3.2-1.1C54.21,91.65,55.21,93.55,54,95.15Z"/><path class="cls-61" d="M45,99.45c1.3-1.2,2.6,1,3.8,0l.2.7a2.09,2.09,0,0,1,.4,1.7,1.79,1.79,0,0,1-.5.7c-.7.2-2.1-1.9-2,.9-.9-1.1.2-2.7-1.2-3.3Z"/><path class="cls-37" d="M23.61,98.15c2.1-3.3,2.5-.6,3.4.8-.6,1.5-3-2.2-2.9,1C23.51,99.45,23.61,98.75,23.61,98.15Z"/><path class="cls-133" d="M25.51,92.55c-1.5.2-2.1,2.4-4.1,1.5.4-1.7,2.2-1.7,3-2.9Z"/><path class="cls-134" d="M67.91,118.45c-.7.3-1.5,1-2.2.2-.8-1,.4-1.3.9-1.8a8.17,8.17,0,0,0,1.2-2C67.81,116,67.81,117.25,67.91,118.45Z"/><path class="cls-111" d="M71.81,117.65c-1-.1-1.6-.6-1.6-1.4s.7-.9,1.3-1,1.3,0,1.4.8A1.54,1.54,0,0,1,71.81,117.65Z"/><path class="cls-37" d="M24.81,78c0,.6-.2,1.1-.8,1.1-.9.1-1.2-.7-1.3-1.4a1,1,0,0,1,1-.9C24.61,76.75,24.81,77.25,24.81,78Z"/><path class="cls-84" d="M49.51,112.15c0,.7.1,1.5-.6,2-2.1-2.3-2.1-2.3-.5-2.8Z"/><path class="cls-67" d="M69.31,100.75c3.3-1.4,3.7-1.1,3.8,3.1C72.11,102.35,72.11,99.85,69.31,100.75Z"/><path class="cls-67" d="M94.51,104c-2.7.6-.6,2-.5,3.1-1.4-.5-1.5-1.6-1.3-2.8C92.81,102.05,93.71,103.15,94.51,104Z"/><path class="cls-135" d="M61.51,47.65v-6.3a.72.72,0,0,1,.4-.6c0,2.3,1,4.6-.4,6.9Z"/><path class="cls-65" d="M69.11,90.55l.7-.5c0,2,0,4-.1,6.1C68.51,94.35,69.41,92.45,69.11,90.55Z"/><path class="cls-73" d="M62.21,93.15c-1.6,2.3-2.5,2.1-3.9-.8.5-2.5,2.5-1.9,3.9-1.5C63.91,91.25,62.61,92.35,62.21,93.15Z"/><path class="cls-73" d="M65.81,93.05a1.35,1.35,0,0,1,.6,1.9c0,.1-.1.1-.1.2-.5.8-1.2.5-1.7-.2Z"/><path class="cls-136" d="M48.91,93.15v-1.9h2.5C51.71,93.35,50.21,93.05,48.91,93.15Z"/><path class="cls-137" d="M112,91.15a1.47,1.47,0,0,1-2.1.3l-.2-.2c-.1-.4-.1-.8-.2-1.2.8-4.1,1.8,1.4,2.7-.1A5,5,0,0,0,112,91.15Z"/><path class="cls-138" d="M65.31,97.55l1.9,1.1-.5,1.8c-.3,1,1.2,2.2-.6,3a10.46,10.46,0,0,1-4.3.3.77.77,0,0,1-.7-.8v-.1c.1-.6.5-.5.9-.4C66.21,103,65.51,100.05,65.31,97.55Z"/><path class="cls-139" d="M48.91,102.55l.1-.6a5.82,5.82,0,0,1,2.5-1.2c.5.9,1,1.8,1.7,3.2a22.57,22.57,0,0,1-4.5-.1C47.41,103.55,49,103.05,48.91,102.55Z"/><path class="cls-140" d="M51.51,100.65c-.1,1.8-1.5,1.2-2.5,1.2v-1.7C49.91,100.15,50.81,99.85,51.51,100.65Z"/></g></g></svg>