<svg xmlns="http://www.w3.org/2000/svg" viewBox="0 0 152.98 152.97"><defs><style>.cls-1{fill:#53331a;}.cls-2{fill:#51331c;}.cls-3{fill:#845f3b;}.cls-4{fill:#684422;}.cls-5{fill:#715135;}.cls-6{fill:#f2b765;}.cls-7{fill:#fbc870;}.cls-8{fill:#db9d4f;}.cls-9{fill:#f7c578;}.cls-10{fill:#fbd088;}.cls-11{fill:#f8c779;}.cls-12{fill:#dca158;}.cls-13{fill:#fae0b4;}.cls-14{fill:#d69139;}.cls-15{fill:#fdd389;}.cls-16{fill:#fcd085;}.cls-17{fill:#936123;}.cls-18{fill:#fac874;}.cls-19{fill:#81521e;}.cls-20{fill:#573215;}.cls-21{fill:#7c4d1d;}.cls-22{fill:#b17b3c;}.cls-23{fill:#8b5b27;}.cls-24{fill:#9a6633;}.cls-25{fill:#6f4316;}.cls-26{fill:#ad7940;}.cls-27{fill:#7d4e1d;}.cls-28{fill:#956129;}.cls-29{fill:#956122;}.cls-30{fill:#c28a4b;}.cls-31{fill:#a87532;}.cls-32{fill:#946424;}.cls-33{fill:#eac180;}.cls-34{fill:#f4ca8b;}.cls-35{fill:#f5cc8b;}.cls-36{fill:#e9bb77;}.cls-37{fill:#ddad6b;}.cls-38{fill:#f4c687;}.cls-39{fill:#c38948;}.cls-40{fill:#7a4a16;}.cls-41{fill:#966425;}.cls-42{fill:#f8d290;}.cls-43{fill:#97652e;}.cls-44{fill:#d5a060;}.cls-45{fill:#dda35d;}.cls-46{fill:#ddaa6c;}.cls-47{fill:#dca86a;}.cls-48{fill:#754417;}.cls-49{fill:#cc9352;}.cls-50{fill:#eaba78;}.cls-51{fill:#9a6825;}.cls-52{fill:#f8c984;}.cls-53{fill:#f3c989;}.cls-54{fill:#f3c98b;}.cls-55{fill:#f7ca8c;}.cls-56{fill:#f4ca89;}.cls-57{fill:#b98045;}.cls-58{fill:#b37f41;}.cls-59{fill:#98642c;}.cls-60{fill:#966126;}.cls-61{fill:#c89657;}.cls-62{fill:#d2a063;}</style></defs><g id="Layer_2" data-name="Layer 2"><g id="Layer_1-2" data-name="Layer 1"><path class="cls-1" d="M11.4,36.64C23.91,16.12,42.3,4,65.87.82c32-4.32,56.28,8.63,74.09,35,13.86,20.56,16.63,42.36,8.41,65.66-2.83,3.32-3.86,7.6-6,11.32a37.78,37.78,0,0,1-3.77,5.84c-.72.87-1.85,1.67-2.75,0a5.3,5.3,0,0,1,.84-3.42,38.56,38.56,0,0,0,4.07-7.53C160.35,67.32,138.87,23,102.45,9.56A71.7,71.7,0,0,0,71.73,5c-4-.45-7.81.44-11.64,1.31a12.09,12.09,0,0,1-1.47.35c-18.16,4.5-32.35,14.66-42.88,30.05-1.08,1.57-1.53,3.8-4,4.07C10.12,39.54,10.71,38.09,11.4,36.64Z"/><path class="cls-2" d="M123.34,136.43c-19.55,17.37-53.69,21.71-78.28,9.9-3-1.42-6.2-2.45-8.61-4.9.11-2.28,1.8-2.42,3.48-2.58,4,.76,7.43,2.82,11.14,4.25,18.28,7,36.36,6,54.27-1.39A37,37,0,0,0,116.9,135a17.76,17.76,0,0,1,5.74-2.94C126.78,132.81,123.12,135,123.34,136.43Z"/><path class="cls-3" d="M39.61,139.33l-3.21,2.09C17.48,129.89,6,113.13,1.55,91.53c2.06-4.61,2.76-.22,4,.6,1.5,2.55,1.7,5.52,2.66,8.24a49.22,49.22,0,0,0,6.71,16.28A25.63,25.63,0,0,0,20,123c3,4.41,8,6.49,11.93,9.76C34.38,135.07,38.25,135.72,39.61,139.33Z"/><path class="cls-4" d="M4.55,92.53c-1.12,0-1-3.65-3-1C-2.12,72,.55,53.59,11.4,36.66c.2,1.3-.39,2.73.68,3.88.41,4.45-3.27,7.54-3.87,11.65A77.62,77.62,0,0,0,4.89,66.87c.21,7.31-.47,14.64.5,21.93A4.36,4.36,0,0,1,4.55,92.53Z"/><path class="cls-5" d="M123.34,136.43c-1.84-1.31,1.47-2.68,0-4,.43-4.07,4.91-5.14,6.29-8.51,2-2.12,3.3-5.07,6.65-5.56,1.3,1.29,1.6-.13,2.07-.81a82.79,82.79,0,0,0,7.05-13.49c.57-1.31.37-3.66,3-2.54C143.66,115.76,135.57,127.58,123.34,136.43Z"/><path class="cls-6" d="M136.23,118.33c-1.83,2.11-4.4,3.57-5.62,6.24a4.53,4.53,0,0,1-2.48-5.91,4.47,4.47,0,0,1,1.18-1.67c1.91-1.93,3.15-4.27,4.8-6.34s.39-4.51.62-6.75c.35-3.52-2.61-2.7-4.46-3.27-1.49-.46-2.93-1-3.3-2.67s.87-2.74,2.07-3.67a12.15,12.15,0,0,1,4-1.89c4.38-1.31,5.38-3.9,2.79-7.73-1.22-1.81-2-3.85-3.18-5.63a6.07,6.07,0,0,1-.55-6.62,8,8,0,0,0-.24-8.48,13,13,0,0,1-1.25-4.3c-1-5.46,1.3-8,6.57-7.64-1-13.31-12-20.25-19.29-29.62-3.93-3.34-7.61-7-11.81-10-1.28-.92-3.07-1.58-2.76-3.73C126.4,17.59,140.76,34.46,147.06,58c4.65,17.41,3,34.49-5.65,50.6-2.32,1.77-3,4.5-4,7C137.06,116.59,136.64,117.48,136.23,118.33Z"/><path class="cls-7" d="M103.36,8.71c5,4.27,10.55,7.92,15,12.85a2.2,2.2,0,0,1-1.24.58c-5.58-1.37-9.69-6-15.51-6.87-4-1.52-7.39.49-10.88,2-4.84,2-9.07,5.53-14.49,6.25-2.73-.05-4.49,2-6.69,3.08-2.88,1.43-5.75,2.1-8.11-.82-1.69-2.09-3.76-1.76-5.91-1.35a16.68,16.68,0,0,1-10.22-1c-5-2.24-7.83-1.33-11.05,3.32C32,30.07,29.64,33,25,31.3c-1.82-1.54-.32-2.68.59-3.68,3.12-3.4,7-6,9.89-9.66a3.21,3.21,0,0,1,2.13-1.18c5.89-.61,9.83-4.86,14.28-8,2.1-1.47,4.43-1.94,6.56-3.08a.9.9,0,0,1,.77-.22C63.25,5,67.28,4.13,71.38,3.75A64.21,64.21,0,0,1,103.36,8.71Z"/><path class="cls-8" d="M58.4,5.66C53.68,9.59,47.88,12.1,43.77,16.83a1.13,1.13,0,0,1-.72.43c-9.64-.35-12.38,9-18.66,13.3a4,4,0,0,1-.67,1.94c-4.16,5-6.56,11-9.3,16.83C13.64,51,13,52.66,11.48,53.85c-1.9.12-4.78,1.91-4.12-2.38.83-4,3-7.36,4.72-11C21.6,23.92,35.54,12.77,53.57,6.66A41.8,41.8,0,0,1,58.4,5.66Z"/><path class="cls-9" d="M137.44,115.71c.09-4.45.34-4.89,4-7A17.51,17.51,0,0,1,137.44,115.71Z"/><path class="cls-8" d="M71.38,3.71c-4,1.21-8,2.35-12.21,1.73A29.17,29.17,0,0,1,71.38,3.71Z"/><path class="cls-10" d="M39.61,139.33l-8.21-5.85-2.28-3.18c-2.76-3.79-5.16-7.55-1.65-12.46,1.65-2.32,1.41-5.78,3.38-8.12,1-1.17,1.86-3.52,4.09-1.37-.38,8.25.2,9.05,8.32,12.33a50.6,50.6,0,0,0,19.46,3.51c9.11.2,18.2.3,26.87-3.26a30.3,30.3,0,0,0,7.47-3.82c2.86-1.48,4.12-4.9,7.28-6a1.9,1.9,0,0,1,1.75,2v.05c-.29,4.7,2.89,7.56,5.58,10.67a26.54,26.54,0,0,1-4.08-5.73c-1.4-2.57-1.38-5.09.59-7.41s4-3.62,6.89-1.74a4.9,4.9,0,0,0,1.92.48c4.55.67,4.88,1.36,2.74,5.61-.21.41-.54.8,0,1.5,2.08-.76,2.07-3.2,3.45-4.48,1.13-1,2.4-2.21,3.92-1.47s1.25,2.54.93,4c-.82,3.85-3.33,7-5.48,10-3.66,5-7.69,10-12.91,13.75a19,19,0,0,1-8.7,3.36c-1.43.2-3.16,1.11-3.87-.85a2.84,2.84,0,0,1,1.78-3.59l.11,0c3.52-1.45,2.64-2.86.41-4.95-1.87-1.75-2.85-1.93-4.75.07-3,3.13-1.93,6.09-.33,9.11s4.06.89,6.2.83c1.94-.05,4-2.68,5.86.15C83.56,152.69,61.35,151,39.61,139.33Z"/><path class="cls-9" d="M106.32,142.33c-2.81-1.42-4.73,1.53-7.39,1.51-2,0-5.31,1.65-5.63-.68-.44-3.27-4.64-6.36-1.07-10a19.07,19.07,0,0,0,2.66-2.95c1.41-2.24,1.51-2.76,4.18-.27,4.69,4.38,6.19,6.74-.95,9.22-.46.16-.66,1.1,0,2,12.14-1.78,18.85-10.26,24.58-20.08,1.39-2.39,3.83-4.15,4.34-7.11.16-.94.71-2.15-.42-2.62a2.29,2.29,0,0,0-2.56,1.15,29.28,29.28,0,0,0-1.9,4,2.84,2.84,0,0,1-3.14,1.89,2.15,2.15,0,0,1-1.86-1.43c-.72-1.54.43-2,1.44-2.64,1.26-.76,2.08-1.8,1.36-3.3-.82-1.72-1.82-.68-2.81-.07a1.64,1.64,0,0,1-2.23-.43c-1.81-2.2-3.22-1.82-5.3,0a5.16,5.16,0,0,0-1.21,7c1.11,1.6,1.64,4.11,3.89,4.84,1.26.41,2.09,1,1.92,2.44-.08.67-.29,1.32-1.09,1.48-1.4.27-2-.74-2.77-1.63a23.09,23.09,0,0,1-6.21-13.19c-1.07-4.24,1.86-8.23.76-12.47,0-3.6-3-6.68-1.88-10.49,4.56-1.82,6.36-4.69,5.31-10-1.19-5.94.15-6.84,7.53-7.24,2-.79,3.85-1.8,6-2a5,5,0,0,0,4.6-3.78c1-6.1.22-12.24.46-18.34,0-.85-.73-1-1.42-1-6.09-.56-12.21.39-18.24-.73-2.86-3.1.7-2.76,1.85-2.92,3.77-.52,7.59-.11,11.39-.26,1.73-.06,3.58.55,5.24-.62-6-5.43-6.57-13-8.47-20h1c5.41,5.93,11.06,11.66,16.12,17.87,2.89,3.55,2.16,8.83,4.75,12.76a2.22,2.22,0,0,1-.54,2.74c-.59.46-1.31.07-1.72-.48-.94-1.26-1.93-2.63-3.57-1.21a4.92,4.92,0,0,0-1.89,4.89c.68,2.52.71,5.33,2.51,7.45,1.22,1.44,1.68,2.92.51,4.5-4.34,5.86-.36,10.08,3,14.1,2.09,2.47.5,4.73.54,7,0,2.1-2,2.27-3.74,2.32a4.35,4.35,0,0,0-2.41.37c-1.46,1.19-4.37,1.43-4.11,3.76.3,2.64,3.39,2.37,4.91,2.15,3.82-.57,3.26,1.28,3.49,3.92.58,6.39-2.18,10.75-6.79,14.72-.69.6-1.93,4.59,1.15,6.16l-7.32,7.83C117.54,135.59,112.9,140.64,106.32,142.33Z"/><path class="cls-11" d="M34.54,108.78c-4,.56-4.08,4.13-4.93,6.87-.58,1.85-.9,3.48-2.25,5.2-2.49,3.15,1.5,5.43,2.32,8.19.42,1.43,1.92,2.6,1.72,4.41-4.26-2.9-9-5.18-12.09-9.57-1.39-2.36-2.64-4.83-5-6.41A37,37,0,0,1,7.4,100.53c-.49-1.35.62-1.65,1.43-2.11s1.79-.28.83-1.89c-3.86-6.44-4-13.7-4-20.92,0-1.78.47-3.64,2.48-4.46C13.09,71,12.26,76,14.89,79c-.27-3.22-.75-5.9,1.37-7.94,3.85-2.66,7.12-1.07,10.27,1.4,4.56,3.59,6.66,8.81,9.13,13.79,3.8,4.72,1.52,10.25,2.08,15.41C37.34,104.33,37.78,107.33,34.54,108.78Z"/><path class="cls-12" d="M8.23,71.6C5,75.35,6.73,80,7.08,83.83c.43,4.63.87,10,4.61,13.92-.74,2-3.32,1.18-4.32,2.78-2-2.28-1-5.63-2.82-8C2.85,83.59,3,74.59,3.73,65.58c1.57-1.22,2.75-.19,4,.7a7.74,7.74,0,0,1,1.34,3.4A2,2,0,0,1,8.23,71.6Z"/><path class="cls-13" d="M14.28,117.47c3.78.48,4.21,3.6,5,6.41A18.85,18.85,0,0,1,14.28,117.47Z"/><path class="cls-14" d="M7.44,66.6l-3.71-1C4.46,60.77,5.32,56,7.36,51.49c.07,3.17,3,.8,4,2.06,2.5,3.62,1.59,7.26,0,10.86C10.63,66,9.47,67.13,7.44,66.6Z"/><path class="cls-15" d="M116.34,72.64c-7.74.5-7.74.5-6.18,8.75.89,4.75-1.71,7.47-6.84,7.15-2.45-.07-2.61-2.29-3.3-3.8-5.8-12.51-10.45-25.4-12.53-39.1-.75-5.66-.85-11.23,1.72-16.57,3.7-7.65,10-8.8,16.22-2.91.48.45.87.74.42.26-.07-.07.21-.58.18-.94a5.65,5.65,0,0,0-2.4-4.75c-.38-.22-.74-.45-1.13-.66-3.13-1.56-4-3.27-.33-5.25,6,0,10,4.64,15.17,6.75,1,2.08,4.11,3.31,2.41,6.45a1.48,1.48,0,0,0,.78,1.94l.15.06c2.95,1,4.16,1.51,1.49,4.87-1.83,2.3,2.88,2.75,3.83,4.72.6,1.22,3.64.28,2.65,2.68-.67,1.64-2.58,1.1-4,1.21-6.08.48-12.25-1-18.26.83.73,3.81.22,7.66.37,11.48,0,2.13-.1,4.27-.05,6.41.1,4.1,1.62,7,6.13,7.55C114.53,70,116,70.65,116.34,72.64Z"/><path class="cls-16" d="M23.4,31.57l1-1c4.15.78,6.73-1,8.87-4.58,3.47-5.76,7.33-6.78,13.26-3.57a10.8,10.8,0,0,0,6.22,1.1c3.91-.27,8.14-3.15,10.94,2.65.62,1.31,3.83.21,5.88-1s3.65-4.09,6.79-2.78c-.84,2.63-3.22,3.79-5.31,5-7.1,4-14.13,8.17-20.9,12.73-3,2.05-7.3,2-9.46,5.49-.23.37-1.12.59-1.37.33-2.87-3.15-1.55,1.19-2.52,1.39a1.07,1.07,0,0,1-1.35.27c-1.89-2-1.29-4.36-1.16-6.67.71-4.81.15-5.33-5.25-4.87s-6,0-5.9-4.08C23.13,31.84,23.31,31.71,23.4,31.57Z"/><path class="cls-17" d="M36.36,47.47c.73-2.39-.76-5.23,1.19-7.48,2.08,1.39-.51,4.89,2.19,4.88,2.45,0,1.28-3.28,2.53-5.44,1.11,2.8,2.53,2.49,4.57,1.2,9.78-6.18,19.67-12.17,29.51-18.23L95.7,13.83c2.36-1,4.65-1.55,6.47,1-2.48,2.3-1.21,3.66,1.19,4.74.31,1.39-.71,1.55-1.65,1.78-5-1.62-9.12.62-13.28,2.81a9.47,9.47,0,0,1-1.26.56,2.73,2.73,0,0,0-2.48,2.94c-.1,1.56,0,3.2-1,4.57-2.56,1.18-1.82-2.13-3.55-2.56-.93,17.75,1.69,35.43-.6,53-.49,1.4-.3,3-1.36,4.25-2.07,1.18-4.05.21-6.06-.27-2.83-.88-1.52-2.82-1.16-4.52A137.32,137.32,0,0,0,71.9,57c-.58-7.86-.57-15.74-1.33-23.55-1-.52-2.24,0-3.1-.91,1-4.08,5.33-3.78,7.51-6.13-9.52,5.59-18.69,12-28.19,17.07a2.63,2.63,0,0,1,2.4-.29,1.67,1.67,0,0,1,.72,1.28c-.1,2.91-.19,5.83-.12,8.74-.27,4.23.61,8.52-.62,12.69a1.68,1.68,0,0,1-1.16.93c-3.3-3.38-1.64-7.73-2.17-11.64-.22-1.58.33-3.25-.4-5.37-1.39,3.58,1.38,7-.92,10a2.28,2.28,0,0,1-2.08.08c-2.39-2.35-.23-5.93-2.29-8.35-2.47-.38-3.74,2-5.77,2.55-3.31.49-3.9-.66-2.05-3.35C33.32,49.21,35.33,49,36.36,47.47Z"/><path class="cls-18" d="M23.4,31.57c0,3.24,1.21,4.59,4.55,3.33a9.88,9.88,0,0,1,3.38-.33c5.63,0,6.35,1.15,3.86,6.29-3,2.37-.79,5.9-1.95,8.69C30,54.26,25,56.85,20.66,60.31c-1.91,1.54-3.84,3-5.72,4.62-2.51,1.12-3.82,4-6.76,4.52-1-.75-.73-1.84-.74-2.85,5.38-3.14,3.91-8.33,3.94-13.07C14.79,45.88,17.37,37.78,23.4,31.57Z"/><path class="cls-19" d="M34.54,108.78c1.54-2.17,1.59-4.76,2-7.24,1-1.56-.47-3.65,1.13-5.15,2.37,1.17,1.87,3.28,1.66,5.16a37.21,37.21,0,0,1-1.67,6.73c-2,6.38-1.72,6.79,4.42,9.79a43.31,43.31,0,0,0,14.69,4.11c2,.2,4,.33,5.51,1.85a1.11,1.11,0,0,1,.08,1.44c-8.53.1-16.71-1.45-24.13-5.81C31.73,115.83,31.68,115.33,34.54,108.78Z"/><path class="cls-20" d="M62.38,125.47l.06-.88c2.45-2.1,5.6-2,8.47-2.27,3.15-.3,6.26-.76,9.38-1.16a23.59,23.59,0,0,0,5.92-1.43c4-.42,6.91-3.77,11-3.89.76.26,1.35.65,1.13,1.6C87.54,125.47,75.15,126.33,62.38,125.47Z"/><path class="cls-21" d="M98.33,117.44l-1.07-1.06c1.36-4,5.72-6.44,6-11.07.1-.46.24-.9.38-1.35,1-1.68-.43-4.51,2.51-5.25,1,4.49-.45,8.62-2,12.73C102.36,113.56,101.06,116.17,98.33,117.44Z"/><path class="cls-22" d="M104.25,105.39c-.27,5-3.59,8-7,11-3.68,1.33-6.76,4.16-10.91,4.3-1.29-2.39.64-3,2.15-3.84,1.34-.7,3.26-.81,2.82-3.11-.12-1.67-.24-3.47,1.15-4.62,5.5-4.52,4.19-9.81,1.87-15.23-.88-2-1.49-4,0-6-3.8-.66-7.81,1-11.44-1.16-2-2.89-.59-6.12-.86-9.18s.19-6.29-.37-9.42a7.58,7.58,0,0,1,0-1.65c.58-2,0-4.42,1.77-6.1,2.62.73,2.18,3,2.26,4.83.19,4.12,0,8.24.09,12.36,0,1.82,0,3.89,2.36,4.3,2.06.35,4.4.89,5.3-2,0-5.11-2.54-9.52-4-14.22a100.38,100.38,0,0,1-4-16.83c-.22-1.79-1-5.09,3.13-3.42,3.25,15,7.59,29.56,14.82,43.17q1.41,5.09,2.83,10.17c-1.79,1.64.17,4.29-1.61,5.93a101.14,101.14,0,0,1-2.22-11.43C99.94,97.33,104.6,101,104.25,105.39Z"/><path class="cls-23" d="M116.34,72.64c-1.1-.61-1.82-1.6-3.38-1.73-6.22-.5-7.29-1.72-7.54-7.93-.08-2.16.06-4.32.11-6.48a1.47,1.47,0,0,1,1.25-.36c1.61.69,1.39,2.31,1.87,3.59.34.92.57,2.38,2.08,1,2.51-2.4,1.44-4.87.19-7.34a27.4,27.4,0,0,1,7.89-3.11c3.68-1,4.61.28,3.42,3.67-2.76,2.36-1.67,4.54.37,6.46,0-.85-.43-1.85-.51-2.9-.24-2.83.92-5.36,1.91-8.17.45,6,4.92,11.08,3.45,17.39-.58,2.88-2.62,3.9-5.26,4A9,9,0,0,0,116.34,72.64Z"/><path class="cls-24" d="M121.36,53.57c.41-1.4,2.08-3.34-1.54-2.61-2.94.59-5.37,2.69-8.48,2.63a46.81,46.81,0,0,1-.13,7.58c.11.72,1,2,.08,2.07a3.73,3.73,0,0,1-3.85-2.61c-.48-1.29.4-3-1-4.09-.44-2.43.14-4.88-.38-7.35-.67-3.18,1-4.23,4-3.53a7.2,7.2,0,0,0,6.6,1.38c3.32-.09,6.44-1.47,9.76-1.5.62-.09,1.71-.4,1.7.26-.17,7,1.36,14-.65,20.93-.81-1.73,1.72-5.23-2.73-5.22a34.68,34.68,0,0,1-.35-4.66c-.06-2.1,0-4.2-1.15-6.32v8.19C120.06,57.93,122.06,55.26,121.36,53.57Z"/><path class="cls-25" d="M126.4,45.54c-3.18,1.5-6.32,3.2-10,2-1.93-.74-4.2.59-6-1-3-.86-4.47-.14-3.4,3.32a8.85,8.85,0,0,1-.53,6.66h-.89c.28-4-1.23-8.2.82-12.13,5.21,0,10.43,0,15.65.16C123.47,44.57,125.31,43.64,126.4,45.54Z"/><path class="cls-26" d="M81.27,122.33l-18.83,2.23c-8.39-1.68-17-2.46-24.57-7.18-3-1.88-3.85-3.47-2.46-6.75a35.43,35.43,0,0,0,3-13.36c-1.81,1.25-.39,3.36-1.88,4.24-.08-2.46-.52-5-.15-7.38.46-3-.77-5.27-2-7.7-.49-3.09-1.34-6.16-.74-9.34.51-1.37.41-3.07,2.07-3.8,3.58,2.72,1.11,6.76,2.18,10,.37,1,.49,2.17,1.36,3a6.83,6.83,0,0,0,3.61,2.26c2.13,2,2.6,4.6,2.55,7.26-.09,5.66-.62,11.25-2.8,16.11,2.48-.76,10.68,2.65,13,5.94-1,2.88-2.9,2.71-5.11,2,6.3.12,12.58,1.18,18.92.73,2.8-.21,5.63-.31,8.43-.63C79.64,119.76,81.47,119.79,81.27,122.33Z"/><path class="cls-27" d="M34.39,77.53c-.54,3,1.3,5.94.06,8.93-2.06-4.28-4.08-8.59-7.4-12.1-3-3.15-6.36-4.55-10.57-2.48-1.39-2.31-1.43-5.07-2.53-7.47C19.59,58.72,26.81,55,32.62,49.56c.86-1.58-.54-3.65.92-5,2.4-.25.13,3.45,2.74,2.91h.08c1.56,3.17-2.39,1.79-2.84,3.41-.23.79-1.75,1.19-1.24,2.22.2.43,1.43.36,2.19.52l.25.58a2.55,2.55,0,0,1-.45,1.18,8.43,8.43,0,0,1-1.37,1.43c-3.59,2.86-7.36,5.48-11.4,8.62,6.21,1.24,8.41,6.52,12,10.2A3.3,3.3,0,0,1,34.39,77.53Z"/><path class="cls-28" d="M14,64.41c4,1.41,2.12,4.83,2.53,7.47-1.1,2.23-.67,4.49-.21,6.79.18.9.47,2.15-.8,2.54s-1.8-.71-2.27-1.53c-.64-1.15-1.59-2.47-1.48-3.62.28-2.83-1.84-3.37-3.49-4.46V69.45A19.44,19.44,0,0,1,14,64.41Z"/><path class="cls-29" d="M88.5,45.33c-2.66,1.06-2.17,3-1.7,5.21a213.2,213.2,0,0,0,7,24c.51,1.51,2.2,3,.65,4.9-1.68-.43-2.27-1.86-2.82-3.23a122.59,122.59,0,0,1-8.65-34c.19-3.34-.53-6.75.78-10,.66-3.18.63-6.68,3.83-8.75l.65.07c1.22,1.79,1.38,1.88.65,3.2a21.27,21.27,0,0,0-2.5,11.6c.94-13.21,4.73-17.77,15-17.76a2,2,0,0,0,2-1,1.17,1.17,0,0,1,.83.23c.79,1.76,1.22,3.75,3,4.87-.17,1.87.87,3.91-1.16,6.08-1.28-4.66-3.62-7.83-8.78-7.07C93.07,24.31,90,28,88.82,34,88.06,37.77,88.38,41.57,88.5,45.33Z"/><path class="cls-30" d="M107.24,24.66c-4,.22-3.57-2.3-3-4.88C105.56,21.19,107.21,22.41,107.24,24.66Z"/><path class="cls-31" d="M36.28,47.46c-.37.22-.8.69-1.11.62-1.25-.29-.64-1.62-1.24-2.43-1,1.11.19,3-1.31,3.91-.11-2.3-.29-4.59-.32-6.89,0-2,.57-3.38,2.9-1.81C35.93,43,34.06,45.57,36.28,47.46Z"/><path class="cls-32" d="M38.42,87.45c-1.28-.66-1-1.88-1-3,.23-5.41-.26-10.79-.44-16.19A10.35,10.35,0,0,1,37.8,63a1.4,1.4,0,0,1,1.34-.78c2.62,1.76,2.08,4.56,2.42,7.13.45,3.46.06,6.92.38,10.37A129.33,129.33,0,0,0,41.43,64c-.15-1.61-.45-3.33,1.24-4.47h1.55c2,1.6,1.49,3.9,1.55,6,.14,4.61-.15,9.24.55,13.42.31-3.86-1.75-8.39,1.25-12.4h.89c1.33,1.21,1.45,2.92,1.86,4.5.06,3.46.33,6.92.06,8.7.23-10.87-1-23.39-.75-35.93l-.2-.23c3.19-5,8.08-7.36,13.56-8.84,1.18.45,2.11,1,1.26,2.5-1.89,1.67-1.38,4-1.39,6-.09,12,.15,24,0,36.05a10,10,0,0,1-.59,3.88c-.6,1.28-1.38,1.87-2.49.45a5.84,5.84,0,0,1-.72-2.86c0-12.21-.5-24.41-.91-35.51.08,12,1.56,25,.33,38.08-1,2.78-3.23,3.45-5.82,3.48-4.23.06-8.46.18-12.68-.11A3.44,3.44,0,0,0,38.42,87.45Z"/><path class="cls-33" d="M84.27,31.54v11A1,1,0,0,1,83,42.27c-.83-1.4-.48-2.87-.37-4.33-.14,9.5,1.91,19-.14,28.51v1.1c.94,4.76.48,9.58.29,14.34-.11,2.68-1.6,4.6-4.31,1.52.85-16.48.54-33,0-49.44V31c0-2-.11-4.71,2.42-4.66,2.69.05,1.16,2.85,1.57,4.42a2.09,2.09,0,0,0,.26.87c.1.11.51-.06.78-.1C83.69,31.1,84,31.07,84.27,31.54Z"/><path class="cls-26" d="M38.38,86.6c4.47-2.16,9.23-.57,13.84-1,2.12-.22,4.34.14,5.42-2.34a2.08,2.08,0,0,1,2.59.12c2-.81.57-2.73,1.28-4,.69-.08,2,1.06,1.73-.92a10,10,0,0,1,.4-3.39c.6-1.59.25-3.58,1.93-4.73,3.42,1.82,1,5,1.79,7.12.34-6.12-1.14-12.59.06-19,1.15-7.38.5-14.77.37-22.15A16.31,16.31,0,0,1,67.05,34a4.09,4.09,0,0,0,0-.78c0-.26.23-.47.34-.71l3.26-.8c1.1,1.47.76,3.19.74,4.82-.15,13.93,1.35,27.86.07,41.81-.17,1.77-.35,3.69,1,5.24.69.71-3.34,1-.17,1.94.15,2-1.47,2.2-2.66,2.18C59.17,87.55,48.7,89.2,38.38,86.6Z"/><path class="cls-34" d="M77.43,56.33V80.71c0,1.18.55,3.1-1.47,3s-1.53-1.83-1.46-3.13c.76-15.38-.25-30.75-.22-46.13V32c0-1.42.26-3,1.79-3.09,2.16-.05,1.25,2,1.26,3,.08,8.13,0,16.26,0,24.38Z"/><path class="cls-35" d="M72.4,83.59c-1.91.1-2.06-1.16-2.06-2.6,0-16.43-.48-32.85.26-49.27.85-.14,2.56-1.78,2.29.48-1.35,11.08,1,22.08.5,33.12Z"/><path class="cls-36" d="M47.53,66.53c0,5,.06,9.91,0,14.87,0,1.06.28,2.66-1.47,2.54-1.54-.1-1.39-1.48-1.41-2.68-.14-7.25-.33-14.49-.5-21.73.5-2.5-.54-4.88-.64-7.33-.09-2.14-.39-4.39,2.81-5.17C47.82,53.48,46.46,60.1,47.53,66.53Z"/><path class="cls-37" d="M42.63,59.53q.36,10.86.69,21.72c0,1.08.51,2.65-1.1,2.86-2.13.27-1.62-1.59-1.73-2.78-.56-6.26.26-12.61-1.14-18.82-2.45-5.62-1.94-10.35,1.4-12.9C44.11,52.4,41.34,56.33,42.63,59.53Z"/><path class="cls-38" d="M49.59,43.8c1.85,0,1.58,1.33,1.51,2.44-.74,11.27.86,22.51.4,33.78-.06,1.3.86,3.55-1.47,3.48-2.86-.09-.67-2.29-.76-3.37a93.08,93.08,0,0,1,0-9.45c-1.14-6,.28-12.11-.74-18.11C48.46,49.59,47.29,46.49,49.59,43.8Z"/><path class="cls-30" d="M101.4,20.56c-11.78,4-13.35,6.11-14.07,19.07-.07,1.1.27,2.38-1,3.09a22.76,22.76,0,0,1,.84-14.88c.53-1.32,2.57-2.39,1.14-4.26C92.12,20.33,96.22,18.09,101.4,20.56Z"/><path class="cls-39" d="M62.18,35.46c-5,1.55-8.91,4.81-12.79,8.11-2.4,0-4,2.19-6.47,2.17A223,223,0,0,1,77.36,24.9c-2.55,3.6-7.42,4.13-10,7.62h0C66.13,34.39,64,34.58,62.18,35.46Z"/><path class="cls-40" d="M38.38,86.6q14.63,0,29.23-.17c1.56,0,3.34.69,4.62-.9,2,.29,4,1.43,6.13,1,1.68-1.4,3.36-.91,5,0H97.42c-.39.51-.51.86-.73.93a9,9,0,0,1-1.47.22c-3.46,2.13-7.32,1.29-11,1.42-4.75.18-9.49-.19-14.24-.12H66.31c-7.71-.3-15.45.39-23.17-.39l-.88-.12c-1.87,2-2.45-1.08-3.84-1C38.4,87.17,38.39,86.88,38.38,86.6Z"/><path class="cls-41" d="M83.39,86.48h-5a2.6,2.6,0,0,1,0-3c2.63,1.68,4,.94,4-2.16V67.62c1.87,5.29.67,10.73.66,16.1A5.52,5.52,0,0,0,83.39,86.48Z"/><path class="cls-39" d="M82.3,22.17c4.2-2.38,8.11-5.45,14.44-5.37C91.6,20.07,86.79,20.77,82.3,22.17Z"/><path class="cls-27" d="M40.75,49.61c-3.44,4-.34,8.67-1.4,12.9h-.94c-2.42-2.43,0-7-3.86-8.8l-.09-.09A8.27,8.27,0,0,1,40.75,49.61Z"/><path class="cls-42" d="M84.27,31.54h-.86c.36-3.23-2.17-8,4.2-8Z"/><path class="cls-36" d="M48.56,52.57c1.66,6,.54,12.07.74,18.11-1.06-1.22-.58-2.77-.88-4.15Q48.48,59.56,48.56,52.57Z"/><path class="cls-43" d="M81.27,122.33c-3.77-2.68-7.75-.34-11.62-.45-7.51-.22-15.11.42-22.58-2.38,2.4-1.79,2.57-2,4.29-.86,2,1.4,3,.35,4-1.1.65-1.54,1.64-2.05,3.06-.92.41.33.09,1.8,1.36.58,1.87-1.79,3.36-1.69,4.37,1.09.31.87,1.82.62,2.76.43,3.75-.74,7.61-.49,11.33-1.34a4.9,4.9,0,0,1,1.24-.31c1.14.17,2.31.45,3.24-.62a3.16,3.16,0,0,1,1.07-.57c1.67,0,3.26-.25,4.42-1.65a3.18,3.18,0,0,1,3.93.08c1.82,2.21.22,2.73-1.56,3.1-1.95.41-4,.67-4.28,3.24C84.88,121.93,83.06,122.13,81.27,122.33Z"/><path class="cls-44" d="M104.25,105.39c-1.18-.8-.83-2-.91-3.15-.2-2.68-1.34-3.79-4.89-1.62,2-3.88,3.86-6.81,2.91-10.42,3.41,4.31,2.83,9.49,3.18,14.44C104.45,104.89,104.35,105.14,104.25,105.39Z"/><path class="cls-45" d="M92.19,114.33c-1.36.14-2.87-.32-3.93,1-1.53.8-3.53-.37-4.88,1.17h0c-1.3.55-2.92-.35-4.06.89l-.1,0c-2.26.39-3.56-1.25-2.94-2.78,1.32-3.27.64-7.39,4.06-9.81a5,5,0,0,0,2.4-4.14c0-2,.9-2.36,2.88-1.91,2.39.54,4.75,0,7.3-2.6-4.23.1-7.29,2.13-10.66,1.62-3.69-3.73-7-8.1-13.31-6.89-.4.08-.77-.51-1-1-.22-1.18.43-1.79,1.41-2.19l25.88-.06c-1.2,2.09-.65,3.8.46,5.94,3.44,6.66,2.7,10.79-2.46,16.13C91.85,111.14,92.64,112.82,92.19,114.33Z"/><path class="cls-42" d="M83.38,42.55h.84A131,131,0,0,0,94.47,79.47c1.36,3,1,4.41-2.9,4.3-7.38-.21-7.27,0-7.37-7.15-.08-5.45.52-10.94-.64-16.35C83,54.38,81.4,48.49,83.38,42.55Z"/><path class="cls-41" d="M83.38,42.55l.18,17.78c-.73,2,.52,4.36-1.13,6.19C82,55.84,81.19,45.15,83,34.46Z"/><path class="cls-46" d="M121.36,53.57c2.28,1.12.19,3.82,1.86,5.15v4.34c-1.63-2.25-2-5.52-5.61-4.26C117.71,55.92,120.92,55.79,121.36,53.57Z"/><path class="cls-47" d="M111.21,61.17c-1.21-2.55-1.58-5.08.13-7.58.39.49.69,1.19,1.2,1.44,3,1.46,4,2.73,0,4.19C111.93,59.44,111.64,60.5,111.21,61.17Z"/><path class="cls-23" d="M110.35,46.56c2,.32,4.24-.77,6,1C114.13,48.6,111.9,49.62,110.35,46.56Z"/><path class="cls-48" d="M127.06,57.33a10.65,10.65,0,0,1,0-8.43Z"/><path class="cls-49" d="M69.37,87.69l-1.1,2A5.53,5.53,0,0,1,66,92.6a3.62,3.62,0,0,1-1.2.4c-6.1.2-5.72,5.34-7,9.21-.34,3,2.65,4.79,2.94,7.62.08.81,1.18,1.12,2,.86a1.84,1.84,0,0,0,1.33-2.24s0-.08,0-.12c-1.07-4.75,1-5.1,4.83-3.77,2.43.86,4-.65,5.11-2.71,2.52-1.95,4.77-4.43,8.35-4.34,2.57-2,6.36-.77,8.79-3.56.68-.79,2.25.94,2.86,2.13a1.59,1.59,0,0,1-.43,2.21,1.67,1.67,0,0,1-.49.22c-3,.74-5.94,3.37-9.34.59-.1,1.76,1.55,3.92-.48,4.7-4.87,1.86-3.58,7-6,10.22-1.26,1.66.73,2.52,1.92,3.34-1.22,4.22-5.68-.29-7.35,2.73-2.43-1.81-5.47-.38-7.51,0-5.08.85-.57-2.56-1.92-3-1.09-.31-1.59.71-2.33,1.29-1.44,1.12-2.81,2.61-2.35-1.1.13-1.06-1.53.11-2.35.36-2.74-1.5-5.41-3.23-8.79-2.33a2.1,2.1,0,0,1-1.42-.06,11.29,11.29,0,0,0-6.34-1.79c5-1.86,3.42-6.37,4.46-9.85,1.57-5.21,1.52-10.23-1.06-15.11h.07c3.1-.83,6.25-.32,9.38-.34,2.35,0,2,1.15.68,2.65,4-4.88,9.5-1.55,14-3.11Z"/><path class="cls-50" d="M34.55,53.71c1.71-.69,3.37-1.47,3.37,1.62,0,2.4.32,4.79.49,7.18,0,6,.05,11.91,0,17.87,0,1.42.46,3-1,4.11-2.71-3.38.1-7.67-1.82-11.18-2.65-2.78-1.32-6.24-1.5-9.41a40.16,40.16,0,0,1,.26-9.36A2.15,2.15,0,0,0,34.55,53.71Z"/><path class="cls-51" d="M34.32,54.54c1.8,6.17.85,12.52,1.24,18.77-.41,1.41.36,3.13-1.17,4.22l-1-1.13a30.67,30.67,0,0,1,0-20.87Z"/><path class="cls-52" d="M33.39,55.53V76.4c-2.27-.39-3-2.46-4.05-4-2.49-3.53-5.37-6.24-11.28-6.12Z"/><path class="cls-53" d="M64.54,75.41c-.18,2.63-.36,5.27-.54,8.06-2.74-.73-1.29-3.09-2.49-4.1-.14-12.76-.32-25.51-.35-38.26,0-2-1.06-5.24,3.17-4.37a3.11,3.11,0,0,1,1.21,3.11c-1.7,6.47.1,12.86.26,19.28A90.64,90.64,0,0,1,64.54,75.41Z"/><path class="cls-54" d="M60.23,83.33a3,3,0,0,1-2.59-.12V39h1.59Z"/><path class="cls-55" d="M55.24,57.52c-.52,7.81,1.09,15.55.93,23.34,0,1.22.34,3-1.68,2.87-1.56-.14-1.18-1.78-1.2-2.86-.23-12.08-.41-24.16-.61-36.24,0-1.19,0-2.73,1.42-2.76,1.81,0,1.08,1.73,1.1,2.7C55.29,48.89,55.24,53.2,55.24,57.52Z"/><path class="cls-17" d="M64.54,75.41c.3-12.89-1.65-25.78-.21-38.67-.34-1.07-1.25-1.16-2.15-1.27a6.76,6.76,0,0,1,5.17-2.95,3.35,3.35,0,0,1,0,1c-1.08,10.07-.21,20.16-.51,30.24-.07,2.28.4,4.68-1.33,6.63C65,72,65.93,73.94,64.54,75.41Z"/><path class="cls-56" d="M65.51,70.33c-.05-10.4-.14-20.8-.13-31.2,0-2.05-.52-4.42,2-5.67l1.1,1.11a168.66,168.66,0,0,1,.13,23.79V83l-1.44.08C64.84,79.19,67.61,74.33,65.51,70.33Z"/><path class="cls-17" d="M68.58,58.4c-.71-7.93-.21-15.86-.13-23.79A69.87,69.87,0,0,1,68.58,58.4Z"/><path class="cls-26" d="M66.4,87.63c-1.21,1.22-2.76.88-4.2.87-3.1,0-6.15-.33-8.45,2.63a3.12,3.12,0,0,1-4,.87c-.54-.33-1.13-.83-.82-1.6.61-1.57,2.47-.28,3.84-2H42.33c4.78-2,9.75-.53,14.63-.82C60.06,87.43,63.25,87.61,66.4,87.63Z"/><path class="cls-57" d="M79.32,117.41c.66-3.43,2.18-3,4.06-.89C82.8,120.33,81.15,119.33,79.32,117.41Z"/><path class="cls-57" d="M83.38,116.51c1.09-2.61,2.71-3,4.88-1.16C87.33,118.65,85.06,116.48,83.38,116.51Z"/><path class="cls-58" d="M65.36,92.52a5.89,5.89,0,0,1,2.91-2.87l11.11,3c2,1,2.73,2.75,3,4.81l-8,5c-3.84,4-5.45,3.76-7.51-1.21.14-2.18-1.27-3-3.55-3.69,1.36,1.15,3.18,1,3.47,2.7a3.26,3.26,0,0,1-.19,1.35c-2.84,2.85-6-.75-8.95.47a2.16,2.16,0,0,1-1.23-.52c.25-1.3,1.67-1.93,1.67-3.49,0-4.47,2.07-6.36,6.51-6.18.26,0,.51.4.76.6s.61.64.92.95A9.4,9.4,0,0,0,65.36,92.52Z"/><path class="cls-59" d="M67.35,100.33c1,5,3.68,4.78,7,2.14-.94,3.82-3.1,5-6.62,3-.89-.52-1.73-1.23-2.67-.45s-.43,1.63.27,2.51c1.61,2-.08,3.5-1.34,4.53-1.5,1.22-4,.58-4.26-.91-.64-3.41-3.88-5.83-3.34-9.54a7.11,7.11,0,0,1,.92-.06c3,2.23,5.95,1.83,8.94,0l.06-1.1a.59.59,0,0,1,.74-.39A.61.61,0,0,1,67.35,100.33Z"/><path class="cls-60" d="M65.53,114.84c1.07-.15,1.76-.47,2.3-.29,1.73.55,1.81-2.8,3.69-1.48.23.16.2,1.2.11,1.22C69.85,114.81,68.59,118,65.53,114.84Z"/><path class="cls-61" d="M66.3,101.56c-4.47,3.9-6.89,3.88-8.94,0,1.38-.74,2.79-2.43,4.34-.66S64.8,101.21,66.3,101.56Z"/><path class="cls-62" d="M67.35,100.33l-1,.13c-1.41-1.55-3.6-1.36-5.25-2.36C65.19,95.58,65.19,95.58,67.35,100.33Z"/><path class="cls-49" d="M65.36,92.52c1.69.2,3.1.79,3.36,2.7,0,.25-.67.9-1,.86-2.09-.27-2-2.1-2.38-3.58Z"/></g></g></svg>