<svg xmlns="http://www.w3.org/2000/svg" viewBox="0 0 113.95 116.04"><defs><style>.cls-1{fill:#b8aba4;}.cls-2{fill:#453d39;}.cls-3{fill:#6a635f;}.cls-4{fill:#665d59;}.cls-5{fill:#342923;}.cls-6{fill:#524b47;}.cls-7{fill:#4e4642;}.cls-8{fill:#5c534f;}.cls-9{fill:#726a66;}.cls-10{fill:#7e7570;}.cls-11{fill:#4b4442;}.cls-12{fill:#090706;}.cls-13{fill:#110d0a;}.cls-14{fill:#5d544d;}.cls-15{fill:#afa099;}.cls-16{fill:#b1a49f;}.cls-17{fill:#cec0b7;}.cls-18{fill:#d0beb4;}.cls-19{fill:#c5b8b0;}.cls-20{fill:#d7cbc4;}.cls-21{fill:#695c54;}.cls-22{fill:#cbbbb1;}.cls-23{fill:#29201c;}.cls-24{fill:#d3c3ba;}.cls-25{fill:#c6b6ac;}.cls-26{fill:#afa198;}.cls-27{fill:#40342d;}.cls-28{fill:#decec5;}.cls-29{fill:#c7b5ac;}.cls-30{fill:#7d6c63;}.cls-31{fill:#6e5e56;}.cls-32{fill:#e8d8cf;}.cls-33{fill:#b9a9a0;}.cls-34{fill:#887a71;}.cls-35{fill:#e4d1c4;}.cls-36{fill:#e2d3ca;}.cls-37{fill:#baa9a0;}.cls-38{fill:#8a7b71;}.cls-39{fill:#807066;}.cls-40{fill:#83736b;}.cls-41{fill:#dac8bd;}.cls-42{fill:#d5c6bc;}.cls-43{fill:#574d47;}.cls-44{fill:#86766e;}.cls-45{fill:#ebdbd2;}.cls-46{fill:#85776f;}.cls-47{fill:#a1938a;}.cls-48{fill:#efe1d7;}.cls-49{fill:#c2b2a8;}.cls-50{fill:#7e7068;}.cls-51{fill:#95847c;}.cls-52{fill:#988b83;}.cls-53{fill:#64584e;}.cls-54{fill:#c0b0a7;}.cls-55{fill:#b4a69e;}.cls-56{fill:#bcb0a8;}.cls-57{fill:#eeded4;}.cls-58{fill:#867970;}.cls-59{fill:#a6968c;}.cls-60{fill:#f6e8e1;}.cls-61{fill:#776b64;}.cls-62{fill:#766a63;}.cls-63{fill:#ada098;}.cls-64{fill:#a19289;}.cls-65{fill:#736760;}.cls-66{fill:#6d6057;}.cls-67{fill:#afa299;}.cls-68{fill:#b7aaa1;}.cls-69{fill:#f2e5de;}.cls-70{fill:#e1d3cb;}.cls-71{fill:#dfcfc6;}.cls-72{fill:#e2d5cd;}.cls-73{fill:#6e635d;}.cls-74{fill:#c0b1a8;}.cls-75{fill:#9e9187;}.cls-76{fill:#d4c7bf;}.cls-77{fill:#807068;}.cls-78{fill:#60554e;}.cls-79{fill:#453b35;}.cls-80{fill:#897e77;}.cls-81{fill:#7e7268;}.cls-82{fill:#e0d2ca;}.cls-83{fill:#a89c94;}.cls-84{fill:#72655e;}.cls-85{fill:#4e4039;}.cls-86{fill:#e6dbd3;}</style></defs><g id="Layer_2" data-name="Layer 2"><g id="Layer_1-2" data-name="Layer 1"><path class="cls-1" d="M14.54,20c3.86-3.94,7.76-7.9,12.64-10.54,2.2-1.18,3.62-3.3,5.8-4.2,1.1-.45,3.69-2.91,3.92,1.08.16,1.56-1.09,2.05-2.08,2.73C22.64,17.3,12.51,27.38,6.09,40.82a2.82,2.82,0,0,1-1.61,1.75c-1.75-.67-1-1.92-.66-3a39.67,39.67,0,0,1,3.64-8.5C9.45,27.15,12.68,24,14.54,20Z"/><path class="cls-2" d="M109.45,37.43c5.66,13.07,5.87,26.37,1.25,39.72-1.82,5.26-3.87,10.51-7.79,14.72a.68.68,0,0,1-1,.1.47.47,0,0,1-.1-.1c-.81-1.67.37-2.85,1-4.15,1.7-3.41,4-6.65,4.81-10.36.67-2.93,3.93-5.68,1.09-9.06,2-6.25,1.45-12.58.58-18.92.28-1.76,1-3.51.11-5.3-.58-2.16-2.2-4.14-1.12-6.58a.76.76,0,0,1,1.07-.13Z"/><path class="cls-3" d="M50.89,115.74c-13.82-1.2-25.29-7.28-34.77-17.15A52.45,52.45,0,0,1,2.86,75.45,1.47,1.47,0,0,1,3.93,75c1.81.46,2,2.15,2.46,3.5a43.13,43.13,0,0,0,6.28,12c8.2,11,18.63,18.73,32.15,21.94a8.7,8.7,0,0,0,5.5.07,8.72,8.72,0,0,1,4,0c1.42.41,2.25,1.12.9,2.54C53.88,115.78,52.22,114.77,50.89,115.74Z"/><path class="cls-4" d="M62.41.45c16.72,1.6,30,9.09,39.6,23a1.7,1.7,0,0,1-1.05.43c-2.17-.46-3.44-2.17-4.74-3.68-4.51-5.23-10.28-8.81-16-12.43-.68-.43.1.66-.26.92A2,2,0,0,1,78.7,9.76c-5.77-2.6-11.63-5-17.23-8C61.29,1,61.86.72,62.41.45Z"/><path class="cls-5" d="M4.6,42.25c6-14.92,16.88-25.6,30-34.27.78-.51,1.78-.69,2.26-1.63L38.3,6c.76-.37,1.1,0,1.27.7C37.7,9.92,34,10.9,31.41,13.19,26.28,17,21.34,21,17.61,26.33A48.56,48.56,0,0,0,11,35.24c-2,2.57-2.81,5.88-5.27,8.14a1.6,1.6,0,0,1-1.14,0A1,1,0,0,1,4.6,42.25Z"/><path class="cls-6" d="M4.69,43.25a2.73,2.73,0,0,1,.7,0c.86,1.16.41,2.39,0,3.48A24.73,24.73,0,0,0,5,64.57a7.19,7.19,0,0,1,.37,2.8,9.23,9.23,0,0,1-.67,2.4c-1.15,1.77.74,3.9-.63,5.65l-1.19.12C1.26,71,.14,66.33.58,61.44c.18-2.5,0-5,0-7.48A26.51,26.51,0,0,1,2.21,43.27,2.18,2.18,0,0,0,4.69,43.25Z"/><path class="cls-7" d="M101.63,91.73l1.28.14A52.83,52.83,0,0,1,74.8,113.12a1.36,1.36,0,0,1-.32-1.09c.85-1.79,2.69-2.23,4.23-3,7.61-3.88,14.69-8.42,19.93-15.37A3.74,3.74,0,0,1,101.63,91.73Z"/><path class="cls-8" d="M62.41.45l-1,.86c-5.36,1.1-10.67,2.49-16.14,3a2.19,2.19,0,0,1-1.13-.8c.38-.6-3.26-1.07,0-1.87C50.17.25,56.22-.55,62.41.45Z"/><path class="cls-7" d="M101.13,23.43H102c3.45,4.16,6.58,8.48,7.44,14l-1.11.06c-1.14-.06-1.63-.92-2-1.79a48.61,48.61,0,0,0-4.91-9.3C100.89,25.51,100.28,24.52,101.13,23.43Z"/><path class="cls-9" d="M4.69,43.25c-.85,2-1.67,1.4-2.49,0A32.78,32.78,0,0,1,7,30.82c.39-.41.73-.38,1,.09-1,3.86-4.4,7-3.43,11.4Z"/><path class="cls-10" d="M8,30.84l-1-.09A33.44,33.44,0,0,1,14.54,20c1.26,2.41-1.29,3.13-2.13,4.57C11.12,26.76,9.54,28.76,8,30.84Z"/><path class="cls-11" d="M74.72,112.12l.08,1c-3.39,1.7-7.16,1.71-10.76,2.49-.61-.28-1.13-.6-.85-1.42,2.72-1.87,6.08-1.49,9-2.55A3.33,3.33,0,0,1,74.72,112.12Z"/><path class="cls-12" d="M.54,53.87a7.39,7.39,0,0,1,0,7.48A12.63,12.63,0,0,1,.54,53.87Z"/><path class="cls-13" d="M63.15,114.83l.89.78a60.86,60.86,0,0,1-13.15.13c1.16-1.49,2.93-.24,4.26-.95C57.83,113.48,60.54,113.08,63.15,114.83Z"/><path class="cls-14" d="M44.1,3.55l1.25.19A5.13,5.13,0,0,1,39.3,6.79L38.3,6A12.71,12.71,0,0,1,44.1,3.55Z"/><path class="cls-15" d="M74.72,112.12l-2.46.19c-.54-1.83-.54-1.83,2.11-3-1.74.53-3.32,1.1-4.39,2.9-.67,1.12-2.17,1.07-3.14-.07s-.13-2,.71-2.75c2.51-2.14,5.61-3.23,8.54-4.63a3.88,3.88,0,0,1,1.12-.2c4.65.16,7.07-3.43,10.1-6a5,5,0,0,1,.81-.79c1.64-1.14,3-2.66,5-3.3.78-.26,1.68-.72,1.88-1.44.78-3,3.6-4.84,4-7.94-.3-2.42,2.06-3.45,2.76-5.34.91-3.45,4.86-5,5.35-8.75.61-.88.59-2.41,2.26-2.22,1.6,1.13,1.3,2.55.86,4.17a73.24,73.24,0,0,1-8.64,18.81C94.54,101,85.32,107.47,74.72,112.12Z"/><path class="cls-16" d="M101.13,23.43l7.22,14.06q1,3.27,1.94,6.54c.12,1.24-.57,1-1.16.56-1.14-.89-1.4-2.31-2-3.54-5.56-11.18-12.84-20.95-23-28.41-1.6-1.17-3.66-2-4.28-4.19-.56-1.06-2.33-.88-2.58-3A66.44,66.44,0,0,1,93.82,16.34C96.33,18.62,98.21,21.55,101.13,23.43Z"/><path class="cls-17" d="M109.42,68.75l-1.69,2.5c-2.31-.62-1.87-2.53-1.51-4,1.54-5.95,1.24-11.91.43-17.89a16.83,16.83,0,0,0-.14-2.56,2.66,2.66,0,0,1,.16-1.22,1.75,1.75,0,0,1,1.45-1c2,1,1.67,2.95,2,4.65.37,4,1.78,7.93,1.32,12.12A18.35,18.35,0,0,1,109.42,68.75Z"/><path class="cls-7" d="M110.1,49.25l-2.22-4.56c-1.61-.4-1.69-1.55-1.43-2.87a1.81,1.81,0,0,1,1.35-1.13c.61,1.2,1.22,2.39,1.85,3.58,0,.07.26.09.36,0s.19-.19.28-.3C111.94,45.83,110.87,47.54,110.1,49.25Z"/><path class="cls-18" d="M76.48,105c-2.88,1.73-5.78,3.44-8.65,5.18-.6.37-1.16.88-.44,1.61.51.52,1.57.84,1.77.23,1.19-3.68,5.18-2.36,7.69-5.44-.65,3.73-5,2.5-4.59,5.7-2.75,1.86-6.2,1.22-9.11,2.52h-8c-1.43-2.77-4-.78-6-1.44-4.39-.62-7.94-3.18-11.79-5-7.57-3.92-13.36-10-19.15-16-1-1.08-2.14-2.22-1.42-4,1.33-1.61,2.83-1.54,4.3-.28s3.62,2.09,5,3.64C29.84,96,35.66,96.89,40,100.22c1.09.84,2,.1,2.91-.63a5.34,5.34,0,0,1,6.49-.47,1.8,1.8,0,0,1,.15,1.7c.92,1-3.86-.34-.71,1.77.76.51,0,2-.21,3.09-.35,1.45,0,2.4,1.67,2.38h5.85a42.66,42.66,0,0,0,4.93.11c1-.1,2.83.13,1.82-2-.83-.35-1.77-.45-2.39-1.2a2,2,0,0,1,.94-2.67,2.09,2.09,0,0,1,.59-.17c4.81-1.21,9.94-1.28,14.26-4.25.79-.54,1.85,0,2.55.78C80.07,101.56,75.92,102.42,76.48,105Z"/><path class="cls-19" d="M4.05,75.33c.33-1.87-2-3.61-.27-5.55,2.66,2.22,3.14,5.67,4.71,8.5a83.91,83.91,0,0,0,16.6,20.81c1.24,1.16,3,2.08,2.91,4.23-1.58,1.5-2.73.22-3.91-.64-3.69-2.67-6.44-6.27-9.55-9.51-.75-.79-1.32-1.75-2.43-2.11C7.89,86.6,6.54,80.67,4.05,75.33Z"/><path class="cls-20" d="M12.11,91.06c2.17.67,4.9,3.22,8.11,7,2,2.4,4,5.11,7.66,5.33,3.86,0,6.07,3.2,9.2,4.62,2.6,1.88,6.4,1.93,8,5.28A52.12,52.12,0,0,1,12.11,91.06Z"/><path class="cls-21" d="M45.1,113.25c-2.31-2.46-6-2.45-8.39-4.8.07-.57.6-.66,1-.93l11.51,5.82A4,4,0,0,1,45.1,113.25Z"/><path class="cls-22" d="M39.3,6.79a23.72,23.72,0,0,0,6.05-3c5.28-1.23,10.41-3.4,16-2.43A79.66,79.66,0,0,1,78.92,9.39c2,.07,3,1.32,3.8,2.93.36,2,3.9,3.42,1.71,5.66-1.87,1.9-4-.66-6-1.09-2.24-.46-4.33-2.82-6.46.13-2.61-1.63-2.1-4.62-3.06-7-.14-.5-.09-1.16-.49-1.48-.86-.68-1.11.25-1.4.73-.93,1.52-.7,3.74-2.8,4.55-4.83-.87-9.8-.09-14.6-.89-8.77-1.46-13.69,4.61-19.33,9.31-1.43,1.19-2.61,2-4.23.53-.67-2.32,1-3.67,2.45-4.73A6,6,0,0,0,31,12.55Z"/><path class="cls-23" d="M82.54,12.55,79,9.39l.92-.94c12.27,8.19,22,18.57,27.94,32.25l-.94.9c-2.4-.75-2.65-3.2-3.82-4.9-1.61-2.34-3.07-4.79-4.83-7A84.67,84.67,0,0,0,84.46,15.1C83.62,14.36,82.59,13.83,82.54,12.55Z"/><path class="cls-24" d="M4.6,68c-2.81-8.36-3.11-16.65.79-24.81l4.84-8.3c1.49-1.48,2.38-.7,2.9.86.66,2,2.17,3,3.86,3.89-1.47,3.57.57,8.19-3.25,11-.38.29-.35.2-.18.61,2.17,5.45,2.15,5.45-2.4,8-1.06.7-2.36.42-3.47.88C7.19,62.16,9.14,62.74,10,64c1.41,2,4.21,2.93,4.81,5.68-1.54,2.61-4.73,4.1-5.17,7.49C6,75.16,5.37,71.53,4.6,68Z"/><path class="cls-25" d="M17.08,39.9c-2.87.46-4.25-1.35-4.79-3.66-.34-1.46-.79-1.77-2.06-1.38a39.84,39.84,0,0,1,6.75-9c1,.51,1.85,1.84,2.91-.23A3,3,0,0,1,23.68,24c1.29,1.63.34,2.79-.84,3.87s-2.2,2.06-3.31,3.09-2.37,1.74-.25,3.06c1.1.69,1.16,2.5,0,2.6-2.28.22-.57,1.55-1,2.2A1.62,1.62,0,0,1,17.08,39.9Z"/><path class="cls-26" d="M23.67,24.25a4,4,0,0,0-3.21,2.07c-1.59,2.19-2.52,1-3.48-.49A52.48,52.48,0,0,1,31,12.61c1.18,2.07,2.48,3.91-1,5.38-1.75.74-3,2.73-3.88,4.6A3.17,3.17,0,0,1,23.67,24.25Z"/><path class="cls-27" d="M4.6,68l5,9.1c2.87,3.57,5.68,7.19,7.27,11.57,5.38,8,12.85,13.69,20.77,18.89l-1,.93-8.83-5.1c-5-5.34-10.74-10.08-14.9-16.24-3.68-5.45-7.24-11-9.2-17.34C3.92,69.12,3.88,68.37,4.6,68Z"/><path class="cls-28" d="M107.77,48.09c1.07,7,1.32,14-.76,20.92a2,2,0,0,0,.72,2.2c-.1,3.85-4.29,5.37-5.07,8.84-2,0-1.59-2.63-3.29-2.93-.67-.75-.63-1.86-1.32-2.61-.91-.68-2.37-.4-2.92-1.68-.06-1.08-.41-2.22.75-3,2.23-1,5.5.47,6.74-2.86a23.62,23.62,0,0,0,.24-11.75,5.44,5.44,0,0,0-2.4-1.64c-2.2-.94-4.28-2.06-4.11-4.89.13-2.32,1.93-3.06,3.85-3.57C103.11,45.13,105.3,47,107.77,48.09Z"/><path class="cls-29" d="M95.39,72.8c.92,1.08,2.47-.41,3.35.83-.31,1.21-.46,2.39.63,3.33,3.41-1.43,2,2.29,3.3,3.09-.36,2.13-3,2.81-3.19,5-1,3.22-3.18,5.71-5.38,8A38.69,38.69,0,0,1,88,98.35h0c-3.28,2.6-5.9,6.24-10.53,6.73l-1-.09c-1.06-.67-2.35-1.29-.58-2.6a9.51,9.51,0,0,0,3-3.18c5.23-5.54,11.59-9.91,16.39-15.91,1-1.19,2-2.14,2.14-3.9-3.62.22-4.79-1.72-4.24-5.05C93.59,73.38,94.1,72.56,95.39,72.8Z"/><path class="cls-30" d="M88,98.41c3.54-4.69,8.41-8.24,11.51-13.32.87.22,1.89,1.25,1.46,1.58-4.58,3.53-6,10.39-12.57,11.79A1.33,1.33,0,0,1,88,98.41Z"/><path class="cls-31" d="M77.46,105.12,88,98.39C86.09,102.42,80.69,105.87,77.46,105.12Z"/><path class="cls-32" d="M98.79,29.15c3.5,3.63,5.69,8.1,8.07,12.45a4,4,0,0,0,1,3.1l-1.15,1.13c-3.3-.43-4.13-3.8-6.46-5.39a17.09,17.09,0,0,0-11-5.11c2.06-.09,4.78,1.26,7.5,2.62,1,.49,2.23,1.21,1.82,2.41-.49,1.41-1.88.73-2.83.38-7.49-2.79-13.58,0-19.24,4.67-3.22,2.8-3.6,7.41-6.63,10.34a1.39,1.39,0,0,1-1.15-.23c-1.35-2.75.08-5.08,1.31-7.29a25.47,25.47,0,0,1,9.2-9.63C80,38.08,81.07,38,82,36.11,76.9,38,73.5,40.66,71,44.59,70,46,68.88,48.13,67.34,45c-.24-3.27,1.14-6.15,2.4-9A26.36,26.36,0,0,0,71.62,20.4,3.88,3.88,0,0,1,71.81,18a13.24,13.24,0,0,1,14.8,4.53A40,40,0,0,0,90.75,27C93.07,29.31,95.47,30.81,98.79,29.15Z"/><path class="cls-33" d="M75.6,44.83c6.63-5.55,13.79-8.49,22.46-4.63-4-2.05-7.5-5.67-12.79-3.74C89.71,33.3,95.82,34.81,101,40a16.85,16.85,0,0,0,5.88,6.49,1.58,1.58,0,0,1,.88,1.57c-3,.77-4.85-1.93-7.43-2.4a4.87,4.87,0,0,1-4.13-1.28c-4.9-4.13-7.46-4.44-13.13-1.54a36.4,36.4,0,0,0-3.45,2.18,7.4,7.4,0,0,1-1,.54C77.42,46,76.3,46.25,75.6,44.83Z"/><path class="cls-34" d="M106.89,46.53c-3.81-.47-4.84-3.84-6.66-6.38a1.66,1.66,0,0,1,.38-.11H101l5.71,5.79A5.88,5.88,0,0,0,106.89,46.53Z"/><path class="cls-35" d="M93.59,74.45c.41,2.93.94,5.7,5,3.51.92,3.94-2.24,5.42-4.14,7.76C90.24,90.83,85,94.72,80.1,99c-.26.23-.78.18-1.18.27-1-.41-2.11-1.35-3-.4-3.68,3.76-8.64,3.07-13.14,3.92a2.24,2.24,0,0,0-2,2.17c-3.77,2.7-6.06,2.69-8.77,0-.07-2.33.48-4.41,2.44-5.9,4.25-.88,7.81-2.61,8.91-7.33,1.78,1.77,1.78,1.77,1.62,5.51.11-1.65.45-3.27.49-4.93a29.16,29.16,0,0,1,1.86-10.17,16.7,16.7,0,0,1,10.77-6.75c3.17-.61,5.7-.18,7.28,2.91.58,1.13,1.16,2.33,2.72,1.91,1.74-.48,1.2-1.85,1-3-.25-1.46-.06-2.79,1.36-3.55a2.24,2.24,0,0,1,3.1.68Z"/><path class="cls-36" d="M16.91,88.64A38.07,38.07,0,0,1,9.64,77.07c-1.49-4.5,2.65-5.35,4.83-7.46.91-.07,1.3-1.15,2.24-1.15a1.28,1.28,0,0,1,.85.64c.76,3.45-.39,7.31,2.24,10.35A13,13,0,0,0,21,80.59a14.48,14.48,0,0,0,3.54,1.66c3.37,2.11,7.14.54,10.67,1.15,1.67,1.91.27,4.23.83,6.33.45,1.7.49,3.51,1.4,5.08,1.32,2.41,2.16-.18,3.23-.33a5,5,0,0,1,1.2-.33,40.36,40.36,0,0,1,8.65.18c2.93,1.67,1.54,3.33,0,5a1.11,1.11,0,0,1-1.29,0c-2.44.1-5.14-.81-6.67,2.33-.45.94-1.7.86-2.86.11-6.6-4.27-13.8-7.66-19.48-13.29C19,87.16,18,88.25,16.91,88.64Z"/><path class="cls-37" d="M52.54,104.17c.47,2.51,2.45,1.63,3.89,1.59a27.9,27.9,0,0,0,4.34-.82l3.36.09c0,2.63-1.29,3.81-3.93,3.72-1.15,0-2.39-.39-3.47.38l-5.11-.1C50.59,107.16,49.88,105.35,52.54,104.17Z"/><path class="cls-38" d="M52.54,104.17c-1.43,1.4-.6,3.24-.92,4.86l-1.54-.1a2.92,2.92,0,0,1-.63-1c.3-5,2.8-9.1,4.86-13.42a12.92,12.92,0,0,1,1.91-2.26,4.25,4.25,0,0,1,2.47-1.49c1.89.66,1.94,2,.7,3.09-1.79,1.54-2.8,3.66-4.51,5.21Z"/><path class="cls-37" d="M55.08,94.4c-1.46,4.74-4.63,8.87-5,14-2.46.55-2.41-.89-1.87-2.49s1.25-3.27,1-5.08V99.25a3.25,3.25,0,0,1,.7,0c3.12-1,1.67-4.11,2.81-6a1.7,1.7,0,0,1,2.25.85A2,2,0,0,1,55.08,94.4Z"/><path class="cls-39" d="M49.22,100.83c1.73,1.54.42,3-.13,4.48s-1.14,2.63,1,3.09a2.35,2.35,0,0,0,0,.53c-3.59.57-3.57-1.2-2.43-3.73.82-1.8,2-3.79-1.6-4Z"/><path class="cls-40" d="M56.69,109.13c2.46-1.38,6.28-.31,7.4-4.1.89,2.74,0,4.31-2.6,4.43A42.68,42.68,0,0,1,56.69,109.13Z"/><path class="cls-41" d="M23.67,24.25a2.67,2.67,0,0,1,2.45-1.66c3.83,1.26,5.67-2.48,7.12-4.16,2.79-3.23,7.19-3.94,9.56-7.38.13-.18.54-.4.66-.33C49.34,14.24,55.92,11,62,12.67c.78.21,1.65.11,2.13,1a2.75,2.75,0,0,1-1.38,3.57c-3.3.56-6.51.63-9.42-1.46A5.34,5.34,0,0,0,51,15c-2.85-.45-4.51,2.47-7.21,2.5-2.88,0-3.63,2.24-5.18,4.21-2.31,2.91-4.44,6.11-7.22,8.67-1.64,1.52-2.3-.2-4-2,1.71,4.33-1.7,5.68-2.67,8.22-1.18,3.09-3.9,3.44-6.84,2.62.05-1.38-.88-2.16-2.9-3.3a15.25,15.25,0,0,1,2.6.31c.83.31,1.63.58,1.83-.63s-.83-.73-1.38-.94c-2.1-.78-3-1.25-.53-3.3S23.17,27.88,23.67,24.25Z"/><path class="cls-42" d="M98.79,29.15c-2.88,3.67-5.35,1.94-7.71-.61-1.9-2.05-4.09-3.72-5.73-6.18a9.21,9.21,0,0,0-7.76-4,37.67,37.67,0,0,1-5.19-.72.48.48,0,0,1-.25-.51c0-.19.1-.29.16-.29-.1-2.94.52-4.17,3.62-2.11,1.9,1.25,4.3,1.73,6.43,2.66.59.26,1,.93,1.72.26s.16-1.39-.23-2.12c-.51-1-2.66-1.23-1.33-3C88.54,17.46,94.59,22.42,98.79,29.15Z"/><path class="cls-43" d="M72.31,16.86a1.23,1.23,0,0,0,.09.8c0,.81,0,1.62-.05,2.42,1.23,4.85-.17,9.36-1.82,13.83-.34.91-.92,2-1.91,1.89s-1.25-1.26-1.44-2.21c.71-6.73-.42-13.52.66-20.24.38-1.45-.36-3.46,2-3.91C70.67,11.91,70.77,14.63,72.31,16.86Z"/><path class="cls-44" d="M69.82,9.44c-1.47,1.15-.57,2.8-.89,4.19-1.53-.12-1.09-1.22-1.08-1.7-2,4.82-2.78,10.38-3.94,15.84-.6,1.83-.27,3.74-.54,5.6a2.87,2.87,0,0,1-1,1.78A1.58,1.58,0,0,1,61,34.88,18.84,18.84,0,0,1,62.54,17l1.58-3.36,2-4.8c.43-1,1-2.26,2.15-2.14C69.72,6.8,69.71,8.25,69.82,9.44Z"/><path class="cls-45" d="M62.54,17c-1.39,6-2.82,11.9-1,18,1.8,2.26,2.71,4.93,3.69,7.58a4.07,4.07,0,0,1,.17,1.16c-.11.87-.51,1.47-1.48,1.5-1.58-.42-1.69-2-2.39-3.08C59.67,39,57.77,35.88,53.81,35a16.66,16.66,0,0,1-4.18-1.8,14.66,14.66,0,0,0-10.75.82c-2.7,1.37-4.55,4.16-7.79,4.62-3.47.3-7.44,5-6.7,8.54,1.13,5.38-1.26,9.11-5,12.42-2.75.23-5.57,1.16-8.06-.9-.09-.38-.35-1-.25-1.09,4.11-2.46,4.19-3.48.05-8,3.36.91,4.23-.57,3.83-3.19a7.14,7.14,0,0,1,2.09-6.55l.84-.82c.94-2.38,3.13.73,4.07-.85,1.68-2.82,5.9-4.52,4-9-.58-1.38.73-1.5,1.66-1.64,1.74-.27,2.1.14,2.47,2.68,3.41-2,3.54-7.19,7.91-8.32-1.92-3.06,2-4.79,2.53-4.79,5.09-.07,9.73-6.59,15.14-1.23C57.73,18,60.54,15.08,62.54,17Z"/><path class="cls-46" d="M16.17,68.8c0,1.43-.61,1.62-1.69.81-2.44-2.4-5-4.71-7.25-7.24-.76-.85-2.82-1.82-.86-3.52.71.69,1.74.82,2.47,1.46,1.48,1.44,3.32.71,5,.87s3.89-.71,5.06,1.51c-.22.86-.92,1.23-1.64,1.59a5.4,5.4,0,0,1-2.73.23C15,66.07,16.54,67.17,16.17,68.8Z"/><path class="cls-47" d="M8.06,60.52a2.7,2.7,0,0,1-1.69-1.67l5-.09h9c1.5-.84,2.58-.2,3.5,1-.11,1.47-1,2-2.37,2C17.09,60.64,12.41,62.34,8.06,60.52Z"/><path class="cls-48" d="M93.59,74.45c-4-.67-4.46-.24-3,3.4.8,2-.87,2.58-1.52,3.76-1.33-.87-3.84,1.1-4.32-1.71-.76-4.49-3.69-4.16-7.08-3.53-3.9.72-6.59,3.26-9.48,5.58-1.51-1.86-.43-3.21.87-4.54,1.14-1.16,2.36-2.31,1.58-4.2A10.18,10.18,0,0,1,70,71.57a14.6,14.6,0,0,1-.28-4.32A9,9,0,0,1,70,65.39c1-5.25,1.9-10.53,5.52-14.8a9,9,0,0,0,3.4-5.75c4.33-4.06,9.27-6.54,15.13-4,2.32,1,3.51,4.08,6.32,4.82-1,1.18-3.48,1-3.26,3.45s2.61,2.7,4.07,3.87C99.8,54.48,98,54,96.31,54.16S93.08,54,92,55.52c-1.09,3.71-1.85,7.43-.71,11.26.69,2,3.2,1.92,4.12,3.64a1.87,1.87,0,0,1,0,2.34Z"/><path class="cls-49" d="M90.48,54.76c1.15-2.61,3.48-1.48,5.36-1.65s3.54-.07,5.31-.09l2.57,1c-.19,4.67-1.07,9.33,0,14-1.9,3.71-5.39,2.14-8.3,2.49-1.71-.7-3.9-.48-4.91-2.54C90,63.54,91.3,59.15,90.48,54.76Z"/><path class="cls-50" d="M103.68,68c-2.56-4.67-2.2-9.34,0-14C105.79,58.64,104.71,63.31,103.68,68Z"/><path class="cls-51" d="M99.37,77c-2.57-.66-3.06-1.72-.63-3.33C99.86,74.57,99.64,75.76,99.37,77Z"/><path class="cls-52" d="M76.54,50.66C73,55,72.12,60.36,70.84,65.57c-1-.48,0-3.07-2.29-2.22-.92-2.85-1-5.56,1.24-7.92a34.73,34.73,0,0,1,5.86-10.6c.79.33,1.57.67,2.38.06C79.39,47.3,76.91,48.72,76.54,50.66Z"/><path class="cls-53" d="M68.16,33.25l.16,1.6c2.46-4.62,4.66-9.3,4-14.74C74.55,26,72.58,31.54,70.5,37c-1.07,2.8-2.32,5.52-2.47,8.58,0,2.25,1.13,4.59-.5,6.72a1,1,0,0,1-1.31-.15c-.93-1.29-.76-2.79-.83-4.25.5-3.84-.4-7.77.74-11.58C66.54,35.05,66.37,33.51,68.16,33.25Z"/><path class="cls-54" d="M67.33,52.25c.61-2.19-.23-4.53.73-6.67,2.09,1.27,1.8-1,2.26-1.7a19.6,19.6,0,0,1,9.61-7.94c1-.37,2.24-1.68,3,.65S81.59,38.05,81,38.84c-.18.26-.75.25-1.14.36-5.82,2.7-9.26,7.4-11.23,13.34-.22.67-.05,1.93-1.37,1.15C66.81,53.37,67,52.7,67.33,52.25Z"/><path class="cls-52" d="M67.33,52.25a.65.65,0,0,0,.09.4c.13.32.52.84.62.24.92-5.33,4.4-9,8.18-12.32,1-.87,1.89-2.48,3.69-1.37C74.45,43.46,69.5,48.05,69,55.61a33.37,33.37,0,0,0-.63,9.77c.16,1.47.9,3.74-1.89,4.06-1.57-5.73-2.08-11.45.09-17.16A1.24,1.24,0,0,0,67.33,52.25Z"/><path class="cls-55" d="M66.64,69.49c1.75-3.77-.1-8,1.44-11.79.29-.72.15-1.61.92-2.12a2.38,2.38,0,0,0,.74-.15L69,63.66a15.25,15.25,0,0,1,0,6.45,1.92,1.92,0,0,1-1.32,1.33,1.71,1.71,0,0,1-1.27-1.34C66.47,69.89,66.54,69.69,66.64,69.49Z"/><path class="cls-56" d="M76.54,50.66c-.73-2.24,1.34-3.76,1.49-5.77l.91,0C80.36,47.72,78.54,49.25,76.54,50.66Z"/><path class="cls-57" d="M54.84,99a6.69,6.69,0,0,1,3.34-5.24c1.07-.6,2.69-1.65.15-2.68-2.67,1.48-5.41.12-8.08.07-3.79-.06-7.07.39-9.19,3.93h-.7c-2.5-3-.83-6.53-1.32-9.78V84A13.76,13.76,0,0,1,43,75.19a5.76,5.76,0,0,1,6.39-1.56,12.94,12.94,0,0,1-4.22-7.82,2.63,2.63,0,0,1,1-2.93c1-.56,1.88,0,2.67.51,2.25,1.56,4.58,3,6.88,4.46,3.38,2.19,3.33,5.52.16,9.81,2.19.27,4.36-.47,6.53,0,2.46,1.53,1.78,4,2,6.26-.3,2.61.77,5.39-1,7.8C63.12,96.86,58.94,100.46,54.84,99Z"/><path class="cls-58" d="M71.54,72.84c1.6,2.34-.17,3.83-1.59,5s-2.14,2.28-1.74,4.07c-1.16,3.42-1.26,7-1.8,10.56-2.58-.78-1.42-3-1.79-4.62-.18-4.71-.3-9.4,4.17-12.56A6.39,6.39,0,0,1,71.54,72.84Z"/><path class="cls-59" d="M65.69,87.63c.32,1.61-.43,3.38.71,4.88-.23,1.72-.45,3.44-.71,5.43-2.52-1.71-.8-4.56-2.31-6.27V83.5c.93-.93-.5-2.68,1.15-3.37C66.45,82.39,64.44,85.25,65.69,87.63Z"/><path class="cls-60" d="M61.6,78c-2.16,1.35-4.44.5-6.66.58-.29-1.47.52-2.23,1.21-3.08,1.82-2.22,1.44-5.9-1-6.93s-4.59-2.86-6.8-4.41c-.54-.38-1-1.08-1.77-.66A1.44,1.44,0,0,0,46,65.26c1,2.52.67,5.84,4.11,6.92.65.2,1.37.63,1,1.45s-1.61,1.45-2,1.08c-2.19-2.13-3.67.5-5.48.61-4.63.74-9.29.14-13.93.34-1.49.07-3-.25-4.44.36,0,2.34,1.91,1.41,3,1.51a20.83,20.83,0,0,1,5.94,1.14c1.69.68,2.92,1.7,1.24,3.62-3.06,2.09-6.12.77-9.17,0-.83,0-1.71-.18-2.42.48A4.38,4.38,0,0,1,20.34,81c.24-4.47,1-8.94.64-13.41-.21-3.14,2.71-4.89,2.76-7.77l-3.33-1c-.21-.71-1.11-1.48-.09-2.15,3.44-2.27,4.2-5.21,2.84-9.08S27.39,37.34,31.1,38c.15,2.48-2.44,3.49-3,5.58,1.44,1.47,2.35-.18,3.26-.69a22.8,22.8,0,0,1,14.25-3.08c7.18,2.23,11,7.75,13.69,14.25a33.07,33.07,0,0,1,2.41,16.45A7.69,7.69,0,0,0,61.6,78Z"/><path class="cls-61" d="M23.71,59.78c1.51,0,2.4.68,1,1.8-2.55,2-2.38,4.67-2.46,7.44-.13,4,0,8.18-1.93,11.94l-.81-.48c-.4-1-1.15-1.88-1.11-3,.12-3.7,0-7.39.1-11.09.05-2.56.82-4.6,3.8-4.92Z"/><path class="cls-62" d="M35.27,82c.83-1.84,0-2.48-1.78-2.62-2-.17-4.07-.55-6.12-.6-2.33-.06-4-.8-4.4-3.3,1.48-1.13,2.34.53,3.53.76,2,.82,4,.42,6.06.53s3.85.22,5,2.21c1.1,5.12.07,10.36.79,15.51A1.31,1.31,0,0,1,37.3,96a1.4,1.4,0,0,1-.41,0c-2.18-3.87-2-8.07-1.76-12.28a1.51,1.51,0,0,1-.36-.94A1.36,1.36,0,0,1,35.27,82Z"/><path class="cls-63" d="M36.85,96c2-1.57-.05-3.2,0-4.82.2-4.17,0-8.36,0-12.54a1.42,1.42,0,0,1,2,.14c1.29,4.57-.69,9.11.11,13.18.82-2.1-1.5-5.29,1.13-7.62.08,3.59.17,7.17.26,10.76C39.61,97,38.77,98.62,36.85,96Z"/><path class="cls-64" d="M41.06,95.12c.22-3.74,2.23-5.18,5.91-5s7.62.15,11.36,1c-.5.53-1,1-1.49,1.58-3.41.22-6.86-.19-10.2.52,1.54.41,3.57-.5,4.32,1.73Z"/><path class="cls-65" d="M18.91,77.48c.2,1,.39,2,.59,3-3.58-3.34-2.5-7.64-2.42-11.73a3.67,3.67,0,0,1,0-4.92c.27-.74.88-.83,1.55-.82C19.61,67.81,19.13,72.65,18.91,77.48Z"/><path class="cls-66" d="M51,95c-2-1.56-4.71.37-6.64-1.43a8.78,8.78,0,0,1,8.13,0c1.07,3-.17,5.78-2.51,5.64C50.38,97.81,52.6,96.84,51,95Z"/><path class="cls-67" d="M35.14,82.7a6.57,6.57,0,0,1,0,1c-3.85.81-7.7,1.61-11.27-1-.21-1.16.35-1.62,1.45-1.59A14.79,14.79,0,0,0,35.14,82.7Z"/><path class="cls-68" d="M25,87.13l8.09,1L33,89.23C30.3,89.25,27.54,90.25,25,87.13Z"/><path class="cls-69" d="M17.08,63.83a8.76,8.76,0,0,1,0,4.92l-.91,0-3.51-4.95A8.1,8.1,0,0,1,17.08,63.83Z"/><path class="cls-70" d="M52.45,93.56H44.32c-.88-.91-.32-1.72.53-1.68,4,.19,8.1-.9,12,.86l-1.76,1.7C54.23,94,53.54,93.32,52.45,93.56Z"/><path class="cls-71" d="M68.16,33.25c-2,4.76-1.33,9.84-1.78,14.79-3.11-.8-.12-3.49-1.49-4.82h0A18.54,18.54,0,0,0,62.5,35V33.35c1.76-1.78-.52-4,.7-5.87a49.12,49.12,0,0,1,4.64-17.39c.7,1-.21,2.67,1.11,3.53Q68.53,23.43,68.16,33.25Z"/><path class="cls-55" d="M62.54,35c2.58,1,3.62,4.58,2.39,8.26-1.42-2.62-3.05-5.16-3.32-8.25Z"/><path class="cls-55" d="M63.18,27.49c.28,1.56.57,3.12.83,4.69.23,1.33-.3,1.72-1.53,1.18C62.41,31.36,62.09,29.34,63.18,27.49Z"/><path class="cls-72" d="M45.12,40.73C39.07,40,34,42.47,29,45.49c-.71.43-1.7,1.4-2.55.38s.15-1.78.5-2.64c3.91-3.46,7.8-7,12.54-9.31,3.8-1,3.8-1,8.67.55-.69-1.24-2.4-.23-3.12-1.72a5.79,5.79,0,0,1,5.19-.25c1.26.64,2.42,1.56,3.92,1.63.72,2.42,1.81,4.58,4.06,5.95,1.74,3.84,4.19,7.35,5.3,11.47.42,1.56,1,3.15.35,4.8-1.52,2-2.08.43-2.29-.77a26.11,26.11,0,0,0-2.5-6.91c-3.53-7.08-9.15-11.25-17.16-11.84,8,.63,13.65,4.82,17.16,12a22.13,22.13,0,0,1,2.06,5.33,1.08,1.08,0,0,1-.58,1.36c-.68.25-1.06-.26-1.25-.73A39.3,39.3,0,0,0,56,48.65c-3.5-5.4-8-9.21-15.2-9.24C42.37,40.18,44.44,38.17,45.12,40.73Z"/><path class="cls-55" d="M45.12,40.73c-1.36-1.49-3.42-.41-5.7-1.5,12.24-.9,16.73,7.21,20.91,15.72-2-10.59-7.7-15.59-20.13-18A18.83,18.83,0,0,1,60,48.81c1,2.53,1.79,5.11,2.7,7.66,0,.05.26.06.38,0a2,2,0,0,0,.33-.24c2.1,1.54.69,3.57,1,5.2.89-5.41-1.84-11-.35-16.57.73-.36.77-1,.87-1.72,1.9,1.17,0,3.51,1.49,4.82.06,1.41.13,2.83.19,4.24l.06,17.24-.16.24a3.45,3.45,0,0,1-3.06,1.91c-.88-.07-1.8.14-2.61-.4.31-7.94-1-15.48-5.38-22.31C52.9,45,49.73,42,45.12,40.73Z"/><path class="cls-73" d="M64,44.91c1.58,5.63.47,11.38,1,17.88-1.47-2.53-.26-4.82-1.61-6.51-.23-6.11-4-10.9-6-16.35.23-1.73,1.22-.9,1.86-.46,1.05.73,1.77,1.91,3.07,2.32Z"/><path class="cls-74" d="M62.29,41.79c-.69.52-1.23,2-2.19.13-.52-1-.8-2.76-2.73-2-2.66-1.06-5.17-2.2-3.2-5.8C58.34,35.14,60.54,38.25,62.29,41.79Z"/><path class="cls-75" d="M39.29,34.91a50.33,50.33,0,0,0-9.84,7.26c-.68.69-1.37,1.36-2.48,1.06l4.1-5.2c3-.74,4.5-3.8,7.42-4.63C39.12,33.71,39.77,34,39.29,34.91Z"/><path class="cls-74" d="M39.29,34.91c-.27-.5-.54-1-.8-1.51a13,13,0,0,1,11.75-.9h-4.7c1.29,1.31,3.08.59,3.94,2.3C46,34.25,42.54,33.5,39.29,34.91Z"/><path class="cls-76" d="M18.91,77.48q-.14-7.26-.28-14.47c-2.17-1.84-4.75-.88-7-.69a3.18,3.18,0,0,1-3.54-1.8c4.74.41,9.59-.94,14.23.91-2.5,1.33-2.91,3.44-2.89,6.14C19.42,70.86,20.54,74.25,18.91,77.48Z"/><path class="cls-77" d="M90.48,54.76c1.22,4.39,1.81,8.78,0,13.16C88.54,63.53,90.37,59.15,90.48,54.76Z"/><path class="cls-78" d="M68.39,70.32c.26-2.21-.77-4.54.57-6.66l1.53-1.77c.11,1.34.2,2.51.3,3.68-.06.51-.11,1-.16,1.52-.67,1-.18,2-.41,3C69.83,71.9,69.14,71.66,68.39,70.32Z"/><path class="cls-79" d="M71.54,72.84c.24,1.39-1,1.81-1.69,2.62-3.3.48-3.74.05-3-3,1.24-.73,2.5-1.27,3.92-.44Z"/><path class="cls-80" d="M70.74,72a6.2,6.2,0,0,0-3.45.78,1,1,0,0,1,.16-1.41l.09-.06c.28-.33.56-.67.85-1,.88.56,1.42.49,1.44-.72,0-.91-.07-1.86.8-2.51Z"/><path class="cls-81" d="M93.61,65.35c1.48-3.49,4.55-4.64,4-8.19,1.93,2.12.19,4.76,2.31,6.39.72.55-1,1.58-1.26,1C97.18,61.94,95.87,63.82,93.61,65.35Z"/><path class="cls-82" d="M67.54,71.32c-.08.49-.17,1-.25,1.47-1.17,2.81,1,2.45,2.55,2.67-4,3.16-4.51,7.52-4.15,12.17-1.78-2.21.16-5.18-1.53-7.41a16.82,16.82,0,0,0-2.06-3.71c-1.75-2.08-1.83-4.18,1.35-5.21l3-1.57Z"/><path class="cls-83" d="M25.54,76.85c-1-.25-1.24-1.73-2.52-1.42.72-1.56,2.17-1,3.24-.89,5.8.33,11.68-.92,17.42.78-1.26,2.75-3.49,5.08-3.54,8.34-2.37-1-.61-3.08-1.14-4.56-.56-2.41-2.63-2-4.23-2.06C31.65,76.86,28.54,77.07,25.54,76.85Z"/><path class="cls-84" d="M63.45,71.3c-1.88,2-2.79,3.85.19,5.67,1.36.84.64,2.12.52,3.25-.42,1.06.34,2.41-.81,3.28-.72-1.81,1.11-4.41-1.75-5.55-2.35-2-3.3-4.15-.8-6.71C61.7,70.57,62.59,70.11,63.45,71.3Z"/><path class="cls-85" d="M39.34,78.72c.45,1.61-.16,3.39.75,4.94v.68c-1.22,3,0,6.19-1.18,9.57-1-5.3-.45-10.22-.26-15.13C38.85,78.39,39.08,78.39,39.34,78.72Z"/><path class="cls-36" d="M35.14,82.7c-3.56,1.19-6.92,1.19-9.87-1.53,3.34.22,6.53,2.28,10,.78A.66.66,0,0,1,35.14,82.7Z"/><path class="cls-86" d="M39.34,78.72a2.61,2.61,0,0,0-.68.06l-1.78-.14c-3.6-1.84-7.81.18-11.39-1.79,4.27-1.85,8.72-.23,13.07-.6C40.47,76.09,39.06,77.88,39.34,78.72Z"/></g></g></svg>