<svg xmlns="http://www.w3.org/2000/svg" viewBox="0 0 128.81 125.32"><defs><style>.cls-1{fill:#111110;}.cls-2{fill:#757370;}.cls-3{fill:#353434;}.cls-4{fill:#3c3b3a;}.cls-5{fill:#575553;}.cls-6{fill:#656463;}.cls-7{fill:#2d2d2d;}.cls-8{fill:#b6b2b0;}.cls-9{fill:#6c6967;}.cls-10{fill:#747271;}.cls-11{fill:#6f6e6b;}.cls-12{fill:#cdc8c5;}.cls-13{fill:#ebe8e7;}.cls-14{fill:#c5c2c0;}.cls-15{fill:#bfbab8;}.cls-16{fill:#dcd7d6;}.cls-17{fill:#141210;}.cls-18{fill:#b8b4b1;}.cls-19{fill:#bdb9b7;}.cls-20{fill:#c3c1bf;}.cls-21{fill:#b6b4b2;}.cls-22{fill:#f9f8f7;}.cls-23{fill:#cfcdcc;}.cls-24{fill:#d9d5d3;}.cls-25{fill:#2f2b29;}.cls-26{fill:#bbb8b6;}.cls-27{fill:#5d5a58;}.cls-28{fill:#34302e;}.cls-29{fill:#dfdcd8;}.cls-30{fill:#6e6966;}.cls-31{fill:#433e3b;}.cls-32{fill:#807e7c;}.cls-33{fill:#e2e1dd;}.cls-34{fill:#9b9997;}.cls-35{fill:#aeaca9;}.cls-36{fill:#524d4a;}.cls-37{fill:#7c7774;}.cls-38{fill:#eae7e3;}.cls-39{fill:#1a1817;}.cls-40{fill:#f3f1ef;}.cls-41{fill:#d6d2ce;}.cls-42{fill:#5a5451;}.cls-43{fill:#322e2c;}.cls-44{fill:#262322;}.cls-45{fill:#3b3835;}.cls-46{fill:#363330;}.cls-47{fill:#312e2b;}.cls-48{fill:#787370;}.cls-49{fill:#3e3b37;}.cls-50{fill:#57524f;}.cls-51{fill:#edeae8;}.cls-52{fill:#7a7572;}.cls-53{fill:#aca7a3;}.cls-54{fill:#9b9794;}.cls-55{fill:#ebe8e5;}.cls-56{fill:#aca7a4;}.cls-57{fill:#7f7a79;}.cls-58{fill:#615f5b;}.cls-59{fill:#615c58;}.cls-60{fill:#605b58;}.cls-61{fill:#5b5754;}.cls-62{fill:#55524e;}.cls-63{fill:#595753;}.cls-64{fill:#4e4b48;}.cls-65{fill:#595451;}.cls-66{fill:#2b2927;}.cls-67{fill:#a9a4a1;}.cls-68{fill:#24211f;}.cls-69{fill:#fbfbfa;}.cls-70{fill:#fcfbfa;}.cls-71{fill:#aba7a3;}.cls-72{fill:#aaa4a1;}.cls-73{fill:#454341;}.cls-74{fill:#96918d;}.cls-75{fill:#514c49;}.cls-76{fill:#b1aba8;}.cls-77{fill:#57534f;}.cls-78{fill:#534f4c;}.cls-79{fill:#423e3b;}.cls-80{fill:#383432;}.cls-81{fill:#b0aaa7;}.cls-82{fill:#66625e;}.cls-83{fill:#7c7876;}.cls-84{fill:#4b4845;}.cls-85{fill:#474441;}.cls-86{fill:#9f9e9a;}.cls-87{fill:#817c79;}.cls-88{fill:#494643;}.cls-89{fill:#a7a29e;}.cls-90{fill:#989693;}.cls-91{fill:#383533;}.cls-92{fill:#514d4a;}.cls-93{fill:#a39f9b;}.cls-94{fill:#332e2b;}.cls-95{fill:#34302d;}.cls-96{fill:#393532;}.cls-97{fill:#47423f;}.cls-98{fill:#302c2a;}.cls-99{fill:#f5f4f2;}.cls-100{fill:#8a8683;}.cls-101{fill:#35312e;}.cls-102{fill:#dfdad7;}.cls-103{fill:#4c4845;}.cls-104{fill:#44403d;}.cls-105{fill:#9a9693;}.cls-106{fill:#928f8b;}.cls-107{fill:#36322f;}.cls-108{fill:#3b3734;}.cls-109{fill:#3f3b3a;}.cls-110{fill:#3a3532;}.cls-111{fill:#46413e;}.cls-112{fill:#b5b4b3;}.cls-113{fill:#d6d2cf;}.cls-114{fill:#efebe8;}.cls-115{fill:#9d9a97;}.cls-116{fill:#5a5653;}.cls-117{fill:#6e6c69;}.cls-118{fill:#6b6764;}.cls-119{fill:#74726e;}.cls-120{fill:#2d2927;}.cls-121{fill:#524e4b;}.cls-122{fill:#65615c;}.cls-123{fill:#5f5b58;}.cls-124{fill:#6f6b67;}.cls-125{fill:#d2cfcb;}.cls-126{fill:#e9e7e5;}.cls-127{fill:#aeabaa;}.cls-128{fill:#d9d3d1;}.cls-129{fill:#e4e2df;}.cls-130{fill:#dbd8d3;}.cls-131{fill:#44403e;}.cls-132{fill:#d5cfcc;}.cls-133{fill:#312e2d;}.cls-134{fill:#e2ddda;}.cls-135{fill:#e2e0dc;}.cls-136{fill:#b7b3b0;}</style></defs><g id="Layer_2" data-name="Layer 2"><g id="Layer_1-2" data-name="Layer 1"><path class="cls-1" d="M52.39,1.17C73.48-2.51,92.26,2.42,108.28,16.7c27.31,24.34,26.28,65.21,3.45,88.21-.84.13-1.07-.39-1.16-1.07.28-1.9,1.55-3.26,2.65-4.69,8-10.46,11.5-22.51,12.33-35.49.19-2.9-.88-5.65-.8-8.51.14-1.81-.48-3.5-.83-5.23a49.56,49.56,0,0,0-5.76-15.18C108.24,16,92.53,5.68,71.66,2.74A56,56,0,0,0,55,2.8a4.54,4.54,0,0,1-2.37-.56.71.71,0,0,1-.32-1A.83.83,0,0,1,52.39,1.17Z"/><path class="cls-2" d="M2.24,78.39C-1.76,63.8-.3,49.68,5.87,36c.37-.82.68-1.7,1.82-1.68a1.43,1.43,0,0,1,.62.83c.11,1.57-.84,2.71-1.55,4-1.24,2.53-2.56,5-2.31,8a1.74,1.74,0,0,1-.77,1.76A8.27,8.27,0,0,0,3,55.31a4,4,0,0,1-.71,2.74C.14,60.26,1.8,63.2,1,65.66c.93-2-.71-4.37.92-6.23,1.76.86,1.56,2.55,1.57,4,0,3.34.2,6.66.45,10-.4,1.61-.29,3.28-.6,4.9a.73.73,0,0,1-1,.11A.12.12,0,0,1,2.24,78.39Z"/><path class="cls-3" d="M110.89,104l.84.9a58.84,58.84,0,0,1-31,18.17c-.78.26-1.1-.13-1.17-.85,1.5-1.88,4-1.55,5.84-2.53a59.51,59.51,0,0,0,11.91-5.77,57.59,57.59,0,0,0,11.61-9.32A2.15,2.15,0,0,1,110.89,104Z"/><path class="cls-4" d="M52.39,1.17V2c-.53,2-2.4,1.83-3.77,2.11C41.88,5.46,35.85,8.42,30,11.92c-.29.22-.6.41-.91.6a30.16,30.16,0,0,0-6.7,5.07,3.06,3.06,0,0,1-1,.39,1.67,1.67,0,0,1-1.49-.58A58.29,58.29,0,0,1,52.39,1.17Z"/><path class="cls-5" d="M39.75,120.59a49.88,49.88,0,0,1-18.86-11.51,1,1,0,0,1,.77-.69c2,0,3.19,1.57,4.65,2.55a81.82,81.82,0,0,0,12.35,7.19,4.59,4.59,0,0,1,2.18,1.76C40.74,120.53,40.54,121,39.75,120.59Z"/><path class="cls-6" d="M39.75,120.59l.88-.67a1.67,1.67,0,0,1,1.44-.4A90.69,90.69,0,0,0,60.69,123a1.65,1.65,0,0,1,1.16.94c-.54,1.78-2.3.33-3.19,1.19A53.46,53.46,0,0,1,39.75,120.59Z"/><path class="cls-5" d="M2.24,78.39H3C5.75,81.46,5.52,86,8.28,89a9.41,9.41,0,0,1,1.41,1.61,2.08,2.08,0,0,1,.11,1.53c-1.19.77.57,1.51,0,2.27a.75.75,0,0,1-.74.56A40.67,40.67,0,0,1,2.24,78.39Z"/><path class="cls-5" d="M16.17,104.36A34.42,34.42,0,0,1,9.09,95l.62-.51c2.46.44,2.93,3,4.59,4.3l1.81,1.88c.76.94,1.81,1.81,1,3.23A1.2,1.2,0,0,1,16.17,104.36Z"/><path class="cls-7" d="M58.66,125.11c.91-.93,2.23-.25,3.24-.81,3.87-1.46,7.94-1.42,12-1.6.86.27,1.9.34,1.86,1.63A69,69,0,0,1,58.66,125.11Z"/><path class="cls-8" d="M7.69,34.27c-.46-.35-1-.67-.21-1.24,2-1.52,2.32-4.43,4.64-5.7a1,1,0,0,1,.81.67c-.54,3.12-1.63,5.83-5.06,6.78A1.2,1.2,0,0,0,7.69,34.27Z"/><path class="cls-9" d="M12.52,27.58c-2.55,1-2.29,4.63-5,5.46,1.46-2.6,2.51-5.48,5.2-7.19A1.35,1.35,0,0,1,12.52,27.58Z"/><path class="cls-8" d="M19.9,17.4h2c-.21,3.06-2.63,4.26-4.8,5.68a1.13,1.13,0,0,1-1-.34c-.28-2.62,2.56-3.26,3.31-5.23l.16-.23Z"/><path class="cls-8" d="M12.52,27.58l.16-1.73c.93-1.2,1.77-2.5,3.32-3l.16-.21.58.54c0,2.69-1.68,3.9-3.93,4.66Z"/><path class="cls-10" d="M75.74,124.33l-1.63-.79c1.47-2.26,3.43-2.35,5.65-1.29l.93.83C79.18,124.07,77.39,123.92,75.74,124.33Z"/><path class="cls-11" d="M16.16,22.62l-.16.21c-.8-3,2.12-3.66,3.47-5.3C19.66,20.07,16.83,20.64,16.16,22.62Z"/><path class="cls-5" d="M20.89,109.08a13.67,13.67,0,0,1-4.72-4.72l.26-.23c2.19-.38,2.87,1.61,4.18,2.63a2.2,2.2,0,0,1,.62,1.93Z"/><path class="cls-12" d="M54.73,1.91C80.4-1.7,104.43,9.44,117.3,31c.66,1.1,1.13,2.31,1.7,3.47l-.46.37c-1.56-.08-2.09-1.36-2.78-2.43-7.51-11.65-17.45-20.31-30.58-25.2a65.19,65.19,0,0,0-17.8-3.54h-7a34,34,0,0,1-3.91-.16C55.65,3.27,54.71,3.12,54.73,1.91Z"/><path class="cls-13" d="M110.89,104l-1.48,1a2.73,2.73,0,0,1-1.3-2.36c.33-2.54,3.08-3.56,3.72-5.9a18.77,18.77,0,0,1,2.75-3.6c5.81-7.86,8.48-16.83,9.36-26.43.26-3.81-.61-7.66.58-11.42a.84.84,0,0,1,1.12-.39l0,0C128.25,73.55,122.62,89.7,110.89,104Z"/><path class="cls-14" d="M54.73,1.91l1.79.81A1.12,1.12,0,0,1,56,3.78c-8.27,1.68-16.43,3.65-23.81,8a2.91,2.91,0,0,1-3.29.22c6.25-5.38,13.86-7.62,21.66-9.45.61-.15,1.2-.39,1.8-.58Z"/><path class="cls-15" d="M119,34.44c3.11,4.57,4.65,9.75,5.87,15.06-.46.77-1,1.38-1.85.47-1.61-4-2.36-8.4-4.5-12.27a2.54,2.54,0,0,1,.07-2.91A.71.71,0,0,1,119,34.44Z"/><path class="cls-16" d="M123.52,50.27l1.35-.75c.17,1.82,1.16,3.53.82,5.43h-.77a2.2,2.2,0,0,1-1.33-.8,3.53,3.53,0,0,1-.84-2.49A1.75,1.75,0,0,1,123.52,50.27Z"/><path class="cls-17" d="M28.92,12c5.63-2.22,10.85-5.42,16.8-6.89,3.4-.85,6.77-1.83,10.32-1.87.84-.35,1.59-.45,2,.64-.79,1.46-2.29,1.62-3.66,1.85C31,9.67,8.74,29.27,6.13,56.13a40.72,40.72,0,0,0,0,11.77c.41,7.55,3.5,14.32,6.21,21.2a3.08,3.08,0,0,1-.21,1.28,1.8,1.8,0,0,1-2.41.8,1.46,1.46,0,0,1-.41-.29l-1.38-.8a81.54,81.54,0,0,1-4.83-13A3.11,3.11,0,0,1,3,74.49c-1.24-4.93,0-10.09-1.37-15a1.59,1.59,0,0,1-.11-2.25c.92-.64.84-1.54.65-2.47-.53-2.17.45-4.06,1.09-6L3.82,47c-.19-3.13,1.81-5.63,2.44-8.53C7,37.32,8,36.28,7.84,34.77c2.52-1.7,3.5-4.5,4.94-7l3.93-4.66c1.73-1.92,4-3.35,5.2-5.74v.06A71.72,71.72,0,0,1,29,11.91Z"/><path class="cls-18" d="M3.07,74.53C3.92,80,6.9,84.72,8,90.09,5.21,86.66,4,82.59,3,78.41,2.64,77.11,1.62,75.81,3.07,74.53Z"/><path class="cls-19" d="M6.29,38.5c.11,3.11-1.8,5.64-2.44,8.53C3.05,43.73,4.56,41.08,6.29,38.5Z"/><path class="cls-20" d="M1.59,57.27l.11,2.25v7.19H.7C1.05,63.54-.1,60.34,1.59,57.27Z"/><path class="cls-21" d="M3.33,48.79q-.54,3-1.09,6c-1.57-2.23.08-4.22.47-6.3a.91.91,0,0,1,.33,0A1.64,1.64,0,0,1,3.33,48.79Z"/><path class="cls-22" d="M79.76,122.27c-1.89.41-3.89.32-5.65,1.29l-12.21.76c-7.2-.93-14.42-1.76-21.27-4.38l-2.3-1.06c-1-1.55-.4-2.44,1.2-2.94,1.55-.21,2.95.45,4.4.81a69.19,69.19,0,0,0,12.69,3.12c5.63,1,11.21.15,16.79-.38a8.84,8.84,0,0,0,2.89-.33c.84-.26,1.71-.42,2.54-.72,2.52-.91,4.94-1.25,7,1a.58.58,0,0,1,.25.58c0,.21-.1.31-.17.31Z"/><path class="cls-23" d="M108.64,102.65c.26.79.51,1.58.77,2.36a41.5,41.5,0,0,1-11.52,9.5l-.43-.34c.39-2.88,3.2-3.46,4.89-5.09s4.2-2.66,4.4-5.52a1.94,1.94,0,0,1,1-1.24A.82.82,0,0,1,108.64,102.65Z"/><path class="cls-23" d="M85.9,120.35a1.09,1.09,0,0,1,0-.44c-.29-2,1.43-2.46,2.7-3.06,1.49-.7,3.14-1,4.59-1.9,1.41-.61,2.71-2,4.43-.69l.24.25A36.77,36.77,0,0,1,85.9,120.35Z"/><path class="cls-14" d="M29,12a18.11,18.11,0,0,1-7.1,5.52C23.46,14.62,26.05,13.07,29,12Z"/><path class="cls-24" d="M40,116.54c-1.44.14-1.81,1-1.67,2.32-5.39-2-9.93-5.37-14.5-8.71-.82-.6-1.41-1.54-2.6-1.46l-1-1.44c1-1,1-1,5.52-.5a6.25,6.25,0,0,1,2.3,1.52c2.43,2.56,5.72,3.75,8.71,5.42C38,114.4,39.8,114.6,40,116.54Z"/><path class="cls-25" d="M9.34,90.89c.94-.08,2,0,2.51-1a1.47,1.47,0,0,1,1.4.51,133.36,133.36,0,0,0,11,14.07,1.57,1.57,0,0,1,.19,1.12c-1.83,1.35-2.77-.31-3.91-1.19-1.59-1.24-2.59-3.31-4.94-3.47l-1.42-1.27a77.26,77.26,0,0,1-4.71-7.41Z"/><path class="cls-26" d="M9.45,92.27c2.61,1.81,3.6,4.64,4.71,7.41-2.09-1.19-2.79-3.58-4.45-5.14C9.71,93.73,8.4,93.12,9.45,92.27Z"/><path class="cls-27" d="M15.58,100.91c1.17-2,2-.54,3,.25,1.88,1.53,3,4,5.68,4.53.89.11,1.77.24,1.54,1.5-1.84,1-3.7-1.06-5.54.06l-3.8-3.12C17.44,102.71,16,102,15.58,100.91Z"/><path class="cls-28" d="M57.82,4.07,56,3.25a1.52,1.52,0,0,1,.48-.53h3.71a25.55,25.55,0,0,0,7.71,0c20.72,1.39,36.65,10.93,48,28.22.85,1.28,1.74,2.54,2.61,3.81,1.68,5.14,4.51,9.92,4.93,15.46l-.15,1.32c-1.91.25-1.5-1.41-1.75-2.32a63.64,63.64,0,0,0-9.17-19.66c-.22-.28-.42-.58-.63-.88a26.53,26.53,0,0,0-4-4.9A58.24,58.24,0,0,0,79.5,6.92,52.17,52.17,0,0,0,63.33,5.27C61.46,5.36,59.39,5.7,57.82,4.07Z"/><path class="cls-17" d="M68,2.76a11.35,11.35,0,0,1-7.71,0Z"/><path class="cls-29" d="M112.5,28.37c5.3,6.28,8,13.76,10.14,21.55.16.58,0,1.34.73,1.65l.92,2.78c-.37,3.54.66,7,.25,10.58-.55,10.69-4.16,20.34-9.72,29.34l-2.28,2.4c-.92,2.59-3.83,3.68-4.76,6.28a.68.68,0,0,0-.35.34,54.48,54.48,0,0,1-8,6.86,48.36,48.36,0,0,1-19.86,8.5c-1,.17-2.2.22-2.93,1.21a2.62,2.62,0,0,1-2.49.6c-5-.65-10,.45-15,0-5-.24-9.71-1.63-14.41-3.12-6.27-2-11.87-5.26-17.37-8.75l-1.56-1.47c.12-1.15-1.29-.74-1.54-1.5A120.5,120.5,0,0,1,11.89,89.8a2.18,2.18,0,0,1,.06-.62c.59-2.16-.47-4.06-1.22-5.91-1.25-3.12-.88-6.75-3-9.57.61-.91,1.93-1.7.51-3a3,3,0,0,1-.77-2.39c.27-1,1.14-2,.26-3C5.63,65.38,7,68,5.44,68.43a29.17,29.17,0,0,1,0-13.08,1.82,1.82,0,0,1,.72.76c.2.39,0,.88.32,1.22a5,5,0,0,1,.65-1.22,3.92,3.92,0,0,1,3.21-.72,2.17,2.17,0,0,1,1.32,1.81c-.31,5,1.82,9.46,3.67,13.76s4.9,7.88,4.76,12.89c0,.86,1,1.76,1.64,2.58a7.23,7.23,0,0,1,1.21,1A3,3,0,0,1,23.39,89c.82,2.5,2.79,4,4.81,5.4,3.28.57,5.34-.94,7-3.68,1-1.6,2.25-4.19,4.4-.85,1.37,2.31,3,4.49,3.29,7.3-.49,3-.26,6.18-1.7,9a1.49,1.49,0,0,0,.85,1.93h0c1.1.42,1.26-.6,1.55-1.24,1.93-4.24.08-8.14-1.25-12a27.39,27.39,0,0,0-2.73-5.16c.43-2.79,2.38-1.86,3.87-1.41,5.78,1.77,11.18,4.22,14.93,9.29a25.25,25.25,0,0,1,2.67,6.34c.34,1.17,1,2.45-.32,3.5-1.61-.24-3.18.33-4.68.25,4.41-.19,6.18,2.67,7.12,6.45.51.25.77-.11.85-.47.94-4.45,3.8-6.24,8.24-5.65-.16-1.06-.84-1.23-1.35-1.56-1.25-.83-3.12.52-4.14-1.15-.6-4.37,1.8-7.46,4.67-10.13,4.12-3.84,9.36-5.51,14.77-6.51,3-.56,4,.7,2.61,3.45-2.1,4.3-3.32,8.67-2.62,13.51.19,1.33.12,2.94-1.66,3.54-2.74-1-1.81-3.41-2-5.38a12.93,12.93,0,0,1,1.28-6.53,12.47,12.47,0,0,0-1.31,6c.12,2.15-.52,4.49,1.49,6.19,2.71-.23,3.1-2,2.52-4.12-1.28-4.74.33-8.92,2.38-13,.86-1.73,1.93-2.9,3.83-1.08,2.09,4.62,4,5.71,7.51,4.33,4.44-1.74,6-5,4.5-9.26,1.18,4.1.64,5.67-2.42,7-1.14-1.72.76-3.89-.83-5.55-.87-1.59-3.91-.79-3.82-3.44,7.64-6.46,10.53-14.83,10-24.62-.11-2.09,0-4.2,1.73-5.78,2.06-1.35.79-3.55,1.48-5.41-1.92,1.37-1.81,3.6-2.84,5.24a5.1,5.1,0,0,1-3.22.8c-2-.92-4.11-1.5-6.14-2.33a1.15,1.15,0,0,1-.39-1,2.69,2.69,0,0,1,1.18-1.11A5.7,5.7,0,0,1,102,49c1.82.14,2.07-1.28,2.39-2.51.84-3.29,1.36-6.6.43-10a9,9,0,0,1-.52-4.21c1-3.09,3.49-3.53,6.23-3.49.79,0,.64.91,1.13,1.2a2.13,2.13,0,0,1-.09-.71A1.3,1.3,0,0,1,112.5,28.37Z"/><path class="cls-30" d="M114.82,94.27c1.85-5.44,5.1-10.25,6.83-15.79,1.39-4.47,1.25-9.12,2.47-13.56.9.6.16,1.71.75,2.41A49.48,49.48,0,0,1,114.82,94.27Z"/><path class="cls-31" d="M124.87,67.35c-.83-.62-.44-1.62-.75-2.41.56-3.52-1.45-7.09.17-10.59l.63.56Q124.89,61.15,124.87,67.35Z"/><path class="cls-32" d="M107.78,103c.54-2.89,3-4.32,4.76-6.28,0,2.82-2.77,3.86-3.9,6Z"/><path class="cls-33" d="M21.25,87.68c-1.42-2.89-5.45-5.15-2.16-9.19.38-.47-.23-.94-.65-1.18-5.13-3-4.33-8.94-6.77-13.25-1.55-2.74.13-5.93-1.58-8.55-1.36-.78-2.16.17-3,1,0,1.23,1.1,2.81-1.39,3.37-.11-1.51-.22-3-.33-4.42C7.29,37.68,16.31,24.27,30.78,14.24,38.93,8.59,48.1,5.58,57.84,4.12c7.68,0,15.4-.47,22.78,2.36,0,1.63,1.88,2.54,1.56,4.28A2.58,2.58,0,0,1,81,11.84a5.2,5.2,0,0,1-2.26.43c-2.67-.24-3.76.89-3.47,3.56a5.49,5.49,0,0,1-.55,3.38c-.47.8-1.1,1.07-1.76.11-1.09-3.76-.21-7.57-.24-11.34.19-2.28-1.34-2.25-2.93-2.08.75.36,1.73-.23,2.38.52,1,1.61,0,3.31.28,5-.48,2.24-.11,4.54-.45,6.79a7.78,7.78,0,0,1-.28,1.08c-2.41,4.41-5.09,4.85-12.09,2-.25-.11-.5-.2-.7,0a.53.53,0,0,0,0,.72,7.27,7.27,0,0,0,7.49,1.41c2-.52,4.1-.1,6.07-.8,1.61-.15,3,1.26,4.89.08C78.41,22,80,23,81.06,24c1.59,1.71,2.71,3.28-1.07,3.22.09.33.49.3.64.57.33.73.19,1.6.76,2.24a8.62,8.62,0,0,0,2.89,2,2.15,2.15,0,0,1,.61.82c.09.33.17.66.23,1,.62,2.14,3.18,2.15,4.23,3.82a3.68,3.68,0,0,1,.41,1.48c.43,2,2.28,2.21,3.73,2.92,1.8.59,3.75,1,3.3,3.66a3.48,3.48,0,0,1-.45,1,22.08,22.08,0,0,1-2.84,2.63,5.74,5.74,0,0,1-3,.48c-4.21,0-6.75,2-7.82,6a5.69,5.69,0,0,1-2.6,1.83,2.22,2.22,0,0,0-2.47,1.93c1.41.67,3.47.85,2.42,3.28-.15.18-.47.25-.57.42s0,.37.41.28a5.52,5.52,0,0,1,2.21-.36c1.33.27.61,1.69,1.3,2.33.28,1,0,1.82-1.16,2.7,1.86-.62,1.22-2.06,1.73-3a4.52,4.52,0,0,1,1-1.3c1.69-1.45,1.42-4.15,3.54-5.34-.89.26-1.56,1.12-2.55.47-.35-1.68-2.72-1.93-2.72-3.86.59-3.51,2.93-4.94,6.22-5.28A35.67,35.67,0,0,1,94.5,50a10.83,10.83,0,0,1,3.1.37,2,2,0,0,1,.94.8v.67c-1.12,1.24-2.77.82-4.1,1.32,1,3.73,2.24,7.44.18,11.2-.3.19-.89,0-.9,0C92.81,71.05,89,75.87,84,80.05c-2.15,1.81-4.89,3-6.18,5.74-1.78,2.77-5.37,3.71-6.83,6.8-1.44,2.4-3.21,4.66-3.33,7.64a35.52,35.52,0,0,1-1.31,3.67c-.42,1.08-1.09,1.45-2,.36-.73-6.56-.05-13.13-.1-19.69.77-2,2.85-2,4.34-2.92,6.25-3.73,7.3-10.08,2.43-15.08a6.21,6.21,0,0,1-2-1.95c-.51-2.42-.51-2.42.77-4.6-1.22.8-1.89,2.89-3.47,2.1s-.54-2.77-.84-4c0-.7-.82,0-.33-.16.13,0,.18,0,.18.3.08,2.65-.27,4.78-3.87,3.7-.57-.18-.92.79-1.31,1.28a5.13,5.13,0,0,1-.62.83C58.67,65,57,65.48,58,67.28,55.52,69,56.13,72,55,74.28c-2.17.25-1-1.32-1.3-2.42-.32,2.81,1.15,4.72,2.4,6.7A10.76,10.76,0,0,0,62,82.73c1.74.64,2.22,2,2.19,3.71-.1,5,.11,10.09-.37,15.14-.18,2-.68,2.44-2.23,1-1.39-8.22-6.94-13.39-13.37-17.77A32.7,32.7,0,0,1,33.85,63a16.59,16.59,0,0,1,2.06-12.22,1,1,0,0,1,.22-1.1c3.21-1,6.36-1.64,8.84,1.54.92,1.63,1.54,3.28.19,5a1.78,1.78,0,0,1-.94.55c-1.36-.19-2.28.26-2.42,1.75.31.8,1.08,1.39,1,2.32a2.89,2.89,0,0,0,.94,2.64,10.17,10.17,0,0,1,1.36,4c-.14,1-.12,2-.28,3-.61-2.61,2.49-3.29,2.91-5.43a8,8,0,0,1,1.6-2.1c1-1.83,1.2-4.1,3.15-5.41-.73.4-1.24,1-2.13.88A4.84,4.84,0,0,1,48.14,57a9.35,9.35,0,0,1-1.09-1.18c-1.18-1.4-1.12-3.36-2.19-4.81-1.2-1.66-2.87-2-4.8-2-1.46,0-3.13.82-4.4-.62-.16-.35-.11-1-.29-1.06-.64-.35-.47.42-.66.67a2.69,2.69,0,0,1-1.46,1.13c-2-1.46-1.81-5,.47-7.09a5.68,5.68,0,0,1,1.7-.86c2-.9,4.23-1.48,5.45-3.59s3.54-3.16,4.68-5.3a8,8,0,0,1,1-1.16c.87-1,2-1.58,3-2.52a21.24,21.24,0,0,0,1.11-2.18c.28-.52.77-.87,1.12-1.41-1.23.18-2.3.95-3.55.76a6.8,6.8,0,0,1-1.93-.67,5,5,0,0,0-1.43-.33c-2.37.13-2.8,2.43-4.14,3.7a6.29,6.29,0,0,0-3.74,3c-1.66,2.56-3.46,5.15-6.49,6.38-1.56-2.36-.78-5.8-3.48-7.64-.39-.24-1.1-.68-.92.22.85,4.11-.24,8-1,12-1.81.16-.84-1.35-1.22-2-.16,1.4.51,2.71.76,4.75,0-1.23-.29-1.89.14-2.44,1.13-2.23,1.65-4.78,3.43-6.68,2.25.53,1.61,2.35,1.53,3.75-.12,1.9-.85,3.73-1.23,5.88.93-1,.87-2.08,1.32-3s.67-2.14,1.7-2.78a1.28,1.28,0,0,1,1,.21c1.5,2-.32,3.65-.72,5.39a23.93,23.93,0,0,1-1.16,4.07c1.2-1.18,2.35.21,3.47-.11a2.71,2.71,0,0,1,2,2c-.82,1.38-2.12,1.13-3.39,1-4-.71-8.09-.37-12.11-.23a28.64,28.64,0,0,1,.75,9.36,26.52,26.52,0,0,0,2,10.63A29.65,29.65,0,0,0,26.86,79c.68,1,1.88,1.87,1.34,3.38C25.08,83.1,22.43,84.42,21.25,87.68Z"/><path class="cls-33" d="M7.83,68.32l.91,2.47c.73,1.29-.13,2.07-.9,2.88C9.21,75.21,12.37,76,10,79.08c2,1.49.9,4.28,2.23,5.84,1.55,1.81.76,3-.31,4.33A44.58,44.58,0,0,1,5.35,68.49c.4-1.44-.41-3.2,1.13-4.33.53-.39.9-1.58,1.74-.66.26.28-.16,1.2-.26,1.83C8.55,66.35,7.65,67.27,7.83,68.32Z"/><path class="cls-34" d="M76.62,119.88l-.37-.11a.51.51,0,0,1-.35-.14c-.29-.48.06-.56.42-.63,8.18-1.53,15.49-5.14,22.51-9.44.59-.16,1.27-.6,1.75,0,.71.84-.08,1.33-.65,1.79-1.93,1.59-4.59,2.15-6.09,4.35-2.43,1.8-6,1.36-7.91,4.23C82.84,117.86,79.73,119.19,76.62,119.88Z"/><path class="cls-35" d="M58.49,119.86l13.22-.17c.89,0,1.85-.2,2.42.79-6,.56-12,1.67-18,.18C56.71,119.72,57.85,120.51,58.49,119.86Z"/><path class="cls-36" d="M27.33,108.66c2.19-.24,3.42,1.52,5,2.47a63.24,63.24,0,0,0,12.08,5.71c.16.75-.11,1-.83.73l-3.59-1C35.79,113.9,30.63,112.77,27.33,108.66Z"/><path class="cls-37" d="M43.59,117.57l.83-.73c4.65,1.23,9.2,2.86,14.07,3-.56.89-1.56.51-2.33.8C51.86,120.1,47.54,119.57,43.59,117.57Z"/><path class="cls-32" d="M93.84,115.68c.71-2.9,3.56-3.23,5.54-4.6,1.68-1.17.74-1.41-.55-1.52,3-1.89,5-5.12,8.6-6.25,1.06,1.18.66,2.06-.45,3-3.14,2.62-6.22,5.31-9.33,8C96,113.82,95.2,115.44,93.84,115.68Z"/><path class="cls-38" d="M80.53,24.56c-1.56-.55-2.82-3.09-4.72.23-.94,1.66-1.45-2.16-3.13-1.85a1.42,1.42,0,0,1-.48-1,2.33,2.33,0,0,1,1.42-2.2,9.23,9.23,0,0,0,.6-1.77c.34-2.36-1.09-5.59.72-6.85,1.16-.8,4.24,0,6.46,0,.39-.18.95.1,1.18-.41,0-.08-.32-.31-.53-.43-1.2-1-3-1.8-1.45-3.87a53.33,53.33,0,0,1,28,17.22c0,1.18-1.7,3,1.33,3,1,0,1.65,1.17,2.55,1.68h0l-1,.91h-.32c-2.38.67-5.15.51-6.67,3.06-1.35.2-.64,1.11-.58,1.76a46.2,46.2,0,0,1-.55,12.37c-.19,1.14.19,2.75-1.67,3L100,51c-2.51-2.51-2.87-5.81-3.37-9.06-.11-2.19.41-4.47-1-6.46a13.6,13.6,0,0,1-2.38-3.35,5.09,5.09,0,0,0-3-2.32,4.15,4.15,0,0,1-.89-.52c-1.3-1.15-1.89-3-3.74-3.58-.79,0-1.44.73-2.29.47A5.61,5.61,0,0,0,80.53,24.56Z"/><path class="cls-29" d="M112.5,28.37c-1-.36-2.18-1.18-3.1-1-1.56.32-1.73-.32-2.33-1.47-1.1-2.12,1.55-1.2,1.55-2.26A13.78,13.78,0,0,1,112.5,28.37Z"/><path class="cls-39" d="M64.85,104.93c1.24-1.63,1.63-3.63,2.34-5.49,2-6.67,7.53-9.36,13.31-11.76,4-1.43,8.21-2,12-4.57,7-4.68,9.26-11.5,10.33-19.07.41-2.93.67-5.89,1.22-8.81a1.68,1.68,0,0,1,.78-.84,4.73,4.73,0,0,1,2.86-1.09c1.06-.44,2.14-.95,2.46.82-1.59,1.42-1.25,3.3-1.2,5.1.18,6.62-.87,13-4.37,18.72-1.7,2.8-3.78,5.29-6.89,6.68-.46.56-.2,1.4-.75,1.92-1.53,1.19-2.24,2.61-1.51,4.58a3,3,0,0,1,0,2.89c-2.07.56-2.2-1.5-3.21-2.38-1.13-1.12-1.94-.9-2.65.51-2.21,4.37-3.6,8.83-2,13.77.81,2.57-.86,4.38-4.1,4.58-.32-.92.34-1.28,1-1.68.31-.39,1-.84.89-1.16a22.56,22.56,0,0,1,4.37-18.11c-11.74,0-20.87,6.62-22.73,16.15a1.5,1.5,0,0,1-.88,1.92,1.55,1.55,0,0,1-.36.08,1.77,1.77,0,0,1-1-.31,2,2,0,0,1-.2-2Z"/><path class="cls-40" d="M104.84,54.39a.4.4,0,0,1-.15.53c-3.27,4.9-3.51,10.9-5.88,16.15S93.87,80.67,89,84c-2.74,1.87-5.85,2.67-8.5,4.47-5.4,2.48-10.26,5.62-13.29,11-.72-3,1.69-4.72,2.8-7A83.77,83.77,0,0,1,84.32,81.61c1.6-.71,2.12-2.37,2.8-3a17.4,17.4,0,0,1-2.43,2.57c-2.86.68-4.11,4.16-7.34,4.18,0-2.3,1.92-3,3.38-4,6.11-4.18,10.4-9.65,12.31-16.87,0-.11.14-.29.18-.28.22.07.44.14.66.23a3.18,3.18,0,0,1,.25,1.87,4.47,4.47,0,0,1-.54,1.82c.41.22.19.09.25-.18C95,62.84,96,57.74,93.71,52.66c1.36-1.49,3.15-.63,4.73-.87C100.85,52,103.38,51.88,104.84,54.39Z"/><path class="cls-41" d="M95.38,94c-.31-2.8-3.72-6.16,1.43-8,2.11-1.2,3.65,1,5.56.94,1.86,2.12.14,4.25,0,6.37-.62,2.94-2.91,3.36-5.3,3.33C95.51,96.61,94.74,95.63,95.38,94Z"/><path class="cls-42" d="M61.67,101.76c.49.7,1.45,2,1.4,0-.14-5.45,0-10.89.34-16.32.12-2-1.76-1.51-2.52-2.37,1.57-1.23,2.88-1.06,3.9.7.11,7-.76,14.1.06,21.15h.06c-1.55,1.34-1.7,4.18-4.49,4.18a1.26,1.26,0,0,1-.47-1.72,1.46,1.46,0,0,1,.33-.37c.62-3.38-1.64-6-2.49-8.93A1.25,1.25,0,0,1,57.58,97a1.67,1.67,0,0,1,1.35-.9C61.13,97.35,61,99.74,61.67,101.76Z"/><path class="cls-43" d="M57.89,97l-.1,1c-4.24-5-10-7.4-16-9.18-.74-.22-2.41-1.17-1.47,1.1a.8.8,0,0,1-1.11.17L39.15,90c-2-2.76-2.53.12-3.13,1-2,3.13-4.24,5.64-8.48,4.24-.15-.7.33-1,.83-1.23,4.65-.58,5.62-4.49,7.15-7.9a2.68,2.68,0,0,1,1-.69,11.28,11.28,0,0,1,6.1,0c3.16,2.06,7.08,2.7,10,5.13C54.73,92.43,57.49,93.73,57.89,97Z"/><path class="cls-44" d="M101.72,49.5c1.9-6.25,1.78-12.59.78-18.94,1.81-.53,1,1.58,2,1.78a23.51,23.51,0,0,1,.34,16.12C104.16,50.65,103.33,50.87,101.72,49.5Z"/><path class="cls-45" d="M39.12,90.07,40.29,90c5.49,7.51,6.41,14.9,2.53,20.32-2.91-2.19-2.91-2.19-3.09-3.53.77-.33,2,.66,2.18-1.34.2-2.77.27-5.52.24-8.29C41.84,94.46,40.15,92.41,39.12,90.07Z"/><path class="cls-46" d="M95.38,94c1.4,3.2,3.57,3,7-.66,2.47-3.06,2.57-4.13.88-9.07,2.76,1.14,3.59,2.83,2.9,5.89-.85,3.77-4.77,7.29-8.26,7-3.23-.26-5.6-1.82-5.67-5.52C94,91.47,94,93.66,95.38,94Z"/><path class="cls-47" d="M64.58,107.17l1.1.1c2.25.9,3.38-2,5.45-1.64a3.54,3.54,0,0,1,3,3c-.69,1-1.44.2-2.1.13-4.37-.43-5.77.58-7,5.14-.67,2.53-1,2.66-2.6,1.18,0-1.55.65-3,.45-4.59C63.07,109.2,62.51,107.51,64.58,107.17Z"/><path class="cls-48" d="M97.55,41.56c0,3.38,2,6.22,2.48,9.46l-1.59.12-.83-.26c-1-1.33-1.14-3-1.46-4.52.87-3-1.58-3.08-3.33-3.79.23-.7,1.12-.25,1.42-.83-.41.39-.91.26-1.39.22A1.14,1.14,0,0,1,91.9,41c.48-2.54,1.7-4.14,4.61-3.55C98.07,38.52,96.69,40.32,97.55,41.56Z"/><path class="cls-49" d="M110.16,54.12c-.6-.94-1.64-.55-2.46-.82-1.12-3,3.14-4.61,1.77-7.57,1.48-.33,1.85.62,2.13,1.44.71,2.07-1.09,4.26.24,6.39C112,53.75,110.83,54.16,110.16,54.12Z"/><path class="cls-50" d="M63.42,110.35c1,1.85.29,3.35-1,4.74-1.88-5.94-1.87-6-8.3-6.39-.94-.06-1.16-.4-.86-1.13.11-.25.79-.56.91-.47,2.09,1.66,4-2.53,6.09-.13a1.66,1.66,0,0,0,.73,1.86C62.21,108.72,62.12,110.63,63.42,110.35Z"/><path class="cls-51" d="M42.15,97.12c1.4,2.7.93,5.54.61,8.37-.25,2.23-1.32,2.53-3,1.26C41.86,103.87,40.79,100.19,42.15,97.12Z"/><path class="cls-52" d="M28.24,94.68l-.73.66c-2.08-1.69-4.46-3.15-4.81-6.19.85-.56-.26-2.35,1.46-2.37,1.51,1.12.5,3.85,2.85,4.44C28.29,92.06,30.26,92.67,28.24,94.68Z"/><path class="cls-53" d="M21.25,87.68c.73-4.86,1.36-5.33,7.21-5.48,1.6-.41,2.39.06,2,1.83a4.11,4.11,0,0,1-3.39.51c-2.94-1.19-3.17,1.75-4.52,3Z"/><path class="cls-54" d="M71.13,105.63c-1.36,2.23-3.92,2.34-6.3,3.93.44-1.17.64-1.73.85-2.29l1.24-1.58C68.33,106.11,69.71,104.1,71.13,105.63Z"/><path class="cls-55" d="M22.53,87.52c.52-4.12.84-4.43,4-3.84a6.28,6.28,0,0,1-2.51,3c-.81.65.13,2.19-1.29,2.52C22.64,88.61,22.59,88.07,22.53,87.52Z"/><path class="cls-56" d="M82.18,103.44c-.15-3.59-.15-3.59,2.16-8.06-.68,3.24-1.19,5.66-1.69,8.08Z"/><path class="cls-57" d="M82.18,103.44a1.85,1.85,0,0,1,.47,0c.18,1.91-.09,4,1.74,5.35l-1,1.68C81.55,108.4,82.14,105.87,82.18,103.44Z"/><path class="cls-58" d="M7.07,56.46a2.69,2.69,0,0,1,1.84-2.64c.71-.23,1.08.89,1.18,1.69A2.51,2.51,0,0,1,7.07,56.46Z"/><path class="cls-59" d="M102.37,86.94c-.16.4.13,1.77-.64,1-1.44-1.51-3.15-1.62-4.92-1.91,0-.65.08-1.25.89-1.38C99.17,85.56,101.31,85.18,102.37,86.94Z"/><path class="cls-60" d="M121.68,52.06a1.68,1.68,0,0,1-1.94,1.36l-.06,0c-.7-.09-1.39-.6-1-1.15a4.2,4.2,0,0,1,2.14-1.61C121.27,50.5,121.77,51.33,121.68,52.06Z"/><path class="cls-61" d="M120.36,46.34c-.5,1.15-1.12,1.71-2.19,1.46-.55-.13-1.06-.84-.71-1,.87-.38,1.06-1.78,2.19-1.5C120,45.39,120.18,46.05,120.36,46.34Z"/><path class="cls-62" d="M111.19,29.27h.32a1.6,1.6,0,0,0,.25.27c1,.8,1.14,1.78.06,2.44s-2.42.93-1.37-1.1A10.21,10.21,0,0,0,111.19,29.27Z"/><path class="cls-63" d="M7.83,68.32c-2.61-1.11.57-2,.13-3,.85-.23,1.54,0,1.65.93C9.75,67.52,8.85,68,7.83,68.32Z"/><path class="cls-64" d="M7.84,73.67l.9-2.88c1,0,1.77.33,1.63,1.48C10.17,73.8,9,73.79,7.84,73.67Z"/><path class="cls-65" d="M122.65,63.16A2,2,0,0,1,121,65c-.73.09-1.49-.64-1.26-1a4.9,4.9,0,0,1,2.08-1.77C122.3,61.92,122.52,62.66,122.65,63.16Z"/><path class="cls-66" d="M61.67,101.76c-1.26-1.68-1.3-4-3-5.45-2.08-1.19-3.22-3.31-4.87-4.93a34,34,0,0,0-9.69-6.89c-1.45-2.39-3.63-4-5.83-5.62C32,74.33,26.81,61,30.72,52.61c.6-.62,1.22-1.16,2.17-.76,1.14,0,2.32.09,3.17-.93L36,51c.66.29,3,.11.94,1.39-2.42,1.5-2.38,3.47-2.4,5.65-.15,12.06,6,20.54,15.55,27A33,33,0,0,1,60.92,97,6,6,0,0,1,61.67,101.76Z"/><path class="cls-67" d="M46.1,24.46c.68.07,1.5-.11,1.58.95.28,2.16,2.28.51,3.13,1.41-.05.84.38,1.84-.73,2.36-2.52.14-4.44,3.13-7.34,1.65,1.27.86,3-.43,4.19.73l-.69.71a3.82,3.82,0,0,1-2.37,1.22c-2.36-.68-3.85,2.88-6.39,1.33-.51-1.73,1.37-2.2,1.92-3.55.21-.28-.43,0-.44,0-.08,1.23-1.45,1.67-1.75,2.8-.14.79.51,1.21.84,1.77a2.74,2.74,0,0,1,.5,1.44c-.44,1.32-2,1.84-2.31,3.23-.23.38-1.13.64-.22,1.23-3.53.59-2.85,3.94-3.9,6.11-.28.59.88.63,1.46.76a1.1,1.1,0,0,1,.13,1.51c-4,.38-4-1.55-2.87-4.54.64-1.71,2.22-3.32,1.15-5.43,1-1.54,2.68-2.63,3.34-4.69A46.93,46.93,0,0,1,32,40.1L30.7,42.47c-1.45-1.59-1.3-3.21-.07-4.84,1.46-3,4.65-4.6,5.94-7.78.64-1.56,1.89-2.88,3.94-1.65H41C43.58,28.18,43.79,24.92,46.1,24.46Z"/><path class="cls-68" d="M64.79,83.78a4.66,4.66,0,0,0-3.9-.7C58,83.26,57,80.8,55.33,79.22a.81.81,0,0,1,0-1,1.56,1.56,0,0,1,1-.12c1.25.59,2.19,1.72,3.6,2,2.84.63,5.57.89,7.21-2.29,3-1.91,2.58-4.91,2.52-7.82,0-1.57-1.3-3.62,1.41-4.34,5.55,3.55,5.43,11.28-.27,15.7A11.16,11.16,0,0,1,64.79,83.78Z"/><path class="cls-69" d="M32.85,51.85l-1.46.78c-2.5,2.58-5,5.1-6,8.8-.34,1.34-1.29,2.77-3,2.3s-1.17-2.07-1.26-3.29c-.15-2.3.26-4.63-.27-6.91-.42-.64-1.16-1.09-1.27-1.94C24,50.78,28.46,50.4,32.85,51.85Z"/><path class="cls-70" d="M54.59,74.53c.53-2.85-1.18-6.63,3.25-7.87.16-1.24,1.31-2,1.59-3.15l.07-.17a3.16,3.16,0,0,1,1.6-.63c2.13.15,5-.84,5.87,1.68.56,1.63-2,2.94-3.22,4.1-2.61,2.42-5.28,4.88-8.65,6.32Z"/><path class="cls-71" d="M71.15,65.72c-1.91,1.42-.1,3.06-.28,4.57-.37,3,1,6.82-3.39,8.17-1.91,3.87-5.31,2.52-8.36,2.39a4,4,0,0,1-3-2.4c1.46-1.48,3.17-.51,4.73-.37,3.84.32,6-1.4,6.59-5.19.48-3.14.14-6.3.4-9.44,1-.39,1.3.45,1.76,1Z"/><path class="cls-72" d="M79.83,57.2c.75-.54,1.08-1.76,2.35-1.5a1,1,0,0,1,1.41-.09l.09.09c.78,1,2.83,1.11,2.27,3.1,1.35,2.1-1.44,3.69-.69,5.71l-.93.57a1,1,0,0,1-1.41.11.57.57,0,0,1-.11-.11c-1-.19.32-1.66-.93-1.72-.48-1.09-1.53-.34-2.23-.7.72-2.87-2.54-1.45-3.14-2.9C77.61,58.89,78.8,58.14,79.83,57.2Z"/><path class="cls-73" d="M30.63,37.67l.07,4.84c-.68,2.1-1.19,6.27-2.37,5.76-2.55-1.11-.28-4.14-.1-6.36.15-1.87.91-3.71-.12-5.55-2.73-1.84-1.67-4.15-.79-6.43,1.84.86,1.89.85,2.6,3.6C30.27,34.88,30.4,36.27,30.63,37.67Z"/><path class="cls-74" d="M72.65,22.09v.85c-1.91,2.35-4.31.16-6.41.68-3.12,1.4-5.67-.23-8.28-1.53-1.66-1.22-.45-1.57.56-2.22.67-.44.78-1,1.63,0,3.06,3.49,8,3.09,11.08-.71C72.42,19.81,72.18,21.12,72.65,22.09Z"/><path class="cls-75" d="M90.83,29.38c1.86-.58,2.33.94,3.06,2.06,1.3,2.36-.45,4.31-1.15,6.24-.5,1.4-2.41,1-3.73.18-1.82-1.08-4.43-1.29-4.64-4.17,1.09-.38,1.87.33,2.66.82,1.27.81.91-.39,1.15-.86C89.89,32.73,89.77,30.69,90.83,29.38Z"/><path class="cls-76" d="M50.07,63.63,48.48,65c-.65.48-1.43,0-2.11.27a2.06,2.06,0,0,1-1.53-1.81c.67-2.43-1.59-1.47-2.45-2.11,0-1.68-1.83-1.58-2.49-2.61,1.68-.16,2.59-1.61,3.94-2.33a1.18,1.18,0,0,1,.59,0,.75.75,0,0,1,.89-.2c1,2.22,2.17.66,3.29.16.49.5,1,1,1.46,1.49C51.22,59.81,48.07,61.72,50.07,63.63Z"/><path class="cls-77" d="M69.63,64.45l-1.76-.71c-2.36-.42-4.7-1.11-7.11-.33l-1.26-.07c.49-1.86,1.31-2.27,3-1.93.9.18,2.09.2,1.93-1.47-.14-1.46,0-2.95,0-4.88a9.46,9.46,0,0,1,2.14,6.79c2-.75,2.57-3.26,5.37-4C70.47,60.21,68.23,61.86,69.63,64.45Z"/><path class="cls-70" d="M27.32,29.93c.48,2.12-.69,4.44.79,6.43.33,2.7-1.67,4.22-3.07,6h0c.13-4.86-.28-9.77.8-14.71C27.45,28.21,26.11,29.67,27.32,29.93Z"/><path class="cls-78" d="M85.32,24.61c2.62.4,3.78,2.27,4.55,4.53-.56,4.58-1.18,4.94-5.59,3.31a5.24,5.24,0,0,1-4.06-2.59,1.77,1.77,0,0,1,1.41-.47c3.11.41,4.43-.64,3.23-3.86A.76.76,0,0,1,85.32,24.61Z"/><path class="cls-79" d="M30.33,83.6c-.55-.56-.92-1.38-1.87-1.4-2.57-2.72-5.05-5.5-6-9.29a1.24,1.24,0,0,1,1-.27c2.78,2.42,4.31,6,7.28,8.2a8.14,8.14,0,0,0,3.75,2.23,5.13,5.13,0,0,1,.87.45,2.18,2.18,0,0,1,.84,1.65.82.82,0,0,0-.29,1.11.1.1,0,0,0,0,0l-.11.79c-2.59.89-4.07-.84-5.63-2.37A1.27,1.27,0,0,1,30.33,83.6Z"/><path class="cls-80" d="M72.65,22.09c-1.18-.63-1-1.9-1.39-2.92l.06-.08c.54-2.65-.16-5.35.39-8-.66-1.57.33-3,.32-4.53.51-.53,1-.58,1.37.12q.09,6.56.22,13.1Z"/><path class="cls-81" d="M89,37.86c3.6-.08,5-1.93,4.88-6.42l2.25,3.09c-.07,1,1.1,2.07.08,3.13a5,5,0,0,0-4,3.13A3.42,3.42,0,0,1,89,39.24Z"/><path class="cls-82" d="M23.48,72.88h-1c-2.44-4.62-2.15-9.65-2.24-14.64,0-2.14,1.09-4.69-2-6-.38-.16.82-.44,1.29-.66l1.48,1a1.86,1.86,0,0,1,.41,1.06c-.25,5.16.06,10.24,2,15.14C24,70.06,24.44,71.51,23.48,72.88Z"/><path class="cls-83" d="M77.35,85.38l7-4.81c2.13.39.43,1.16.18,1.79L72.8,90.68c-.91.65-1.44,1.87-2.81,1.79C71.58,89.21,74.88,87.73,77.35,85.38Z"/><path class="cls-84" d="M50.07,63.63c-.94-.11-2.17.49-2.68-.68-.41-1,.78-1.16,1.29-1.57,1.13-1,.84-2.36,1.39-3.47,2.47.55,1.09-2,2.39-2.9C55.48,59.09,49.37,60.5,50.07,63.63Z"/><path class="cls-85" d="M85.26,64.51c-.51-.36-2.1.27-1.16-1.42.75-1.36,2.1-2.49,1.85-4.29,2.2.19,1.3-2,2.08-2.94C90.3,58,90.32,58,87.77,60.25,86.46,61.41,87.8,64.11,85.26,64.51Z"/><path class="cls-86" d="M93.71,52.68c3.44,3.24,1.35,7.3,1.49,11,.06,1.83-1,3.69-2,5.46l.63-4.65c1.37-2.69.62-5.55.65-8.33,0-2.13-2.8-1.54-3.47-3.13C91.93,52.21,92.84,52.66,93.71,52.68Z"/><path class="cls-87" d="M83.68,55.7h-1.5c2.15-6,3.23-6.66,11.47-6.82a2,2,0,0,1,1.23,1.38.79.79,0,0,1-.36.8c-1.54-.21-3.07-.49-4.61-.6C86.32,50.19,84.29,51.93,83.68,55.7Z"/><path class="cls-88" d="M43.7,32.94c.81-.35,1.52-1.12,2.54-.67-.38,2.85-3.6,3.27-4.72,5.5A1.66,1.66,0,0,1,40,38.2,3,3,0,0,1,38.31,37l-.83-.83C39.24,34.46,41.56,33.87,43.7,32.94Z"/><path class="cls-89" d="M85.32,24.61c-1.24,1.67,2.79,1.63,1,4.15-2.07,3-3.92,1.78-6.13,1.11-1-1-.19-1.29.65-1.55a11.49,11.49,0,0,0,3-2.42C84.42,25.56,84.31,24.45,85.32,24.61Z"/><path class="cls-90" d="M21.87,48.57a10.48,10.48,0,0,0,6.27.79l-.08,1H21.43c-3.32,0-4.46-1.58-3.31-4.84,0-.09.23-.16.34-.15s.21.13.31.21A11.76,11.76,0,0,0,21.87,48.57Z"/><path class="cls-91" d="M50.81,26.82a14.91,14.91,0,0,1-2.14.71c-.69.12-1.7.52-2-.29-.16-.43.64-1.21,1-1.83,1-.41,2.08-.87,3.14-1.22s1.34-1.75,2.87-1.07C53.45,24.91,52,25.77,50.81,26.82Z"/><path class="cls-92" d="M83.85,25.9c1.7,4.13-1.57,2.13-3,2.42-1.13-1-2.83-1.32-3.68-3.6,1.16.67,1.87,1.1,2.6,1.49s1.48,1,1.94,0-1.08-.89-1.2-1.67A3.1,3.1,0,0,1,83.85,25.9Z"/><path class="cls-93" d="M84.28,32.45c3,.9,4.58-.76,5.59-3.31l1,.24c1.17,2.62.31,4.1-2.52,4.45-1.61,1.39-2.69-.18-4-.7C84.34,32.9,84.31,32.68,84.28,32.45Z"/><path class="cls-30" d="M36,47.91c1,1.21,2.57.71,3.62.48A4.82,4.82,0,0,1,45.38,51c.29.82-.09,1-.8.79C42.07,49.2,39.16,48.9,36,50.25,34.87,49.46,33.73,48.66,36,47.91Z"/><path class="cls-94" d="M46.75,65.1c.53-1.23,1.14-.29,1.73-.06.27,1.24.11,2.62-1.17,2.89-1.76.38-2.08,1-1.89,2.77.29,2.73-1.83,1-3.11,1.52,1.17-1.67,3.16-2.63,2.06-4.84C44.46,65.89,46,65.93,46.75,65.1Z"/><path class="cls-95" d="M39.72,37.68l1.8.09c-.92,2.59-3.21,3.3-5.5,4l-1.85-.29c.18-1.08,1.5-.53,1.88-1.33C36.9,38.78,37.93,37.67,39.72,37.68Z"/><path class="cls-31" d="M89.05,39.27c1.09.48,2.47.35,3.21,1.55a3.66,3.66,0,0,0,.74.73c1,.56,2-3.1,2.63-.2.46,2-1.9.65-2.81,1.25C91.27,41.8,89.12,41.69,89.05,39.27Z"/><path class="cls-87" d="M58,22.09c2.81.24,5.32,2.09,8.28,1.53C64.25,25.82,60.55,25.14,58,22.09Z"/><path class="cls-96" d="M42.39,61.39c1.38.64,1.8-1.9,3.1-1s.26,2-.19,3c-.65,1-1.47.65-2.3.34A1.39,1.39,0,0,1,42,62,1.5,1.5,0,0,1,42.39,61.39Z"/><path class="cls-97" d="M82.13,71.7c3,1,3.18-.7,3.09-2.54,2.16.92,2.23,2.33,1.19,3.56C85.15,74.21,83.74,73.85,82.13,71.7Z"/><path class="cls-98" d="M36,47.91c-1.23.77-.43,1.56,0,2.34A1.1,1.1,0,0,0,36,51l.08-.08-2.3-.77c0-.5-.09-1-.13-1.51,1.13-1.25.58-2.88,1-4.46C36.41,45,36.51,46.32,36,47.91Z"/><path class="cls-67" d="M40.51,28.27c.49-2.75,1.79-4.6,4.9-4.49-.8,2.27-1.76,4.39-4.48,4.89Z"/><path class="cls-99" d="M21.87,48.57c-2.42.42-3.59-.45-3.1-3C21.84,44.47,21.81,46.56,21.87,48.57Z"/><path class="cls-100" d="M66.1,14.82l1.84,4-4.52.53A4.89,4.89,0,0,0,66.1,14.82Z"/><path class="cls-101" d="M46.93,31.56H42.32c2.94.29,4.65-3.56,7.76-2.38Z"/><path class="cls-102" d="M43,63.68l2.3-.34a2.48,2.48,0,0,0,1.45,1.76c.55,2.17-1.76,1.34-2.38,2.28C43.91,66.14,43.46,64.91,43,63.68Z"/><path class="cls-103" d="M79.65,62.65c1.2-.08.37-2.17,1.57-1.83s1,1.53.66,2.53c-.88.8-1.86,1.39-3.06.84-.67-.3-1.49-.77-1.08-1.64C77.84,62.33,79,62.61,79.65,62.65Z"/><path class="cls-104" d="M40.93,28.64a18.49,18.49,0,0,0,4.48-4.89l.69.71c-1.37,2-2,4.62-4.94,5.1-.07,0-.25-.09-.25-.14A5.08,5.08,0,0,1,40.93,28.64Z"/><path class="cls-38" d="M73.4,6.68,72,6.56H66.75C69.22,4.54,71.5,4.7,73.4,6.68Z"/><path class="cls-105" d="M44.59,51.76l.8-.79,2.39,4.53c-.39,1.11-1,1.66-2.22,1l-1.13-.09A4.08,4.08,0,0,0,44.59,51.76Z"/><path class="cls-106" d="M55.5,78c-.06.39-.12.79-.17,1.19-2.49-2.14-2.18-5-2.12-8.22,1.1,1.21.25,2.78,1.38,3.53h0C55.65,75.51,56.32,76.58,55.5,78Z"/><path class="cls-107" d="M43.84,56.45c-.19,2.68-2,2.56-3.94,2.33-.16-1.34,1.85-.46,1.89-2.16C41.85,53.74,43.08,56.05,43.84,56.45Z"/><path class="cls-108" d="M82.81,65.07h1.52c.28,1.27.55,2.54-.81,3.43-1,.64-2.15.82-2.71-.18-1-1.71,1-.49,1.4-1.12A3.88,3.88,0,0,0,82.81,65.07Z"/><path class="cls-109" d="M45.56,56.55l2.22-1,.83.92c.1,2-1.06,2.91-2.85,2.49S45.57,57.36,45.56,56.55Z"/><path class="cls-110" d="M79.83,57.2c-.22,2-1.6,2.5-3.32,2.55-.37-.45-.75-.9-1.13-1.34,1.82.39,2.56-.34,3-2.18C78.51,55.57,79.33,56.81,79.83,57.2Z"/><path class="cls-111" d="M94.52,51.06v-.87a17.79,17.79,0,0,1,1.22-3.94.28.28,0,0,0,.39.12h0c1.83,1.07,1.72,2.77,1.46,4.52Z"/><path class="cls-112" d="M59.43,63.51c.86,1.75-.38,2.44-1.59,3.15L56,66.27c.25-.42.41-1,.78-1.23A25.84,25.84,0,0,1,59.43,63.51Z"/><path class="cls-113" d="M84.35,33.13l4,.7c.29.66,1,1.67.79,1.9a1.53,1.53,0,0,1-2-.08c-.91-.64-1.81-1.3-2.71-2A3,3,0,0,1,84.35,33.13Z"/><path class="cls-114" d="M95.74,46.27c.36,1.55.85,3.14-1.22,3.94l-.87-1.31A2.64,2.64,0,0,1,95.74,46.27Z"/><path class="cls-115" d="M25,42.41c0,1-.09,2-.15,3.37-1.64-2.19-1.42-4.36-1.41-6.7,1.45.87.38,2.6,1.56,3.32Z"/><path class="cls-116" d="M9.85,48.15c1,.36,1.26.94,1.06,1.6A1.62,1.62,0,0,1,9,51l-.09,0c-.58-.12-1-.53-.61-1.07A15.32,15.32,0,0,1,9.85,48.15Z"/><path class="cls-117" d="M49.88,8.77c-.43,1.64-.86,2.4-2,2.4-.58,0-1.13-.5-.87-.95a5.61,5.61,0,0,1,1.83-1.83C49.11,8.27,49.77,8.73,49.88,8.77Z"/><path class="cls-118" d="M82.05,10.27c1,.18,1-1.75,2.14-1a1.18,1.18,0,0,1,.29,1.62l-.09.11c-.91,1.19-2,1-3,.16Z"/><path class="cls-74" d="M71.71,11.09a16.43,16.43,0,0,1-.39,8A16.43,16.43,0,0,1,71.71,11.09Z"/><path class="cls-119" d="M21.1,28.54a2,2,0,0,1-1.86,1.91c-.32,0-.69-.62-1-1a21.08,21.08,0,0,1,2-1.77S20.84,28.27,21.1,28.54Z"/><path class="cls-58" d="M22.11,25.72a2.38,2.38,0,0,1,2.11-2.14,1.24,1.24,0,0,1,.53.88C24.4,25.8,23.61,26.42,22.11,25.72Z"/><path class="cls-120" d="M96.22,37.66c.48-1-1.52-2-.08-3.13a6.53,6.53,0,0,1,1.41,7C96.1,40.61,97.37,38.72,96.22,37.66Z"/><path class="cls-121" d="M95.37,15.13a1.54,1.54,0,0,1-1.48,1.57l-.24,0c-.4,0-1.14-.48-1.12-.67.12-1.11,1.27-1.28,2-1.78C94.92,14,95.37,14.54,95.37,15.13Z"/><path class="cls-122" d="M103.26,23.71c-.79,0-1.65-.27-1.41-.93a3.74,3.74,0,0,1,1.75-1.72c.72-.37,1.18.29,1.2,1a1.58,1.58,0,0,1-1.51,1.65Z"/><path class="cls-123" d="M100.28,18.27c-.09,1.17-.72,1.7-1.74,1.64-.41,0-1.17-.44-1.15-.63.09-1.15,1.23-1.4,2-1.83C99.9,17.17,100.2,17.82,100.28,18.27Z"/><path class="cls-124" d="M88.13,14.16c-.22-.17-.94-.51-.9-.73.17-1.17,1.48-1.37,2.11-2.18.28.37.81.75.8,1.12C90.12,13.4,89.33,13.86,88.13,14.16Z"/><path class="cls-125" d="M80.48,88.47c1.35-1.72,2.65-3.54,5.3-2.41.26-4.27,5-3.23,7-6a53,53,0,0,0,7.73-17c.45-1.76,2.15-3.34.77-5.67-.39-.66,2.38-1.4,3.45-2.45-.54,6.7-.91,13.39-3.6,19.75-1.66,3.93-4.49,6.51-7.66,9-1.29,1-4.35.42-3.62,3.52-.48.11-1,.44-1.43.3C85.57,86.5,83.1,88.14,80.48,88.47Z"/><path class="cls-126" d="M63.42,110.35c-1.73,1-1.62-1-2.41-1.52a6.12,6.12,0,0,1,3.9-4l-.33,2.29C63.13,107.84,63.89,109.32,63.42,110.35Z"/><path class="cls-127" d="M84.48,82.36c-.16-.59.88-1.29-.18-1.79l5-5.27C88.28,78.14,87.57,81.11,84.48,82.36Z"/><path class="cls-128" d="M44.5,84.71a3.84,3.84,0,0,1,3.54.58,38.41,38.41,0,0,1,10.59,11l-.74.68c-2.86-4.18-7-6.63-11.51-8.58-1.21-.52-2.91-.51-3.22-2.32A1.58,1.58,0,0,1,44.5,84.71Z"/><path class="cls-129" d="M44.5,84.71l-1.34,1.38L36,86.33c-.65-.24-1.16-.51-.25-1.1,2.16-1.53-.74-.74-.61-1.34h0c-1.34-1.29-3.24-1.42-4.77-2.32a26,26,0,0,1-6.88-8.7c-2.49-6.56-2.3-13.44-2.41-20.29,1.74,2.19.44,4.75.86,7.1.22,1.17-.73,3.08.89,3.35,1.39.22,1.88-1.64,2.08-2.87.65-3.88,3.07-6.12,6.49-7.54C28.65,63.69,31.88,73.68,43,81.36,44.45,82.38,45,83.13,44.5,84.71Z"/><path class="cls-130" d="M30.52,84.45l5.34,2.67c-1.78,5.86-3.21,7.28-7.62,7.56,1-1.81-.79-2.23-1.6-3.14-2.23-1.17-1.86-3.23-1.3-5C26.15,84.11,28.58,84.68,30.52,84.45Z"/><path class="cls-123" d="M30.52,84.45c-5.59,2.75-5.59,2.75-3.88,7.09-2.23-.71-2.23-.71-2.65-4.91a3.41,3.41,0,0,1,2.51-3l3.83-.08C30.39,83.88,30.45,84.17,30.52,84.45Z"/><path class="cls-131" d="M32,40.14A17.09,17.09,0,0,1,35.79,34c1,3.75-1.27,5.06-3.77,6.24Z"/><path class="cls-132" d="M43.7,32.94c-1.58,2-4.08,2.27-6.22,3.21-.64-.28-.64-.89-.75-1.45.17-.42.41-.45.72-.14a4,4,0,0,0,3.33-1.31C41.61,32.5,42.6,31.79,43.7,32.94Z"/><path class="cls-133" d="M37.45,34.56l-.72.14c-.1-2.26,2.17-3.25,2.69-5.48C41.17,32.19,38.66,33.11,37.45,34.56Z"/><path class="cls-134" d="M39.72,37.68l-3.67,2.48C35.19,38,37.8,38.21,38.31,37,38.9,37,39.65,36.64,39.72,37.68Z"/><path class="cls-135" d="M55.5,78l-.9-3.49a122.8,122.8,0,0,0,12-9.84c-1.53-1.87-3.87-.9-5.85-1.29a7.29,7.29,0,0,1,7.11.33c2,4.29,1,8.69-.32,12.76-.6,1.89-3.46,2.71-5.81,2.61-1.87-.07-3.73-.43-5.59-.66Z"/><path class="cls-106" d="M59.12,80.85c2.86-.55,6.25.77,8.36-2.39C66.25,81.9,64.37,82.44,59.12,80.85Z"/><path class="cls-136" d="M30.36,81.58c1.88.17,4-.09,4.77,2.32A5.37,5.37,0,0,1,30.36,81.58Z"/><path class="cls-136" d="M35.11,83.89c1.2-.11,2.33-1.27,3.78-.15a2.91,2.91,0,0,1-3.17,1.49C35.52,84.78,35.32,84.34,35.11,83.89Z"/></g></g></svg>