<svg xmlns="http://www.w3.org/2000/svg" viewBox="0 0 147.88 148.01"><defs><style>.cls-1{fill:#402514;}.cls-2{fill:#502f19;}.cls-3{fill:#5b3b23;}.cls-4{fill:#5e4633;}.cls-5{fill:#8a5d2f;}.cls-6{fill:#24120b;}.cls-7{fill:#f1b772;}.cls-8{fill:#fac47d;}.cls-9{fill:#f6b055;}.cls-10{fill:#efa852;}.cls-11{fill:#f7ba70;}.cls-12{fill:#e5ac65;}.cls-13{fill:#e39e49;}.cls-14{fill:#ad7434;}.cls-15{fill:#a0682a;}.cls-16{fill:#b67d38;}.cls-17{fill:#a56c2c;}.cls-18{fill:#af7332;}.cls-19{fill:#b07537;}.cls-20{fill:#ae7635;}.cls-21{fill:#a66b2a;}.cls-22{fill:#945c1f;}.cls-23{fill:#a26b27;}.cls-24{fill:#e0a35a;}.cls-25{fill:#9b6625;}.cls-26{fill:#9c6729;}.cls-27{fill:#a76d2a;}.cls-28{fill:#9c631f;}.cls-29{fill:#96601d;}.cls-30{fill:#ab7431;}.cls-31{fill:#9e672b;}.cls-32{fill:#996122;}.cls-33{fill:#a66d2c;}.cls-34{fill:#aa722a;}.cls-35{fill:#ba7e35;}.cls-36{fill:#834b16;}.cls-37{fill:#a16421;}.cls-38{fill:#a46823;}.cls-39{fill:#9e6427;}.cls-40{fill:#a56729;}.cls-41{fill:#9f641e;}.cls-42{fill:#9b6223;}.cls-43{fill:#a36a27;}.cls-44{fill:#a16626;}.cls-45{fill:#a46927;}.cls-46{fill:#d0924c;}.cls-47{fill:#955c1c;}.cls-48{fill:#af7432;}.cls-49{fill:#af7531;}.cls-50{fill:#b57b36;}.cls-51{fill:#b47b35;}.cls-52{fill:#b2782f;}.cls-53{fill:#b57b38;}.cls-54{fill:#b0732d;}.cls-55{fill:#966227;}.cls-56{fill:#945d1f;}.cls-57{fill:#845117;}</style></defs><g id="Layer_2" data-name="Layer 2"><g id="Layer_1-2" data-name="Layer 1"><path class="cls-1" d="M144.94,93.19c-5.25,20-17.42,34.62-34.84,45.18-25.63,15.54-62.43,11.91-83.38-8.16,2.82-2.86,4.06.58,5.63,1.66,1.21.84,1.54.68,2.13-.33,4,.18,6.86,3,10.3,4.46,4.88,2.08,9.73,4.06,15,4.82a18.74,18.74,0,0,1,2.21.43c27.89,4.65,58.2-7.3,72.28-34.65,1.15-2.22,2.47-4.34,3.55-6.59,2.13-3.1,2-7.26,4.8-10C145,89.85,144.54,91.85,144.94,93.19Z"/><path class="cls-2" d="M144.94,93.19c-1.5-.47-.91-2.31-2-3.06-1.81-1.68-1-3.75-.63-5.62,2.42-12.66.28-24.77-4.34-36.58C128,24.81,110.59,10.47,85.83,6.22,69.23,3.38,53,5.68,38.15,14.52c-1.56.92-3,2.12-5,2.2-3.28-1.77-.53-2.78.62-3.57C38.44,9.91,43.65,7.62,48.67,5a66.64,66.64,0,0,1,49.46-.44c27.63,10.35,42.91,31.4,49,59.69a31.64,31.64,0,0,1,.37,4,47.31,47.31,0,0,0,0,11.89C147.18,84.55,146.8,89,144.94,93.19Z"/><path class="cls-3" d="M48.71,5c-4.3,3.79-9.86,5.55-14.41,8.94-.73.55-2.55.49-1.49,2.26-1.77,4.17-5.52,6.62-8.5,9.74C18,31.55,13.6,38.53,10.31,46.25a62.89,62.89,0,0,0-5.17,32.1,35.85,35.85,0,0,1,0,6.47c-.57,2.06-.33,4.57-3.08,5.37C-6.56,55.19,13.08,18,46.79,5.38A13.62,13.62,0,0,1,48.71,5Z"/><path class="cls-4" d="M33.77,132.15c.66,1.42.71,2.43-1.14,1.16s-3.23-3.41-5.91-3.1C15.85,122,8.87,111.11,4.48,98.4c-.12-1.49.66-1.69,1.61-.9,1.23,1,1.61,2.67,2.36,4,3,5.42,4.88,11.61,10.56,15.17a142.73,142.73,0,0,0,11.81,11.13C32.17,129,33.87,130,33.77,132.15Z"/><path class="cls-5" d="M7.66,102.17C6,101.39,7,98.44,4.48,98.4A21.88,21.88,0,0,1,2,90.19l2-5.27c3.41,2.39,2.37,6.51,3.78,9.69C7.54,97.12,10.94,99.7,7.66,102.17Z"/><path class="cls-6" d="M147.54,80.08a19.93,19.93,0,0,1,0-11.89A51.39,51.39,0,0,1,147.54,80.08Z"/><path class="cls-7" d="M33.77,132.15c-4.34-3.87-8.65-7.77-13-11.58-1-.87-2.22-1.47-2.05-3.07-1.6-1.57-1-2.93.4-4.22,3.73-3.31,4.83-3,8.32,1.91.68,1,.92,3,2.7,2,1.26-.69.28-2.06-.05-3.14-1.44-4.65-1.26-4.89,4-4.52,1.49.11,1.78-.6,1.68-1.69-.3-3.23,1.27-5.25,3.85-7,2-1.36,2.72-3-.34-4.31-2.76-1.17-3-3.64-1.83-5.86a45.8,45.8,0,0,0,3.33-9.32c1-3.49,3.67-5.68,7-7-1.43-5.07,2.55-5.74,5.73-7,2.11-.82,2.07-1.91.61-3.27-1.25-1.17-2.55-2.49-2.24-4.24.62-3.56-.81-6.46-2.72-9.62-1.24,3.32-4,4.61-7.23,5.22-3.51.65-6.28,3-9.47,4.41-3.71,1.62-5.49.76-6.81-3.06a75.28,75.28,0,0,0-4.9-12.08A12.48,12.48,0,0,1,22,51c-.25,2.44-1,4.3-4,3.82A36.15,36.15,0,0,1,11.52,52c-.08-1,2.59-7.46,3.8-8.89A16.56,16.56,0,0,0,17.94,39c1.5-1,2.63.31,4.21.81-1.6-1.31-2.92-2.31-4.43-.48-2.3,2.47-3.83,6-8.06,5.78A52.88,52.88,0,0,1,23.39,25a3.1,3.1,0,0,1,3.46.37c.42.51-.15-.08.36.31,1.61,1.25,2.27,5.19,5,3.25,3.25-2.34-1.08-3.91-1.64-6,.64-2.11,2.28-2.83,4.26-3.11,2.58,1.31,3.08,3.86,3.79,6.28a2.32,2.32,0,0,0,1.62,1c8.46,1.14,11.37,7.65,13.67,14.5,1,3,2.06,6.09,1.8,9.59s2.27,5.63,5.42,6.89a5.62,5.62,0,0,1,3.13,3.07,15.68,15.68,0,0,1-.88,6.59c-2.74.9-2.44,4.46-5.06,5.7-1,.48.69,1.52,1.07,2.34,1.63,3.51,3.46,6.86-.78,10.12-2.44,1.87-1.69,5.23-2.38,7.92-.82,1.52-1.92,2.91-2.23,4.68,2.06,3.9,1.57,8,1.15,12.16,0,2.27.26,4.55-.57,6.74-2.93,3.08-7.74,4.06-9.51,8.44,0,1.47-1.71,2.86,0,4.42,2,1.84,3.11-.43,4.62-.81a2.29,2.29,0,0,1,1.29.4c.55,1-.13,2.28.59,3.28,3.72-1.91,3.72-1.91,10.57,4.67.36,2-.74,3.18-2.29,4.12-7.66-1-14.49-4.21-21.16-7.82C37.06,133.39,35.66,132.22,33.77,132.15Z"/><path class="cls-8" d="M50.54,130.07h-.73a3.29,3.29,0,0,1-1.46-2.18c.26-2.63-1.28-1.66-2.54-1.23a2.32,2.32,0,0,1-2-.3c.52-3.78,5.45-7.92,9.84-8.27a3.38,3.38,0,0,1,1,.64,4.71,4.71,0,0,0,1.51.93,17.66,17.66,0,0,0,7.31-.2,7.5,7.5,0,0,0,1-.88,10.37,10.37,0,0,0,1.43-4.86c-1.3.71-1.23,2.14-2.2,2.83-.55.39-1.68.77-1.7.42-.22-5.33-6.91-2.68-8.13-6.67.29-3.89,1.7-8-1.68-11.33l.91-1c1.21-.13,2.23.65,3.38.76,3.31.32,4.72,2,3.72,5.42,1.6-3.17,2.75-6-2.14-7.14-1.33-.31-2.95-1-2.22-3.06-1-3.32-.69-6.47,1.75-9,2.76-2.86,3.07-7,0-9.31-2.66-2-3.46-3.18.52-3.48,2.83-.22,1.12-4.88,4.51-4,4.83,2.56,5.2,2.44,7.25-2.71.83-2.1,2.11-3.55,4.48-2.78s2.75,2.76,2.28,4.89c-.65,3-2.88,5.18-4.28,7.8-1.67,3.54-4.48,6.22-6.86,9.23-1.69,2-2.2,3.9,0,5.86,5.52.25,11,1.11,16.49-.49,1-2.4,0-3.19-2.37-3.54-7.71-1.13-7.84-1.56-3-8,.39-.53.81-1,1.24-1.53,2.87-3.47,6.27-6.68,5.6-11.82a14.49,14.49,0,0,0-2.78-4.34,17,17,0,0,0-13.94,0c-.89.41-1.76.88-2.77.41l-3-2C56,54.47,57,44.63,62.69,41.35c2.12-1.21,3.72-.92,4.83,1.34a4,4,0,0,1,0,2.22c-.23,2-5.26,2.29-2,5.57a89.4,89.4,0,0,0,17,0,6.76,6.76,0,0,0,1.63-1.3c1.72-2.51,3-3.07,3.95.59,1.52,5.94.77,11.93.4,17.86A5.37,5.37,0,0,0,90.9,73c4.19,3.2,4.3,3.76.38,7-2.91,2.41-2.6,4.2.06,6.32a24.5,24.5,0,0,1,8,13.5c1.14,4.91-1.66,10.54.63,15.8-3.52,2.79-3.46,9.88-10.47,8.57-1.35-.25-1.56,1.5-2.1,2.48a3.81,3.81,0,0,1-4.09,2.21c-2-.26-2.11-1.73-2.3-3.31-.44-3.52-4-5.79-3.91-9.55.8-3.59-.15-5.47-4.88-4.23,3,1.81,4,4.38,4.16,7.31,2.53,4.11.07,7.83-1.14,11.52-.42,1.28-.86,2.32-.48,3.61a7.77,7.77,0,0,1-.1,3.62,2.09,2.09,0,0,1-1.45,1.46c-2-.65-1.2-3.17-2.92-4.42-1.46,1.5-1.07,3.71-2.19,5.21-1.58,2.74-4,2.84-6.67,2.1l-1.62-.15,2-3.89c.52-5.19-4.4-4.8-7-6.65C53.65,130.75,52,130.57,50.54,130.07Z"/><path class="cls-9" d="M61.42,142.21a6.31,6.31,0,0,0,6.38-3.13,3.57,3.57,0,0,1,4.89,0l1.11-1c3,.28,4.85-1,5.64-3.91a1.73,1.73,0,0,1,1.26-.38c1.86.37,2.42,5.31,5.45,1.54a2,2,0,0,1,1.21-.56,10,10,0,0,1,2.71.87c2.74,1.13,2.37-.78,2.33-2.37a2.34,2.34,0,0,1,1.38-1.42c1.81,0,3.19,2.64,5.27.81a8.88,8.88,0,0,1,1.72-1,4.29,4.29,0,0,0,3.58-2.42,7.22,7.22,0,0,0,.61-2.9,8.55,8.55,0,0,1,8.52-8.59,9.06,9.06,0,0,1,2.48.35c2,.5,2.49,2,3.52,4.68,1.83-7.17,7.56-11.17,8.85-17.67.43-2.14,2.45-3.07,3.83-4.48a6.47,6.47,0,0,1,3.76-2.15,3.75,3.75,0,0,1,3.21,1.72c-14,32.16-43.39,46.5-75.36,42.79A10.81,10.81,0,0,1,61.42,142.21Z"/><path class="cls-10" d="M139.09,100.2,135.54,99c-1.34-1.91.18-4-.29-5.91a4.9,4.9,0,0,1,1-2.5c1.8-2.37,2-5.16,2.13-8,1.1-1.35-1.45-1.38-.93-2.52-2.4-3.45-.2-6.61.6-9.86,0-.44,0-.88.06-1.32a6.07,6.07,0,0,1-1.24-6.64A13.33,13.33,0,0,1,135,56.59c.09-1.35.35-2.68.31-4,.44-2.35.89-4.7,3.6-5.58,6,12.9,7,26.36,4.46,40.22-.17,1-.23,2-.34,2.93Z"/><path class="cls-11" d="M138.81,47,135.72,53c-4,1.74-1.53-3.06-3.71-3.47,0,3,.45,5.49,3.75,6.46l2,5.87a1.8,1.8,0,0,1-1.58,1c-1,.13-2.54-.55-2.62,1.31a3.77,3.77,0,0,0,1.44,3c1.12,1,3,.64,3.78,2.12V70c-6.82,3.57-5.68,6.17-1,10.38,0,.77,2.19.46.91,1.86-1,2.31-2.73,1.1-4.84.87,2.49,2,5.41,3.78,1.34,6.48-.17.11,1.25.9,1.59,1.69l-1,1.76c0,2-.64,4.29-2.25,4.64-3.76.81-1.13,2.27-.73,3.55C129,107.4,124.89,113.36,122,120c-.89,2.05-1.77,3.77-4.52,4.79.8-4,0-6.35-4.45-5.71-6.35.9-7.41,1.83-6.53,7.37.28,1.81-.19,2.88-1.71,3.65-.79,1.72-3.14.28-4,1.95l-.86,1c-2.61.2-3.22-1.86-4.12-3.59-2.44-1.18-2.9,1.86-4.62,2.17-1.79.77-2.7,2.68-4.47,3.47h.05c-2.14-.31-4.15-1.45-6.41-1h-.21c-2.06,1.47-4.15,1.86-6.32.22-.19-1.49-4.21-3.46.58-4.35,1.24-.23,1.41-1.33,1-2.33-.86-2-.66-3.46,1.13-5.16s-2-1.08-1.66-2.55c1.53-.85,1.52-2.93,3-3.78.21,4.26,6,6.38,4.36,11.34a5.73,5.73,0,0,0,1.82.55,2.25,2.25,0,0,0,2.46-2c.22-3.64,1.45-5.11,4.91-2.7a2.26,2.26,0,0,0,.85.42c2.21-2.73,4.37-5.51,6.57-8.25,1.18-1.47.28-2.48-.73-3.4-2.64-2.38-2.28-4.75-.26-7.33,1.63-2.08,1.15-3.92-.19-6.3-2.84-5-5.4-10-10.14-13.75-2.61-2.07.49-3.91,2.13-4.86,4.48-2.6,3.54-4.76-.45-6.3-5.17-2-1.27-5.35-1.66-8.08-.83-5.71,1.11-11.54-1.45-17.23-.89-.06-.24,1.71-1.22,2-1.49-1-2.15-2.9-3.86-3.7a6.79,6.79,0,0,1-2.19-2.94c-.94-6.1-.28-12.24-.43-18.36-.14-5.63-.78-6.24-6.43-5.59-4.68.53-8.24,6.41-6.13,10.15,1.88,3,3.61,6,3.16,9.72-.19,1.53.16,3.5-2.28,3.71-2.24-1.74-7,.1-7.24,3.32-.29,4.2-2.11,8.75,1.24,12.67a8.52,8.52,0,0,1-6.42-9.38c.36-3.88-1.87-7.17-3.06-10.72-.9-2.72-2.72-4.9-4-7.17-1.55-2.76-5.67-3.48-9.27-3.34-.21,0-.59-.41-.61-.65s.3-.52.47-.78A5.48,5.48,0,0,1,40.24,23c.9-.58,2.43-.95,1.48-2.55a2.53,2.53,0,0,0-3.4-1.08l0,0c-1.17.45-2.19,1.7-3.66.8l-3.9,2.94c-.61,2-1.6,3.41-4,3.12l-3.43-1.16,9.42-8.86C47.93,6.54,64.52,1.91,82.5,4.46,109.08,8.13,128.2,22.07,138.81,47Z"/><path class="cls-12" d="M18.05,54.11c4.42-.15,2.37-3.52,2.68-5.59.47-3-2.26-1.29-3.7-2.12,1.21-1.63,2-3.54,4.48-3.07s2.21,2.52,2.3,4.35C24,51.4,27,54.19,27.14,58c.07,1.45,2,2.33,4,1.25C35.69,56.8,40,54,45.48,53.35c2.57-.31,1.78-5.42,5.85-5.61-.7,2-1.45,4.15,1.06,5.6.84.49,1.62,1.59,1.21,2.55-1.68,3.89-.1,6,2.84,8.83s-.9,3.63-2.9,4.13c-5.32,1.29-6.17,2.68-3.72,6.93-5.91.8-8.09,3.15-8.34,9.71-.08,2.05-1.87,2.65-2.39,4.15-.87,2.51-4,6,2.19,5.9,1.51,0,1.43,1.09,1.47,2.06.06,1.67.24,3.64-1.74,4.25-3.86,1.17-5,3.55-3.75,7.23.42,1.25-.21,1.81-1.16,2.35a2,2,0,0,1-2.68-.33c-.73-.76-1.18-2.37-2.67-1.18s-.29,2.43.24,3.56c.43.89,1.29,1.62,1.54,2.53.52,1.84-.86,2.6-2.24,3.36-1.71.93-2.49,0-3-1.36A16.65,16.65,0,0,0,25,113.69c-2.16-2.85-3.62-1.8-5.17.43-2.95-1.4-3.82-4.37-5.19-7-2.24-4.26-4.45-8.54-7.78-12.1Q5.4,90,4,84.94c-1.2-11.87-1.1-23.63,3.31-35,.64-1.66,1.56-3.22,2.35-4.83,3.32-1.23,4.78-5,8.24-6h0a3.55,3.55,0,0,1-1,4.38c-1.41,1.28-3,2-1.92,4.7,1,2.52-2,1.54-3.2,2.24a.5.5,0,0,0-.1.45c0,.14.18.26.28.39-.36,2.42,3.24,2.55,2.88,5-1.28,3.7-1.54,7.67-3.18,11.3-1.18,2.62-.07,4.71,3.54,6.66-3.36-3.61-3.57-6.41-1.36-9.69,1.58-2.34,1.07-5.35.86-8.12A4.37,4.37,0,0,1,18.05,54.11Z"/><path class="cls-13" d="M6.83,95.05c3.59.55,3.66,4.54,5.21,5.86,4.39,3.72,4,9.61,7.76,13.19-1,.93-1.83,1.91-1.11,3.4-6.48-3.1-8.14-9.65-11-15.33C9.3,99.57,6,97.55,6.83,95.05Z"/><path class="cls-14" d="M53.85,110.33c2.29.1,4.37,4,7,.26.34-.49,2.2.78,1.57,2.18a5.67,5.67,0,0,0-.4,3.8c2.36-.62,1.54-2.75,2.28-4a2.21,2.21,0,0,1,2.35-1.4c1.46.25,1.3,1.5.92,2.29-1,2.16-.43,5-2.92,6.55-3.57.21-7.15.46-10.61-.8-.1-.35-.21-.69-.32-1C53.76,115.52,53.81,112.93,53.85,110.33Z"/><path class="cls-15" d="M63.83,61.16l2-1c1.13-.3,1.26.41,1.26,1.25a19.31,19.31,0,0,1-.69,1.84c-.47,1.32-1.73,3.07.29,3.76,1.78.61,1.74-1.49,2.16-2.62,1.25-3.37,3.87-4,6.8-3s3.49,3.71,2.85,6.52c-1,4.2-4.18,7.17-7.66,7.21,1.48-2.33,3-4.65,4.43-7A3.13,3.13,0,0,0,75,64a2.3,2.3,0,0,0-2.72-.57c-1.52.63-1.51,2-1.49,3.38,0,2.38-.34,4.42-3.41,4.33-2.18-.07-5,.79-4.78-3C62.85,65.85,62.33,63.3,63.83,61.16Z"/><path class="cls-16" d="M55.82,94c.56,2,2.29,1.93,3.85,2.47,1.3.45,4.08-.2,3.62,2.21-.52,2.77-.43,6.06-3.07,8-.92.67-2.91.27-2.07-1.25,2.41-4.34.89-5.65-3.46-5.67-.55,0-1.08-1.13-1.62-1.73C53.83,96.56,52.74,93.85,55.82,94Z"/><path class="cls-17" d="M50.54,130.07c4.67-1.11,8.08,2.69,12.42,3.33,2,.29-1,3-1.18,4.77-3.09-.95-5.91-2.22-6.5-5.79-2.34.15-.48,5-4.31,3C47.59,133.63,50.38,131.85,50.54,130.07Z"/><path class="cls-18" d="M34.69,20.14l3.85-2.29c3.63-2.15,4.32,1.8,5.42,3.24,1.66,2.18-1.16,1.73-2.3,2.16-1.85.68-2.48,2.57-3.76,3.82Z"/><path class="cls-19" d="M26.82,26.2l4-3.12c4.81,2.55,4.87,3.76,2.19,7.39-1.57,2.12-2.18,1.34-3.24.14S26.8,28.32,26.82,26.2Z"/><path class="cls-20" d="M28.91,33.73c-.12,2.09-1.1,3.86-2.37,3.87a5.17,5.17,0,0,1-4.6-2.79c-.8-1.72.39-3.19,1.78-4.23.7-.52,1.61-.8,1.47.7-.06.58-1.57,2.42.69.95C28.7,30.4,28.29,32.91,28.91,33.73Z"/><path class="cls-12" d="M52.06,92c-3.74-3-4.1-4.7-2.42-10.29C52.73,85.85,52.73,85.85,52.06,92Z"/><path class="cls-21" d="M43.88,126.39l1.83-.13a5.41,5.41,0,0,1,.8.55c.72.47.42,3,2.31,1.17a2.11,2.11,0,0,1,1,2.12c-1.85.27-.76,4.65-3.84,3C42.09,130.9,42.17,130.75,43.88,126.39Z"/><path class="cls-22" d="M18.05,54.11a2.87,2.87,0,0,1-3.31,2l.09.07c-.77-1.79-6.13-.85-3-5C13.86,52.35,16.36,52.37,18.05,54.11Z"/><path class="cls-23" d="M17.9,39.09c0-2.32,1.45-2.41,3-1.68s3.19,1.47,3.23,3.34c0,1.22-1,1.47-2.13.79-1.37-.83-2.23-2.51-4.11-2.49Z"/><path class="cls-24" d="M70.79,75.13c4.38-1.32,5.76-5.15,6.82-8.87a3.35,3.35,0,0,0-2.28-4.14,3.61,3.61,0,0,0-.8-.13c-1.91-.23-3.71,0-4.54,2.14-.74,1.87.94,5.15-3,5.12-1.09,0-2.57.28-2.87-1.26-.54-2.78,0-5.28,2.56-7,4.84-3.89,10-2.37,15.16-.88l2.75,4.18A20.75,20.75,0,0,1,78.3,77a12.89,12.89,0,0,0-1,1.1c-5.07,6.78-5.07,6.8,3,8.07,1.64.26,3,.68,2.83,2.66s-1.73,1.7-3,1.67c-3.81-.12-7.54.79-11.37.66-6.16-.21-6.91-1.41-4-7.14C66.28,80.7,69.76,78.74,70.79,75.13Z"/><path class="cls-25" d="M84.2,102.48c1.48-1.87.71-6,3.42-5.35,3.12.77-1.19,4,.73,6.18,2.49-.6,1.93-3.23,2.82-4.9.43-.81,1.1-1.42,2-1,.4.2.58,1.12.59,1.71,0,5.91-6.29,10-11.51,7.47-1.61-.78-3.22-7.57-2.1-9.13.25-.35.92-.79,1.14-.68a2.76,2.76,0,0,1,1.31,1.3C83,99.51,82.8,101.11,84.2,102.48Z"/><path class="cls-26" d="M93.81,112.43a25.48,25.48,0,0,0-1,2.9c-.44,1.8.87,5-1.59,5.07-2.9.12-1.1-3.08-1.59-4.74a1.92,1.92,0,0,0-2.13-1.55c-1.58,0-1.83,1-2,2.26s.35,3.61-1.56,3.64c-2.25,0-1.48-2.37-1.27-3.52.37-2.12-3.2-3.4-1.3-5.26s4.75-.79,7.17-.81C90.47,110.41,93,109.51,93.81,112.43Z"/><path class="cls-27" d="M77.74,97.25a15.09,15.09,0,0,1-1.84,7.59c-.47,1-1.21,1.73-2.32,1.15s-.22-1.4-.11-2.16c.2-1.42,2.61-3.47-1-3.91-2.84-.34-3.63.93-3.82,3.66-.12,1.73,1.73,5-1.5,5-1.5,0-2.26-3.53-1.44-5.8.75-2.1-1.72-3.59-.88-5.64A31.62,31.62,0,0,1,77.74,97.25Z"/><path class="cls-28" d="M64.79,84c-1.59,6-1.57,6.15,4.62,6,4.37-.14,8.74-.6,13.49-.94-1.64-3-4.22-1.39-6.16-1.92-1.56-.42-3.74-.22-4.46-1.66-.79-1.6.8-3,2-4.17,1.61-1.62,2.17-4.17,4.54-5.11.3.22.4.43.3.64s-.2.32-.3.32l-5,7.17c3.25,2.69,11.93-3,10,6.73-6.62,1.13-13.27.55-19.91.31C63,88.75,60.78,86,64.79,84Z"/><path class="cls-29" d="M81.84,45.9c2.55.32,3.11,2.08,3.1,4.26l-1.23,1.2a122.18,122.18,0,0,1-19.88-.11c-3.1-4,.6-4.8,2.93-6.25,2.7-3.37,1.49-7.24,1.21-10.91-.13-1.59-.62-3.2-.6-4.85.16-1.21-.57-3,1.28-3.27s2.1,1.45,2.18,2.72c.31,4.64.34,9.28.5,13.92.09,2.34-1.81,3.76-3.59,5.9,5.31.62,9.85-.78,14.93.45-.11-.13-.23-1.48-.45-.85-.11.33-.22.27-.51,0C80.75,47.31,79.79,46.54,81.84,45.9Z"/><path class="cls-30" d="M73.42,56.23H64.48c-1.12,0-2.6.1-2.55-1.56,0-1.24,1.27-1.34,2.28-1.34H82.58c1.21,0,2.77.22,2.81,1.46,0,2.08-1.92,1.3-3,1.35-3,.14-6,0-8.93,0Z"/><path class="cls-31" d="M77.94,116.09c-.65,1.55,1.3,5.19-3,3.78-.22-2.67,1.21-6.26-3.71-6.23-1.06,0-2-1.42-1.28-2.12,2.39-2.43,5.59-1.45,8.28-.86s1.21,2.27.12,3.61C78,114.7,78.05,115.48,77.94,116.09Z"/><path class="cls-7" d="M68.6,28.26c0,4.08.07,8.17.07,12.25,0,1.74.41,3.71-1.91,4.49V43.15c2.64-5,.33-9.11-2.32-13.16.15-1.39,1.18-1.91,2.29-2.35A1.75,1.75,0,0,1,68.6,28.26Z"/><path class="cls-32" d="M73.86,134.26l6.32-.22c-.5,4.91-2.55,6.2-6.38,4Z"/><path class="cls-33" d="M72.69,139H67.8c0-.17-.08-.39,0-.49,1.28-1.59-1.08-5.42,2.53-5.23S71.76,137.16,72.69,139Z"/><path class="cls-34" d="M81.87,60.1c-5.09-.41-10.24-1.76-15.16.88l-.93-.84C71.13,56.85,76.54,57.12,81.87,60.1Z"/><path class="cls-11" d="M63.83,51.25l19.88.11A48.59,48.59,0,0,1,63.83,51.25Z"/><path class="cls-35" d="M78.77,77.13a2.8,2.8,0,0,1,0-1c2.87-3.51,3.81-8,5.85-11.89C85.69,69.93,82.3,73.56,78.77,77.13Z"/><path class="cls-7" d="M63.84,91.34,83.75,91C77.14,93,70.54,92.49,63.84,91.34Z"/><path class="cls-7" d="M48.82,128c-2.91,2.81-2.4-.54-3.11-1.72,1.22-1.35,2.76-2.94,4.43-1.51C51.32,125.75,49.14,126.85,48.82,128Z"/><path class="cls-7" d="M77.74,97.25l-13-.12A16.32,16.32,0,0,1,77.74,97.25Z"/><path class="cls-36" d="M54,119.16c3.57-.08,7.17-.74,10.61.8l.15.24a31.65,31.65,0,0,1-10,.12Z"/><path class="cls-7" d="M54.83,120.32l10-.12A12.15,12.15,0,0,1,54.83,120.32Z"/><path class="cls-37" d="M86.75,135.11c.89-1.84,1.7-3.75,4.07-4.14,1.55-.22,2.18.57,2.21,2,.46,1.48.93,3,1.45,4.64C91.33,137.75,88.8,137.15,86.75,135.11Z"/><path class="cls-38" d="M132.74,101.21a14.89,14.89,0,0,1-2.18-1.2c-.94-.72-3.07-.69-2.38-2.53.56-1.5,2-.48,3-.25,3.51.76,2.32-3.53,4.5-4.21,2.57,2.08-.57,4-.21,6Z"/><path class="cls-39" d="M80.39,134.08c2.49-1.92,4.76-2.5,6.4,1-.26,1.48.08,3.07-2.36,3.4s-2.38-1.43-3-2.79A11.94,11.94,0,0,0,80.39,134.08Z"/><path class="cls-40" d="M96.73,128.71c1.46,1.17,1,3.75,3.23,4.35-2.78,4-4.4,1.29-6.07-1C92.75,129.11,94.24,128.48,96.73,128.71Z"/><path class="cls-8" d="M96.73,128.71c-1.41.7-3.1,1.16-2.84,3.3L93,133l-2.21-2a34.43,34.43,0,0,1,2.63-2.88C94.72,126.94,96,126.42,96.73,128.71Z"/><path class="cls-41" d="M100.82,132c-.39-1-.78-2-1.5-3.93,2.18,1.14,3.35,3.54,5.45,2C104.54,133,103.16,133.47,100.82,132Z"/><path class="cls-42" d="M137.72,80.36c-4.38-.39-5-3.28-4.88-7,.21-4.33,3.81-2.49,5.89-3.41,1.37.86,1.28,1.68,0,2.64-.4.3-1.73.14-.78,1.54,1.42,2.1,1.24,2.21-1.46,2.35.42,1.63,3.2,1.1,2.89,3.14C139.37,80,138.31,80.13,137.72,80.36Z"/><path class="cls-43" d="M138.73,69.32c-2-.55-5,1-5.89-2.14-.55-2-2.1-4.37-.4-6,1.42-1.39,3.22,2,5.27.75,4.39,2.88-1.08,2.51-1.28,3.88C137.81,66.56,141.48,65.85,138.73,69.32Z"/><path class="cls-44" d="M136.72,91.26a18.21,18.21,0,0,1-2.95-.41c-.91-.26-2.08-.62-1.93-1.87.17-1.44,1.43-1,2.34-1s2.16.13,2.22-1.24c0-1-.9-1.31-1.74-1.46-3.17-.56-2.39-2.44-1.5-4.58,1.85.55,3,3.64,5.47,1.5C140.29,85.72,139.14,88.63,136.72,91.26Z"/><path class="cls-45" d="M135.76,56c-1.56-1.2-5.25,2.11-4.43-.14,1-2.78-6.68-9,3.25-8.25,2.77.85-3.35,4.59,1.14,5.4C137.37,54,136.54,55,135.76,56Z"/><path class="cls-46" d="M68.6,28.26l-1.77-.08c-1.4-.24-2.69-.67-2.38-2.48.74-4.3,9-8.18,12.92-6.13,2,1.05,1.83,2.93,1.9,4.76.27,6.61-.63,13.24.5,19.82l2.07,1.75c1.4,4.27-.36,4.71-4.13,3.89-4-.88-8.4,1.55-13.13-1,4.25-2.25,6.31-5.1,5.4-9.88C69.26,35,69.7,31,69.45,27c0-.68-.91-.91-1,.26A5.16,5.16,0,0,0,68.6,28.26Z"/><path class="cls-47" d="M79.77,44.15c-2.16-3.86-.64-8.06-1-12.09-.21-2.14,0-4.32,0-6.48-.06-5-1.35-6.36-6.17-5.88-3.53.35-5.1,3.52-7.13,5.83-1.19,1.35,1.24,1.58,1.45,2.65L64.5,30c-1.36,0-1.55-.85-1.58-2-.14-6,10.39-12.53,15.75-9.76,1.61.83,1.15,2.21,1.15,3.45Q79.79,32.95,79.77,44.15Z"/><path class="cls-48" d="M116.61,23.4c1.56,2.38-.21,3,0,4.59,3.34-2.1,5.29.39,6.47,2.6.71,1.33-1.92,1.83-3.11,2.49-3.37,1.88-5.13-1.44-6.26-3.12C111.81,27.1,115.18,25.79,116.61,23.4Z"/><path class="cls-49" d="M47.41,13.1c1.71-.11,1.94.34,1.87,1.41a8.19,8.19,0,0,0,.46,3.11c2.18,0,3.69.34,1.18,2.32-1.57,1.23-3.86,2.67-5.24-.42-.69-1.53-2.29-3.15-1.1-4.88C45.22,13.71,46.78,13.41,47.41,13.1Z"/><path class="cls-50" d="M106.26,16.75A8.8,8.8,0,0,0,105,19.22c-.59,3.58-2.07,3.69-3.55.72s-2.94-1.89-4.65.57C96,17,98.15,15.6,98.37,12.88,100.72,15.11,102,18.9,106.26,16.75Z"/><path class="cls-51" d="M92.23,17.77c.75-2.6,1.82-4.92-1.87-5.81a1.23,1.23,0,0,1-.71-2,1.29,1.29,0,0,1,1.7-.69,1.52,1.52,0,0,1,.38.24c1.44,1.34,4.53.9,4.71,3C96.64,14.85,94.36,16.38,92.23,17.77Z"/><path class="cls-52" d="M59.94,16.12c-5.22,2.47-6.84,1.58-7-3.16,0-.86,0-1.71,1-2a1.27,1.27,0,0,1,1.57.84,1.37,1.37,0,0,1,.05.49C55.38,15.09,58,14.85,59.94,16.12Z"/><path class="cls-53" d="M107.32,18.49c3.44-.61,5.41,1.06,5.92,3.12.55,2.22-1.45,3.85-3.79,5C111.38,23.36,109.94,21,107.32,18.49Z"/><path class="cls-54" d="M122.54,36.4c.88-1.74,1.49-3.21,3-3.36.78-.08,1.25,1.19,1,2C126,36.73,124.69,37,122.54,36.4Z"/><path class="cls-55" d="M16.35,95.22c-1.4-1-2.66.22-4,0-.91-.17-2-.93-1.59-1.45,3.06-3.94-.36-8,.47-12,.15-.75.39-1.33,1-1.41a2.8,2.8,0,0,1,1.77.5c1.64,1.24,1.58,3.06,1.64,4.93a19.52,19.52,0,0,0,2.7,8.83c.8,1.45,2.42,3.08.34,4.82a2.09,2.09,0,0,1-2.71.4C13.69,98.2,17.27,96.76,16.35,95.22Z"/><path class="cls-56" d="M14.74,56.11c2,3.85,1.9,7.54-1.13,10.83-1.46,1.6-.54,2.59.5,3.8,1.58,1.83,2.4,3.85,1.09,6.17-8-4.87-5-10.85-2.29-17.09.57-1.29-1.54-3.77,1.92-3.64Z"/><path class="cls-57" d="M9.71,76c1.25.1,2.89-.22,3,1.63.07,1.56-1.32,1.58-2.48,1.59-1.34,0-2.85-.06-3-1.75S8.65,76.15,9.71,76Z"/></g></g></svg>