<svg xmlns="http://www.w3.org/2000/svg" viewBox="0 0 113.29 113.95"><defs><style>.cls-1{fill:#c6b8b1;}.cls-2{fill:#46423e;}.cls-3{fill:#403b38;}.cls-4{fill:#5c5753;}.cls-5{fill:#5e5855;}.cls-6{fill:#59534e;}.cls-7{fill:#5b5652;}.cls-8{fill:#605a55;}.cls-9{fill:#aba29c;}.cls-10{fill:#030202;}.cls-11{fill:#908782;}.cls-12{fill:#dbcdc5;}.cls-13{fill:#ac9f97;}.cls-14{fill:#cabbb4;}.cls-15{fill:#6b605a;}.cls-16{fill:#625953;}.cls-17{fill:#615a53;}.cls-18{fill:#a49890;}.cls-19{fill:#9b918b;}.cls-20{fill:#d8cbc2;}.cls-21{fill:#e2d6ce;}.cls-22{fill:#d0c2b9;}.cls-23{fill:#c5b7af;}.cls-24{fill:#ded5ce;}.cls-25{fill:#e2d6cc;}.cls-26{fill:#6d645f;}.cls-27{fill:#605751;}.cls-28{fill:#6d6560;}.cls-29{fill:#5d554e;}.cls-30{fill:#756a63;}.cls-31{fill:#5b514a;}.cls-32{fill:#847973;}.cls-33{fill:#695f59;}.cls-34{fill:#74655e;}.cls-35{fill:#6d625b;}.cls-36{fill:#5f5650;}.cls-37{fill:#e9d8cf;}.cls-38{fill:#736962;}.cls-39{fill:#80766f;}.cls-40{fill:#9a918a;}.cls-41{fill:#f0e2db;}.cls-42{fill:#655b55;}.cls-43{fill:#6a5f58;}.cls-44{fill:#9e938c;}.cls-45{fill:#706660;}.cls-46{fill:#787069;}.cls-47{fill:#61564f;}.cls-48{fill:#6a615a;}.cls-49{fill:#a2978f;}.cls-50{fill:#635851;}.cls-51{fill:#685b55;}.cls-52{fill:#796f68;}.cls-53{fill:#615952;}.cls-54{fill:#383027;}.cls-55{fill:#cbbeb5;}.cls-56{fill:#746b65;}.cls-57{fill:#716662;}.cls-58{fill:#6a6059;}.cls-59{fill:#645954;}.cls-60{fill:#564a43;}.cls-61{fill:#60554f;}.cls-62{fill:#b2a49c;}.cls-63{fill:#8f867e;}.cls-64{fill:#c0b5ae;}.cls-65{fill:#a69c96;}.cls-66{fill:#4b423b;}.cls-67{fill:#efe3dc;}.cls-68{fill:#a7a09b;}.cls-69{fill:#7d746e;}.cls-70{fill:#5e554e;}.cls-71{fill:#635c58;}.cls-72{fill:#a49d99;}.cls-73{fill:#38322e;}</style></defs><g id="Layer_2" data-name="Layer 2"><g id="Layer_1-2" data-name="Layer 1"><path class="cls-1" d="M10.81,89.77c-5.6-7.7-9.6-15.9-9.8-25.6.8-1.2-.6-2.8.5-4,.6-.5,1.1-.2,1.5.2a10,10,0,0,1,1,2.1c.7,2,3.1,2.7,3.7,4.8.5,1.4,1.3,2.8.5,4.3-.5.9-1.1,1.7-.5,2.8.8,1.1,2.1,1.8,3,2.9,2.2,1.8,3,4.6,4.3,6.9,3.7,6.7,9.5,11.1,15.3,15.7a3.77,3.77,0,0,1,1.2,1.6c.3,2,2.6,2.2,3.5,3.7a1.38,1.38,0,0,1-.1,1.1,2.61,2.61,0,0,1-2,1,42.31,42.31,0,0,1-12.5-8,47.62,47.62,0,0,1-5.7-6.2C13.21,92.37,12.81,90.07,10.81,89.77Z"/><path class="cls-2" d="M105.71,29.57c9.2,15.5,9.6,31.7,3.5,48.4a50.52,50.52,0,0,1-11.8,18.4,1.75,1.75,0,0,1-.6-1.7c1.7-4.6,5.5-7.9,7.5-12.3a59.56,59.56,0,0,0,6-21c.8-10.4-1.5-20.1-5.8-29.5a5.85,5.85,0,0,1-.2-1.3C104.51,29.87,104.81,29.37,105.71,29.57Z"/><path class="cls-3" d="M48,.77c18.1-2.8,33.8,2,47,14.8.2.9-.4,1.1-1.1,1.3-2.3-.4-3.6-2.4-5.4-3.6-9.8-6.9-20.6-10.7-32.7-10.5a32.16,32.16,0,0,1-6.2-.2C48.81,2.17,47.81,2,48,.77Z"/><path class="cls-4" d="M3.61,37.77c5.5-14.4,14.8-25.3,28.7-32.1.5.3,1,.5,1,1.2-2.5,3.2-6.7,4.2-9.6,7-6.5,5.4-11.9,11.7-15.4,19.5-.9,1.9-1.5,4.2-3.5,5.4C4.11,38.87,3.71,38.47,3.61,37.77Z"/><path class="cls-3" d="M97.31,94.37l.1,1.9c-9.4,10-20.9,16-34.7,17.2-.7-.8-2.2.3-2.6-1.1.8-1.7,2.5-1.3,3.9-1.5a10.32,10.32,0,0,0,3-.4c1.7-.4,3.5-.9,5.2-1.3a55.71,55.71,0,0,0,21.4-12.5C94.71,95.67,95.61,94.27,97.31,94.37Z"/><path class="cls-5" d="M20.71,98.87a47.85,47.85,0,0,0,12.4,8c2.6,0,4.8,1.3,7.2,1.8a34.47,34.47,0,0,0,10,2.2c1.3.1,2.8,0,3.5,1.5-.7,1.6-2.5.2-3.4,1.1a51.39,51.39,0,0,1-29.9-13C19.61,99.17,19.61,99.07,20.71,98.87Z"/><path class="cls-6" d="M3.61,37.77l.8,1c1.8,2.9,0,5.5-.6,8.2-1,4.3.1,8.9-1.9,13.1-.5,1.3.9,3.1-.9,4.1-.1-.3-.1-.5-.2-.8-.6-3.1.2-6.2-.5-9.3A76.06,76.06,0,0,1,3.61,37.77Z"/><path class="cls-7" d="M33.41,6.57l-1.1-1A43.58,43.58,0,0,1,48,.67c.4.8,1.2.8,1.9,1-.1.4-.3.9-.7,1C43.91,3.87,39,6.77,33.41,6.57Z"/><path class="cls-8" d="M94.11,16.37l.9-.9a38.57,38.57,0,0,1,10.7,14l-.9.9a1.38,1.38,0,0,1-1.7-.8,60.4,60.4,0,0,0-8.4-11A1.86,1.86,0,0,1,94.11,16.37Z"/><path class="cls-9" d="M20.71,98.87c-.8.5.2,1.2-.1,1.7-2.5-1.6-5.1-3-5.7-6.2a.93.93,0,0,1,.1-1.3C17.11,94.77,19.31,96.47,20.71,98.87Z"/><path class="cls-10" d="M50.51,113.57c.9-1.2,2.3-.2,3.4-.9a5.25,5.25,0,0,1,6.3,0c.8.4,2,0,2.6.9A50.62,50.62,0,0,1,50.51,113.57Z"/><path class="cls-11" d="M15,93l-.1,1.3a13,13,0,0,1-4.2-4.5c.3-.5-.2-2.2,1.1-.9A20.65,20.65,0,0,1,15,93Z"/><path class="cls-1" d="M.31,54.17c1.1,3,.5,6.2.5,9.3C-.49,60.37.11,57.17.31,54.17Z"/><path class="cls-12" d="M1.91,60.07c-.9-7.3,1.3-14.2,2.5-21.2,3.6-6.8,6.7-14,12.3-19.6,2.1-2.1,4-4.4,6.6-6,.9.2,1.9-.2,2.7.5,1.5,2.1,2.8,5.1,6,1.9,1-1-.1-2-.1-3,.2-1-.2-2.4,1.6-2.3a1.61,1.61,0,0,1,.7.4c1.1.8,1.5,3.3,3.3,2.3,1.5-.8-.4-2.5-.1-3.8a3.58,3.58,0,0,1,.4-1.1,2,2,0,0,1,2.2.2c1.4,1.6,2.3,3.7,4.8,3.9.7,2.7-1.3,3.4-3.1,4a14.23,14.23,0,0,0-8.2,5.6c-2.5,3.7-7.1,5.4-10,8.9-1.1,1.4-2,2.3-2.2,4.2-.4,3.2-4.3,5.8-8.6,6.3-1.7.4-4-2.8-5.2.9-2,4.9-2.4,10.2-3.1,15.3-.2,1.3.4,3.2-1.9,3.4Z"/><path class="cls-13" d="M30.71,102.17l-8.5-7.8c-2.5-2.3-5.2-4.2-6.8-7.5s-3.7-6.3-5.6-9.4a1.7,1.7,0,0,1,1-.6,3.41,3.41,0,0,1,2.2.7,2.54,2.54,0,0,1,1,.8c4.9,8.4,12.5,14.4,19.2,21.2C33.31,101.27,32.51,102.27,30.71,102.17Z"/><path class="cls-14" d="M2.61,60.87A114.66,114.66,0,0,0,4.51,48c.2-2.3,1.4-4.6,2.1-6.8,1.7-.4,2,.8,2.3,2a9.56,9.56,0,0,1-1.2,7c-1.2,2.3-1.1,4.1.5,6,2.2,2.5,1.3,3.6-2,3.7,1.1.9,2.7.1,3.2,1.5a1.48,1.48,0,0,1-.7,1.7c-1.9.8-3.7.9-5.4-.4A2.27,2.27,0,0,1,2.61,60.87Z"/><path class="cls-15" d="M3.51,62.57l5.7-.2c1.7-.7,2.7.8,2.2,1.6-1.8,3,.8,4.6,1.6,6.7a1.63,1.63,0,0,1-.9,1.9c-1.6,0-3.4,1.1-4.5-1.1.2-2.7-.2-5.1-2.9-6.4C3.31,64.67,3.31,63.67,3.51,62.57Z"/><path class="cls-16" d="M7.61,71.57c1.1,1.5,3.2-.7,4.2,1a2.44,2.44,0,0,1,2.3,1.4c1,2,.3,3.4-1.7,4.2l-2-.7c1.2-4.1-2.8-1.3-3.7-2.8C6,73.37,5.61,72.17,7.61,71.57Z"/><path class="cls-17" d="M30.71,102.17c1.2-.4,1.7-1.6,2.5-2.5,2.1-.9,2.2.8,2.7,2,0,1.4,1.3,3.2-1.1,3.9C33.61,104.07,30.31,105.27,30.71,102.17Z"/><path class="cls-18" d="M6.81,74.67c.5-.1,1.2,0,1.5-.3,1.1-.9,2.2-1.5,3.4-.1,1.5,1.9-1.3,1.9-1.2,3.1h-.6Z"/><path class="cls-19" d="M34.71,105.57c2.2-1.1-.4-2.4.1-3.5,1.6-2.2,2.7-1.2,3.6.6.1,1.6.5,3.1-.4,4.6a2.4,2.4,0,0,1-3.1-1.1A1.42,1.42,0,0,1,34.71,105.57Z"/><path class="cls-20" d="M34.81,106.17l3.3.8a1.09,1.09,0,0,1,1.3.5,1.68,1.68,0,0,1,.3,1.9,15.21,15.21,0,0,1-6.5-2.5Z"/><path class="cls-20" d="M37.91,102.77c-.8-1.4-1.8-1.8-3.1-.7-.2-1,.1-2.4-1.6-2.4C28.61,96,23.71,92.57,20,88c-2.5-3.2-4.5-6.8-7.4-9.7,1-1.2,1.8-2.5.9-4.1.8-1.4.9-2.6-1.1-3-1.2-.2-.1-2.5-2.2-2.1-.4.1-2.7-1.4-.1-2.9,1.2-.7,1.4-2.9-.9-3.6L9,60.77c1.8-1.5-.9-4.6,2.1-5.7,1.8,1.8,2.9,4.1,4.8,5.9,1.7,1.5,3.3,2.8,5.6,3.1a5.75,5.75,0,0,1-.7-6.5c.4-.9,1.1-1.7,2.2-1.5a1.9,1.9,0,0,1,1.6,2.1c-.3,3.2,1.5,5.7,2.6,8.5.7,1.6,1.4,3.5-.2,4.9-1.9,1.6-2.9-.4-4.2-1.1-1.8-1-3.8-2.9-4.6,1.7,1.3-2.9,3-2.9,4.7-1.5,4.3,3.5,9.4,6.3,10.4,12.6.2,1.4,1.3,1.9,2.7,2s3.1.2,3.8,1.9a2.85,2.85,0,0,1-.8,1.4c-.4.5-1.1,1-.3,1.7.5.3.8-.5,1.4-.5,1.8.9,1,3,2,4.2,1.8,1.2,3.7.6,5.6.6a2.09,2.09,0,0,0,1.3-.7,8.61,8.61,0,0,0,.9-6.3,4.1,4.1,0,0,1,.1-1.1c.8-1.4.5-2.9.8-4.3s-.1-3.1,2.2-3c1,.9,0,3.4,2.5,3.2a2.7,2.7,0,0,1,.8,2.6,2.65,2.65,0,0,1-.5.6c.2.1-.9.3,0,.3,1.7,0,3.8-1,4.5,1.7-1.5,1.3-3.4.5-5,1.2.5.9,1.8,1,2.2,2a31,31,0,0,1,.7,3.7c-.1-3.6.9-5.3,4-4.7,1.1.7,1.3,2,1.6,3.2,2.2-3.8,3.2-3.9,5.6-.6,1.1,1.5.7-.7,1.2-.7,1.7-.7,1.6.8,2.1,1.6,1.5,2.6,3.3,3,4.9.5,1.7-2.7,5-5,3-9.2-.6-1.3.6-1.9,1.9-1.7,1.1.2,2.1.8,3.2.9.8.1,2.2.2,2.2-.6-.2-2.7,2.9-4.3,2.9-5.9-.1-4.6,3.3-7.8,3.5-12.2.1-1.8-.9-4.7,2.6-5.2.3,0,.5-4.3-.5-6-2.1-3.7-1.5-7.4-.9-11.3-1.3.5-2.7,1.2-3.7-.4-.8-1.3.5-7.2,2-8.8,2.2-1.4,3.6-.8,4.1,1.7.3,1.2.5,2.4,1.6,3.1,1.2.9,2.5,1.7,2.5,3.5a2.38,2.38,0,0,0,1.7,2.4c2.4.9,2.1,2.4.8,4.1a4.22,4.22,0,0,0-2.3,3.3A9.76,9.76,0,0,0,102,59c1,2.5-.3,4.8-1.9,6.8s-1.9,4.1-.2,6.2c.9,2,.3,3.7-.9,5.3l-.6.9c-2.6,8.6-8.3,14.9-15,20.3,2.6-.2,3.8-.6,4.9-1.9,4.2-4.8,10.1-8,12.2-14.5a2.36,2.36,0,0,1,3-1.6c1.3.4,2.1,1.3,1.2,2.8-1.9,4.1-4.9,7.6-7.5,11.3-7.1,7.1-15,12.8-24.7,15.6-.9-.2-1.9-.2-2-1.5-.3-4.1-.5-4.2-3.9-2.8-1.3.3-3.2-.5-3.4,2.1,1.7.3,1.7-3.2,3.8-1.6a2.2,2.2,0,0,1,.6,1.5c.7,1.4-1.5,2.2-.6,3.6a3.69,3.69,0,0,1-2.7.5c-1.1-.8-2.7-.4-3.6-1.5s-.2-3.1-2-3.2c-2.3,0-1.2,2.4-2,3.5-.6,1-1.4,1.3-2.4.4-1-1.5.2-4.6-3.1-4.4-2.4-.5-3.8-4.6-7.1-2.1-1.3,1.2-.7,3.2-1.9,4.4a1.46,1.46,0,0,1-2-.5C38.81,106.77,41.11,103.67,37.91,102.77Z"/><path class="cls-21" d="M25.81,14c-.9-.1-1.8.1-2.5-.7,2.9-2.9,6.8-4.4,10.1-6.6a94.78,94.78,0,0,1,16.5-4.9c16.8-1.4,31.6,3.3,44.2,14.6a91,91,0,0,1,10.7,14v.8c-1.5,1.4-1.8,1.5-2.9,0a37.18,37.18,0,0,0-3.3-4.5l-2.4-1.5c-2-3.4-5.9-5.3-7.7-8.9a6,6,0,0,0-4.4-1.9c-2.3-1.3-4.2-3.3-6.7-4.4a6.71,6.71,0,0,1-1.5-.6c-1.8-1.3-3.3-3.1-5.8-2.4-3,1.4-5.9-.5-8.8-.6-6.1-.2-12.1-.5-17.9,1.9a1.94,1.94,0,0,1-1.2-.3c-1-.3-1.5.5-2.2,1l-1.9-.8c-1.8.5-3.1,1.9-4.9,2.5-.9.2,0,1.7-1.2,1.8-.8,0-1.5-.4-2.3,0C28.41,12.87,27.41,14.27,25.81,14Z"/><path class="cls-22" d="M99,25.47c1.4,1.5,3,2.9,3.6,5.1.3,1,1.1,2,2.3.6,5.5,9.5,7.1,19.8,6.3,30.5-1,.9-1.8.6-2.7-.2a4.74,4.74,0,0,1-1.3-2.4c-.1-1.2-.3-2.2-1.9-1.9a2.17,2.17,0,0,0-1.9,2.2c-.1,1.2.2,2.4.2,3.6-.1.6-.2,1.1-.3,1.6s-.2.8,0,1.2c2.5,3.9,2.5,3.8-1.8,5.6a2.89,2.89,0,0,1-1.8,1.1c-2.9-1.6-3.2-4-1.2-6.4,2.3-2.8,3.9-5.3,1.7-9.1-1.2-2,.7-4.1,1.4-6.2a.6.6,0,0,1,.4.1c1.5.8,1.5,3.7,3.9,3,2.2-.7.7-3.2,1.7-4.6a8.18,8.18,0,0,0-1.5-5c-1.2-1.8-2.8-3.5-1.9-5.9-2.1-.3-3.7.8-5.3.3-1.6-.2-2.4-.8-2-2.7.6-2.4-1-2.7-2.9-2.2-3.9-1.2-7.9-5.9-8-9.4a1.71,1.71,0,0,1,1.3-1.7c2.6.5,4.4,3,7.1,3.2,1,.6,1,1.9,2,2.5a8.5,8.5,0,0,1,3.8,3.7c-.1-2.3-1.7-3.2-1.9-4.8A2.14,2.14,0,0,1,99,25.47Z"/><path class="cls-23" d="M109,61c.5.9,1.4.7,2.2.7a48,48,0,0,1-6.4,21.5c-.1-1-.3-2-1.5-2.2a2.14,2.14,0,0,0-2.2,1.6c-2.1,5.1-5.9,8.5-9.9,12.2-3.2,2.8-5.8,4.9-10.6,5.6,1.3-1.5,1.3-2.9,2.7-3.5,4.3-1.8,6.5-5.5,8.7-9.2a16.38,16.38,0,0,1,2.1-2.5c1.3-1.7,4.6-2.6,2.3-5.8-.3-.5,1-1.4,1.9-1.9,1.2-.4,2.1.4,3.1.7,1.7.5,2.6-.3,3.2-1.7a1.21,1.21,0,0,0-.2-1.5.83.83,0,0,0-1.2.2.31.31,0,0,0-.1.2c-1,2.4-2.7,2.3-4.7,1.4a6.55,6.55,0,0,0,1.5-4.2c.3-.6.7-1.2,1.1-1.9,1.1-.3,2.1.3,3.2.5a2.53,2.53,0,0,0,3-1.9v-.1c.5-1.6.1-2.6-1.7-2.9a4,4,0,0,1-2.9-2l1-.8C105.61,63.37,107.11,61.67,109,61Z"/><path class="cls-24" d="M40.51,107.77a1.76,1.76,0,0,0,2,.8,4.14,4.14,0,0,1,1.6-.2c1.1,0,2.3-.2,2.6-1.4.3-1.5-1.2-1.5-2-2-.5-.3-.9-.5-.9-1.2,3.8-3.4,5.3.6,7.5,2.4,1.7.9,1.6,3.2,3.3,4.1.7.9,1.3.6,1.7-.3,1.7-2.4,3.2-2.4,4.7.2,1.3.1,2.7.1,3.4,1.6l-4.3.9h-6.3c-4.7-1.2-9.8-.8-14.1-3.3l-.7-1.9A1.4,1.4,0,0,1,40.51,107.77Z"/><path class="cls-24" d="M71,108.87l1.6,1.1-5.5,1.2c-2.7-1,.9-2.4-.2-3.4C68.51,107.27,70,107.37,71,108.87Z"/><path class="cls-25" d="M39.71,87.27c-1-1.1-2.6-1.8-3.7-1.3-3.4,1.4-3.8-1.8-4-3.1-.9-6.4-6.3-8.7-10.4-12.2-1.4-1.2-2.3-.3-2.3,1.4,0,.8.7,1.8-.6,1.9s-1.3-1.2-1.3-2.1c.1-1.6.8-3.1.1-5.1,2.7,1.6,5.4,1.6,7,4a1.28,1.28,0,0,0,1.7.5.1.1,0,0,0,.1-.1,1.66,1.66,0,0,0,.8-2.1,55.47,55.47,0,0,0-2.4-5.6c-.8-1.6-2-2.9-.9-4.9a1.23,1.23,0,0,0-.5-1.8c-.1-.1-.3-.1-.4-.2-1-.2-1.5.8-1.6,1.5-.2,2.1-1.2,4.6,2.1,5.7a4.6,4.6,0,0,1-6.5-.4l-.1-.1c-2.1-2.6-5.8-4.2-6-8.2-3.1-.5-3.8-2-2.2-4.9,1.1-2,2.8-4.3.4-6.6-.1-1.3.8-1.5,1.8-1.6s1.7-.8,1.4-1.7c5.6-.5,8.2-3.2,7.8-8.2-.1-.8,0-.8.6-1,2-.5,3.8-1,3.8-3.9,0-.7,2.7-1.6,4.1-2.5a15.68,15.68,0,0,0,6.1-6.4c.9-1.8,3.7-2.4,5.8-2.9,1.9-.5,3.8-.7,4.3-3.1l.4-.4h.6a7.35,7.35,0,0,0,3.6.2c2.3-.4,3,.6,2.4,2.8-1.2,1.7-1.8,3.7-3,5.4-1,1.5-1.6,2.9-4.1,1.3-3.7-2.4-10.1,1-10.7,5.4-.4,3.1-1.9,3.9-4.6,3.9-3.2,0-3.8.8-2.3,3.5s.4,5.9,2.6,8.6c.8,1,.9,2.2,2.6,2.5,2.7.5,5.1,1.6,3.9,5.2a1.84,1.84,0,0,0,.2,1.6,11.7,11.7,0,0,1,2.2,8.5c-.1.7.6,1.2,1.1,1.6a3,3,0,0,1,.8.8,3.33,3.33,0,0,1,1.1,2.1c-.1,1.7-.2,3.4-1.8,4.4,2.5.6,2.3,2.6,2.6,4.5-1.4,1.6-2.1,3.1.9,3.7,2,.4,3.6,1.1,2.2,3.7,1.3-1.7-.5-4.8,2.7-5.5a2.66,2.66,0,0,1,1.2.3c3.5,3,.8,6.6,1.2,10v.7a14.7,14.7,0,0,1-2.3,6,1.38,1.38,0,0,1-1.1.1c-1-1-1-2.3-1.3-3.5-1.3-.1-1,1.5-1.9,1.9-2,0-1.5-2-2.2-2.9-.5-.4-1.1-.6-1.6-1Z"/><path class="cls-26" d="M26.81,20.07c-.5,2.1-3.3,1.8-3.3,3.9-1.8-.8-3.6-2.1-3.8-3.9s1.6-3.3,3.3-3.5C25.41,16.27,24.91,19.57,26.81,20.07Z"/><path class="cls-27" d="M33.21,10.57c1-2.1,2.4-3.4,4.9-2.5.1.8-.1,1.9.4,2.4,1.2,1.4,2.3,2.6.1,3.9s-3.3.4-4.1-1.7A10.71,10.71,0,0,0,33.21,10.57Z"/><path class="cls-28" d="M21.11,25c-.1,2.3-.9,4-2.3,3.4s-3.8-1-3.7-3.3c0-1.5.7-3.4,2.6-2.9C19.11,22.67,21.71,23,21.11,25Z"/><path class="cls-29" d="M25.81,14l3.9-2.6c2.9-.5-1,2.2,1.2,2.4a2.29,2.29,0,0,1,2.3,2.4v.4l-1.5.6C27.81,18.77,27.81,18.77,25.81,14Z"/><path class="cls-30" d="M12.21,40.37c-.3,2.4,4.2.7,3,3.1-1,2-2.8-1.2-4.4-.6-.5.2-1.1,0-1.4.6a1.09,1.09,0,0,1-1.5,0c.5-1.3-.5-1.7-1.2-2.2C7.91,36,10.41,40.67,12.21,40.37Z"/><path class="cls-31" d="M45.41,12a1,1,0,0,0-.7.4c-3.2,1-3.7-1.6-4.7-3.5q-.9-2.85,2.1-2.4c.7.9,1,2,2.4,2.4S46.61,10.47,45.41,12Z"/><path class="cls-32" d="M33.21,16.47c-1.6-1.4-3.8-2.4-3.5-5.1,1.5-1.4,1.6.6,2.3,1C32.41,13.67,35.31,14.37,33.21,16.47Z"/><path class="cls-33" d="M17.61,30.37c-.1.7-.1,1.4-.9,1.1-1.6-.6-3.4-1.2-4-3.1-.1-.3.7-1.1.9-1.1A6.61,6.61,0,0,1,17.61,30.37Z"/><path class="cls-34" d="M12.31,36.67a1.63,1.63,0,0,1-1.5-1.6,1,1,0,0,1,.9-1.2H12c.7,0,1.1.7,1.2,1.4a1.08,1.08,0,0,1-.7,1.4Z"/><path class="cls-35" d="M7.91,43.37h1.5c1.6,1.2,2.5,6.5.9,7.4-4.5,2.3-.2,3,.6,4.3-1.5,1.5,1.7,4.6-1.9,5.5a15.11,15.11,0,0,1-1.8.9,2.12,2.12,0,0,1-2.8-.9,2,2,0,0,1,0-1.5c.7-.9,1.7-.7,2.6-.5a7.72,7.72,0,0,0,1.5.2c.6-2.7-2.8-2.2-2.9-4.5a13.17,13.17,0,0,1,2.3-8C9.51,44.57,6.11,44.07,7.91,43.37Z"/><path class="cls-25" d="M12.31,71c1.4-1.3,2.5-.2,2.8.9s-.4,2-1.8,2.2l-1.6-1.4A5.78,5.78,0,0,0,12.31,71Z"/><path class="cls-36" d="M40.51,107.77l-1.5-.3-.9-.6c-1.5-1.3-.5-2.8-.2-4.2,2-1,3.6-1.4,2.9,1.9A18.16,18.16,0,0,0,40.51,107.77Z"/><path class="cls-37" d="M86.71,24.57c.6,4.6,5.3,5.8,7.4,9.1-2.7,2,0,5.4-2,7.7-.3.4.3,1,.9,1.2s1.4.3,1.7-.6c.2-.5-.4-1.6.9-1.2a1.76,1.76,0,0,1,.9,1.3,20.51,20.51,0,0,1-.5,5.5,8.58,8.58,0,0,0-.2,2.3c.1,2.2,3.2,3.5,2.1,5.9s1.1,3.8,1.1,6.3c-2.1-.8-4.2-2-3.5,2.2.3,2.1-.2,5.5-1.3,6.9-2,2.5-2.7,4.2-1.2,7,.3.6-.5.6-1,.8-2,.5-3.3,1.2-2.5,3.9.4,1.4,0,3.3-2.8,2.4a23,23,0,0,1-5-1.8c1.2,4-.7,9.8-3.7,12.1s-5.2,1.6-6-2.2a2.5,2.5,0,0,0-.8-1.8c-.6-1.2.5-2.3.3-3.5.1-1.6-1-2.7-1.5-4.1a2,2,0,0,1,0-1.1c.3-1.2,1-2.2,1-3.7-1.5.6-1.4,3.3-3.5,2.6-1.4-.4,0-2-.8-2.8-1.3.9-2.1,5.2-4.3.2-.4,1.6-.1,3.2-1,4.4a2.66,2.66,0,0,1-3.4.8c-1.6-2.9-1.4-5.6.9-8,3.4-3.6,7.6-4,12.2-3.5,2.2.2,2.2-3.1,4.7-3.2-3.1-1.5-3.1-4-3.5-6.7-.5-2.9.9-6-1.3-8.6-.5-.6.1-1.3.4-1.9s1.1-1.3,1.3-2.1c1-4.1,2.3-7.5,7.7-6.6,1.2.2,1.5-1.4,1.1-2.6a11.14,11.14,0,0,0-3.7-5.3,2.38,2.38,0,0,1-.5-3.3l.1-.1c1.3-1.7,2.3-.2,3.4.7a6.19,6.19,0,0,0-7.1-1.8c-1.6.6-3.6,1.2-4.2-.9-.8-2.5,1.3-3.2,3-3.5-3.2-2.2-6.6-4.3-8.9-7.6-.8-1.1-1.6-2.7-3.2-1.7-3.2,1.9-5.3-.9-7.8-1.8,1.1-4.1,5.3-5.9,9.2-3.3a17.08,17.08,0,0,0,9.3,2.7c2,.1,3.8.5,5,2.2a8.28,8.28,0,0,0,4.6,3.2A11.26,11.26,0,0,1,86.71,24.57Z"/><path class="cls-38" d="M99,38.57c1.1-1.5,3.1-.9,4.4-2,1-.8,2.3.3,2.1,1-1.2,3.5,1.6,5.4,2.8,7.9.7,1.4-.2,2.7.5,3.9-2.2,1.1-4.2,1.7-4.8-1.7.9-1.4,2.3-3-1.1-2.4-1.5.3-2.4-.9-2-1.7C102.21,41.07,99.61,40.27,99,38.57Z"/><path class="cls-39" d="M71.91,88c2,1.6-.8,2.2-.8,3.4V93c-.1,1,.5,2.6-1,2.7-1.9.1-1.3-1.6-1.4-2.8s.3-2.3-1.4-2.4c-1.5-.1-1.8.8-1.8,2s.8,3-1.1,3c-2.1,0-1.3-2-1.4-3.2a3.46,3.46,0,0,0-.9-2.6,1.85,1.85,0,0,1-.2-2.5C65.21,86,68.61,85.57,71.91,88Z"/><path class="cls-40" d="M59.51,76.57c-2.1,2.1-.7,5-1.6,7.4-.3.7-.8,1.2-1.6.8a3.24,3.24,0,0,1-.9-2.5c.3-1.9-.7-2.7-2.4-3.1-2.2,1.4-1.1,3.6-1,5.4,0,1.5,0,2-1.5,1.8-1.7-3.1.9-6.9-1.5-9.8C52.41,73.47,55.91,75.37,59.51,76.57Z"/><path class="cls-41" d="M56.21,84.77l1.7-.8a5.12,5.12,0,0,0,3.2-.8,4.1,4.1,0,0,1,1.1.1l.5.2c2.3.7,4.7.1,7,.4l.5.1c1.5,1,2.6,2.1,1.7,4l-9.8-.4c-.6.1-1.4,1.5-1.8-.2-1.9-1.9-4.3-.4-6.5-1.1C54.11,85.07,55.51,85.47,56.21,84.77Z"/><path class="cls-42" d="M104,47.67c1,2.3,3.1,1.5,4.8,1.7.4,1.3-2.3,2.5.1,3.9.6.3-.4,1.6-1.2,1.7-1.8.2-3.9.9-5.2-1.2a17.6,17.6,0,0,1-1-3C101.81,49.17,101.31,47.27,104,47.67Z"/><path class="cls-43" d="M98.31,76.67c1.5-.4,4.2,1,3.5-2.7-.2-.9,1.9-.7,2.9-.6.8.1,1.8.8,1.4,1.6-.6,1.6-1,3.6-2.5,4.6s-2.5-.5-3.7-1.1c-.6-.4-1.1-.8-1.7-1.2A1.27,1.27,0,0,0,98.31,76.67Z"/><path class="cls-44" d="M60.21,87.37c.5.9,1.3-.1,1.8.2,0,.7-.1,1.4-.1,2.1-1.4.6-3.2.8-2.5,3.1a1.52,1.52,0,0,1-1.1,1.9c-.1,0-.3.1-.4.1-1.7.2-.9-1.3-1-2a9.66,9.66,0,0,1,.1-2.4c-.8-1.8-3.2-.9-4.2-2.4C55.21,86.47,57.81,87.57,60.21,87.37Z"/><path class="cls-45" d="M43.81,103.77c4.5,1,5.5,2.4,3.3,4.7-1.4,1.4-3,1.4-4.6,0C42.91,107,40.31,104.57,43.81,103.77Z"/><path class="cls-36" d="M71,108.87l-4.1-1.1c0-.5-.1-.9-.1-1.4a.85.85,0,0,1,0-1.3h0c.6-1.7,1.9-2.5,3.4-1.4C71.71,105,72.71,106.87,71,108.87Z"/><path class="cls-46" d="M61,110.27c-1.5-1.9-3.1-.2-4.7-.2-.3-4.1-.2-3.8,1.8-4.2C63,104.87,60.91,108.17,61,110.27Z"/><path class="cls-47" d="M76.31,105.17a1.81,1.81,0,0,1-1.7,2h-.5c-1.9-.2-1.8-2.1-2.2-3.4s.9-2.1,1.9-2C76.31,101.77,74.71,104.67,76.31,105.17Z"/><path class="cls-48" d="M66.81,105.17v1.3c-.6-.1-1.6-.5-1.2.6.6,1.6.7,2.4-1.5,2.5s-2-1.3-2.2-2.6c-.3-1.7.7-2.6,2.3-2.5A19.73,19.73,0,0,1,66.81,105.17Z"/><path class="cls-49" d="M47.91,92.57c.4-2,.3-4.3,2.5-5.4,1.9,2.8.6,5.2-.7,7.6C48.61,94.37,47.11,94.37,47.91,92.57Z"/><path class="cls-50" d="M54.61,110.37c-3.8.8-2.7-2.4-3.3-4.1.9-.7,2.2-1.6,2.8-.7A4.16,4.16,0,0,1,54.61,110.37Z"/><path class="cls-41" d="M53,79.17c1.1-.1,2.6-.8,3.3.2s-.4,1.9-.9,2.8l-1.7,2.4C52.41,82.77,53.11,81,53,79.17Z"/><path class="cls-51" d="M76.41,101.37c1.4,0,1,1.8,2.3,1.7.8-.1,1.8-.4,1.8.9,0,.4-.6.9-1,1.2a1.28,1.28,0,0,1-1.8-.2.52.52,0,0,1-.2-.4C77,103.47,75.81,102.67,76.41,101.37Z"/><path class="cls-25" d="M39.81,89.57c-.2.6-.3,1.3-.5,1.9a15.1,15.1,0,0,1-2.6-1.8c-.4-.4-.1-1.1.4-1.4.9-.4,1.8-.8,2.7-1.1l.2.2A1.81,1.81,0,0,1,39.81,89.57Z"/><path class="cls-52" d="M39.81,89.57l.1-2.1,2.1-.1a22.87,22.87,0,0,1,0,6.4,2,2,0,0,1-.8,1C39.61,93.37,41,91.07,39.81,89.57Z"/><path class="cls-52" d="M47.91,92.57c0,1.2,1.4,1.3,1.8,2.2l-1,.6c-2.1-1.1-4.8.9-6.7-1.2a1.47,1.47,0,0,1,.9-1,7.68,7.68,0,0,1,4.5-.4A1.06,1.06,0,0,0,47.91,92.57Z"/><path class="cls-53" d="M52.91,88.07c1.3.9,4.1-.8,4.2,2.4C55.91,89.27,53,91.17,52.91,88.07Z"/><path class="cls-54" d="M42.11,94c1.9,1.6,4.7-.3,6.6,1.4-2.5-.1-5,.8-7.4-.6l.1-1.1c.2-.2.5-.1.7.3Z"/><path class="cls-55" d="M45.41,12c.1-.9.6-2.1-.8-2.1-2.3-.1-2.2-1.8-2.5-3.3.5.3,1.3,1.1,1.6,1,2.9-1.7,11.8-2.6,16.2-2.6,3.5,0,6.8,3,10.5.8a3.39,3.39,0,0,1,.9,1.4c.9,2.4,2.1,4.1,4.8,1.9h1.7c.1,2.1-1.5,4.7,1.8,5.9.7.3.5,1.7-.2,2.5a2.8,2.8,0,0,1-2.8.1,58.89,58.89,0,0,0-18.8-5.9c-3.8-.6-7.2-2-10.8.2-.5.3-.9.7-1.5.5Z"/><path class="cls-56" d="M95,26.17c-3.3.9-5.3-1.2-7.2-3.4a1.63,1.63,0,0,1-1.1-1.5,7.25,7.25,0,0,1,2.5-5.8c1.3,2.7,3.9,4.5,6,6.4,1.2,1.1.4,2.3,1.4,3C96.61,26,96.21,26.57,95,26.17Z"/><path class="cls-57" d="M79.51,17.07c-.2-.8-.4-2.2-.7-2.2-6.9-.8-1.1-3.9-1.1-5.9,2.5,1.2,5.2,2,6.5,4.9a1.24,1.24,0,0,1,.3,1.5c-1.5.7-2,3-4.2,2.4A2.7,2.7,0,0,1,79.51,17.07Z"/><path class="cls-58" d="M76,9c-1.5,1.1-1.7,3.4-4.5,4.6,2.1-3.5-2.8-4.8-1.2-7.8A5.14,5.14,0,0,1,76,9Z"/><path class="cls-59" d="M84.21,15.57v-1.7c2.4-1.7,3.5.5,5,1.6.4,2.2-2.2,3.5-1.7,5.8a1.38,1.38,0,0,1-1.6.3C84.71,19.77,85.21,17.47,84.21,15.57Z"/><path class="cls-60" d="M95,26.17a2.27,2.27,0,0,0,1.6-1.4,2.33,2.33,0,0,1,2.4.6v1.5c-.3,2-1.3,2.6-3.2,1.9C95,28.17,93.81,27.57,95,26.17Z"/><path class="cls-12" d="M85.81,21.37h1.7c.1.5.2,1,.3,1.6a1.75,1.75,0,0,0-1.1,1.8c-3.9-2.7-9.2-3-12.1-7.5-1.3-2.1-4.2-1.5-5.9-1.3a6.87,6.87,0,0,1-6.2-2.1c-2.2-2.4-4.8-.8-7.2-1.2-1.5-.3-1.2,2.2-2.3,3a1.48,1.48,0,0,1-1.6-.8c.2-1.6-.3-2.3-2-1.7-1.3.5-2.8,1.4-3.7-.7,2.2-3.1,7.5-4.6,10.2-2.3,2.6,2.1,5.2.5,7.7,1.2a55.66,55.66,0,0,1,12.9,5.3,5.08,5.08,0,0,0,3.2.5.86.86,0,0,1,.6.3C81.81,19,84,19.87,85.81,21.37Z"/><path class="cls-42" d="M109,61c-1.8,3.6-1.8,3.6-5.7,2.4-2.2-4.8-1.4-7,2.6-7.2,1.6-.1,4.8-1.2,2.1,2.5C107.71,59,108.61,60.17,109,61Z"/><path class="cls-61" d="M102.31,64.07c1.7-.2,2.8,1.5,4.8,1.1,1.8-.3,1,1.9,1,3.2-.1,2.1-.6,3.8-3.2,3.8a6.47,6.47,0,0,1-4-1.6c.4-.8.8-1.4,1.8-1.1.8.2,1.6.7,2-.5s-.6-1.3-1.3-1.5C101.31,66.77,101.31,65.57,102.31,64.07Z"/><path class="cls-62" d="M95.81,28.87c1.6.3,2.4-.7,3.2-1.9a32.66,32.66,0,0,1,2.5,3.6c.3.7.6,2-.4,2.5s-2.3-.2-2.2-1.1C99.11,29.37,96.61,30,95.81,28.87Z"/><path class="cls-41" d="M51.21,14.67a1.88,1.88,0,0,1,1.7.8c1.6.5,4.4-1.8,4.7,2,0,.3,1,.1,1.4-.4,2.7-3.3,3.8-.9,5.4,1.3a24.89,24.89,0,0,0,10.5,8.2,12.07,12.07,0,0,0-1.9.8c-1.3.6-3.6.8-2.8,2.7.9,2.1,2.4.4,3.7-.2,3.1-1.3,7.5,1.3,9.1,5.6-1.7.1-1.6-1.7-2.6-2.1-.8-.4-1.4-1.8-2.3-.6a1.58,1.58,0,0,0,.2,2.2,2.19,2.19,0,0,0,.5.3c2.7.9,2.8,3.5,4,5.4.7,1,1,1.9.2,3a3.18,3.18,0,0,1-3.6,1.4c-2.8-.9-5-1.2-4.3,3,.2,1.1-1.2,2.3-1.8,3.5s-3.7,2.6.4,3.3c.5.1.9,1,.5,1.4-2.3,2.2-.3,4.7-.5,7-.2,2-.5,4.2,2.6,4.5,1.2.1,2,2,1.1,2.4-2.4,1.1-4.1,2.5-4.8,5a.88.88,0,0,1-.7.1c-4.6-4.5-8.3-.6-12.2,1.2-3.5.4-7.1-1.1-10.6,0l-.9-.1a7.41,7.41,0,0,1-3.9.8c-1,0-2.1,1-2.9-.2s.2-2.2,1-3.1c-1.2-1.9-1.9-4.3-5.8-4.5,4.1-.9,4.8-3.1,3.2-6.1,1-.9,2.7-.8,3.3-2.2-.8,1.1-2.2,1.4-3.3,2.2-1.9-1.1-4.1-1.9-2-4.7.5-.6-.3-1.3-.3-1.8,0-2.8-4.9-4.5-1.6-8.1.5-.6-2.1-2.1-3.7-2.5s-6.4,1.6-3-3.4c.4-.6-.4-.8-.9-1s-1.4-.6-1.3-.8c.6-3.5-2-6.4-1.6-9.7.2-1.5,1-3,3.5-1.8,1.9,1,4.2,1.1,3.9-2.7a4.5,4.5,0,0,1,3.6-5.1c2.7-.5,4.3-2.9,7.6-2,1.5.4,2.1.8,2.1,2.3C48.91,20,48.21,16.07,51.21,14.67Z"/><path class="cls-63" d="M42.21,74c0,1.3-2.2,4.1,1.9,2.3,1.1-.5,2.6.1,4,.2a7.12,7.12,0,0,0-1.2,6c.2,1.2-.3,2-1.5,1.9-1.4-.1-1.3-1.2-.8-2.1,1.4-2.7.5-3.6-2.4-3.5a2.06,2.06,0,0,1-2.3-1.9v-.4C39.91,74.87,40.31,73.77,42.21,74Z"/><path class="cls-64" d="M42.11,94c-.2-.1-.5-.2-.7-.3.5-2.1-.5-4.3.7-6.3,1.7.9.2,3.1,1.8,4a1.4,1.4,0,0,1,.3.9,2.83,2.83,0,0,1-1.1,1.5Z"/><path class="cls-49" d="M43,93.77c.1-.6.2-1.3.8-1.6,1.6-.5,0-3.5,2.5-3.3.9,1.2.8,2.6,1,3.9C46,94.07,44.51,93.87,43,93.77Z"/><path class="cls-52" d="M46.31,88.87c-1.8.4.3,3.7-2.5,3.3v-.8a3.36,3.36,0,0,1,1.8-3.8C47.11,87,46.51,88.17,46.31,88.87Z"/><path class="cls-65" d="M62,83.87l-1-.8v-2c.2-1.5-.9-4.1.9-4.3,2.8-.3.8,2.8,1.9,4,2.1-.6.5-5.2,3.8-4.1,2.2.8-.6,2.8,0,4.4,1.7-.3,1.4-2,1.9-3s1.1-2.1,2.5-1.5.6,1.6.3,2.5c-.5,1.4-.4,3-1.8,4C67.81,84.67,64.91,83.67,62,83.87Z"/><path class="cls-66" d="M62,83.87c2.7-1.5,5.6-.3,8.4-.8l-.3.8h0a18.91,18.91,0,0,1-8.2.1Z"/><path class="cls-37" d="M61.91,84c2.8.1,5.5.5,8.2-.1A8.8,8.8,0,0,1,61.91,84Z"/><path class="cls-22" d="M85.81,21.37c-2.8-.1-5-1.1-5.7-4,1.1.1,2.2,0,2.4-1.4s1.1-.6,1.7-.3C86.51,17,85.61,19.37,85.81,21.37Z"/><path class="cls-67" d="M63.61,62.67l.6.6c1.4,1.3,4.6,1.2,4,4s-3.5,2-5.6,2.1-4.1,0-6.2,0c-2.7,0-5.5,0-8.2-.1-1.4-.1-2.8-.3-3.3-2s.4-2.5,1.9-3.1a5.25,5.25,0,0,0,3.2-4c.9-8.3.2-16.7.3-25,0-3.2-1.9-1.7-3.4-1.2-3.6-.6-1.9-2.9-1-4.1,1.5-2.1,3.2-4,4.9-6,1.1-1.4,10-1.9,11.4-.8s.8,2.8.9,4.2a319.45,319.45,0,0,0,0,33.9A4.42,4.42,0,0,0,63.61,62.67Z"/><path class="cls-68" d="M63.61,62.67a6.31,6.31,0,0,1-1.5-4.5c0-10.4-1-20.8.7-31.1a.38.38,0,0,1,.7,0Z"/><path class="cls-69" d="M47.11,33.67c1.1-.8,1.9-2.8,3.5-2.1,1.3.6.8,2.5.7,3.8-.2,8.3.8,16.6-.8,24.9-1.4-2.7.1-5.7-.8-8.4,0-5.1,0-10.2-.1-15.4,0-1,.9-3.2-1.8-2.1A1.21,1.21,0,0,1,47.11,33.67Z"/><path class="cls-70" d="M47.11,33.67l.8.7c-.9.6-2.1,2.3-3,.9a4.66,4.66,0,0,1,.1-5.4c1.9-2.3,4.1-4.4,5.6-7,.6-1.1,1.9-1,3-1h4.9c6.1.1,5.3-.7,5.1,5.1H63c.4-2.7-.8-3.4-3.5-4-7-1.5-9.9,3.4-13.2,7.7C45.51,31.57,44.71,33.27,47.11,33.67Z"/><path class="cls-71" d="M49.71,51.87c1.5,2.7.2,5.6.8,8.4,0,2.4-1.7,3.7-3.5,4.7-1.1.6-1.8,1.2-1.5,2.4.3,1.4,1.5.8,2.3.9,2.7.1,5.5.1,8.2.2a.76.76,0,0,1,0,1,.35.35,0,0,1-.2.1c-3.2.9-6.5.1-9.8.5l-.6.1c-2.6-2.9-2.5-4.7.6-6.1a5.45,5.45,0,0,0,3.4-5.5C49.61,56.17,49.71,54.07,49.71,51.87Z"/><path class="cls-72" d="M56.31,69l-.2-.5c2.8,0,5.7,0,8.5-.1,1.1,0,2.7.7,3.1-1,.4-1.5-1-2-2.1-2.5a6.73,6.73,0,0,1-1.4-1.5c5.6,1.5,5.8,1.8,4.4,6.7h-.7C64.11,69.47,60.11,71,56.31,69Z"/><path class="cls-72" d="M68.61,70c-2.5,1.6-5.4.7-8,.7-5-.1-10.1.6-15.1-.6v-.4c7.6-.3,15.1-.2,22.7,0Z"/><path class="cls-25" d="M39.71,63.37c.2-1.4,2.4-1.4,2.2-3.2-.1-1,.8-1,1.4-.8a1.09,1.09,0,0,1,1.1,1c.1.7.1,1.5-.5,1.8a7.63,7.63,0,0,1-4.2,1.2Z"/><path class="cls-73" d="M68.21,69.67c-7.6.6-15.1.2-22.7,0,3.5-1.5,7.2.1,10.8-.7C60.31,69.27,64.31,68.57,68.21,69.67Z"/></g></g></svg>