<svg xmlns="http://www.w3.org/2000/svg" viewBox="0 0 128.79 124.74"><defs><style>.cls-1{fill:#110f0e;}.cls-2{fill:#272422;}.cls-3{fill:#6c6967;}.cls-4{fill:#383432;}.cls-5{fill:#454342;}.cls-6{fill:#a39f9d;}.cls-7{fill:#746e6b;}.cls-8{fill:#e6e0dc;}.cls-9{fill:#e0dad7;}.cls-10{fill:#d1ccc8;}.cls-11{fill:#837d79;}.cls-12{fill:#fbf8f6;}.cls-13{fill:#d0cac8;}.cls-14{fill:#d7d2ce;}.cls-15{fill:#b9b4b0;}.cls-16{fill:#cbc7c2;}.cls-17{fill:#aba39f;}.cls-18{fill:#b8b1ac;}.cls-19{fill:#645b57;}.cls-20{fill:#6a625d;}.cls-21{fill:#4d4743;}.cls-22{fill:#635b58;}.cls-23{fill:#b7afab;}.cls-24{fill:#aea49f;}.cls-25{fill:#504945;}.cls-26{fill:#272220;}.cls-27{fill:#3e3532;}.cls-28{fill:#c0bbb6;}.cls-29{fill:#c6c2bd;}.cls-30{fill:#bcb6b1;}.cls-31{fill:#bbb4b0;}.cls-32{fill:#eeece9;}.cls-33{fill:#ebe7e4;}.cls-34{fill:#574f4b;}.cls-35{fill:#e0dad6;}.cls-36{fill:#544c48;}.cls-37{fill:#5c5551;}.cls-38{fill:#6e6560;}.cls-39{fill:#e3deda;}.cls-40{fill:#5e5854;}.cls-41{fill:#ede9e7;}.cls-42{fill:#786e6b;}.cls-43{fill:#f0ece9;}.cls-44{fill:#7f7a76;}.cls-45{fill:#544e4a;}.cls-46{fill:#48433f;}.cls-47{fill:#69625e;}.cls-48{fill:#645b59;}.cls-49{fill:#dcd7d4;}.cls-50{fill:#f2eeeb;}.cls-51{fill:#736c68;}.cls-52{fill:#f0ecea;}.cls-53{fill:#433a36;}.cls-54{fill:#6f6965;}.cls-55{fill:#847e7a;}.cls-56{fill:#b0a7a3;}.cls-57{fill:#78726e;}.cls-58{fill:#f0ece8;}.cls-59{fill:#e3dbd8;}.cls-60{fill:#6f6864;}.cls-61{fill:#4b4643;}.cls-62{fill:#514845;}.cls-63{fill:#5f5a55;}.cls-64{fill:#66605c;}.cls-65{fill:#493f3d;}.cls-66{fill:#453d3a;}.cls-67{fill:#dfdee0;}.cls-68{fill:#2b2726;}.cls-69{fill:#cecac8;}.cls-70{fill:#aaa6a1;}.cls-71{fill:#544d49;}.cls-72{fill:#6a625e;}.cls-73{fill:#665e5a;}.cls-74{fill:#e0d9d6;}.cls-75{fill:#5f5653;}.cls-76{fill:#7c7773;}.cls-77{fill:#a39e9b;}.cls-78{fill:#5d5753;}.cls-79{fill:#e7e2de;}.cls-80{fill:#635d59;}.cls-81{fill:#d9d3cf;}.cls-82{fill:#605854;}.cls-83{fill:#7d7572;}.cls-84{fill:#645e5a;}.cls-85{fill:#e6dedb;}.cls-86{fill:#e5dfdb;}.cls-87{fill:#4b4641;}.cls-88{fill:#423d39;}.cls-89{fill:#5d5752;}.cls-90{fill:#58514d;}.cls-91{fill:#ece6e2;}.cls-92{fill:#5b5652;}.cls-93{fill:#ebe8e4;}.cls-94{fill:#7b7571;}.cls-95{fill:#eee9e5;}.cls-96{fill:#332e2c;}.cls-97{fill:#554f4b;}.cls-98{fill:#4e4845;}.cls-99{fill:#403b37;}.cls-100{fill:#e6e0dd;}.cls-101{fill:#e7e1de;}.cls-102{fill:#494440;}.cls-103{fill:#eae4e0;}.cls-104{fill:#595350;}.cls-105{fill:#ebe5e2;}.cls-106{fill:#76716c;}.cls-107{fill:#4c4642;}.cls-108{fill:#595450;}.cls-109{fill:#2d2421;}.cls-110{fill:#c9c4bf;}.cls-111{fill:#514a46;}.cls-112{fill:#f0e7e5;}.cls-113{fill:#504b47;}.cls-114{fill:#4c4540;}.cls-115{fill:#49433f;}.cls-116{fill:#edeae7;}.cls-117{fill:#5b5653;}.cls-118{fill:#eae5e3;}.cls-119{fill:#8d8783;}.cls-120{fill:#faf9f7;}.cls-121{fill:#b3afab;}.cls-122{fill:#484340;}.cls-123{fill:#6e6865;}</style></defs><g id="Layer_2" data-name="Layer 2"><g id="Layer_1-2" data-name="Layer 1"><path class="cls-1" d="M99.77,113.94a56.12,56.12,0,0,1-22.2,9.4c-18.9,3.6-36.7.4-52.2-11.3-20.6-15.6-28.6-36.3-24.2-61.8a54.75,54.75,0,0,1,13.4-27.5c1.2-.3,1.3.6,1.4,1.4-1.1,3.3-3.6,5.8-5.3,8.9a54.73,54.73,0,0,0-5.5,13.5c-4,15.4-2.6,30.3,5.7,44a59.74,59.74,0,0,0,36.8,27.6c3.4,1.1,6.9,1.5,10.3,2.3a80.51,80.51,0,0,0,19-.1,21.77,21.77,0,0,0,9-2.6,4.18,4.18,0,0,1,1-.4c4.1-.2,7.1-3.3,10.9-4.3a2.08,2.08,0,0,1,1.1-.1A.77.77,0,0,1,99.77,113.94Z"/><path class="cls-2" d="M99.77,113.94l-1-.8c.6-3.4,4.4-3.4,6-5.7,2.1-1.9,4.7-3.2,6.1-5.8,4-5.2,8.5-10.1,11.1-16.3a2.36,2.36,0,0,1,1.4-1.2c.7.2,1.1.5.7,1.2C119.27,97.64,111.37,107.34,99.77,113.94Z"/><path class="cls-3" d="M106.07,14.74c13.9,11.3,21.4,26,22.6,43.9-.3.5-.6,1.1-1.3.9-1-.7-1-1.7-1.1-2.8a54.48,54.48,0,0,0-17.4-36.6c-1.3-1.2-2.8-2.3-3.2-4.3A1.19,1.19,0,0,1,106.07,14.74Z"/><path class="cls-4" d="M15.37,24.14c-.1-.6-.1-1.2-.8-1.5,8.9-10.5,19.9-17.6,33.5-20.4.8-.3,1.1.2,1.1.9-1,1.2-2.4,1.3-3.7,1.7a65.1,65.1,0,0,0-17.7,8.8c-1.3,1.2-2.9,2.1-4.2,3.3a74,74,0,0,0-5.5,5.7C17.37,23.44,16.87,24.74,15.37,24.14Z"/><path class="cls-5" d="M127.77,59.54l.9-1c.5,9.2-.5,18.2-4.5,26.7l-.7-.9a2.19,2.19,0,0,1-.3-2.2c2.4-6.9,3.1-14.1,4-21.2A2,2,0,0,1,127.77,59.54Z"/><path class="cls-6" d="M67.67.14c7.3.2,14.5,1.4,21.1,4.6l-.3.5c-.1.1-.2.2-.3.2C81.07,4.24,74,2.94,67,1.54,66.67.74,67.17.44,67.67.14Z"/><path class="cls-6" d="M106.07,14.74l-.1,1a1.68,1.68,0,0,1-1.8-.2,93.39,93.39,0,0,0-13.9-8.4c-.9-.5-1.8-1.1-1.4-2.4v.1A40.86,40.86,0,0,1,106.07,14.74Z"/><path class="cls-7" d="M67.67.14l-.8.8c-5.8,2.3-11.9,2-17.9,2l-.9-.7C54.47-.16,61.07-.16,67.67.14Z"/><path class="cls-8" d="M47.17,118.84c-24.6-6-45.2-29.2-45.1-56.1a59.56,59.56,0,0,1,2.1-16.8c1.3-.2,2.1.7,3.1,1.3,1.2,3.2-.9,6.4,0,9.6a4.87,4.87,0,0,1-.1,1.2c-1.9,5.6-.5,11,.9,16.4,1.7,10.5,7.6,18.7,14.5,26.2a27.19,27.19,0,0,0,4.3,4c2.3,1.6,4.1,4.3,7.5,3.9.9.7,1.7.4,2.4-.4a1.6,1.6,0,0,1,1.5.2c1,1.7,1.4,3.7,3.1,4.9,4.4,2.5,9.5,3,14.3,4.2,1.2.3,3-.2,2.7,2.1C54.47,121.14,50.87,118.94,47.17,118.84Z"/><path class="cls-9" d="M7,46.84c-1.3,1-1.8-.5-2.7-.9,2.1-8.1,6.4-15.1,11.2-21.8l7.9-7.7c.8-.7,1.3-.4,1.8.4-1,3.2-3.9,5-5.8,7.6-.9,1.1-2.1,1.9-2.6,3.3a35.33,35.33,0,0,1-3.8,5.7,13.65,13.65,0,0,0-3.8,8A32.14,32.14,0,0,1,7,46.84Z"/><path class="cls-10" d="M47.17,118.84c2.5-.7,4.8.9,7.2.7,1.4-.1,2.9.6,4-.7s2.8-1.1,4.4-1.1a74.55,74.55,0,0,0,11.6-.8c1.5.1,3.9-.4,4.1,1.3.2,2-2.4,1.8-3.9,2.2s-2.8.6-4.1,1c-4.3-.1-8.5.3-12.8-.2C54.17,120.34,50.57,120.34,47.17,118.84Z"/><path class="cls-11" d="M105.37,107.94c-1.7,2.4-4.9,2.8-6.6,5.1h-.5c-4.1,1.1-7.5,4-11.7,4.8h0a.91.91,0,0,1-1,0c-1.6-1.9,0-2.8,1.4-3.3,2.6-1.1,4.9-2.6,7.4-3.8,1.3-.5,2.3-1.6,3.7-1.9,1.6,0,2.9-1.1,4.4-1.4C103.37,107.44,104.47,106.84,105.37,107.94Z"/><path class="cls-2" d="M57.67,121.14c4.4-.4,8.8.6,13.3-.2a26.12,26.12,0,0,1,6.3-1.3,1.42,1.42,0,0,1,.9.8c-.5.4-1,1.1-1.5,1.2C70.27,121.74,63.87,122.74,57.67,121.14Z"/><path class="cls-2" d="M86.57,117.94c3.8-1.8,7.3-4.3,11.7-4.8C94.57,115.14,91.27,118.34,86.57,117.94Z"/><path class="cls-2" d="M85.67,117.84l.9.2c-2.6,1.7-5.1,3.5-8.5,2.5l-.2-.3C80,117.74,82.67,117.44,85.67,117.84Z"/><path class="cls-12" d="M49,2.94c5.9-1.4,11.9-1.5,17.9-2,7.5.6,14.6,2.6,22,3.7,1.2,2.5,3.9,2.6,5.9,3.7,4,2.1,7.5,4.9,11.2,7.4,8.9,8.2,15.8,17.6,19.2,29.4,1.4,4.8,1.8,9.6,2.6,14.5a67.57,67.57,0,0,1-4.4,24.8,61.81,61.81,0,0,1-12,17.9c-.9.8-1.4.2-1.8-.6a2.44,2.44,0,0,1,0-1.2c3.6-5.2,7.3-10.2,9.8-16.1a40.55,40.55,0,0,0,3.5-12.2,96.14,96.14,0,0,0,.2-17.8c-1.3-14.2-7.6-25.6-17.9-34.8-15.6-14-34-18.2-54.4-14.2a12.41,12.41,0,0,1-2.7.3c-1.2-.2-2.8.2-3.1-1.7Z"/><path class="cls-13" d="M109.87,101.34a1.65,1.65,0,0,0,1.5.9c-1.4,2.5-3.8,4-5.9,5.7l-3.8.6C103.27,104.94,106.37,102.94,109.87,101.34Z"/><path class="cls-14" d="M45.17,4c.9,1,2.2.3,3.2.7,0,1-.7,1.3-1.5,1.6a74,74,0,0,0-16,7.8,4.28,4.28,0,0,1-2.2.6c-.8-.2-1.7-.3-1.5-1.5A46.69,46.69,0,0,1,45.17,4Z"/><path class="cls-15" d="M27.17,13.34c.4.8,1.1.7,1.7.9-.1,1.4-1.4,1.9-2.3,2.7-.6.3-1.2.8-1.9.2l-1.5-.6A11.13,11.13,0,0,1,27.17,13.34Z"/><path class="cls-16" d="M26.47,105.44a9.41,9.41,0,0,1-4-3.9,6.1,6.1,0,0,1,1.2-1.6c.9-.9,2.1-1.2,2.9-2.1-.8-4.3-4.1-6.9-6.6-10a2.14,2.14,0,0,0-2.7-1c-2.1.7-3.2-.2-3.7-2.2a58.71,58.71,0,0,0-4.2-10c-3.2-5.3-2.8-11.2-2.6-17.1V57c.4-1.4,1.2-2.3,2.8-1.9,1.4,1.1,3.1-1.3,4.5.4,1.8.9,2.1,2.6,2.3,4.3,0,2.1-.3,4.1-2,5.6.5.1-.3.2-.1.2,2.7-.3,3.5.7,2.9,3.1.7-.5,0-1.5.3-2.2,0-.6,1.2.2,1-.9-.6-2.5.1-5.4-2-7.6-1-.6-.3-2.9-2.4-2.5-1.4-1-2.7-1.6-4.2-.2-2.1-1.5-3-3.2-1-5.5.4-.4.9-.7.6-1.2-2-3.2.9-4.3,2.5-5.9,1.7-.5,3.9,0,4.4-2.8a2.72,2.72,0,0,1,3.2-2h.2c1.3.3,1.8-.4,2.6-.9a4.19,4.19,0,0,1,2.5.5c1.2,1,2.8.9,4.2,1.5,3.2,3.3,3.2,3.3-.2,5.7-2.6,1.9-3.2,4.6-1.4,7.8a24.54,24.54,0,0,1,2.4,5.2c-.7,6.4,3.1,11.5,6.1,16.2,2.6,4,5.7,7.9,8.1,12.1.5.9,1.6,1.4,2.1,2.3.8,3-1.6,2.5-3.2,3s-2.3.4-3.2-1.4c-1.1-2.5-4.6-2.1-6.5-4.2,1.3,4.5,2.8,8.6,6.6,11.7,2.7,2.2,3,5.5,2.7,8.8a3.91,3.91,0,0,1-1.4,1.7,1.51,1.51,0,0,1-1.4-.7c-1.9-3.6-6.2-4-9-7.2-.7,1.8-1.1,3.9-3.6,3-.9,0-.7.5-.5,1A1.4,1.4,0,0,1,26.47,105.44Z"/><path class="cls-17" d="M10,55.44c-1.5-.2-2.1,1.2-3.2,1.7-2-3.5.7-6.8.1-10.3-1.8-2.5,1.8-3.5,1.5-5.6.5-3.2,2.8-5.6,4-8.6l3.7-5.2A70.22,70.22,0,0,1,27,16.54c5.5-3.8,11.2-7.3,17.7-9.2,1.3-.4,2.6-1.2,4.1-.6,1.2,2-.6,3.1-1.4,4.6a5.33,5.33,0,0,1-2.3,1.6c-1.3.5-1.9-1.1-3-.9-.9.5-.9,1.7-1.6,2.3-2.8-.1-4.9.8-5.8,3.8-.8,2.6-2.7.8-4.1.7-.9.3-1.1,1.1-1.5,1.8-1.4,2.9-2.7,5.8-3.8,8.8a2.7,2.7,0,0,1-.8.7c-4-.2-4.2-.3-5.2,5.1-.5,2.6-1.4,2.8-3.2,1.5-3-1.1-.8,1.1-1.1,1.7-.3,1.8-1.7,3.1-2.4,4.7-1.2,1.9-5,3.2-1.5,6.2a1.34,1.34,0,0,1-.2.9c-4.8.9-1.1,3.4-.9,5.2Z"/><path class="cls-18" d="M40.47,107l1,.5c2.2-.5,2,1.5,2.6,2.7a3.33,3.33,0,0,0,1.6,1.9c1,.6,1.6,1.8,3,1.8a4.1,4.1,0,0,0,5.2.6c.9-.7,2.4,2.6,2.9-.5a1.71,1.71,0,0,1,1.6-1.1,3.38,3.38,0,0,1,1.9.9c.7.7.6,2.1,2,2.1,2.9-1.9,5.9-3.3,9.4-1.9a10.24,10.24,0,0,1,4.6.2c2.9,2.4-.2,2.7-1.3,3.7-5.4,1.3-11,.5-16.4.8-6.1-.9-12.3-1.7-17.9-4.8.4-2.4-2.2-3.4-2.7-5.3l-1.2.1c-.9-1.1-.3-2,.6-2.7a2.17,2.17,0,0,1,3.1,1Z"/><path class="cls-17" d="M10.07,74.14c1.8,3.2,3.7,6.5,4.3,10.1.5,2.7,1.9,2,3.4,1.8.4.8-.1,1.3-.6,1.9s-1.5.5-1.1,1.6c.3.7.7.3,1.1,0a5,5,0,0,1,2.3-.9c2.2.7,2.3,3.3,4.1,4.5.5.3-.5,1.5-1.2,2.1-2.9,2.9,1.2,3.7,1.6,5.6a1.41,1.41,0,0,1-1.5.8c-7.6-7.4-13.4-15.8-15.1-26.5A5.58,5.58,0,0,1,10.07,74.14Z"/><path class="cls-17" d="M10.07,74.14c-.5,1.5-1.5,1.4-2.6.9-1.7-5.8-3.7-11.5-.7-17.4.9.6,2.1,1.5,1.5,2.4-1.9,2.6,0,5.2-.5,7.8C7.27,70.14,10.07,71.64,10.07,74.14Z"/><path class="cls-17" d="M26.47,105.44c0-.4-.1-.9-.1-1.3a1.64,1.64,0,0,1,2.4.3c.1.1.1.2.2.3,1.1,2,2.2.7,3.4.3,1.1.2,2.3-.4,3.1.8a3.06,3.06,0,0,1-1.3,3.7C30.47,110,28.87,107,26.47,105.44Z"/><path class="cls-19" d="M34.07,109.44l1-3.8c1.1-.9,1.7-.4,2.1.8-.2.8-1.1,1.3-.6,2.2,0,.7.3,2,.1,2C35.57,111,35,109.84,34.07,109.44Z"/><path class="cls-20" d="M37.87,108.54c.7,1.9,5.3,1.8,2.7,5.3C39.37,112.24,37.47,110.94,37.87,108.54Z"/><path class="cls-21" d="M27.27,17.24c-4,3-7.5,6.8-11.1,10.2,1.7-4.4,5.6-7.1,8.6-10.5.8.3,1-.5,1.5-.8A1.57,1.57,0,0,1,27.27,17.24Z"/><path class="cls-22" d="M12.47,32.74c.3,3.6-2.9,5.6-4,8.6C8.17,37.64,10.17,35.14,12.47,32.74Z"/><path class="cls-23" d="M74.77,117.94c.1-1.3,2.7-1.4,1.5-3.3-.2-1,.7-1.4,1.2-2a2.44,2.44,0,0,1,2.1-1.2c2,.5,4,.9,5.2-1.5.9-2.5,3.1-2.4,5.2-2.5,1.4.7,2.6,1.9,4.2,2.2a1.4,1.4,0,0,1,.8,1.8c-2.7,1.4-5.4,2.8-8.2,4.2-1,.5-1.9.9-1.1,2.2l-7.8,2.4c-2.4-.2-4.5,1.3-7,.8,1.8-2.4,4.9-1,7-2.7C77,117.54,75.87,118.14,74.77,117.94Z"/><path class="cls-24" d="M95,111.44l-.7-1.5c-1.8-3.8,1.9-5,3.4-7.3,1.2-1,3.1-1.2,3.9-2.8a4.49,4.49,0,0,0,.9-3.2,1.81,1.81,0,0,1,1.6-1.6c.8.8,1.2-.2,1.8-.3,1.9-1.3,3.7-2.7,3.4-5.4a1.69,1.69,0,0,1,.3-1c1-.7,1.9.2,2.8.1.3-.9-.7-1.3-.8-2-1-5.4,1.2-9.5,5-13.1a1.8,1.8,0,0,1,1-.2c.3,0,.5-.1.5-.4a5.23,5.23,0,0,0-1.8-.3c-1.7-2.2-1.6-2.3,1.6-4.2.4-.2,1.2-.4,1.1-.8-.2-1-1.2-.3-1.8-.7a2.32,2.32,0,0,1-1.6-2.6c.7-1.3.9-2.9,2.5-3.5.3,0,.5.5.9.2a2.09,2.09,0,0,0-.6-.4,3.51,3.51,0,0,1-1.9-1.7,3.75,3.75,0,0,1-.1-1.1,1.57,1.57,0,0,1,1.1-1c.7-.5,2.5,1.3,2.2-1.1-.6-3.2-4-3.9-5.5-6.2a3.2,3.2,0,0,1,.3-2.7,2.7,2.7,0,0,1,.7-.8,2,2,0,0,0,1.4-2.3,4.48,4.48,0,0,0-1.6-3c-3.4-2.8-3.3-4.3.2-7.2,3.1,2,4,5.4,5.1,8.5a57.73,57.73,0,0,1,3.2,27c-1.1,11.9-6.2,22.1-13.8,31.1-3.6,3.4-6.6,7.6-11.5,9.4Z"/><path class="cls-25" d="M98.27,109.34c4.1-2.6,7.3-6.3,10.9-9.5.4.1.8.4.8.8,0,.2-.1.4-.1.6l-8.2,7.2C100.37,108.14,99.87,110.94,98.27,109.34Z"/><path class="cls-26" d="M123.17,69.34c.3-9.4-.2-18.6-3.8-27.4a31.89,31.89,0,0,0-4.6-8.5c-3.4-3.2-5.8-7.2-9.2-10.5-8.3-7.9-17.8-13.3-29.2-15.3-6.9-1.5-13.8-1.2-20.8-.5-2.1.2-4.3,1.1-6.5.1-8,1.7-15,5.6-21.8,10.1l-1-1,2.6-2.1a87.66,87.66,0,0,1,19.5-9.4c15.2-3.6,29.9-2.4,44,4.7,16.7,8.4,27.3,21.8,31.4,39.9a50.52,50.52,0,0,1,.2,23.2C122,71.94,123.07,70.54,123.17,69.34Z"/><path class="cls-27" d="M123.17,69.34c.3,1.1-.3,2.4.8,3.3a52.82,52.82,0,0,1-11.3,25c-.9,1.1-1.8,2.1-2.7,3.2l-.8-.8A64,64,0,0,0,123.17,69.34Z"/><path class="cls-28" d="M109.87,88.44c0,.2.1.4.1.6-.7.8.1,2.4-1.4,2.9-2.1,1.8-4,1.6-5.6-.6-.3-.2-.8-.5-.8-.8.1-5.2-5.8-8.9-2.9-14.9-4.3,2.1-4.3,2.2-5.8-1.7-.7-1.7-1.4-2.3-3.1-1.1-1.1.7-2.2,1.4-3.3,2-1.4,0-2.9,2.2-4,.2-1.2-2.4.5-3.8,2.5-4.8,1.5-.7,1-2.1,1.1-3.4.4-3.1,1.8-5.3,5.3-5.4,1.4,2.3-.5,4.4-.3,6.6,1.5-.9,1.4-3,2.7-4.1,1.9.2,2.2,1.6,1.9,3.1-.4,2.3.9,1.9,2.3,1.6-2.7-4.5-2.3-5.6,2.2-7.4-1-1.2-2.8-1.2-3.8-2.5a2.74,2.74,0,0,1,1.2-3.4c2.2-1.9,2.8-4.7,4.1-7,.6-1-1.6-2.5-.6-4.1-2.4.9-2.6,1-2.3,2.7.5,2.3-3.8,2.1-2.3,3.9,1.6,2,1.3,3.2-.1,4.6-1.1,1.2-.3,2.1,0,3.2.4,1.3-.7,1.9-1.5,2.6-2.5,1-2.3-2.8-4.4-2.4-3.8.5-4.2.2-3-3,.5-1.2,2.4-2.8-.6-3.6a1.28,1.28,0,0,1-.5-1.4c2.3-2.9.1-5-1-7.4a3.24,3.24,0,0,1,1.2-4.4c2.2-1.5,1.6-2.9-.3-4.2s-3.3-3.6-6.2-1.9c-.9.5-2-.2-2.8-.9-1-.9-1.6-.2-2.3.3a21,21,0,0,1-7-1.6c-1.6-.6-2.2,2.4-4.1,1.2-4.9-.6-9.8-.8-14.6.7-.7.2-1.5.3-2.2.5a22.39,22.39,0,0,1-4,2.2c-2.2,1-5.9,1-4.9,5.2a.91.91,0,0,1-.3.7c-2.8,2.1-5.2,4.7-8.2,6.5-1.3.8-.9,1.3-.6,1.9a13.29,13.29,0,0,1,1.7,5.2c.2,1.4.3,2.9-1.8,3.1-2.2-3.2-4.6-6.4-3.8-10.5.5-2.7,3-3.5,5.3-4.5-.1-1.7-2.6-1.9-2.3-3.8-2-1.8-5.1-1.8-6.5-4.4-.2-2.2,1.2-3.6,2.6-5h0a4.63,4.63,0,0,1,3.2-1.3c1.5.3,2.5,1.1,2.5,2.7-.2.3-.6.3-.9.5-.9.6.2.7.3.7,1.6.2,2.9,0,2.4-2.1a1.4,1.4,0,0,1,.2-1.4c3.3-1.4,1.1-3,.2-4.5-.9-1.9-.4-2.9,1.8-2.9,1.8-.1,2.1,3.1,4.3,1.9.9-.5,2-.2,2.9-.8a3.55,3.55,0,0,1,.9-.4,8.64,8.64,0,0,0,1.6-1c1.3-1.3,3.3-1,4.8-1.8a3.55,3.55,0,0,1,1-.2,12.1,12.1,0,0,1,1.9.1c-1.7-1.1-2.4-1.3-2.6-.8-1.8.3-2.9-1.9-4.7-1.3-2.2.6-1.2,3-2.4,4.2-1.9.3-2.5-1.2-3.4-2.2-.1-1.9,1.3-3.2,1.9-4.8-.1-1.3-.8-2.9,1.4-3.2,1.3-.1.8,3.6,3.1,1.5l1.6-1.6c1.4-.5,2.8-.2,4.2-1.4,1.9-1.6,5.6-.3,7.1,1.8a5.23,5.23,0,0,0-1.2,1.7c-.7,3.6-.7,3.6,1.5,4.3,0-1.9-2.2-3.5-.6-5.6,3.7-2.1,6.2,1.3,9.4,1.9,1.6.2,2.9.5,2.8,2.6,0,.5.2.8.1.3a1,1,0,0,1,.3-.1c.7-.7,1.1-1.9,2.5-1.7a3.55,3.55,0,0,1,1.1,1.6c.6,1.1,3-1.2,2.8.7-.1-.7-2-1.5-1.3-3.3a2.65,2.65,0,0,1,.5-.6c1.6,1.7,4.4-.8,5.8,1.8.3,1.4,2.2,2.1,1.6,3.9-.1.2.4-.4.7-.4a2.56,2.56,0,0,1,1.9.6,1.8,1.8,0,0,1,.6.9c.2,1.6,0,3.4,2.3,3.8,1.9.3,2.7-.9,3.2-2.5,1-1.3,1.7-2,3.1-.1.8,1,2.5,1.1,3.7,2.3,2.4,2.5,3.4,5.7,5.3,8.3a2,2,0,0,1,.1,1.7c-1.8.6-1.9.8-1.6,1.6.1.2-.2.5.1.7a1.6,1.6,0,0,1,.7-.9,1.7,1.7,0,0,1,1,0,8.34,8.34,0,0,1,2.1,1.6,4.46,4.46,0,0,1,1.5,3.3,10.08,10.08,0,0,1-1.2,2.3c.6,3.4.9,3.6,4.6,2.2a2.21,2.21,0,0,1,1.6,0,4.73,4.73,0,0,1,2.4,2.8c-.2.8-.4,1.5-.6,2.3a1.53,1.53,0,0,1,0,1.6,1.69,1.69,0,0,1-1,.3c-1.7-.2-2.8-1.6-4.7-1.8-.4,3.3,3,2.9,4.2,4.5a1.69,1.69,0,0,1,.3,1,2,2,0,0,1-1.1,1.9c.1.2-2.4.2,0,.5,1.2.1,1.9.8,1.5,2.1-.2.5-.8.6-.9,1.1a2.75,2.75,0,0,0,1.6-1,10.1,10.1,0,0,1,1.3-1.6.74.74,0,0,1,.9.1v.8c1.3,2,0,3.7-.8,5.5a2.27,2.27,0,0,0,1.7,2.4c.7.7,1.2,1.4.6,2.3,0,1.2-4.5.5-1.4,3.1a1.09,1.09,0,0,1-.1,1.5c-2.7,4-5.1,8.1-4.7,13.2-1.2.7-1.4-1.2-2.3-1C108.67,86.54,109.67,87.44,109.87,88.44Z"/><path class="cls-29" d="M87.27,74.24c.7-2.4,3.2-2.8,4.8-3,1.4-.2,2.1,2,2.5,4,.6,3.1,2.1.7,3.1-.1.6-.4.7-1.6,1.7-1.2,1.3.5.6,1.6.3,2.4-1,3.7-.5,6.9,2.8,9.2.9.6,1.2,1.3.1,2.1-2.1,1.7,0,2.2.9,3a5.85,5.85,0,0,0,1.4,2.7c.8.9.4,1.7-.8,1.9l-1.4,1.5c.1,1.2-2,1.9-.8,3.3-.1,2.6-2.6,2.2-4,3.1-2-.6-2.6,2.7-4.8,1.8a4.18,4.18,0,0,0,.4,1,2.05,2.05,0,0,1-.7,2.7c-1.3,1-1.8-.6-2.8-.9-1,1.7-4.9-.5-4.5,3.2-2,.6-4,1.8-6.3.7l-1.8,1.7c-2.2,1.2-4.7.5-6.9,1.7-2.2-1.2-6.2-.4-6.2.4-.1,4.4-2.1.7-3,1-1.5-1.4-.3-3.4-1.1-4.9a2.15,2.15,0,0,1-.6,2.5,1.5,1.5,0,0,1-1.6-1,4,4,0,0,0-2.6-.7c-.5.1-1,.1-1.4.2-1.2.1-1.2,1.1-1.5,1.9-.4,1.2-1,2.1-2.5,1.1-.7-1.3.2-2.8-.7-4.1-.5.2-1.1.7-1.7.2-1.4-1.5-1.7,1.2-2.8.8a1.55,1.55,0,0,1-1.6-1.4c.5-1.9-.6-3.4-1.5-4.8-.6-3.2-.1-6.3-3.7-8.9-4.2-3-5-8.5-6.8-13.3,1.5,1.7,4.6.3,5.3,3.2a1.5,1.5,0,0,0,.9.7c4.2-2.1,3.1,1.5,3.6,3.6.6-2.7,4.7.7,4.6-3.1,1.2-1.5,3.1-.7,4.5-1.6,1.1-1.1.6-2.7,1.4-3.8,2.3,1,2.7-3,5.1-1.9.6,1.7,3.4,1.5,3.3,3.8.5,0,.5-.8,1.1-.6,1.5.7,2,2.3,3.4,3.2a2.82,2.82,0,0,1,.4,1.5c0,1.7-2.4,3.3-.2,5.1-.1,1.2.2,2.7-1.6,2.9s-3.6.2-4.5-1.7c.7,2.3,2.7,1.7,4.5,1.8,2,.1,2-1.5,2.4-2.8.5-.6,1-1.2,1.8-1.1a2.28,2.28,0,0,0,1.9-.4A2.24,2.24,0,0,1,72,94c0,.1.1.2.1.3.3.8.5,1.9,1.8,1.2.7-.6.6-1.3.6-2.1,0-1.7.8-2.4,2.5-1.5.5.9.1,1.8.2,2.4.3-1-.2-2.2-.3-3.4,3.7-1.5,4.6-1.3,5.2,1.4-.1.7-1.2.6-1.2.7,2,.7,1.3,2.5,1.7,3.9.1.5.1,1.2.7,1.2.9,0,1.3-.7,1.3-1.6a22.32,22.32,0,0,0-1.8-9.5c-1.2-1.4-.5-3.5-1.8-4.9-.3-2.7-1.5-4.6-4.3-5.2.5-2.2,2.7-1.3,4-2.1a1.93,1.93,0,0,1,1-.3C83.67,77,85.47,75.84,87.27,74.24Z"/><path class="cls-30" d="M56.77,81.24c-.8,0-1.8.2-1.9,1-.5,2.6-1.8,1.1-2.9.7a13.52,13.52,0,0,1-2.9.5c-1.6,0,.2,1.5-.8,1.8-1.4.6-2.2-.5-3.2-1-1.1.5-.5,2.1-1.7,2.5a30.55,30.55,0,0,0-4-6.1c-1.6-2-3.8-4.4-4.5-6.3-1.5-4.2-5-7.4-5.6-12-.2-1.6.5-3,.3-4.5,2.5-2.5.2-4.7-.4-7-.2-.8-1.4-1.4-1-2.4s-.3-2.2,1-2.8c1.5-.7.9,1.7,2.5,1.5.5-2.2,0-5.5,4.4-4.7,1.4.2,2.8-2.4,1.5-4.3-1.1-1.7-.5-2.7,1-2.7,3.4,0,5.8-2,8.5-3.3,1.2,1.8.8,3.8.8,5.7-.1,2.5.8,3.3,3.2,2.6a24.13,24.13,0,0,1,10-.7c5.3.7,7.3,3.7,6.1,9a7.5,7.5,0,0,1-3.4,4.2c-1.1.5-2.2.9-3.2,1.4-.8.4-1.7,1-2.3-.2-.5-1,.1-1.7.8-2.4s2.8-1.2,2.3-2.3a31,31,0,0,0-2.6-4.7c-.8-1.1-2.1-.8-3.2-.2s-2.2,1.4-3.3,2c-4.9,2.3-4.9,2.3-2.8,7.1.4,1,1.1,1.9-.1,2.7-.8.6-2.2.7-2.5,0-1.1-3.1-1.9-.3-2.8,0a1.91,1.91,0,0,1-1.3.2c1.5,2.6,4.6,2.1,7,3.4,1,.5,2.3.5,2.8,1.8,0,1.6-1.4,2.2-2.3,3.1-1.2,1.3-2.9,2-3.2,4.1-.7,5-.1,5.9,5.6,7,.8.9,1.3,2.1,2.8,2.1A2.39,2.39,0,0,1,58,80,1.63,1.63,0,0,1,56.77,81.24Z"/><path class="cls-31" d="M24.77,29.64c.9,2.4-2.4,2.8-2.4,4.7a9,9,0,0,0-.9,1c0,.9,1.3,1.1,1,2.1-.2,1.3-.8,1.3-2.4,1.2-1.2-.1-3.2.1-3.1,2,.1,3.9-2.4,2.7-4.4,2.5-.7-2.2,1.3-3.3,2.1-4.8a3.15,3.15,0,0,1,1.4-2.3c.4-.9,3.3,3.1,2.1-1.2-.3-1.2.7-3,1.3-4.4C20.87,27.24,22.87,29.14,24.77,29.64Z"/><path class="cls-32" d="M22.07,94.54c.8-.6,1.5-1.2.7-2.2-.6-.8-1.2-1.3-1.6.3-.1.3-2.2.1-1.1-1.5.8-1.2.8-1.8-.8-2.1-.4-.8.1-1.3.8-1.6,3.8,2.2,5.3,6.4,8.1,9.5,1,1.1-.5,1.4-1.3,1.6-2.1,1.3-3.4.2-4.8-1.3C21.17,96.24,20.67,95.44,22.07,94.54Z"/><path class="cls-33" d="M37.17,106.34c-.7-.3-1.1-1.3-2.1-.8h-2.3c-.9-.5-1.2-1.9-2.9-1.2a2,2,0,0,1-2.8-2c2.3.2,2.3.2,2.7-4.1,3.3,3.7,8.7,3.9,10.7,8.7A5.44,5.44,0,0,0,37.17,106.34Z"/><path class="cls-34" d="M43.37,86.74a17,17,0,0,1,.2-3.9c.3-1.3,1-.7,1.5-.1.7,1.2.6,3.5,3,2.4.9-.6-3.4-3,.8-2.4,1.8,1,2.2,2.8,2.4,4.7-1.7,1.4-3.7.3-5.5.9C44.87,88.14,43.67,88,43.37,86.74Z"/><path class="cls-35" d="M16.87,57.94c1.8-1.2,1.4.5,1.7,1.3.8,2.8.3,5.9,1.6,8.7-1.7.5-1.4-1.3-2.3-1.6-3.3-.6-2-3-2-5C16.27,60.34,16,58.94,16.87,57.94Z"/><path class="cls-36" d="M16.37,61c.1,1.9-1,4.1,1.5,5.3a12.25,12.25,0,0,0,.2,1.9c.5.9.3,1.5-.7,1.7a2.05,2.05,0,0,1-1.7-.5c-.9-1.4.8-.3,1-1,.4-1.2.3-2-1.2-2-1.2,0-2.5.6-4.1-.7,3.8-.4,4-3,4.1-5.6C16.27,60.14,16.67,60.24,16.37,61Z"/><path class="cls-37" d="M22.07,94.54a4.19,4.19,0,0,0,4.5,4H27l-3,2.2C19.37,97.94,19,96.54,22.07,94.54Z"/><path class="cls-38" d="M27.07,102.44c2,2.9,3.4,1.8,4.7-.9.8,1.4-.1,3,.9,4.1-2.7,1.7-4.3-.9-6.4-1.5l-1-1.5Z"/><path class="cls-39" d="M20.17,34.34h2.3c1.5,2.3,5.6,1.1,6.2,4.6-1.4.9-2.7,1.2-3.5-.7C23.67,36.84,21,36.84,20.17,34.34Z"/><path class="cls-40" d="M20.07,42.14c.9,2.9-1.3,4.9-1.6,7.5-.1.8-1.1.3-1.6.1-.7-.4-.9-.9-.1-1.4C18.87,46.84,19.37,44.54,20.07,42.14Z"/><path class="cls-41" d="M20.17,87.44l-.8,1.6-2.2.7a1.47,1.47,0,0,1-.3-2.1l.2-.2.8-1.5C19.47,84.94,20.07,85.84,20.17,87.44Z"/><path class="cls-42" d="M16.37,61l-.8-.8a6.61,6.61,0,0,0-1.7-4.8h0c2-1.4,2-1.4,3,2.5C16.77,59,17.07,60.14,16.37,61Z"/><path class="cls-43" d="M42,106.14c1.9,1.2,3.4,2.5,1.5,4.8-1.1-.9,0-3.2-2.1-3.5A1.13,1.13,0,0,1,42,106.14Z"/><path class="cls-44" d="M20.17,34.34c1.5,1.6,3.8,2,5,3.9l-2.6-.9C22,36.24,18.67,37.14,20.17,34.34Z"/><path class="cls-17" d="M14,55.44c-1.3-1-2.6,2.6-4,0h0c1.4-2.6,2.7-2.3,4,0Z"/><path class="cls-31" d="M67.57,14.24c-2.2.9-3.7-1.1-5.4-1.6a17.86,17.86,0,0,0-4.6-.9h0c-1.5-1.7-5.8-2.6-6.7-1.2-1.5,2.3-2.8.7-4.2.3l2.4-3.7c9.4-2.4,18.8-2.8,28.2-.3,1.1,2.1.8,3.7-1.8,3.7-1.8,0-2.5,1-3.3,2.1-1,.8-2.2-.2-3.2.2C68.37,13.24,67.77,13.54,67.57,14.24Z"/><path class="cls-31" d="M34.87,21.84c-2.8-.2-1.9,1.4-1.3,2.8-.3,2.1-2.2.5-3.1,1.4a6,6,0,0,1-1.5.9c-.8.4-.5,1.3-.8,1.9a5.42,5.42,0,0,1-3.3.8c.5-3.4,1.4-6.7,3.8-9.3,1.5,0,1.3-1.2,1.5-2.1.1-.1.1-.2.2-.3,3.3,1.5,4.1-1.2,5.2-3.2,1.5-2.8,3.5-.3,5.2-.6.9,2.1-.6,3.3-1.8,4.6a.55.55,0,0,1,.3.5.44.44,0,0,1-.1.3c-.8.5-1.9.5-2.6,1.2A5.45,5.45,0,0,1,34.87,21.84Z"/><path class="cls-45" d="M16.07,35.94a1.91,1.91,0,0,1-1.1,2.3c-.1,0-.2.1-.3.1-1.1-.8-2.2-1.7-1-3.1S15.27,35.64,16.07,35.94Z"/><path class="cls-31" d="M45.07,12.44c0,1-.4,2.2-1.3,2-1.6-.4-.8-2.5-1.8-3.5C43.87,9.74,43.47,13.14,45.07,12.44Z"/><path class="cls-46" d="M30.07,18.24c-.5,1.1,1.7,1.4.9,2.3a1.55,1.55,0,0,1-2.1.2,1,1,0,0,1-.4-.5C28.77,19.44,28.37,18,30.07,18.24Z"/><path class="cls-47" d="M48.37,111.94l1.3-1.7c1.8,1.3-.8,3.3.7,4.7,2.5,1,1.5-1,1.6-1.9.2-2,1-2.2,2.3-.8a2.59,2.59,0,0,1-.5,2.8c-2.3,1.9-4.3,1.9-5.7-1.1a1.3,1.3,0,0,1,.1-1.9C48.27,112,48.37,112,48.37,111.94Z"/><path class="cls-48" d="M53.77,115.14a3.1,3.1,0,0,1,.5-2.8l1.7-.5c.9.5.9,1.4.8,2.3.1,1.1,2.5,1.3,1,2.9C56.67,115.94,54.27,117.54,53.77,115.14Z"/><path class="cls-49" d="M48.37,111.94l-.3,2.1c-1.6.7-1.9-1.1-2.9-1.6,0-.7.2-1,1-1.2s-.6-2.7,1.3-2.3C48.87,109.24,48.07,110.94,48.37,111.94Z"/><path class="cls-50" d="M59.87,114c.2-.9-.2-1.8.7-2.7,1.8,1.4.6,3.4,1,5C59.67,116.64,60.17,115,59.87,114Z"/><path class="cls-51" d="M70.87,115c2-1.9,4.5-1.4,6.9-1.7l-1.4,1.3Z"/><path class="cls-52" d="M56.77,114.14c-.8-.6-.7-1.5-.8-2.3,1.8-1.4,2,0,2.4,1.3Z"/><path class="cls-53" d="M17.07,87.44l.1,2.3c.1.8,1.3,2.3-.7,1.8a3.83,3.83,0,0,1-2.1-3.1C14.27,86.74,16,87.54,17.07,87.44Z"/><path class="cls-54" d="M90.27,107.74c1-1.9,1.7,2.1,2.9.1,1-1.7-.9-2.2-1-3.5,3.3.7,4.5-1.3,4.6-4.3,1.8.7,1.3,2,1.4,3-.2,1.5-1.1,2.1-2.4,2.8s-1.3,2.6-1.4,4.1C92.17,110.54,90.67,110.24,90.27,107.74Z"/><path class="cls-55" d="M79.47,111.64c2.1-.2,4.1-1.1,6.3-.7C83.87,112.94,81.87,114.24,79.47,111.64Z"/><path class="cls-56" d="M71.67,12.44c.8-1.5.3-4.2,3.8-2.7,2,.9,1.5-1.6,1.7-2.8,16.2,3.6,29,12.1,37.5,26.5a6.15,6.15,0,0,1-1.2,3.5c-.6,1-.4,2.3.9,2.4,3.8,0,2.8,2.9,3.2,4.9-.8.5-1.3,1.3-2.1,1.9v.8a5.34,5.34,0,0,1-2.3-2.4c-2-.9-5.4.2-5.1-3.8,1.3-2.3-.2-3.3-2-4.1a1.92,1.92,0,0,1-1.7-1.7c1.3-1.4,1-2.4-.7-3.1-.5-.3-1.6-.6-1.6-.8.3-3.7-3.2-5.2-4.8-7.8-.6-1-2.6-3.8-5.1-1.5-1.9.4-3.6.5-4.4-1.8.4-2.2.7-4.1-2.3-4.8-1-.2-1.1-1.7-1.6-2.5-.7-1.3-1.2-3-3.3-2.5-.5.4-1,.8-1.6,1.2a7.52,7.52,0,0,1-5.8,1.6A1.44,1.44,0,0,1,71.67,12.44Z"/><path class="cls-56" d="M113.17,54.84c0-.3-.1-.6-.1-.9a3.1,3.1,0,0,1,.9-1.8,5.39,5.39,0,0,1,.7-1.3c.1-.5.1-1,.2-1.6,2.7,1.5,5.5,2.9,6,6.5-.9.5-2,.5-2.8,1.2l-1,.9-.7-.1c-1-.5-.8-1.9-1.9-2.3A3.1,3.1,0,0,1,113.17,54.84Z"/><path class="cls-57" d="M104.27,95.24c.6-.7,1-1.4,0-2.2s-1.4-1.4-.6-2.5c1.4,1.6,2,1.7,4.5.8,1.2,2.3-1,2.8-2.1,3.9C105.47,95.54,104.77,96.64,104.27,95.24Z"/><path class="cls-58" d="M109.77,84.54c2.5-1.4,1.1,2.1,2.6,2,.6.5,1.2,1,1.7,1.5.3.3.7.8.1,1.2-.2.1-.7-.2-1.1-.2C111.07,88.14,108.37,87.84,109.77,84.54Z"/><path class="cls-59" d="M106.07,95.34c.5-1.4,2.2-2.1,2.1-3.9,1.7,0-.1-2.6,1.8-2.4C111.47,92.84,108.67,94,106.07,95.34Z"/><path class="cls-60" d="M109.77,84.54c-.5,2.6,2,3.2,3.3,4.5-1.3,1-2-.8-3.2-.7C105.87,87.24,108.67,85.84,109.77,84.54Z"/><path class="cls-61" d="M118.57,68.74c-.2-.8-.4-1.6-.6-2.3,1-.4,2.2-1.5,2.7.4S120.17,69.14,118.57,68.74Z"/><path class="cls-62" d="M118,56.94c-.5-3.7,1.6-1.4,2.8-1.3C121.27,59.24,119.47,57.74,118,56.94Z"/><path class="cls-63" d="M117,73.44c0-.5.1-1,.1-1.5a1.9,1.9,0,0,1,2.6.5l.3.6a1.49,1.49,0,0,1-.4,1.4C118.37,75.24,117.77,73.94,117,73.44Z"/><path class="cls-64" d="M102.07,100c-.6.1-1.5.5-1.8.3-.8-.7-.1-1.4.5-1.9s1.4-1.2,2-1.7C104,98.14,103.87,99.24,102.07,100Z"/><path class="cls-65" d="M118.67,60.34c1.3-.2,2.3,0,2.2,1.7,0,.7-.3,1.3-1,1.2-1.3-.1-1.4-1.2-1.5-2.2A.52.52,0,0,1,118.67,60.34Z"/><path class="cls-56" d="M118.67,60.34a1,1,0,0,1-.4.7c-.8,1-.5,2.6-2,3.1l.8-5.5A3,3,0,0,1,118.67,60.34Z"/><path class="cls-66" d="M115.37,46.14c-.2-1.7-.2-3,2.1-1.9C118,46.14,117.87,47.44,115.37,46.14Z"/><path class="cls-29" d="M75.57,32c.3-.6-.8-2.6,1.5-1.4,1.6.8,3.6,4,5-.2,2.7,1.2,4.5,3.5,6.9,5.1.8.5,1.7,1,.8,2.1a12.1,12.1,0,0,1-2,1.9,3.53,3.53,0,0,0-.7,5,7.64,7.64,0,0,0,.9.9c1.7,1.2,3.1,2.3.1,3.7-.8.3-.8,1.3-.7,2.1.2,1.1.9,1,1.8.7a1.65,1.65,0,0,1,2.1,1.1v.1c.3,1.2-1.2.5-1.5,1.1-.7,1.3-1.3,2.7-1.9,4,1.3.9,2.3-.5,3.4-.3,1.6,1,2.1,2.3.8,3.9-2.7,1.3-5.4,2.5-4.2,6.4.4,1.3-.3,2.2-1.2,3-1.5-1.2-1.7-3-1.7-4.9-1.7,1-3.3.4-4.9.5H69.67c-1.8,0-3.6-.2-4.5-2.2-.5-1.8.8-2.8,1.9-3.9,3.5-3.2,7.7-5.7,10.3-9.8a6.06,6.06,0,0,1,1.9-2c2.8-2.1,1.6-5.1,1.7-7.8-2.4-1.9-3.6-4.8-6.2-6.4-.7-.5-1.8-.8-1.5-1.9C73.47,30.94,74.87,32.74,75.57,32Z"/><path class="cls-67" d="M79.47,49.14l-1.7,1.7c-1.2,1.4-1.9,3.3-4.2,3.3-.2-.1-.6-.3-.5-.5,1-5.5-4.1-8.1-5.8-12.3-.8-2-3-2.3-5-2.2a23.94,23.94,0,0,1-9.2-1c-1.7-.5-3.9-.6-4.2-2.8s1.5-3.1,3.2-3.9c4.1-1.2,8.3-.7,12.5-.5,3.9-1.7,7.5-.7,11.1,1-.4.9-1.3.5-2.4.5,4.1,1.9,5.9,5.4,8.7,8C80.87,43.44,82.07,46.84,79.47,49.14Z"/><path class="cls-29" d="M96.67,58.64c-2-1.2-3.2-2.4-.3-4.1,1.1-.7,1.9-2-.2-2.9-2.4-1-1.3-2.6.2-3,2.5-.7,3-1.4.8-3-.7-.5-1.3-.9-.6-1.8a.9.9,0,0,1,1.4-.2l.2.2c.8,1,1.6.3,2.4,0S100,41,102,42c1.1.5.1,1.6-.1,2.4a3,3,0,0,0,1.6,3.5c-1.4,4.1-4.2,7.3-6.8,10.7Z"/><path class="cls-68" d="M66.07,49c1.1-5.8-.4-7.8-6.2-8.4a20.86,20.86,0,0,0-9.9,1.2c-3,1.2-3.7,0-3.4-2.7.2-2.3.3-4.6.5-6.9l2.1-.1a1.64,1.64,0,0,1,.2,1.2c-1,4.2-.3,5,3.7,5.1l10.1.3c3.4.2,5.1,2.9,6.1,5.8a4.45,4.45,0,0,1-2.1,5.7C66.27,50.14,65.77,49.84,66.07,49Z"/><path class="cls-31" d="M73.17,12.54c2,.2,3.6-1.1,5.4-1.6,1.8.3,1.3-.7.9-1.6,3.4-1.7,4.1,1.3,5.3,3.2.5.8.2,2.3,1.5,2.5,4.1.6,2.7,3,1.9,5.2-.9.5-1.3-.8-2.2-.6l-.4-.3c-.8-1.6-1.4-3.4-3.7-3.3a1.56,1.56,0,0,1-.8-.6,7.65,7.65,0,0,0-5.5-1.2c-.9.5-.3,2.6-2.2,2.2a1.8,1.8,0,0,1-.9-1.6C72,13.84,72.67,13.24,73.17,12.54Z"/><path class="cls-29" d="M95.07,60.94c-.1-1.2,1.1-1.5,1.5-2.3h0c2.4-.1,4.1,1.3,5.9,2.9a5.67,5.67,0,0,1-1.3.8c-1.4.3-3.3-.2-3.7,1.9-.3,1.8.7,2.5,2.2,3.1.9.3.9,1.2.4,1.9-1.2,1.8-2.8-.1-4.3.4-1,.3-1.2-1.6-.9-2,1.2-1.6.5-2.6-.6-3.6C93.37,62.74,94.27,61.84,95.07,60.94Z"/><path class="cls-69" d="M81,65.64c.9-.6,2.6,2,3.1-.9.2-.9,1.3.4,1.5,1.1.4,1.7.6,3.5.9,5.2-1.7.3-3.7.9-3,2.9s2.5-.8,3.8.2a3.62,3.62,0,0,1-3.5,2.9c-1.8.1-.6-2.3-1.9-2.9l-.4-.3c-1.1-1.9,0-4.3-1.3-6.2a3.81,3.81,0,0,1-.3-1C80.07,66.14,80.67,65.94,81,65.64Z"/><path class="cls-70" d="M95.07,60.94c-.3,1-.5,2.1-.8,3.1,0,3-1.2,5-4.7,5.6,1.8-2.6,1.1-5.5,2.3-8a5.47,5.47,0,0,0-.8-3.9C94,56.94,92.77,61.24,95.07,60.94Z"/><path class="cls-71" d="M85.87,19.64c1.5-2.5,1.3,1,2.2.6,1,1.3,2.6,1.2,3.9,1.6.5,2.9-1.6,3.3-3.5,3C85.47,24.44,84.47,22.54,85.87,19.64Z"/><path class="cls-72" d="M114.47,52.64l-1.4,1.4c-2.1-.5-4.3-.8-5.1-3.4-.2-.8-.8-1.8,0-2.5s1.9-.3,2.7.4,2,1.5,3,2.2a1.91,1.91,0,0,1-2,.7C112.57,51.84,114.07,51.14,114.47,52.64Z"/><path class="cls-73" d="M113.17,54.84l1.3-.1c1.2,1.4,1,3.1.8,4.8-.8,2.9-3.2,1-4.7,1.4a1.05,1.05,0,0,1-.5-.9c.1-.8.8-.8,1.5-.7s2,.8,2.2-.6-1.1-1.1-1.9-1c-1.7.1-2.2-.9-2.4-2.5C110.57,54.74,112.47,58.44,113.17,54.84Z"/><path class="cls-74" d="M108.47,40.44c.1,2.1.8,3.4,3.2,2.7,1.1-.3,1.2.5,1.3,1.3l-1.6.1c-3.9,1.1-4.6.8-5.5-3a3.19,3.19,0,0,1,1.8-1.8C108.27,39.64,108.57,39.84,108.47,40.44Z"/><path class="cls-75" d="M73.37,16.44c.8-.4,1.3-.7,1-1.9-.3-1.7.7-.3,1.1-.3l2.7,5.9c-2.2-.2-1.7-2.4-3.1-3.1-1,.2.4,2.7-1.5,2.1C72.17,18.64,73.27,17.34,73.37,16.44Z"/><path class="cls-76" d="M48.87,19.74c-.9,2.2-3.8.1-4.7,2.2-2.4-1.5-1.6-3.2-.5-5C46.37,16.24,47.67,17.94,48.87,19.74Z"/><path class="cls-77" d="M49,32.74V32c5-2.5,10.2-1.9,15.5-1-4.4.3-8.8-.4-13,1.1C50.67,32.84,50.07,33.74,49,32.74Z"/><path class="cls-78" d="M49.07,17.94c.9-.5.2-1.1,0-1.6s-1.2-1.2-.6-2a1.69,1.69,0,0,1,1-.3c.9.2,2.1,1,1.7,1.7-1.2,2.8,1.4,2.3,2.6,3.3-1.3.5-2.5,1-3.9.3C49.37,19.14,48.57,18.94,49.07,17.94Z"/><path class="cls-31" d="M32.57,30.44l1.7-.6c-.7,1.2-1.4,2.4-2.2,3.5s-1.8.7-2.7-.1c-.5-.5-1.6-.8-1.2-1.7.5-1.2,1.6.1,2.4-.3a2.34,2.34,0,0,1,1.2-1A.83.83,0,0,1,32.57,30.44Z"/><path class="cls-79" d="M57.57,11.74c.4,1.9.2,3.9,2.5,5,1.1.6-.2,1-.9,1.2-4.5.4-3.1-2.9-3.3-5.2a2.06,2.06,0,0,1,1.7-1Z"/><path class="cls-80" d="M30.07,25.84c.5-.2-1-3.5,1.3-.9.9,1,1.5.5,2.1-.3,1.9.4,1.9,1.9,1.6,3.2s-1.4,1.3-2.5.9c-.5-.5.6-2.4-1.5-1.7C30.67,27.24,30.07,26.64,30.07,25.84Z"/><path class="cls-81" d="M30.07,25.84c.4.3.9.8,1.2.8,2.4-.4,1.7,1,1.4,2.2l-.2,1.7h-.6a3.49,3.49,0,0,1-3.3-3.7A1.39,1.39,0,0,1,30.07,25.84Z"/><path class="cls-82" d="M109.57,66.64c3.4,1.4,4.8.2,4.8-3-.4,1.8,1.9,3.8,0,4.9C113.27,69.24,110.77,69.54,109.57,66.64Z"/><path class="cls-83" d="M35.67,20.14c.9-1,1.9-1.5,3.1-.6,1.4.7,2.1,2.1,3.1,3.2-.9,2.8-2.5-.3-3.7.4A4.25,4.25,0,0,1,35.67,20.14Z"/><path class="cls-84" d="M67.57,14.24c-.4-1.1-.3-2,.9-2.5,2.3,1.3,3.9,2.7,1.7,5.4-.1.6-.2,1.5-1,1.4-1-.1-1.2-.9-.7-1.7C69.57,15.44,69.57,14.54,67.57,14.24Z"/><path class="cls-85" d="M70.17,17.14c1.6-2.5-.4-3.8-1.7-5.4,1.5-1.8,2,1.3,3.2.7l1.5.1c-.3.8-.5,1.5-.8,2.2C71.47,15.34,71.37,16.84,70.17,17.14Z"/><path class="cls-86" d="M103.47,31.94c.1-.5.1-1.2.4-1.4.7-.6,1.3.2,1.2.7,0,1.6,1.2,2.2,2.3,3.1-1,1.3-2.2.5-3.2.8l-.1.1c-1.1-.2-.8-.8-.5-1.5A10.87,10.87,0,0,0,103.47,31.94Z"/><path class="cls-87" d="M35.67,20.14c1.3.7,1.7,2,2.5,3,.2.7.4,1.4.7,2.5-2.2-.8-2.7-2.7-4-3.8C35,21.24,34.87,20.54,35.67,20.14Z"/><path class="cls-88" d="M44.37,17.14c-1.5,1.5-1.1,3.1-.2,4.8-.1.8-.8.6-1.3.7-.5-.4-1.3-.6-1-1.5.6-1.7-1.1-4.6,2.5-4.7.2.2.3.3.2.5S44.47,17.14,44.37,17.14Z"/><path class="cls-40" d="M106,41.54c.9,2.7,2.9,3.3,5.5,3-1.2,1.9-2.9,2.1-4.5.9C105.87,44.64,104.17,43.44,106,41.54Z"/><path class="cls-89" d="M103.67,33.74c.2.5.3,1,.5,1.5-1.5.3-1.1,1.7-1.5,3-1.4-1.1-.1-4.1-2.9-3.5a1.61,1.61,0,0,1-.3-.9,1.34,1.34,0,0,1,.8-.7A22.14,22.14,0,0,1,103.67,33.74Z"/><path class="cls-90" d="M81.07,15.44l.8.2c1.5.5,3.4.6,2.2,3-1.1.8-.3,2.3-1,3.2-.9,0-1.4-.6-1.1-1.2,1-1.9.9-3-1.4-3.7C79.87,16.74,80.47,15.84,81.07,15.44Z"/><path class="cls-78" d="M56,12.74c.6,2,0,4.9,3.3,5.2a2,2,0,0,1-3.2.3C55.07,16.64,54.47,14.54,56,12.74Z"/><path class="cls-91" d="M44.37,17.14a1.1,1.1,0,0,1,0-.8c2.3-1.8,3.1,1.1,4.7,1.5l.9,1.5-1.1.2C47,19.54,46.37,17,44.37,17.14Z"/><path class="cls-86" d="M84.07,18.64c.2-1.8-1.7-1.9-2.2-3,3.2-.3,3.7.2,3.7,3.8A1.35,1.35,0,0,1,84.07,18.64Z"/><path class="cls-92" d="M28.57,26.84l3.4,3.7c-.2.8-.8.7-1.4.7l-2.4-2.3c-.3-.8-1.6-1.3-.8-2.5C27.37,26.24,28.07,26.64,28.57,26.84Z"/><path class="cls-8" d="M114.47,52.64c-1.8-.8-4.9.5-5.2-3.6,1.5,1.1,2.7,2.5,4.5,1.7l.9.1C114.87,51.44,115.57,52,114.47,52.64Z"/><path class="cls-93" d="M115.27,59.54a7.94,7.94,0,0,1-.8-4.8c1.6-.4,1.6-.4,1.8,3C116.17,58.54,116,59.24,115.27,59.54Z"/><path class="cls-94" d="M108.47,40.44l-.8-.7-1.8-3C110.07,36.94,110.37,37.24,108.47,40.44Z"/><path class="cls-95" d="M41.87,21.14l1,1.5-1,.2a3.71,3.71,0,0,1-3.1-3.2c0-.3.1-.6.1-.9C40.57,18.64,40.57,20.64,41.87,21.14Z"/><path class="cls-69" d="M49,32.74l2.5-.5c-2.5,3.9-2.5,3.9,2.5,5,.7.2,1.5,1,2.1.8,8.3-1.8,12.8,2.8,16.7,9.2,1,1.6,2.3,2.5,1,4.4a1.46,1.46,0,0,0,.2,2.1.52.52,0,0,0,.4.2c-1.1,3.5-4.7,4.5-7,6.8a25.72,25.72,0,0,0-3.5,3.9c-.9,1.1-2.3,1.6-4.1,2.6,3.9.4,7,1.6,10.6.7,4.2-1,8.4-.3,10.4,4.5a17.67,17.67,0,0,1,1.2,1.7l.1.1c0,.2-.1.5-.1.7-7.6.6-15.3.4-22.9.3-7.4-.7-7.4-.7-9.6-9.2a2,2,0,0,1,.7-1.6c5.6-5,11.8-9.2,17-14.6,3.1-6.3.6-10.7-6.4-11.1-2.9-.2-6-.4-8.8.8-3,1.3-3.9-.1-3.7-2.9C48.17,35.44,47.77,33.94,49,32.74Z"/><path class="cls-69" d="M57.67,80.44c-1-2-2.8-1.4-4.4-1.6-3.1-.3-.9-1.3-.3-2.2.1-.1.2-.3.3-.3a55.71,55.71,0,0,1,23.7,0c4.3.3,4.3.3,5.1,4.9,1,2,0,3.4-1.1,4.9-2.5,1.5-4.5,1.4-5.6-2.2,1.6,3.6,2.1,3.8,6.7,2a7.61,7.61,0,0,1,2.1-.3,41.37,41.37,0,0,1,1.9,10.5c.2,2.2-1.2,2.5-2.4,2.8-1.8.5-1.7-1.1-1.7-2.2,1.9-1.6.1-3.2,0-4.8-1.2-2.5-3-1.4-4.7-.7v.1c-.4.7-2.4.2-1.2,1.9,1,1.5,0,2.2-1.2,2.9-1.6.1-1.8-1-2.2-2.2-.6-1.5-1.6-2.3-3.1-.9-.4,2.4-2.7-.1-3.5,1.4-.3-.6-.5-1.1-1.3-.7-3.4-1.6-.3-3.1.1-4.7a.94.94,0,0,0,1-1v-.3c-.1-.9-.6-.5-1-.3-2.5.4-2.1-2-3.1-3.2C60.27,82.84,57.67,82.94,57.67,80.44Z"/><path class="cls-96" d="M76.87,76.44l-24,.3c-2.3-1-5.9,1.8-7-1.8-1.6-4.8-.2-7.9,3.9-10.8.8-.4.8,0,.7.6l-.8.9c-2.4,8.2-1.7,9,7,9.1a6.15,6.15,0,0,0,1.9-.2c7.8-.7,15.5-.1,23.2.6C80.67,76.94,78.37,75.24,76.87,76.44Z"/><path class="cls-97" d="M64.57,93.74l1.3-2.8a5,5,0,0,1,.1,3.6c-.9.8,2.2,1.5-.1,2.3s-4.8,1.4-6.8.2c-1.8-1-1.7-3.4-1.1-5.7,2.1,1.3.5,5.6,4.5,4.9C64.17,95.84,64.27,94.94,64.57,93.74Z"/><path class="cls-98" d="M50.47,96.14l.6,1a7.31,7.31,0,0,1-6.6.1c-1.8-.8-1.1-3.3-.8-5,.2-1.1,1.1-.8,1.6,0,.8,1.6,1.2,3.7,3.8,3.2A1.75,1.75,0,0,1,50.47,96.14Z"/><path class="cls-99" d="M57.67,80.44c.3,2.2,3.8,1.3,3.8,3.8-.8.7-.6,1.5-.2,2.4.3.6-.2,1-.8.9a3,3,0,0,1-1.3-.5c2.1-3-1.2-3.3-2.3-4.7-.2-.3-.1-.7-.1-1.1Z"/><path class="cls-100" d="M50.47,96.14l-1.5-.2a1.13,1.13,0,0,1-.2-1.6l.2-.2c1-1.1,1.3-2.9,3.3-2.6.5.7,1.1,1.3.7,2.2C53.07,95.44,52.27,96.24,50.47,96.14Z"/><path class="cls-101" d="M49,94v1.8c-3.2,1.2-3.8.6-3.7-3.7A7.7,7.7,0,0,1,49,94Z"/><path class="cls-102" d="M69.37,93c-.4-.5-.9-1.4-.2-1.5,1.5-.1,3.4-.1,4.1,1.7.4,1,.1,2.3,1.5,2.8-1.6,1.7-2.5,1.2-2.7-.9C71.87,93.34,71.07,92.74,69.37,93Z"/><path class="cls-103" d="M51.37,87.44c-2.2-.8-1.1-3.4-2.4-4.7,1-.6,2-.9,3,.1C52,84.44,52.77,86.14,51.37,87.44Z"/><path class="cls-104" d="M64.57,87.44c.4-1-.4-2.4,1.2-3.1.9,1.4.8,3.2,1.1,4.6.4,1.6-1.3.7-2.2.1Z"/><path class="cls-105" d="M50.37,114.94c-3-1.2.3-3.3-.7-4.7,1-1.1,1.6-.7,1.6.5A18.4,18.4,0,0,1,50.37,114.94Z"/><path class="cls-106" d="M80.27,85.94a8.34,8.34,0,0,0,1.7-4.6c1.4-.1,1.5.8,1.1,1.7a1.74,1.74,0,0,0,1,2.7l-1.5,1C81.87,86.14,80.87,86.84,80.27,85.94Z"/><path class="cls-107" d="M81.87,91.94c1.4.8,1.1,2.4,1.6,3.6,1,2.4-1,.8-1.6,1.1-.5-1.3.8-3.2-1.4-3.9C80,92.74,80.07,92.44,81.87,91.94Z"/><path class="cls-108" d="M53,93.64a3.41,3.41,0,0,1-.7-2.2c2.1-.5,2,1.9,3.4,2.5.1,0,.2.8,0,.9C54.27,95.74,53.87,94.14,53,93.64Z"/><path class="cls-109" d="M77.07,91.24c2.5,1.2-.7,4.2,1.6,5.5-2.4-1.1-1.5-3.4-1.6-5.5Z"/><path class="cls-110" d="M52.17,61.74c-2.6.2-4.5-2.8-7.7-1.5-.9.4-.6-3.7-3.8-3.2,2.4-.9,4.2-2,5.1-4.3,1.3.8-.2,1.7.4,2.5s1.5,1.3,2.3.7c1.8-1.2-.5-1.1-.6-1.7a9.91,9.91,0,0,0-.2-1.8c-1.6-3.1-.9-5.3,2.4-6.2a16.33,16.33,0,0,0,4.7-2.5c2.4-1.6,5.1-.6,5.5,2.2,0,.4-.3,1-.1,1.1,6,3.5.4,4.1-1.4,5.7-.2.2-.3.7-.7,1.4,2-.1,3.3-1.9,5-1.7.1,2.4-2,3.1-3.4,4.2C57.47,58.54,55.57,61.24,52.17,61.74Z"/><path class="cls-111" d="M52.17,61.74c4-2.8,8.1-5.4,11.1-9.3,1.4-.7,1.7-2.4,2.8-3.4l.9,1c-1.8,4.1-5.5,6.3-8.8,8.9-2.5,2-5.1,3.8-7.7,5.7l-.7-.6Z"/><path class="cls-112" d="M48.17,85.14c-.3,1.1-1,1.9-2.1,1.3-1.5-.8-.9-2.4-.9-3.7Z"/><path class="cls-113" d="M69.87,9.34c.1.8-.4,1-1.2.9a1.52,1.52,0,0,1-1.4-1.5,1.21,1.21,0,0,1,1.1-1.3h.1C69.67,7.34,69.57,8.44,69.87,9.34Z"/><path class="cls-114" d="M105.87,26.14c.1.9-.3,1.2-1.1,1.2a1.7,1.7,0,0,1-1.5-1.4c-.1-.7.4-1.5.9-1.3C104.87,24.74,106,25.14,105.87,26.14Z"/><path class="cls-115" d="M79.47,9.34c.7.9,2.4,1.8,1.6,2.8-1,1.2-1.9-.2-2.5-1.2Z"/><path class="cls-116" d="M80.27,73.44c-3-5.8-7.6-5.2-13-3.9-2.6.6-5.8-.7-8.6-1.3-.3-.1-.6-.9-.6-1.3s.7-1,1-1c1.8.6,2.7-1,4-1.6.7-.6,1.3-1.3,2.4-1,.1,2.1,1.5,2.4,3.2,2.4H81l-.8.8a75.4,75.4,0,0,1-11.6.8c2.2-.1,4.5.3,6.6-.3a28.08,28.08,0,0,1,4.1.1C81.27,68.84,82,70.94,80.27,73.44Z"/><path class="cls-117" d="M65.47,63.24l-2.4,1c2.9-4.3,7.9-6.4,11.1-10.3l3.6-3.1c-1.9,4.7-6.5,6.8-9.8,10.1C67.17,61.74,66.27,62.44,65.47,63.24Z"/><path class="cls-118" d="M79.47,49.14c.8-2.8,1.5-5.7,2.3-8.5a36.17,36.17,0,0,1-.1,5.7C81.57,47.34,81.87,49.54,79.47,49.14Z"/><path class="cls-119" d="M79.47,67.24h-4.6c-2.7.5-5.4.1-8.1.2-.6,0-1.3,0-1.1-1l14.6-.1a.85.85,0,0,1,0,.7c-.1.2-.3.4-.5.3A.37.37,0,0,1,79.47,67.24Z"/><path class="cls-120" d="M79.47,67.24c.2-.1.5-.1.7-.2,3.3,1.7,1,4.8,1.6,7.1l-1.5-.8C81.17,71.24,79.87,69.34,79.47,67.24Z"/><path class="cls-121" d="M58.67,74.34c-3,1.2-6.1.6-9.2.4-1.7-.1-2.7-4.5-1.6-6.9a3.94,3.94,0,0,1,1.9-2.3c.4.8,1.1,1.6,1.1,2.4C51.07,72.94,53.77,74.94,58.67,74.34Z"/><path class="cls-104" d="M65,82.34c2.9-.2,6.2-1,6.2,3.6,0,.7.3,1.2-.5,1.5s-1.8,0-1.7-.2C70.17,83.54,67,83.64,65,82.34Z"/><path class="cls-122" d="M80.27,85.94c.8.1,1.8-.2,2.3.8-6.4,2.4-8.2,1.3-8-5.2C76.57,83,75.37,88.54,80.27,85.94Z"/><path class="cls-123" d="M79.37,80.74c-.4,1.9,1.2,2.9-.2,4-.2.2-.9,0-1-.1C77.77,83.54,77.67,82.44,79.37,80.74Z"/><path class="cls-69" d="M65.67,66.54c3,1.4,6.1.3,9.2.8-3.1,1.4-6.4.4-9.6.5-.7,0-1.3-.3-.7-1.2C64.67,66.44,65.27,66.54,65.67,66.54Z"/></g></g></svg>