<svg xmlns="http://www.w3.org/2000/svg" viewBox="0 0 150.67 152.8"><defs><style>.cls-1{fill:#efe3d9;}.cls-2{fill:#f3eee8;}.cls-3{fill:#68615d;}.cls-4{fill:#443e38;}.cls-5{fill:#443f3b;}.cls-6{fill:#4e453e;}.cls-7{fill:#5d5955;}.cls-8{fill:#f2ede9;}.cls-9{fill:#655b54;}.cls-10{fill:#807871;}.cls-11{fill:#1c1814;}.cls-12{fill:#1f1613;}.cls-13{fill:#4a4541;}.cls-14{fill:#9d9894;}.cls-15{fill:#b2ada9;}.cls-16{fill:#6f6a67;}.cls-17{fill:#7d7772;}.cls-18{fill:#fae9dd;}.cls-19{fill:#f4e8de;}.cls-20{fill:#dfcdbd;}.cls-21{fill:#decdc0;}.cls-22{fill:#917f71;}.cls-23{fill:#d8c8bb;}.cls-24{fill:#605850;}.cls-25{fill:#e0cbbf;}.cls-26{fill:#8f7c6f;}.cls-27{fill:#786553;}.cls-28{fill:#857167;}.cls-29{fill:#d3bfb1;}.cls-30{fill:#a08f80;}.cls-31{fill:#e0cec2;}.cls-32{fill:#705d4c;}.cls-33{fill:#6d645c;}.cls-34{fill:#7c6a5e;}.cls-35{fill:#958476;}.cls-36{fill:#888078;}.cls-37{fill:#715c54;}.cls-38{fill:#8e7e72;}.cls-39{fill:#e8d8cc;}.cls-40{fill:#eadacb;}.cls-41{fill:#9c8b7d;}.cls-42{fill:#8f8173;}.cls-43{fill:#bba89b;}.cls-44{fill:#948a7f;}.cls-45{fill:#7d776f;}.cls-46{fill:#c9b8ad;}.cls-47{fill:#dbd3cf;}.cls-48{fill:#80726a;}.cls-49{fill:#d7c5b5;}.cls-50{fill:#eee0d4;}.cls-51{fill:#f3e4da;}.cls-52{fill:#e6d7c9;}.cls-53{fill:#cec1b8;}.cls-54{fill:#9f8e7e;}.cls-55{fill:#a5968c;}.cls-56{fill:#dac7ba;}.cls-57{fill:#dccbbd;}.cls-58{fill:#f0dbcd;}.cls-59{fill:#837365;}.cls-60{fill:#ddb285;}.cls-61{fill:#6b4c31;}.cls-62{fill:#624731;}.cls-63{fill:#dcc9bb;}.cls-64{fill:#e7d7cb;}.cls-65{fill:#7f5c40;}.cls-66{fill:#d2bdae;}.cls-67{fill:#7b685a;}.cls-68{fill:#837064;}.cls-69{fill:#907c71;}.cls-70{fill:#775a43;}.cls-71{fill:#675143;}.cls-72{fill:#7e6958;}.cls-73{fill:#9f8266;}.cls-74{fill:#dbc8b8;}.cls-75{fill:#907a6d;}.cls-76{fill:#8b7768;}.cls-77{fill:#816e5e;}.cls-78{fill:#8b7566;}.cls-79{fill:#decabd;}.cls-80{fill:#dbc9ba;}.cls-81{fill:#7c6857;}.cls-82{fill:#e0cfc3;}.cls-83{fill:#d9c5b4;}.cls-84{fill:#897a6e;}.cls-85{fill:#e0cbbc;}.cls-86{fill:#ddcabe;}.cls-87{fill:#dac7b9;}.cls-88{fill:#7c6c5d;}.cls-89{fill:#7d6856;}.cls-90{fill:#5d483a;}.cls-91{fill:#917e70;}.cls-92{fill:#e7d5c9;}.cls-93{fill:#a08877;}.cls-94{fill:#b39d8d;}.cls-95{fill:#e8d8cd;}.cls-96{fill:#ad9a8b;}.cls-97{fill:#8b6643;}.cls-98{fill:#6c4930;}.cls-99{fill:#675a53;}.cls-100{fill:#86613b;}.cls-101{fill:#9c8678;}.cls-102{fill:#d4c0b0;}.cls-103{fill:#a17b4b;}.cls-104{fill:#a08d7c;}.cls-105{fill:#e3d4c6;}.cls-106{fill:#8e796b;}.cls-107{fill:#ad8150;}.cls-108{fill:#fae5d7;}.cls-109{fill:#996b3a;}.cls-110{fill:#977d67;}.cls-111{fill:#806753;}.cls-112{fill:#966939;}.cls-113{fill:#f2e3d5;}.cls-114{fill:#988472;}.cls-115{fill:#d2bcab;}.cls-116{fill:#decaba;}.cls-117{fill:#e1ccbd;}.cls-118{fill:#a28f80;}.cls-119{fill:#a59283;}.cls-120{fill:#49301e;}.cls-121{fill:#a7988a;}.cls-122{fill:#99897b;}.cls-123{fill:#9c897d;}.cls-124{fill:#978173;}.cls-125{fill:#8a756a;}.cls-126{fill:#f9ebe2;}.cls-127{fill:#877465;}.cls-128{fill:#e4bb88;}.cls-129{fill:#e0b280;}.cls-130{fill:#e9c492;}.cls-131{fill:#8d6236;}.cls-132{fill:#8a6533;}.cls-133{fill:#f6e9df;}.cls-134{fill:#7d6754;}.cls-135{fill:#deaf7e;}.cls-136{fill:#c09b73;}.cls-137{fill:#efc492;}.cls-138{fill:#f8e6da;}.cls-139{fill:#caaf9c;}.cls-140{fill:#edc89e;}.cls-141{fill:#d4bfad;}.cls-142{fill:#ead8c3;}.cls-143{fill:#f1cd9f;}.cls-144{fill:#bc925f;}.cls-145{fill:#ebca97;}.cls-146{fill:#b6905f;}.cls-147{fill:#eac190;}.cls-148{fill:#9d7039;}.cls-149{fill:#e4bf8d;}.cls-150{fill:#e0b17b;}.cls-151{fill:#846f62;}.cls-152{fill:#eacb9b;}.cls-153{fill:#efd3a4;}.cls-154{fill:#815925;}.cls-155{fill:#8c6536;}.cls-156{fill:#a88056;}.cls-157{fill:#977044;}.cls-158{fill:#7f5e36;}.cls-159{fill:#946b3f;}.cls-160{fill:#966b3e;}.cls-161{fill:#edd0a5;}.cls-162{fill:#976f41;}.cls-163{fill:#937243;}.cls-164{fill:#836337;}.cls-165{fill:#e9cb9d;}.cls-166{fill:#a38153;}.cls-167{fill:#8b6a3c;}.cls-168{fill:#906c3e;}.cls-169{fill:#9f7c4f;}.cls-170{fill:#937241;}.cls-171{fill:#8e6941;}.cls-172{fill:#967045;}.cls-173{fill:#805a31;}.cls-174{fill:#9f7d51;}.cls-175{fill:#87683c;}.cls-176{fill:#987b4d;}.cls-177{fill:#482e12;}.cls-178{fill:#c89f74;}.cls-179{fill:#bf9a6e;}.cls-180{fill:#b48e66;}.cls-181{fill:#856336;}.cls-182{fill:#9c7d53;}</style></defs><g id="Layer_2" data-name="Layer 2"><g id="Layer_1-2" data-name="Layer 1"><path class="cls-1" d="M138,40.77c1,1.8,2.2,3.5,2.4,5.7,6,11.1,7.8,23.1,7.3,35.6a5.23,5.23,0,0,1-1.6,3.7,2.3,2.3,0,0,1-1.4.4c-1.5-.9-1.5-2.8-2.8-3.9-1.6-1.5-1.8-3.2-1.4-5.3a36.08,36.08,0,0,0-.3-13.1,23,23,0,0,0-2.7-6,9.31,9.31,0,0,1-1.2-4c.4-4.7-2.5-7.6-5.4-10.5-1.9-1.8-2.8-4.3-6.4-4.5-3-.2-3-3.6-1.9-7.2-2.2,1.8-4.3,5.7-5.6.4-.1-2,2.1-4-.1-6-1.3-3.2-3.5-5.4-7.3-5-1.7-.8-2.6-2.4-3.5-3.8a2.35,2.35,0,0,0-2.5-1.2c-2,1-4.9-3.1-6.4,1.1-.4,1.6-.2,3.3-1.4,4.7-1.5.4-2.2-.5-2.7-1.7-.3-1.7.5-3.2.2-4.9-.4-2.6-1.6-4-4.4-2.8a6.15,6.15,0,0,1-1.4.1c-2.1-.6-4.6,1.9-6.5-1.3a7.92,7.92,0,0,1-1,5.8c-1.2,1.3-2.4,1.5-3.6,0,.2-3.2,1.7-6.8-3.1-8.1q-.6-.15-.6.6c-.4,1.6-1,2.8-2.9,2.6s-2.2-1.7-2.4-3.2c-.3-1.8-.5-3.6,1.5-4.8,12.7-2.2,24.5.9,36,5.8a63,63,0,0,1,12.9,7.3,9.13,9.13,0,0,1,1.3.8q6.45,6.15,12.6,12.6a5,5,0,0,1,.8,1.2A22.5,22.5,0,0,0,138,40.77Z"/><path class="cls-2" d="M131.74,26.77c1,1.9,3.6,3.3,1.7,6-1.2.6-1.5-.5-2-1.1v.1a107.21,107.21,0,0,0-13-13.1l.1.1C104.14,8.07,88,3.07,70.14,4.27a17.16,17.16,0,0,0-4.8,1.3,22.94,22.94,0,0,1-2.8.9c-2.9.3-5.8-.3-8.6,1-.8.3-1.6.7-2.4,1-1,.4-2,.7-3,1.1a18.89,18.89,0,0,0-5.5,3.2,6,6,0,0,1-2.4,1.2c-2.6.6-4.6,2.3-6.8,3.8-1.3.9-2.5,2.2-4.4,1.2a2.2,2.2,0,0,1-.2-1.4c7.3-7.2,16.6-10.8,26-14.2,5-.6,9.9-2.2,15-2.3q30-1.65,53,17.9A44.77,44.77,0,0,1,131.74,26.77Z"/><path class="cls-3" d="M149.44,68.47c2.5,8.3.7,16.5-1,24.5-4.3,20-15.3,35.8-32.1,47.5-1.5,1-3,2.2-4.9,2.4-5.6,1.6-10.4,5.1-16.3,6-2.3.4-4,.5-2.1-2.5,6.3-3.5,13.2-5.8,19.7-9,3.4,1.2,5.1-1.7,7.4-3.1a45.64,45.64,0,0,0,10-10.1,6.91,6.91,0,0,1,1.6-2.2,20,20,0,0,0,5.8-8.8c1.7-2.7,2.7-5.7,4.3-8.5a71.23,71.23,0,0,0,5.7-31.2C147.54,71.57,146.54,69.27,149.44,68.47Z"/><path class="cls-4" d="M42.34,144.77c-21.1-10.1-33.7-27.1-39.9-49.2a24.75,24.75,0,0,1-.6-2.9,2,2,0,0,1,.8-1.2,1.79,1.79,0,0,1,1.4.4c2.5,5.3,3.1,11.2,6.2,16.3a59.15,59.15,0,0,0,8,12.9c5,5.8,9.9,11.7,17.2,14.9a6.57,6.57,0,0,1,1.7,1.2c1.5,2.4,4.3,3.3,6.1,5.3C43.34,143.47,44.94,145,42.34,144.77Z"/><path class="cls-5" d="M54.84,4c-9.1,3.6-18,7.3-25.4,14a18.27,18.27,0,0,1-3.7,4.7,72.15,72.15,0,0,0-21.5,38.9,9.29,9.29,0,0,0-.5,2.9c-.3,1.9.4,4.2-1.8,5.5-1.8-.4-.5-2.3-1.4-3.2,3-29.1,26.1-56.8,52.5-63.1a1.33,1.33,0,0,1,1.8.3Z"/><path class="cls-6" d="M42.34,144.77c1.3-.6.2-1.4.2-2.2-.2-.9.4-1.3,1.1-1.5a6.15,6.15,0,0,1,1.4.1c4.1,1.8,8.1,3.6,12.6,4.3a19.56,19.56,0,0,1,4.1,1.3,14.09,14.09,0,0,0,5,.7,10.47,10.47,0,0,1,3,.5c2.4,1.3,4.9.1,7.4.4,1.7.2,4.2-.6,4.3,2.5-4.1,1.7-8.6.8-12.9,1.5A60.19,60.19,0,0,1,42.34,144.77Z"/><path class="cls-7" d="M123.44,19.87c-15.2-13.2-33-19-53-18.2-.4-.3-1-.4-1.2-1,12.3-2.1,23.9,1,35.2,5.5a71.91,71.91,0,0,1,20,12.6C124.64,19.77,124.34,20.17,123.44,19.87Z"/><path class="cls-8" d="M149.44,68.47c-1.7,5.4-.2,10.9-1,16.4-1.1,7.5-2.5,14.8-6.2,21.5-2-3.5,1-6.5,1.1-9.8a8.33,8.33,0,0,1,.4-1.5c1-4.3,2.6-8.5,3.2-13,.2-10.5-.5-20.8-4.8-30.6a1.28,1.28,0,0,1,.5-1.7l.8-1.1c2.7,1.9,2.1,5.3,3.4,7.8.6,2.8.8,5.7,2.5,8.2Z"/><path class="cls-9" d="M81.44,150.67c-2.7-1.8-5.6-1.1-8.4-.6-1.7.3-2.8.4-3.6-1.2a2.27,2.27,0,0,1,1.6-1.1c7-.7,14.1-.8,21.1-1.7.5-.1.9.4,1.3.7-.3.9-1,1.9,1,1.5,5.1-1,9.6-3.6,14.4-5.3.8-.3,1.7-1.3,2.6-.2-7.1,4.5-14.5,7.8-23.1,7.8C86,149.27,83.84,152.67,81.44,150.67Z"/><path class="cls-10" d="M142.64,49.77c3.7,10.7,5.6,21.6,4.5,33h-.7c.5-12.5-2.4-24.5-6.1-36.3Z"/><path class="cls-11" d="M.64,66.77c1.1.8.6,2.1,1,3.1a4.8,4.8,0,0,1,1.2,3.6c.2,4.5-.2,9.1.9,13.6a4.94,4.94,0,0,1-1.2,4.6l-.8,1A75.19,75.19,0,0,1,.64,66.77Z"/><path class="cls-12" d="M81.44,150.67c2.3.6,4.6-2.1,6.9-.1-6.4,2.7-13.1,2.4-19.8,1.9C72.74,151.27,77.14,151.17,81.44,150.67Z"/><path class="cls-13" d="M69.24.67l1.2,1-15.5,2.4-1.7-.3A38.07,38.07,0,0,1,69.24.67Z"/><path class="cls-14" d="M146.34,56.77c-.9-2.7-1.9-5.4-2.9-8.1l-.6-3.9c2.7,4.5,4.3,8,4.6,12C147.14,57.27,146.74,57.27,146.34,56.77Z"/><path class="cls-15" d="M123.44,19.87a.94.94,0,0,0,1-1v-.1c3,2.1,5.8,4.5,7.3,8Z"/><path class="cls-16" d="M146.34,56.77h1.2a23.91,23.91,0,0,1,1.8,7.9C145.94,62.87,146.84,59.57,146.34,56.77Z"/><path class="cls-17" d="M131.44,31.77l2,1.1,4.6,8C134.44,38.77,132.94,35.27,131.44,31.77Z"/><path class="cls-18" d="M93.44,19.87a3.31,3.31,0,0,0,2.1,1.9,1.5,1.5,0,0,1,1.1-.4c1.4.3,3-.3,4.3.5,5.3,2,8.7,6.5,12.8,10,.7.5,1.5.9,2.3,1.4,3.3,3.9,6.7,7.7,9.2,12.2.9,1.5,1.5,3.4,3.6,3.8a2.19,2.19,0,0,1,1,.9c-.1,4.3,1.2,8.4,2.5,12.4a6.75,6.75,0,0,1,.2,1.4,12.31,12.31,0,0,0,1.7,6.8c.2,3.4,1.6,6.8-.6,10.1-1.9,1.4-.4,2.7.2,4a6.6,6.6,0,0,1,.1,1.4c-2,4.8-2.3,10.2-5.3,14.6a6.71,6.71,0,0,1,1,2.3,2.59,2.59,0,0,1-2.7,1.8c-1.7-.5-3.4-1.1-4.2-3-.3-1.9.5-3.6,1.1-5.2,3.5-9.4,5.3-19,3.1-29-1-5.3-2-10.7-5-15.4a32.35,32.35,0,0,1-1.3-3.3,25.24,25.24,0,0,0-4.6-6.6,10.1,10.1,0,0,1-1.3-1.6,15.26,15.26,0,0,0-5.5-5.5,10.47,10.47,0,0,1-1.1-.8A48,48,0,0,0,81.74,23c-4.8-.5-9.6-.7-14.4-1.2a3.1,3.1,0,0,1-.6-1.3c.2-3.9,3-5,6.3-5.4a4.81,4.81,0,0,1,3,1.5c1,.5,2,1,3.1.2,3-4,5.2-1.3,7.6.8,1.8.6,3.5,1.6,5.5,1.6A2.23,2.23,0,0,1,93.44,19.87Z"/><path class="cls-19" d="M93.44,146.77a96.64,96.64,0,0,1-24,2.1l-2.8-.3a2.16,2.16,0,0,1-1.8-2.5v-.2c.7-1.5,1.5-2.9,3.2-3.5,2.5-.2,5.1-1.1,7.4.9,2.5.2,4.8,1.2,7.4.9,1.4.1,2.4-1,3.8-1a7.64,7.64,0,0,0,5.5-1c1.5-.7,2.8-2,4.6-2,1.5.3,2-1.4,3.2-1.7a6,6,0,0,0,2.9-.8,13.72,13.72,0,0,0,1.8-1.6c.8-1.1-.3-2.4.6-3.5,2.7.4,2.9-2.6,4.8-3.3,1.6-.1,2.8,1.9,4.6.8,4-.6,4.5-5.1,7.6-6.8a6.7,6.7,0,0,0,5.3-5.6,2.94,2.94,0,0,1,1.5-1.4c3.7-1.7,4-2.7,1.3-5.3a1.44,1.44,0,0,1,.5-1.8,15.69,15.69,0,0,0,4.1-3.2c1.9-1.5,2.2-3.8,3-5.8,1.9-3.1,1.3-6.7,2.1-10,.4-1.6.1-3.3,1.3-4.7a2.4,2.4,0,0,1,2.9.2l1.2.1c1.4,3.5-.8,6.7-1,10v-.1a116.31,116.31,0,0,1-7.1,18.9,27.22,27.22,0,0,1-4.2,6.4,22.06,22.06,0,0,0-5.9,7,7.19,7.19,0,0,1-2.4,2.2c-2.2,1.1-3.7,3-5.7,4.3-1.9,1-3.1,3.2-5.7,2.9C107.34,141.77,100.44,144.37,93.44,146.77Z"/><path class="cls-20" d="M132.24,80.87c3.2-3.1.2-6.9,1.2-10.2-2-5.7,3.4-4.9,5.9-6.6a5,5,0,0,1,1.3-.4c2.6,4.3,1.3,9,.8,13.5-.2,1.8-.2,3.1,1,4.3a3,3,0,0,1-1.4,2.3l-.6.3A2.25,2.25,0,0,1,139,84c-1.8-1.1-3.8-1.1-5.8-1.6A1.48,1.48,0,0,1,132.24,80.87Z"/><path class="cls-21" d="M113.34,32.77l-12.9-10.9c.7-2.5,3.2-4.2,2.9-7,1.6-.2,3,0,3.2,2,.5,1.5-1.2,4.5,2.6,3.8,5.4-2.2,7.3,1.1,8.5,5.5C118.24,29.67,115.24,31,113.34,32.77Z"/><path class="cls-22" d="M128.44,49.77c-1.4,1-2,.1-2.6-1.1-2.8-5.5-7.1-9.9-10.4-15-.3-1.5.4-2.1,1.9-1.9.7.2.3,3.7,2,.7,1-1.8,2.3-2.5,4-1.5s1.2,1.8-.4,3c-1.3,1,1.4,2.6,1,4.5,5.9-4.2,5.3,2.6,7.7,4.3-.3,2-3,2.5-3.1,4.6C128.54,48.17,128.94,49,128.44,49.77Z"/><path class="cls-23" d="M73.34,15.77c-2.4.6-4.7,1.4-5.7,4-1.3-3.4-.3-6.8-.7-10v7.8c0,1,.1,2.2-1.2,2.4-1.5.2-2-1-2.3-2.1-.7-2.6.1-5.3-.8-7.9q-.75-1.2-1.5-2.7c-.1-.9.7-1.2,1.3-1.6a2.66,2.66,0,0,1,2.2-1.1c1.3-.5,2.7-.9,3.9.3a2.4,2.4,0,0,0-.1,2.8c.6,1.1-1.1,3.4,1.7,3.3,2.5-.2.7-2.5,1.5-3.5,1.9.4,2.2,2.3,3.3,3.5C77,13.27,75.94,15,73.34,15.77Z"/><path class="cls-24" d="M68.54,5.07l-3.9-.3c11.8-3,23.3-1.2,34.4,2.8,7.1,2.5,14.2,5.4,19.4,11.2-.9.4-1.5-.2-2.2-.7C101.94,8.07,86,3.47,68.54,5.07Z"/><path class="cls-25" d="M127.44,47.77c-.1-1.8-.1-1.8,4.2-4.9,3.7,2.8,6.5,6,5.8,11.2-1.9,1.8-3.9,3.3-6.7,2.2-1.1-1.6.2-2.7.8-4,.4-.9,1.5-1.4,1.5-2.6C131.24,48.47,128.94,49.17,127.44,47.77Z"/><path class="cls-26" d="M86.34,18.67c-2.2-.1-2.2-2.6-3.6-3.5-1.1.7-.7,4.4-3.4,1.6a29.79,29.79,0,0,0,.9-4.3c0-1.3-.8-3,.8-3.4,2.1-.5.2,1.9,1.2,2.4.7.3,1.7,1.8,2.2.1,1.4-4.5,2.3.1,3.4.1C86.94,14,88.24,16.67,86.34,18.67Z"/><path class="cls-27" d="M103.34,14.87c2.9,3.9-.3,5.4-2.9,7-1.4.5-2.7,1.9-4,0-.4-2.7,2.1-1.8,3.2-2.6-.4-1.8-4.6,1.1-3.3-2.8-.6-3.4.4-4.3,1.2-2.8,1.3,2.2,3.2-1.4,3.9,1C101.84,16.17,102.64,15,103.34,14.87Z"/><path class="cls-28" d="M73.34,15.77c-.1-1.3,4.9-2.7-.1-4-1.9-.5-.3-3-1.5-4.2.1-.8.9-2,1.1-1.6,1.2,2.5,4.4,2.7,5.4,5s-.9,3.9-1.9,5.7C75.14,16.67,73.94,17.17,73.34,15.77Z"/><path class="cls-29" d="M131.64,64l-.2-1.2c1.3-1.4-1.8-3.1.2-4.5,2.3-.3,4.6-.3,7-.6.7,2,3.2,3.3,2.1,6l-.4.2C137.34,64.17,134.54,65.77,131.64,64Z"/><path class="cls-30" d="M93.44,19.87l-1,.2c-3.7-1.7-3.3-5.3-4.2-8.4,3.9-1.9,6.5-.5,6.3,3.5A24.72,24.72,0,0,1,93.44,19.87Z"/><path class="cls-31" d="M88.24,11.67c2.7,2.2,2.3,5.9,4.2,8.4-2.5,1.3-3.9-1.7-6.2-1.4a8.35,8.35,0,0,1,1.4-7Z"/><path class="cls-32" d="M138.64,57.67v2.2c-1,2-2.8-6.2-3.2.5-1.3-.4-2-2.6-3.9-1.3.5-1.4-1.3-2-1-3.3l6.9-1.8Z"/><path class="cls-33" d="M118.44,18.77a32.78,32.78,0,0,1,13,13.1C126.94,27.67,122.34,23.57,118.44,18.77Z"/><path class="cls-34" d="M117.34,31.77l-1.9,1.9a2.2,2.2,0,0,1-2.1-.9c.1-3,3.8-3.8,4.2-6.6C121.84,28.17,118.94,30,117.34,31.77Z"/><path class="cls-35" d="M96.24,16.57c1.4,1.8,3.7,1.2,5.6,1.8-1,2.5-4.2,1.5-5.5,3.5-.3-.1-.5-.1-.8-.2C95.24,20,94.94,18.17,96.24,16.57Z"/><path class="cls-36" d="M144.44,95.77c-.7-3.5,1.3-6.6,1-10,.4-1,.7-2,1.1-3h.7C146.74,87.17,146.84,91.77,144.44,95.77Z"/><path class="cls-37" d="M109,20.67c-1.2.8-1.8,2.5-4.1,1.9.9-1.8-.1-4,1.5-5.7Z"/><path class="cls-38" d="M140.44,83.77a3.06,3.06,0,0,1,2.1-2.3c2.7.5,2.1,2.4,1.8,4.2l-2.7-.2A2,2,0,0,1,140.44,83.77Z"/><path class="cls-39" d="M3.34,61.67A70.13,70.13,0,0,1,29.54,18v1.2c-.2,2.4,3,.4,3.1,2.5a182.15,182.15,0,0,1,0,20.9c-.7,2-1.1,4.1-3.8,4.4-2.7-3.2-1.1-7-1.2-10.5s.5-6.9.5-10.4c-.2,7.4-1.1,14.9-.3,22.3a5.64,5.64,0,0,1-2.3,4.6,2.27,2.27,0,0,1-2.1-2.5.76.76,0,0,1,.1-.4c1.3-6,.8-12.1,1.4-18.1-.6,3.6,0,7.3-.4,10.9-.2,1.9.4,4.7-3.2,4.3-3-1.8-1.9-4.9-2.1-7.5a29,29,0,0,1,.3-7.2c.4-1.7.8-3.5,2-4.3-.2.5-1.4,1.1-1.5,2.3-.3.6-.4,1.3-.7,1.9-1.9,3.3-3.9,6.6-5.9,9.9-.6.9-1.5,1.6-2,2.5a10.91,10.91,0,0,1-.6,1.1,28.55,28.55,0,0,0-3.2,9.3,7.37,7.37,0,0,1-.4,1.4c-1.2,2-.4,5-3.2,6.1-.1,0-.3-.2-.4-.3C3.24,62.27,3.14,62,3.34,61.67Z"/><path class="cls-40" d="M48.54,8.77c.6-1.1,1.6-1,2.7-1a2.09,2.09,0,0,1,1.3,2c-.4,4.5-.4,8.9-1,13.3-.2,1.2-.9,2.3-2.4,1.9-1.3-.3-1-1.5-.8-2.5a33.33,33.33,0,0,0,.2-5.5c.1,3.5-.6,7,0,10.5a3.3,3.3,0,0,1-3,2.8,2.52,2.52,0,0,1-1.9-1.7c-.9-4.3-.3-8.7-.4-13C42.84,11.57,45.94,10.47,48.54,8.77Z"/><path class="cls-40" d="M40.64,12.77l1.7-.5c2.5-.7,1.2,1.3,1.6,2.1a7.93,7.93,0,0,1-1.1,4.5,2.11,2.11,0,0,1-1.3.5,1.09,1.09,0,0,1-.5-.1c-.4-.2-.7-.2-.7.1a93.47,93.47,0,0,1,.1,14,8.8,8.8,0,0,1-.5,1.5c-.8,1.2-1.7,2.3-3.3,2.3a2.34,2.34,0,0,1-1.2-1.2c-1-5.6-.3-11.2-.5-16.8C35,15.27,38.24,14.37,40.64,12.77Z"/><path class="cls-41" d="M47.74,27.87a56.47,56.47,0,0,1,.2-15.9c2.8,4.4,1.3,8.4,1.7,12.4.2-5.7,1.5-11.1,1.6-16.7l2.2-1.1a1.82,1.82,0,0,1,2.3.2c-2.4,3.8-1.7,8.1-1.8,12.2a18.74,18.74,0,0,1-.5,5.8c-.7,1.9-2.8,2-4.2,2.9A1.39,1.39,0,0,1,47.74,27.87Z"/><path class="cls-42" d="M40.64,12.77c-5.8,3.3-4,8.8-4,13.8,0,3.5-.1,6.9-.2,10.4,0,1.5-.9,1.4-1.9,1.2a2.84,2.84,0,0,1-.8-1.1,45.33,45.33,0,0,1,.2-14.7c.3-1.7.3-2.7-1.7-1.6l-.7.1c-1.9-.4-2.5,2.1-4.3,2,0-1.8,1.7-2.3,2.4-3.5C33.44,17.37,35.94,13.17,40.64,12.77Z"/><path class="cls-43" d="M55.74,6.77l-2.4-.1c2.9-1.9,6-1.3,9.1-.9l-1,1a53.75,53.75,0,0,1,.4,10.6c-.1,1.7,0,3.7-2,4.5-3.2-2.9-1-6.8-2-10.1C57.44,10.07,57.94,7.87,55.74,6.77Z"/><path class="cls-44" d="M43.64,14.77c-.3-.9.5-2.4-1.2-2.6,1.3-2.5,3.7-3,6.1-3.4-.5,2.7-5.4,2.2-4.2,6Z"/><path class="cls-45" d="M136.24,115.07l8.2-19.3c.6,3.8-2.4,7-2.2,10.7a17,17,0,0,1-3.8,6.8C138,114.17,137.64,115.27,136.24,115.07Z"/><path class="cls-46" d="M124.44,129.37l1.9-1.3c1.4-1.3,1.7-4.5,4.8-2.9-3.3,3.5-6.1,7.5-10.6,9.6l-.3-.6C120.94,132,123.14,131.07,124.44,129.37Z"/><path class="cls-46" d="M113.44,137.57l5.1-3.7c.6.4,1.5.1,1.9.9v.1c-1.2,2.1-3.4,2.9-5.2,4.1C113.24,140.37,114.34,137.77,113.44,137.57Z"/><path class="cls-47" d="M136.24,115.07l2.2-1.8c-.7,4.1-3.1,7-6.2,9.6a2,2,0,0,1,.2-2.4Z"/><path class="cls-48" d="M132.44,120.47l-.2,2.4c-.4.8-.8,1.5-1.2,2.3-2.6-.7-2.9,2.4-4.8,2.9C127.24,124.57,130,122.67,132.44,120.47Z"/><path class="cls-49" d="M35.44,136.77c-5.3,0-7.8-4.7-11.4-7.4-2.7-1.9-4.5-5-6.8-7.5,1.3-1.5,4.4-.8,4.7-3.7.6-6.3-.3-12.7.5-19.1a3.77,3.77,0,0,1,.9-1.5,1.57,1.57,0,0,1,1.6.3,6.35,6.35,0,0,1,1.7,6c-1.4,6.7-.4,13.4-.7,18.4.1-3.9-.2-9.5.1-15,3.5-1.2,1.6,2.5,3,3.3a7.19,7.19,0,0,1,1.2-2.1,2.76,2.76,0,0,1,2.2-.3,3.58,3.58,0,0,1,2.6,2.7c-.1,7.4-.7,14.7.2,22.1C35.64,134.27,36.14,135.47,35.44,136.77Z"/><path class="cls-50" d="M9.24,108.77c-3.1-5.2-4.6-11-5.9-16.8.3-2.2,1.1-4.4.2-6.7-1-10.1-.5-20,3-29.6v.1a68.65,68.65,0,0,1,4-11h0c3.1.6,2.2,3.1,2.2,5a14.1,14.1,0,0,1-1.9,6,14.17,14.17,0,0,0-1.9,8.3c.6,4.7-1.4,9.2-.5,13.9-.6,2.8-.3,5.6-.4,8.4,0-1.7,0-3.5.1-5.2,0-.9.3-1.7,1.3-1.8a1.74,1.74,0,0,1,1.9,1.3,5,5,0,0,1,.6,2.4c-.3,7.8.3,15.5-.1,23.3a5,5,0,0,1-.9,2.3A1.36,1.36,0,0,1,9.24,108.77Z"/><path class="cls-51" d="M9.24,108.77l1.5-.2c.7-2.5,0-5.1.5-7.7,2-1,2.7.7,3.8,1.7a10.5,10.5,0,0,1,.4,7.2c0,.2-.2.3-.2.4.2.7.5.1.8,0a1.94,1.94,0,0,1,1.8.3c1.6,1.9.1,4.1.4,6.2.4-1.2-.1-2.7,1.3-3.3,3.3.1,2.8,2.8,3.2,4.8a1.44,1.44,0,0,1-.2,1.4c-.3,4.2-3.4,1.6-5.2,2.2A47.3,47.3,0,0,1,9.24,108.77Z"/><path class="cls-52" d="M35.44,136.77l-1.1-3.4c-.7-5.8-.2-11.7-.3-17.6,0-3.4,1.7-2.3,3.4-1.1a3.77,3.77,0,0,1,.9,1.5,93.08,93.08,0,0,1-.4,17.5c0,1.4,1.1.7.5.9-.1,0-.2-.1-.2-.3.3-4.8-.2-9.5.8-14.2,1.2-1.1,2-.2,2.8.6,1.1,3.8-.5,7.5-.1,11.3.2,2.1-.1,4.3,1.1,6.2a3.05,3.05,0,0,1,0,2.3c-3.2,1.6-4.3-1.8-6.4-2.7Z"/><path class="cls-53" d="M4.54,86.77c2.7,2.5-1.1,3.4-1.2,5.3l-.8-.4c-.6-7.2-1.4-14.5-1-21.8,1.2-1.9.5-4.1,1-6.1,2.7.5,1.3,2.7,1.3,4C3.84,74.17,2.94,80.47,4.54,86.77Z"/><path class="cls-54" d="M36.44,137.77c2.5-.2,3.6,2.7,6,2.8.8,0,1.3.2,1,1.2l-1,.9C40.24,141.27,37.34,140.77,36.44,137.77Z"/><path class="cls-55" d="M4.54,86.77c-1.7-4.7-2.8-9.3-1.6-14.4.7-2.8,1.5-5.8-.4-8.5.2-.7.5-1.5.7-2.2,2.7-1.1.7-4.7,3.2-5.9A123.81,123.81,0,0,0,4.54,86.77Z"/><path class="cls-56" d="M57.44,146.57a30,30,0,0,1-13.2-4.7,20.48,20.48,0,0,1,.5-2.4c.8-3.3.2-6.6.4-9.9.1-1.9-.3-4.1,2-5.2a2,2,0,0,1,2,1.2c1,4.9.2,9.7-.3,14.5,1.1-2.9,0-6.2,1.3-9.2,1.5-.9,2.7-.2,3.6,1a63.16,63.16,0,0,1,.1,8.7c-.1-3.1.3-6.2-.2-9.3a2.24,2.24,0,0,1,1.4-2.8,2,2,0,0,1,2,1.2c1.3,5.1.2,10.2.7,15.4A1.43,1.43,0,0,1,57.44,146.57Z"/><path class="cls-57" d="M57.44,146.57l-.1-1.1c-.9-5.6,0-11.1.8-16.7,1.6-1.1,2.8-.4,3.7,1,.1,4.2.1,8.3,0,11.3.5-2.5-.4-6.4.3-10.2,1.5-.8,2.3.2,3,1.2a31.2,31.2,0,0,1,0,13.6c-.5,2.3-1.5,3.1-3.7,2.1Z"/><path class="cls-58" d="M45.64,140.47l-1.4,1.4a1.08,1.08,0,0,1-.8-.2,10.59,10.59,0,0,0-1-1.2c0-.7-.1-1.3-.1-2-1.9-5.8-.8-11.6-.4-17.3,2-2,3-.5,4.1,1C45.94,128.27,45.94,134.37,45.64,140.47Z"/><path class="cls-59" d="M61.44,147.77c2.2.3,3.2-.4,3.1-2.9-.2-4.4,0-8.8,0-13.2a1.07,1.07,0,0,1,1.5.6,20.2,20.2,0,0,1-.5,13.5,2.43,2.43,0,0,0,1.1,2.8C64.84,148.77,62.94,149.57,61.44,147.77Z"/><path class="cls-60" d="M121.74,48.77c1,.8.7,1.8.7,2.8,2.9,4.8,3.7,10.4,5.4,15.7,1.3,11.2.3,22-4.5,32.3-.9,1.9-1.4,4.4-4.5,3a8.38,8.38,0,0,1-3-3.7,3.06,3.06,0,0,1,.7-3.5c1.3-1,1.4-2.5,1.7-4,.9-4,1.3-8.1,2.6-12a9.69,9.69,0,0,0-.8-8.6c-1.4-2.1-1.2-4.8-1.6-7.2-.9-6.7-1-6.7-7.2-4.8-1.1-1.2-1-2.6-.8-4,0-.2,1-.9-.2-.9-3.5-2.3-1.9-5.9-2.3-9,.6-2.3-.4-3.8-2.4-4.9a82.29,82.29,0,0,1-7.8-5.3c-2.5-2-5.4-4.2-3.3-8.3,6.1.8,10.2,5.2,15.1,8.2h-.1c2.5,1.7,4.2,4.2,6.5,6.1a.65.65,0,0,1,.6.6C118.14,44,119.14,47,121.74,48.77Z"/><path class="cls-61" d="M118.64,102.07c3,.3,3.7-2,4.7-4.1,4.5-10,4.6-20.5,4-31.2a.55.55,0,0,1,.7-.3l.3.3c2.6,12.6.2,24.5-5.3,35.9a4.68,4.68,0,0,1-.5,2.6c-1.5,2.5-2.4,5.4-5.3,6.8-1.4-.3-2.7,2-4.1.1C113.94,108.37,115.34,104.67,118.64,102.07Z"/><path class="cls-62" d="M48.54,27.77c.2-2.8,2.5-1.5,3.9-1.9,1-.9,1.8-2.2,3-2.9a4.41,4.41,0,0,1,4-.8c1.5.2,2.6-.9,3.9-1.4s2.7-1,4.1,0c5,.9,10.1-.2,15.1,1.1.1,1-.5,1.4-1.2,1.7-5.2,1-10.5.7-15.7,1.2-4.4.4-8.6,2.2-12.6,4C51.34,28.67,49.44,30.27,48.54,27.77Z"/><path class="cls-63" d="M127.44,101.77l-.9-1.1c5-3.7,3.5-10.4,6.9-14.9a1.23,1.23,0,0,1,1.3-.2,3.55,3.55,0,0,1,1.1,1.6c1,5.3-2.2,10.8.7,16.1.2.4-.5,1.1-1.1,1.5a1.48,1.48,0,0,1-1.3,0C132.14,103.27,130.84,100.17,127.44,101.77Z"/><path class="cls-64" d="M134.54,85.77h-1.1v-1c2-2.5,4.8-.3,7-1h0l1.1,1.7c.6,4.1-1.5,8-.9,12.2.2,1.5-1.4,2.4-2.6,3.3-4.2-1.7-4.8-3.4-2.5-6.8C137.74,91,138.14,88.17,134.54,85.77Z"/><path class="cls-65" d="M81.24,23l1.2-1.1c10.3,1.7,19.9,4.8,27.1,12.8-2.6.8-3.5-1.8-5.2-2.8-3.2-1.9-6.3-3.9-9.9-5.1a2.6,2.6,0,0,1-1.5.4C89.14,25.57,84.34,26.57,81.24,23Z"/><path class="cls-66" d="M121.64,104.87l1.2-2.1a4.28,4.28,0,0,1,4.3,1.8l.7.3c2.3,2.5,1.1,5-.3,7.2-1.2,1.9-3.1,2.2-5.1.9C122.34,110.17,124.24,107.27,121.64,104.87Z"/><path class="cls-67" d="M131.64,64c2.9.4,5.7-2.3,8.6-.1.3,1.9-.8,2.4-2.3,2.3-3.2-.1-4.3,1.7-4.5,4.5C130.64,69.07,131.54,66.37,131.64,64Z"/><path class="cls-68" d="M67.34,20.87a4.19,4.19,0,0,0-3.7,1c-2.6-4.7-2.4-9.3,0-14,2.3,3.7.3,8,1.3,12.8,3.1-4.3.3-8.6,2.3-12.2,1.1,3.8-.1,7.7.5,11.4Z"/><path class="cls-69" d="M130.44,55.77c.8.9,1.9,1.8,1,3.3-1.9,1.2,4.5,2.6,0,3.8-1.2-4.2-4-8.1-2.2-12.8,3.2-1.6,2.7,1.1,3.1,2.8Z"/><path class="cls-66" d="M135.54,107c-1.1,1.4-2.2,2.8-4.2,2.7-1.9-1.1-1.6-4-3.9-4.9l-.3-.3,2.2-1.6c2.5-1.7,3.7.3,5,1.8h0a1.7,1.7,0,0,0,1,2.2C135.44,107,135.44,107,135.54,107Z"/><path class="cls-70" d="M128.24,66.77h-1c-1.6-5.1-3.2-10.1-4.8-15.2C126.84,55.77,126.74,61.57,128.24,66.77Z"/><path class="cls-71" d="M132.34,52.67c-1.2-.7-.9-3.2-3.1-2.8-.3-.1-.5-.1-.8-.2l-1-2a19.42,19.42,0,0,1,2.4-.2c1.7.1,3.9-.9,4.8,1.2C135.34,50.47,133.14,51.37,132.34,52.67Z"/><path class="cls-72" d="M134.44,104.77a11.18,11.18,0,0,0-5-1.8l-2-1.1c0-1.5.7-2.4,2.1-1.8C131.74,100.87,134.64,101.27,134.44,104.77Z"/><path class="cls-38" d="M140.44,83.77c-2,2.4-4.8.3-7,1-1.1-1-3-1.5-2.8-3.5,0-.2,1.1-.2,1.7-.4l1.2.9c1.9,1.5,4.5.7,6.5,1.9l.3-.1Z"/><path class="cls-73" d="M121.74,48.77c-4.1-.8-4.2-4.3-5.2-7.3A19.94,19.94,0,0,1,121.74,48.77Z"/><path class="cls-65" d="M115.94,40.77c-3-1.2-4.9-3.5-6.5-6.1C112.64,35.67,114.24,38.37,115.94,40.77Z"/><path class="cls-74" d="M122.44,123.57c-2.5,2.8-2.7,8.3-8.5,7.3-2.8-.8-4.4-3-5.8-5.3,3.8-4,7.6-8.1,12.2-11.3,2-.5,3.6.5,4.8,1.9,1.8,2.1,1.1,5-1.2,4.9C120.34,120.77,123.14,122.87,122.44,123.57Z"/><path class="cls-75" d="M103.34,138.67c-1,.4-2,1.7-3.1.2-2.3-2.3-1.6,1.7-2.9,1.4-1.6.6-2.5,2.8-4.8,2.1-1.5-.8-2.2-2.9-4.4-2.6-1.4-1.2-2.8-2.4-3-4.4,5.5-2.3,11.2-4,16.6-6.6,2.2.3,4,1.1,3.7,3.8-1.5,1.3,3.9,2.9-.2,4.1C101.64,134.37,105.14,139.27,103.34,138.67Z"/><path class="cls-76" d="M122.44,123.57c-1-1.3-2.5-2.3-2.2-4.8,1.6,1.5,3.8,3.4,4.7.5,1.2-3.3-2.6-3.3-4.3-4.8a1.75,1.75,0,0,1-.6-2.3c0-.1.1-.1.2-.2.6-.8,1.3-.7,2.1-.2,1.1,1.3,2.6,1.6,3.7.3a6.94,6.94,0,0,0,1.4-7.4c3.3.1,3.3,2.7,3.9,4.9l-1,1.2a1.31,1.31,0,0,1,.3,1.2c-.2,2.2-3.2,3.2-2.5,5.8C128.14,121.67,126.94,124.27,122.44,123.57Z"/><path class="cls-77" d="M135.54,107c-2,0-1.1-1.3-1.1-2.2,2.2-1.6,1.8-3.2.1-4.9a4.57,4.57,0,0,1-.2-6.7c2.2-2.5-.7-4.9.2-7.3,4.2,1.1,6.1,5.8,2.8,8.6-3.8,3.2-1.3,4.5.8,6.4A5,5,0,0,1,135.54,107Z"/><path class="cls-78" d="M85.54,135.77c1.1,1.4,2.9,2.2,3.1,4.3.9,2.1-.6,2.9-2,3.8-1.1.3-1.8,1.9-3.2,1-.6-2.9-2-5-5.2-5.4a4.75,4.75,0,0,1-2-2.8C78.84,132.47,80.34,132.27,85.54,135.77Z"/><path class="cls-79" d="M78.54,138.77c5.9.2,6,.2,4.9,6-2.6,1.5-5.2-.7-7.9,0C72.34,140.27,72.64,139.47,78.54,138.77Z"/><path class="cls-78" d="M78.54,138.77c-2.9,1-5.5,2.2-3,6-1.8.7-3.3-4.9-5.4-.3l-1.7-1.7c-.7-2-.4-4-.6-6,3-2,5.9-.5,8.9,0Z"/><path class="cls-80" d="M68.34,136.67a5.43,5.43,0,0,1,.2,6.1l-2.9,3c-.1-4.7-.2-9.4-.2-14.1,0-.9.4-1.2,1.3-.9C68,132.47,67.74,134.67,68.34,136.67Z"/><path class="cls-81" d="M108.44,125.47c3.2.4,2.5,4.8,5.5,5.4-2.5,3.8-2.2-1.4-3.6-1.1-5.1,1.7-5.4,1.6-5.3-3.2A3.68,3.68,0,0,1,108.44,125.47Z"/><path class="cls-82" d="M86.64,143.77c.6-1.3,2.1-2.2,2-3.8,1.9-2.3,1.9-2.3,4,2.4C90.94,144.57,89,145.27,86.64,143.77Z"/><path class="cls-83" d="M105.54,126.77c-1.2,5.7,3.6,1.4,4.9,3-1.8.7-.9,6-5,3-1.2-1.2-1.6-3.5-4-3.2A3.59,3.59,0,0,1,105.54,126.77Z"/><path class="cls-84" d="M130.44,111.17l-.1-.3c1.7.2,4.5-.5,3.5,2.2-.3.9-.2,6.4-4.6,3.7C128,114.57,130.94,113.27,130.44,111.17Z"/><path class="cls-85" d="M97.34,140.27c.4-1.8.2-3.8,1.6-5.4,2.1,1,1,2.6,1.3,3.9C99.14,139,99.54,142.27,97.34,140.27Z"/><path class="cls-86" d="M103.34,138.67v-1c.1-1.6-3.3-2.9-1.3-4.1,2.3-1.3,2.1,2.1,3.2,3.2Z"/><path class="cls-87" d="M130.44,111.17c1.9,2.3-1.6,3.6-1.2,5.6l-1,1.1c-.9-.6-2.3-.9-1-2.5A33.21,33.21,0,0,0,130.44,111.17Z"/><path class="cls-88" d="M120.44,134.77c-.7-.2-1.7.3-1.9-.9l5.9-4.5C124.14,132,121.24,132.47,120.44,134.77Z"/><path class="cls-89" d="M135.44,74.77c.2-1,.7-2.1,1.9-1.7a3,3,0,0,1,1.7,2.2c.2,1.1-.7,1.8-1.8,1.6A2.07,2.07,0,0,1,135.44,74.77Z"/><path class="cls-90" d="M139.94,83.77c-2.2-.4-5.2,1.8-6.5-1.9C135.84,81.87,138.44,81,139.94,83.77Z"/><path class="cls-91" d="M113.14,25.57a1.65,1.65,0,0,1-1.4,1.8,1.69,1.69,0,0,1-2-1.4v-.2a1.54,1.54,0,0,1,1-1.9c.2,0,.3-.1.5-.1C112.44,23.77,112.84,24.67,113.14,25.57Z"/><path class="cls-92" d="M63.54,7.77v14c-1.1,1.4-2.6,1.3-4.1.9-.3-.2-.3-.4-.2-.6s.2-.3.3-.3c1.6-3.2.7-6.7,1-10.1.1-1.7-.9-3.6,1-5A2,2,0,0,0,63.54,7.77Z"/><path class="cls-93" d="M7.44,77.77c-2.4-2.5-.2-4.8.1-7.3.2-2.1.1-4.3.1-6.4,1.7-.5,1.4,1.1,1.9,1.9-.6-1.3,2.5-1.9.6-3.9-1.1-1.2.2-2.8,1.8-3.3,2.6-.7,4.9-.6,5.6,2.8-1.2,1.5-3.2,3.1.1,4.1-.2-1-1.1-2.3-.3-3.8,1.2-2.2,2.7-4.2,4-6.3a1.14,1.14,0,0,1,1.4.8v.2c.4-.3,0-.6-.1-.9-.8-2.2-.2-4.7-1.6-6.7a1.84,1.84,0,0,1,.4-2c2.4-.5,1.8-2.4,1.8-4,.3-4.2-.3-8.5,1.5-13.8a53.63,53.63,0,0,1,0,16c-.3,2.4-1.2,4.9.3,7.2,1.5,1.5.1,3.5.9,5a6.7,6.7,0,0,1,0,2,29.92,29.92,0,0,1-1,3.2,12.81,12.81,0,0,0-1.3,3.9c-.2,1.4-.1,2.9-1.2,4.1a1.5,1.5,0,0,1-1.8-.8c-.6-1.9-.2-3.8-.3-5.7-.3,2,.2,4-.5,6a1.59,1.59,0,0,1-1,.8c-2.6-.6-3.4,2.3-5.5,2.9-3.1-1-4.6.8-5.6,3.3Z"/><path class="cls-94" d="M21.54,47.07v1.6A8.76,8.76,0,0,1,21,54c-4,4-4.6,4.1-6.9.5.4-3.6-.3-7.3.2-10.9.3-2.1.6-4.2,2.8-6,1.5,3,.8,5.8.8,8.5q0-7.05.6-14.1l.5-1a.83.83,0,0,1,1.2-.2c.1,0,.1.1.2.1C21.24,36.07,19.54,41.67,21.54,47.07Z"/><path class="cls-95" d="M18.54,31.77c2.6,5-1.3,9.9-.9,14.9v-9.1c-2.5,5.3-2.1,9.6-2,13.9,0,1.3.6,2.7-1.1,3.3a1.35,1.35,0,0,1-1.6-.1c-1.8-3.9-.9-7.8-.4-11.8C13.44,38.57,16.54,35.47,18.54,31.77Z"/><path class="cls-93" d="M26.74,48.87c-.3-8.1-.6-16.2,1.7-24.1,0,5.6-.1,11.2,0,16.8,0,1.7-1,3.7.8,5.1a1.09,1.09,0,0,1,.4,1.2A2.66,2.66,0,0,1,26.74,48.87Z"/><path class="cls-96" d="M31.54,42.77l-.1-22.1h0c2.1-1,2.8.2,2.6,2-.3,3.4.3,6.9-.3,10.3a5.64,5.64,0,0,0,.7,4.7l.4.1c.2,1.9-1.1,3.2-2,4.7A1.52,1.52,0,0,1,31.54,42.77Z"/><path class="cls-55" d="M12.44,42.87c.4,3.9-1.1,8,1.4,11.7-1.6,3.2-2.6,3.5-4.6,1.1,2.1-3.4,3.3-7,1.3-10.9C10.44,43.47,10.74,42.47,12.44,42.87Z"/><path class="cls-97" d="M31.54,42.77a1.85,1.85,0,0,1,.7-.2l.7.5a4.89,4.89,0,0,1,.8,2.3c0,3,.6,6-.7,8.9a1.51,1.51,0,0,1-1.4.7c-1.9-1.6-1.4-3.7-1.1-5.8s-1.3.8-1.3-.5a.93.93,0,0,1,.1-1.3h0c0-.3-.1-.6-.1-.8Z"/><path class="cls-98" d="M29.44,47.47v1.3c0,3.6-2.2,6.2-4,9-1.9-1.7-.3-3.5-.2-5.2l1.5-3.7Z"/><path class="cls-55" d="M10.54,44.77a33.05,33.05,0,0,1-4,11A18.53,18.53,0,0,1,10.54,44.77Z"/><path class="cls-99" d="M20.34,30.67l-1.3.1c1.1-2.4,3.1-4,5.3-6.2C24.34,28,21.14,28.47,20.34,30.67Z"/><path class="cls-100" d="M48.54,27.77c1.4,1.1,2.7-.6,4.1.1-.3,2.8-3.1,4.3-3.8,6.9a1.38,1.38,0,0,1-1.2.3c-1.5-3.1-2.9-.3-4.3.1a3.11,3.11,0,0,1-3.1-1.5,5.15,5.15,0,0,1,.2-3c1.5-1.6,3.5-.3,5.1-.8l2.3-1.8C48,27.87,48.24,27.87,48.54,27.77Z"/><path class="cls-101" d="M43.64,14.77h.7c.6,4.6.2,9.2,0,13.8-2.1,1.1-2.6-.4-2.9-1.8-.4-2.7-.8-5.5,1-8C42.74,17.47,43.24,16.07,43.64,14.77Z"/><path class="cls-102" d="M42.34,18.77c1.1,3.2-1.8,7.1,1.9,9.8l1.2,1.2c-1.5,1.3-3.2,1-5,1.1a24.49,24.49,0,0,1,.9-12A3.75,3.75,0,0,1,42.34,18.77Z"/><path class="cls-103" d="M40.54,33.77l3,1c2.6.4,2.4,2.6,2.3,4.3-1.8,19.2,0,38.5-1.1,57.7a9.62,9.62,0,0,1-2,4.2,1.35,1.35,0,0,1-1.6-.3c-2.1-5.1-1.3-10.6-.7-15.7,1.2-11,.5-21.9.7-32.8.1-4.8.8-9.6-.6-14.3a5.39,5.39,0,0,1-1-3,1.4,1.4,0,0,1,.3-.9C39.94,33.27,40.24,33.27,40.54,33.77Z"/><path class="cls-104" d="M40.54,33.77l-.8.1a102.27,102.27,0,0,1,0-17.5l1.6,2.5c.7,4.1-.8,8-.9,12A27.15,27.15,0,0,1,40.54,33.77Z"/><path class="cls-100" d="M39.44,34.77a2.1,2.1,0,0,1,1,2.1c1.8,4.4,1,9,.5,13.5-2.5-.5-2.5-.4-2.8-2.8-.4-3,.2-6.2-1-9.2a1.84,1.84,0,0,1,.2-1.6Z"/><path class="cls-97" d="M37.44,36.67l.2,1.5c0,1.6-.9,2.7-1.6,4a2.91,2.91,0,0,1-3.5.6l-.2-.2c0-2,1.2-3.4,2.5-4.8l1.7-.9Z"/><path class="cls-105" d="M55.84,23.87a3.79,3.79,0,0,1-3.4,2c0-4.3.3-8.7,0-13-.3-3.1.5-5,3.4-6.1,4.5-1,2.4,2.5,2.9,4.2.7,2.9.2,5.9.3,8.8,0,1,0,2.2-1.3,2.2-1.7.1-1.6-1.3-1.6-2.4,0-2.7.9-5.5-.2-8C56.74,15.57,55.84,19.77,55.84,23.87Z"/><path class="cls-39" d="M34.34,37.77c-3.1-.5-1.8-2.9-1.4-4.2,1-3.3.4-6.6.4-9.8,0-1.4-.2-2.7-2-2.9.9-1.6,1.8-3.1,4.4-3.8C34,24.07,34.94,31,34.34,37.77Z"/><path class="cls-106" d="M55.84,23.87a41.75,41.75,0,0,1,0-13.2c3.2,3.4-.4,7.5,1.7,11.8,1.9-4.2,0-8,1.1-11.5,2,3.5.2,7.3.9,10.8v.9A5,5,0,0,0,55.84,23.87Z"/><path class="cls-107" d="M32.54,42.77l3.1-1.1c2.6.8,2.4,3.1,2.2,4.9-1.6,18-.6,35.9-.9,53.9,0,1-.2,2-.2,3,.4-10.6.2-21.2.3-31.9a40.12,40.12,0,0,1,.2-6c.3-1.6.6-3.4,3-3.1,1.2.8,1.2,2,1.1,3.2-1.1,5.7.1,11.5-.8,17.2-.5,10.1.4,20.1.4,30.2-3.9,3.7-4.9-.4-6.7-2.4l-1.9-1.5a2.69,2.69,0,0,1-.5-1.5c-.1-7.5,1.5-15,.4-22.5.2-9.9,1.2-19.7,1.1-29.5,0-3.5,1-7.2-.7-10.6C32.64,44.27,32.54,43.47,32.54,42.77Z"/><path class="cls-108" d="M23.54,97.57l-.1,1.5c-1,.8.1,2.4-1.3,3a5.18,5.18,0,0,1-3.5-2.8A9.6,9.6,0,0,1,18,96c.3-7.2-.8-14.4.7-21.5,3.4-1.3,2.8,1.7,2.9,3.1a35.16,35.16,0,0,0,2.2,10.6C23.64,91.27,25.94,94.57,23.54,97.57Z"/><path class="cls-109" d="M23.54,97.57c.8-3-2.1-5.9-.1-9,.8.2,1.3.8,1.8,2,.1-2.5-.1-4.5-.1-6.6V69c0-1.8-.2-3.7,1.2-5.2,2-.4,2.3,1.3,2.3,2.5.1,10.5,1.4,20.9-.8,31.3a2.39,2.39,0,0,1-3.4.2C24.14,97.67,23.84,97.67,23.54,97.57Z"/><path class="cls-110" d="M24.44,97.77l2.9-.1c1.7,1.7.6,3.8.9,5.8.3,1.2.3,2.3-.9,3-1.5,6.7-.1,13.5-1.8,20.2,0-6.2-.1-12.5,0-18.7C25.64,104.57,25.84,101.07,24.44,97.77Z"/><path class="cls-111" d="M34.24,110.57c2,1.1,3.3,3.6,6.1,3.2a1.5,1.5,0,0,1,.3,1.8c-1,.9-2,.3-3.1.1l-3.2-2.2v20C32.74,125.77,33.14,118.17,34.24,110.57Z"/><path class="cls-112" d="M32.64,107.57c-.1.5-.1,1-.2,1.6l-1.8-.6c-1.8-1-2.1-2.7-1.9-4.5,1.2-4,0-8.2.4-12.2.2-2.3-.3-4.6,1-6.7a1.15,1.15,0,0,1,1.5-.4c2.4,4.3.7,9,.9,13.5C32.74,101.27,32.54,104.37,32.64,107.57Z"/><path class="cls-113" d="M29.54,104.57c.4,1.3.7,2.6,1,4-.4,1.9-.5,3.9-2,5.7-1.9-2.5-.6-5.3-1.3-7.7,0-1.3.1-2.6.2-3.8C29.14,102.17,28.84,103.87,29.54,104.57Z"/><path class="cls-114" d="M22.34,101.67c.4-.8-.4-2.2,1-2.6-.5,6.9,1.5,13.8-.9,20.6a2.77,2.77,0,0,0-.1-.9c-.7-4-1.7-7.9-1.4-12C21.14,104.87,20.94,103.07,22.34,101.67Z"/><path class="cls-115" d="M9.24,55.67c2,1.8,3.3.3,4.6-1.1l.7.2c2.7,3.5,3.9-.9,5.9-1a2.47,2.47,0,0,1,1.2,2.3c.6,3.3-2.3,4.2-4.1,5.8h-.1c-1.2-2.2-3-2.8-5.4-2.1-1.2.4-1.9,1.3-1.2,2.2,2.7,3.3-1.9,5.6,0,9.2-3.9-2-1.2-5.2-3.1-6.9A12.29,12.29,0,0,1,9.24,55.67Z"/><path class="cls-93" d="M11.64,100.77c-.7,2.5.4,5.3-.9,7.8V80.37c-3.3,2.7-1.5,6.4-3.2,10.4V77.87h0c1.4-2.3,3.8-2.8,6.1-3.5a2.42,2.42,0,0,1,3,1.4c-2.7,2.4,1,5-.2,7.5a7,7,0,0,1-2,.8c-2.6,1.2-1.2,3.4-1.5,5.2C12.34,93.07,13.84,97.17,11.64,100.77Z"/><path class="cls-116" d="M16.34,82.77a6.6,6.6,0,0,0,.1-1.4c-6.3-2-2.5-3.8.1-5.6l.8-.3c2,.3,1.5,1.8,1.5,3,0,4.8.2,9.5-.1,14.3-.9,3.9.2,7.8,0,11.7-.1,2.2.5,4.7-1.5,6.4l-1.8-.1C15.14,101.37,13.94,92,16.34,82.77Z"/><path class="cls-117" d="M11.64,100.77c0-5.3,0-10.5-.1-15.8,0-2,.2-3.2,2.6-2.1,1.8,1.3,1.5,3.2,1.3,4.9-.4,5,1.2,10.1-1.1,14.9C12.94,102.87,12.64,101.37,11.64,100.77Z"/><path class="cls-118" d="M14.34,102.77c-.2-6.6.8-13.2-.2-19.8l2.2-.2c.9,9.4-.6,18.7-.8,28,0,.2,0,.4-.2.5l-.6.3Z"/><path class="cls-119" d="M17.34,110.77c.8-6-.9-12.2,1.1-18.1,1.2,1.1,0,2.8.9,4l.3,3c1.8,4.7,2.3,9.4-.1,14.1-1.1,1.5,0,3.7-1.8,5.5C17.54,116.17,17.44,113.47,17.34,110.77Z"/><path class="cls-49" d="M19.54,113.77l.1-14.1c1.4,0,1.8,1.4,2.7,2v17.1C20.84,117.47,22,114.57,19.54,113.77Z"/><path class="cls-120" d="M37.54,115.57c1-1.8,1.9.1,2.9.1H41a5.67,5.67,0,0,1,2.3,1.2c2.1,1.3,4.4,2.3,6.5,3.8a6.12,6.12,0,0,0,1.2.5c3.1,1.3,6.3,2.4,9.5,3.5,1.1.3,2.2.8,3.3,1.2a48.55,48.55,0,0,0,31.4-3.3c5.5-2.4,11.2-3.9,14.9-9.1a2.8,2.8,0,0,1,3.2-.8c1.2.2,1.7-2.2,3.2-.8.4,1.7-.7,2.9-1.7,3.9-13,12.6-28.4,18.3-46.5,16.1a3.43,3.43,0,0,1-1.8-.9l-1.1.7h-.8l-2-.8c-.5-.2-.7-.7-1-1.1a2.91,2.91,0,0,0-2.9-.9c-.6.4-.8,1.6-1.9.8l-1.1-.9c-.7-.5-1.6-.1-2.3-.5a10.08,10.08,0,0,0-3.2-1.4,2.21,2.21,0,0,1-1.4-1.1l-1.1-.9a3.35,3.35,0,0,1-1.8-2.2c-.9-.8-1.6-2-3.2-1.8-.2.4-.7.4-1.1.2a.1.1,0,0,1-.1-.1l-1.9-1.3c-2.3-.6-1-2.9-2.1-4.1Z"/><path class="cls-121" d="M37.54,115.77c1.6.8.7,2.9,2,3.9-.4,5.3,1,10.8-1.6,16.1C36.74,129,37.94,122.37,37.54,115.77Z"/><path class="cls-54" d="M41.34,120.87l1.2-.1c0,5.9-.1,11.8-.1,17.8-3.2-1.4-1.9-4.3-1.9-6.4A107.28,107.28,0,0,1,41.34,120.87Z"/><path class="cls-122" d="M48.54,125.67l2,.2c1.2,1.6,1.4,3.3,0,4.9l-1.1,11C47.84,136.37,48.84,131,48.54,125.67Z"/><path class="cls-123" d="M56.64,129.57l1.9-.8c-.4,5.6-.8,11.1-1.1,16.7C55.54,140.27,56.64,134.87,56.64,129.57Z"/><path class="cls-124" d="M45.74,122.57l1.8,2.2c-2.1,2.7-.3,5.7-.8,8.5-.4,2.4.4,5-1.1,7.2C44,134.47,45.84,128.57,45.74,122.57Z"/><path class="cls-125" d="M53.74,127.57l1.7,1c-2.7,4,.4,8.7-2.2,12.8v-9.8C52.44,130.17,52.14,128.77,53.74,127.57Z"/><path class="cls-126" d="M53.74,127.57c-.2,1.3-.3,2.7-.5,4l-2.7-1v-4.9C52.14,125.47,53,126.37,53.74,127.57Z"/><path class="cls-127" d="M61.44,129.77l1,1.1c-.5,4,.8,8.1-.6,12.4C60.64,138.47,61.94,134.07,61.44,129.77Z"/><path class="cls-128" d="M111.74,58.77c.6-3.2,3.2-2.6,5.2-2.5,2.5.1,2.3,2.3,2.5,4.1.5,4.1.2,8.3,2.9,12.1,1.5,2.1.7,5.5-.1,7.7-1.8,5-2.3,10.1-3.1,15.2-.3,1.9-1.2.9-1.8.1-1.7-.5-2.2,1.1-3.2,1.8-1.8,1.2-2.2.1-2.6-1.3a4.43,4.43,0,0,0,1,3.5c4,3.9-1.1,4.3-2.3,6.2-.6.6-1.7,1.5-2.1,1-2.7-3.2-1.7.8-2.5,1.2a2.36,2.36,0,0,1-2,.3c-1.6-.7-2.2-2.4-3.5-3.9-1.2,1.6-.9,4.3-3.3,5.1-2,.7-4,.2-5.9-.2-3.9-.9-2.3-3.7-2.1-6-.2-1.7-1.8-1.1-2.7-1.5s-2.5-.7-1.3-2.4c2-1.1,4.2-.7,6.3-1,3.2,1.7,6.5.8,9.8.2,2.5,1.9,5,1.7,7.5.1.6-.5-.6-1.1-.1-.6.1.1-.1.1-.2.3a2.26,2.26,0,0,1-3.1.8c-.1-.1-.2-.2-.3-.2a1.21,1.21,0,0,0-1.5.2c-2.3-.7-2.9-3.4-4.9-4.5-1.6-1.5-.8-3.5-1.1-5.2.4-1.4.6-2.9,2.6-2.7,1,.8.6,2.2,1.5,3.1,1.8-.8,3.3-6,5.8-.7a1.06,1.06,0,0,0,1.5.5.35.35,0,0,0,.2-.1,1.78,1.78,0,0,0,1-1.6c-.1-.9-1-.4-1.5-.7-2.8-1.4-5.8-1-8.7-1.1-1.6.3-3.1-1.3-4.9.4s-2.5-.7-3.5-1.8c-1.6-4.5-.8-7.6,4.6-8.2.8-.1,1.3-.9,1.9-1.5,3-2.3,6.9-3.5,8.8-7.1a4.44,4.44,0,0,1,.8-1.1C109.54,64.67,109,60.77,111.74,58.77Z"/><path class="cls-129" d="M109.44,104.67c.5-1,1.3-1.2,2.3-1.5,2.3-.8,2.2-1.8-.2-2.4-.8-1.4-.5-2.2,1.2-2.1a17.7,17.7,0,0,0,4,.1,3.83,3.83,0,0,1,2,3.3l-5.3,10.6c-1.8,1-3.7,1.9-4.6,4.1-1.1,2.4-3.4,3.3-5.8,4.3-11.4,4.9-23,9.2-35.8,6.9-1.3-.2-2.7-.2-3.7-1.2,2.7-2.3,6.1-1.5,9-1.2,5.9.6,10.5-2,15.1-4.8,1.7-1.1,1.1-4.5-.3-6.2-1.2-1.3-4.6-1.3-3.3-4.4,2.5-1.4,5.2-.9,7.7-.4a15.44,15.44,0,0,0,12.2-2.1h1.6C110,111.07,109.14,107.17,109.44,104.67Z"/><path class="cls-130" d="M108.44,44.77c1.8,2.8-.5,6.4,1.8,9,2,5.3-.3,9.7-2.8,14v-.1c-3.3,5-8.4,7.1-14,8.2a5.31,5.31,0,0,1-5.1-1.2c.5-2.2.8-4.7,4.1-2.9,2.4,1.4,3.1-.8,4-2.1,1.3-1.8,1.7-3.9,2.3-6,.3-6.4,1.1-12.9-1.2-19.2a22.56,22.56,0,0,0-1.1-2.2c-.7-1.2-2.8-2-1.9-3.5,1.1-1.8,3.2-1,4.9-.5a18.93,18.93,0,0,1,4.7,2.4C105.84,42.07,107.44,43.07,108.44,44.77Z"/><path class="cls-128" d="M108.44,44.77c-1.9,0-3-1.3-4-2.7-2.1-2.8-5.5-3.2-8.3-4.5-.6-3.3-5.5-4.4-4.4-8.7a3.37,3.37,0,0,1,1.7-2.2,1.23,1.23,0,0,1,1,.2c.5,7.5,7.6,8.6,12,12.3C108.24,40.77,111.64,41.47,108.44,44.77Z"/><path class="cls-131" d="M116.64,98.77c-.2,1.3-.3,2.6-2.3,1.5-.9-.5-2.3-1.6-2.8.5-2.4-2-.3-4.5-1-6.8,2.3.4.7,2.7,3.7,2.8.2,0,.3-5.1,3.2-1.2C116.24,96.37,116.44,97.57,116.64,98.77Z"/><path class="cls-132" d="M107.44,67.77c1.8-4.5,3.9-8.9,2.8-14,.1-.3.1-.7.3-.9.5-.4.8-.2.8.4.1,1.8.2,3.7.3,5.5C110.84,62.07,110.74,65.67,107.44,67.77Z"/><path class="cls-133" d="M66.54,130.87c14.2,1.3,27.6-1,39.6-9.3a41.72,41.72,0,0,0,10.4-9.7c2.3-1.9,3.5-4.7,5.2-7,.3.4.5.9.9,1.1,3.8,2.1,2.6,4-.2,5.9-2.6-.4-1.6,1.5-1.7,2.7-4,3.7-6.9,8.8-12.3,11l-2.9,1.3-4.1,2.7c-3.7,3.4-9.2,3.1-12.8,6.3-1.5,1.3-2.1-2.9-3.1-.1-.9,2.5-1.4.2-2.1-.2-2.5-1.3-5-2.5-6.6,1.2-1.5.6-4.8-1.9-3.8,2-2.9,1.6-.9-5.4-4.7-2.1C65.74,135.37,66.64,133,66.54,130.87Z"/><path class="cls-60" d="M93.44,26.77a2.28,2.28,0,0,1-1,2.1c-4.4-.1-8.7-.7-12.9-1-5.5-.4-11.9-.4-16.9,3.6-1.3,1.1-2.7,2-4.5,1.7-2.3-.3-3.7.7-4.6,2.9-1.6,3.9-3.5,2.4-5.4.1a1.43,1.43,0,0,1,.2-1.3c-1-3.8,2.5-4.7,4.2-6.8,9-5.2,18.9-4.6,28.6-4.9C85.14,24.77,89.74,24.37,93.44,26.77Z"/><path class="cls-134" d="M114.64,124.77c.5-1,.8-1.9,1.7-1.8a2.24,2.24,0,0,1,1.8,2.5,1.32,1.32,0,0,1-1.6,1.2h-.2C115.24,126.47,115,125.47,114.64,124.77Z"/><path class="cls-135" d="M29.54,104.57l-2.1-1.9c0-1.7-.1-3.3-.1-5,0-9.7.1-19.4.1-29,0-1.6.6-3.3-.8-4.7-1.6-1.1-1-2.8-1.1-4.2v-2c0-3.6,2.5-6.1,4-9,.7.1,1.7-2.6,2,.1a58.05,58.05,0,0,1,0,5.9c.2,10,1.5,20.1-.9,30.1C30.24,91.47,31.24,98.07,29.54,104.57Z"/><path class="cls-136" d="M26.34,85.77c.5,2.3-.1,4.4-.8,7.5-.9-2-1.5-3.3-2.2-4.6-3-2.3-2.2-5.9-2.9-9a57,57,0,0,1-.6-5.8,1.22,1.22,0,0,1-1.6.1c-.7-1.2-.7-2.2.4-3.1h.6c.6-.5.9-1.5,2-1.2l.9,1.1c1,4.1,0,8.2.7,11.4-1-4.8.7-10.5-.4-16.1a5.07,5.07,0,0,1,1.9-3.2c1.9,2.8.7,6,1,9C25.94,76.47,24.54,81.17,26.34,85.77Z"/><path class="cls-137" d="M26.34,85.77c-1.4,1.5-1.9,1.4-1.9-.8.1-7.4,0-14.8,0-22.2.2-1,0-2.2,1-3,1.5,1.1.7,2.8,1.2,4.2C26.54,71.27,26.44,78.47,26.34,85.77Z"/><path class="cls-138" d="M21.64,56.07a2.94,2.94,0,0,1-1.2-2.3c.3-1.7-.6-3.7,1.1-5.1,3.8,2.3,1.7,5.7,1.7,8.7Z"/><path class="cls-139" d="M13.54,74.57c-1.3,2.4-4.2,1.8-6,3.2,0-2-.6-4.5,2.4-5,1.2-.2,3.3-2.1,3.6,1.1Z"/><path class="cls-140" d="M22.64,66c2,5.8.2,11.7.6,17.6a28.22,28.22,0,0,1-.9-12.9Z"/><path class="cls-141" d="M17.54,61.77c1.5,2,.8,4.2.9,7.2-3.6-6.7-3.6-6.7-.9-7.2Z"/><path class="cls-142" d="M21.44,69.67l-2,1.2c1.3-3.1-1.7-7.3,2.9-10C21.94,64,21.64,66.77,21.44,69.67Z"/><path class="cls-116" d="M13.54,74.57v-.7c1.6-1.3,1.1-6.2,5.2-3.1a28.25,28.25,0,0,0-.2,2.9c-.3,1-1.4,1.3-1.9,2h0Z"/><path class="cls-143" d="M32.64,45c3.1-.8,1.7,1.9,1.7,2.7-.1,10.1,1,20.2-.8,30.2-.5,2.6,0,5.3,0,8-1.3.3-1.4-.8-1.8-1.5-1.3-9.9-.4-19.7.6-29.5Q32.49,49.77,32.64,45Z"/><path class="cls-144" d="M32.34,54.67c0,7.1.8,14.1-.7,21.2a18.77,18.77,0,0,0,.7,8.8c-.2.7-.5.7-1,.1a1.7,1.7,0,0,0-.7.1c.1-10-1-20.1.9-30.1A2.49,2.49,0,0,0,32.34,54.67Z"/><path class="cls-145" d="M43.44,97.57c.3-18.5-.6-37.1.8-55.6.2-2.4,1.1-4.9-.7-7.2a2.82,2.82,0,0,1,2.8-2.9h.4c1,0,.3,2,.7,2.9,1.1,2.6.5,5.2.5,7.9,0,16.1.1,32.1,0,48.2-.1,5.1-.2,10.2-2.2,15-3.2.7-3.4-1.5-3.1-3.5A16.09,16.09,0,0,1,43.44,97.57Z"/><path class="cls-146" d="M45.34,105.77c1.8-21,.9-42,1.2-63.1a34.45,34.45,0,0,1,.8-7.8,3.55,3.55,0,0,0,1-.2l.3,1.2c2.5,5.3,1.4,10.8,1,16.2-1.2,19.5-.6,39.1-.8,58.6a7.71,7.71,0,0,0,1.2,4.7c.8,2.2,1,4.3-.8,6.1-1.9-2.3-5.8-1.6-7.1-4.7a1.48,1.48,0,0,1,0-1.3c1.9-1,1.9-2.8,2-4.7S44,107.27,45.34,105.77Z"/><path class="cls-147" d="M40.44,115.77l-.1-1.9c-1.9-5.2-.6-10.5-.8-15.7s0-10.3,0-15.4c1.1-5.7-.3-11.5.8-17.2v-2.5a13.24,13.24,0,0,1,0-12.8l.2-13.4c1.8-1,1.9.1,1.9,1.5,0,14.8.5,29.5-.5,44.3-.4,6-.2,12.1-.3,18.2,1.4,3.8,1.3,7.8,1.1,11.7-.1,1.3-.1,3-2.3,3.2Z"/><path class="cls-147" d="M45.34,105.77v8.7c0,2.3-1,2.5-2.6,1.2-1.4-4.9-1-9.9-.3-14.8.3-1,.6-2.1.9-3.2C44.34,100.17,41.54,103.77,45.34,105.77Z"/><path class="cls-148" d="M42.54,100.77c.1,4.9.2,9.9.3,14.8-.2.5-.3.9-.5,1.4-.7-.2-1.5-.3-1.7-1.2,1.8-4.9.4-10,1.1-15Z"/><path class="cls-149" d="M40.34,50.27v12.8c-3,.5-1.7,2.9-1.7,4.4-.2,10-.1,20-.3,29.9-.1,4-.8,8-1.3,12.6-2.1-1.8-1.6-3.4-1.6-4.7.1-19.3-.8-38.5.8-57.8.2-1.9.5-4-.8-5.8-.5-1.8,1.8-2.1,2-3.5,2.3-.5,1.6,1.3,1.8,2.5C40,43.77,38.94,47.17,40.34,50.27Z"/><path class="cls-150" d="M31.34,84.77c.3,0,.6-.1,1-.1l1.2,1.1c1.1,7.3,0,14.5-.9,21.8-2.5-5-.2-10.3-1.1-15.4A45.76,45.76,0,0,1,31.34,84.77Z"/><path class="cls-149" d="M40.34,65.47c-.3,5.7,1.1,11.5-.8,17.2C39.84,77,38.44,71.17,40.34,65.47Z"/><path class="cls-151" d="M16.54,75.67c-.2-1.5.5-2.1,1.9-2l1.4.1-.6,22.8c-1.2-1.1-.5-2.7-.9-4,0-4.7,0-9.3.1-13.9C18.54,77.37,18.94,75.57,16.54,75.67Z"/><path class="cls-152" d="M49.24,115.57c-2.8-.3-1.8-2.5-1.8-3.8,0-18.5-.3-37,.4-55.5.2-6.8,0-13.6.8-20.3,1.7,1,3.8,3.5,3.9-1.1a2.88,2.88,0,0,1,2.8-2.9h.1c5.2.5,8.9-5.3,12.5-4.6,4.9.8,9.4-3.7,14.4.1,2.4,1.8,6.8-.6,10.1,1.4a4.67,4.67,0,0,0,2.3,4.6c1.2.8,2.7,1.5,1.6,3.4-4.1,2.1-9.2,1.5-13,4.6-4.2,3.5-7.5,7.4-6.2,13.4a5.67,5.67,0,0,1-.1,2.9,3.49,3.49,0,0,1-1.9,2.2c-2.5-.9-1.8-3.9-3.4-5.3-1.9-5.5,1.1-10.8.2-16.3-.1-1,1.6-3.4-1.5-2.9-2.1,1.2-4.1,2.6-6.3,3.6-4.5,1.2-5.9,3.7-5.6,8.7.5,8.2,1.1,16.5-.8,24.7,0,1.3.6,1.7,1.8,1.4a37.54,37.54,0,0,1,8.2-.3c1.2.2,2.5.4,2.8,1.9-.8,1.3-1.9.5-2.6.7,1.5.9,4.7-1.3,5.8,1.9a7.14,7.14,0,0,1-.8,6.2c-.2.9-.4,1.9-.6,2.8a2.22,2.22,0,0,1-1.8,2c-2-2-4.1-3.8-7.6-2.8,3.4-.2,3.6,3.1,5.5,4.4.4,1.4-.6,2.1-1.5,2.9-2,.6-4.7.4-4.2,4,1.1-1.2,1.1-3.7,3.4-3,2.6.8,2.7,2.9,2.5,5.2,0,1.8,1.2,3.3,1,5.2-1,2.2-1.3,5-4.5,5.4a1.85,1.85,0,0,1-1.2-.5c-.5.2.6-1.9-1-.6a3.45,3.45,0,0,1-4.8-.4c-.4-.4-.1-1-.5-1.3.6.8-2.5,1.2-.3,2.1s2,2.6,1.3,4.3a6.61,6.61,0,0,1-2,1.4q-4.2,2.55,0,5.1c2,1.3,4.5,2.3,3.6,5.5-3.5-.9-7.2-1.5-10-4-1-8.6-.2-17.2-.4-25.8,1.2-2.3.5-4.8.5-7.3-.2-14.4.8-28.8.5-43.3a.67.67,0,0,1,.4-.7c-.8.5-.4,1.4-.4,2.1.5,15.1-1.3,30.1-.1,45.2.1,1.4-.8,2.5-.9,3.8C49.54,102.47,50.84,109.07,49.24,115.57Z"/><path class="cls-153" d="M60.44,125.77c-.9-1.6-1.2-3.5-3.4-4.1s-4.5-2-4.1-4.2c.4-2.5,2.9-3.9,5.7-3.9,2.1-1.3,2.9-4.5,6.1-3.9h.4c3.5-.1,7.1,1.7,10.4-.8a6.47,6.47,0,0,1,1.3.4c1.8,2.2,4.3,1.2,6.5,1.6,3-.1,3.8,3.6,6.7,4,1.2.2.6,1.4.2,2-.8,1.3-1.7,2.2.2,3.6,1.3,1,.4,2.5-1.1,1.8-2.7-1.1-3.7.3-5.3,1.9-1.9,2-4.6,2.3-7.3,2.3l-13.4.1A2.72,2.72,0,0,1,60.44,125.77Z"/><path class="cls-154" d="M49.24,115.57c.1-6.6.3-13.2.4-19.8.2-.5.5-.5.8,0v26l-1.1-.1Z"/><path class="cls-153" d="M70.64,88.77l.8-1.8c3.2-1.2,6.3,1,9.9.4-3.1-2.6-7.2-1.1-9.9-3.5,3.4-4.8,2.5-6.5-4.1-7.5,1-.9,2.2-.4,3.2-.6,1.5-4.9,0-9.9.5-14.8.2-2.1-.5-4.4,1.5-6.1,3.2.5.9,3.7,2.6,5,3.1,3.1,3.1,8.3,7.3,10.6,3.7,3.7,7.8,5.9,13.2,4.8,1-.2,2-.4,2.8.5-.4.5-.8,1.5-1.2,1.5-4.8.4-6.3,3.1-5.8,7.5.2,1.7-1.1,1.2-1.9,1.2-1.2,0-2.4-.3-2.7,1.4a2.1,2.1,0,0,0,.8,2.2c1,.7,1.9.2,2.7-.4.4-.3.8-.5,1.2-.8,2.7-2.1,4.5-1,6,1.5,1.8,1-.6,3.1,1.1,4,.5,2.2-.6,2.7-2.3,2a6.7,6.7,0,0,0-4.2-.6,5.07,5.07,0,0,1-1.3-.2c-.4-.2-.8-.3-1.2-.5-2.4-1.1-4.8.1-7.1.4a13.4,13.4,0,0,1-2,.1c-1.4.3-3.6-.7-3.6,2,.5,1.6,1.9,1.2,3,1.2,1.3.2,2.2-1.2,3.5-1,1.4.5,1.9,1.3.9,2.7,1.5,1.4,3.5.5,5.1.9,2.3.6.8,1.3-.1,1.9-.6,1.1-1.9,1.7-1.8,3.3.1,1.4-1.3,3.2-2.2,2.8-3.3-1.6-6,2.4-9.1.9l.1.1a4,4,0,0,0-4.3-1.3c-4.2,1-3.8-1.2-2.6-3.9-.9-1.6-2.1-3-2-5,1.3-1.7,5.1-1.1,4.3-4.7-1.2-1.3-2.9-.7-4.3-1.2a2.84,2.84,0,0,1-1.1-.8l2-1.8C68.64,89.67,68.64,88.37,70.64,88.77Z"/><path class="cls-155" d="M76.44,109.77c1.3-.7,2.4-5.3,3.9,0,2.3-1.9-.2-5.1,2.3-6.8.3.1.6.2.7.4.9,1.6-1.2,4.8,1.4,5,2.4.2,1.9-2.5,1.8-4.5-.1-1.3,2-.5,2.9-1.1.2.4.8,1.1.7,1.2-3,4.5,1,4,3.3,4.5s5,1.3,4.6-3c-.1-.9,1-2,1.9-3.3l4,5.6c-1.4,5.7-6.2,4.3-9.7,3.8a76.67,76.67,0,0,0-10.7-.5C80.64,113.27,78.14,113.57,76.44,109.77Z"/><path class="cls-156" d="M97.64,89.77c-.7.7-1.3,2-2.3,1.5-2.2-1.1,1.1-2.2.3-3.5-2-.2-3.1,1.4-4.2,2.3-1.6,1.3-3,2.4-4.7,1.1s-1.8-4.2-1-6c1.3-3,3.9,1.2,5.9-.4,2,1.3,4,2.5,2.9-2l5,2.8a.91.91,0,0,1,0,1.2C98.84,87.87,98.24,88.77,97.64,89.77Z"/><path class="cls-157" d="M99.34,86.87v-1.2c3.7-2.6,7.3,1.4,11.1.2.7-.2,1.2,1.5.8,2.5-.7,1.5-1.4,3-3.3,3.4-1,.2-2,.1-2.3-1.1-.2-1-.3-2.1-.6-4.2-1.6,2.9-2.3,5.5-5.7,6.2Z"/><path class="cls-157" d="M91.44,94.67c2-1,3.8-2.6,5.6.7.6,1.1,1.2-.8,1.7-1.5,2.6.5,2.7,3.1,4,4.7a1.57,1.57,0,0,1-2.1.4c-.1,0-.1-.1-.2-.1-2.8,2.5-5.7,3.6-8.7.2a1.65,1.65,0,0,1-1-1A3,3,0,0,1,91.44,94.67Z"/><path class="cls-158" d="M98.44,75.77c-6.6.8-12.8.5-17.6-4.9a2.09,2.09,0,0,1,1.3-.7,11.15,11.15,0,0,1,6.5,3.6c7.7,2.6,13.5-1.1,18.8-6C106.34,72.47,101.84,73.47,98.44,75.77Z"/><path class="cls-159" d="M100.44,98.77l2.3-.2c1.3-1.3.2-3.1.4-4.8a7.58,7.58,0,0,1,1.6.6c1.3,1-1.4,3.8,1.3,4,3,.2.7-3.1,2.7-4.7,1,2.4,1.7,5.7.1,6.4C106.34,101.07,102.64,102.67,100.44,98.77Z"/><path class="cls-160" d="M109.44,104.67c1.7.7-1.4,4.6,2.5,3.7-.5,1-1.3,2.7-2.3,1.8-2.3-2-2.3,1.4-3.7,1.3-1.2-1.2-.1-2.5-.5-3.7s-.6-2.2-.8-3.2a1.94,1.94,0,0,1,1.2-2.4c1.2-.2,1.6.9,1.6,1.9C107.44,106.27,107.94,107,109.44,104.67Z"/><path class="cls-157" d="M80.64,94l1.8-.2c3.1,1.5,5.9,3.3,9,4.9l.3.3c-2.2,2.3-4.9.1-7.3.9-.4-.8,0-2.5-1.8-1.9C79.64,97.77,79.74,96.07,80.64,94Z"/><path class="cls-161" d="M88.64,73.67c-2.5-.1-4.2-1.9-6.1-3-4.4-3.1-6.9-7.2-6.2-12.7l-.1-3.5c-.7-6.3,3.1-10.3,7.3-14,1.7-.6,3.2-1.8,5-2.1,1.3-.2,2.9-.9,3.6.5s-1.2,1.6-1.7,2.5a9.06,9.06,0,0,1-1.1,1.6,33.21,33.21,0,0,0-2.4,20.6c-1.2-4.5-1-12.7,2.4-20.6,3.9-4.2,5.5-4,8.7,1,2.9,6.7,2,13.6,1.1,20.5a13,13,0,0,1-2.6,6.3c-.9,1.3-1.8,3.4-4.1,1.8C90.24,70,90.14,74,88.64,73.67Z"/><path class="cls-162" d="M89,42.57l2.4-3.6c-2.8-.6-5,1.3-7.5,1.9a1.2,1.2,0,0,1-1.5-.1c4-3.5,8.8-4.2,13.9-4,2.8,1.6,6.8,1.3,8.1,5.3-3.1-1-5.6-3.7-9.3-3.2,1.2,1.7,3.2,2.7,3.4,4.9a.63.63,0,0,1-.9.1l-.1-.1c-2.3-3.7-4.8-4.2-7.7-.6a.53.53,0,0,1-.7-.5Z"/><path class="cls-163" d="M97.44,43.77h1c2.9,6.9,2.7,13.9.9,21q-.45.75-.9,0C98.84,57.77,100.44,50.67,97.44,43.77Z"/><path class="cls-164" d="M98.54,64.77h.9c-1.1,6.6-4,9.9-7.5,8.8-.1,0-.1-.3,0-.4s.4-.5.6-.7C97.24,72.07,97.14,67.77,98.54,64.77Z"/><path class="cls-165" d="M64.64,37.77c1.8-1.3,3.5-2.8,5.9-3,.7-.8,1.5-1.6,2.2-.2a7.78,7.78,0,0,1,.2,4c-1.5,10.6-1,21.2-.9,31.8,0,3.6-1.3,4.4-4.4,3.9-3.4-.3-6.8.5-10.2-.2.6-10.2.6-20.4.3-30.6a3.25,3.25,0,0,1,2.1-3.1A54.24,54.24,0,0,0,64.64,37.77Z"/><path class="cls-166" d="M50.44,95.77h-.8a31.08,31.08,0,0,0,0-6.1c-.4-15.4,1.4-30.8.8-46.9,1.8,1.9,1.2,3.4,1.2,4.7,0,14.1-.1,28.2-.2,42.4C51.24,91.87,51.54,94,50.44,95.77Z"/><path class="cls-167" d="M67.44,73.87c2.2-.3,4.4-.2,4.2-3.8a229.11,229.11,0,0,1,.5-32.1c.1-.7,2-3.6-1.5-3.2-.4-1.7.5-2.8,2-2.7,1.7.1,1,1.8,1,2.8-.3,6.6-.6,13.3-.9,19.9-.1,6.2-.6,12.4.4,18.5.3,2-.6,2.5-2.4,2.3l-3.2-1q-.45-.3-.3-.6A.35.35,0,0,1,67.44,73.87Z"/><path class="cls-168" d="M66.54,92.77a2.92,2.92,0,0,1,.9.2c1.9,1.5,4,.9,6.1.7.5,4.4-1.5,6.4-6,5.8a8.78,8.78,0,0,0-.1-2.8c-.3-.8-.8-2.2-1.9-1.8-.6.3-1.2,2.3-.9,2.6,1.9,1.7.8,2.1-.9,2.2-1.2.1-2.2-.2-2.2-1.8C61.44,94.37,62,91.77,66.54,92.77Z"/><path class="cls-169" d="M71.54,83.87c2.1-.6,4.1.7,6.3.5,3.9-.3,4.9,1.8,3.4,6.3-1.1-1.8-2.3-3.6-3.1,0-2.1-.6,0-3-1.8-3.7-1.9.4,0,3-2.2,3.4-1.6-.4.3-4-2.7-3.5Z"/><path class="cls-170" d="M64.64,37.77c-6.9,2.9-6.2,8.6-6.1,14.6.1,7.1.5,14.2-1,21.2a.93.93,0,0,1-1.2.2c1.4-10.2,1.8-20.4.2-30.5-.4-2.2,1.1-2.6,2.3-3.1C60.84,39.37,62.34,37.37,64.64,37.77Z"/><path class="cls-171" d="M64.84,109.77c-2.6.4-2.4,5.3-6.1,3.9-.4-1.6.5-4.4-3-3-.8.3-1.6-.6-1.8-1.3-.3-1.2.6-1.2,1.5-1.2,3,.1.7-3.2,2.5-4,3,.3-.5,3.8,2.2,4.4,2.5.5,3.3-.9,3.8-3.2C65.14,107.17,64.74,108.47,64.84,109.77Z"/><path class="cls-171" d="M69.54,104.57c.6.9-1.5,4.2,2.4,2.2,1.8-1,4.2.2,4.6,3-2.6-.2-3.9.8-3,5-2.6-3.6-5.7-3.7-8.4-5C68.14,109.27,67,105.47,69.54,104.57Z"/><path class="cls-172" d="M70.64,88.77,68.54,91c-1.4-.1-3.1.4-3.2-2,0-1.8-.4-2.6-2.2-.9-.9.9-1.2-.1-1.3-1s-.9-1.9,0-2.8C63.54,82.87,70.14,86.37,70.64,88.77Z"/><path class="cls-173" d="M60.54,87.67c.2,1.8-.1,3.2-2.2,3-3.5-.3-1.2-3.5-2.4-5-.8-1,.3-1.8,1.4-1.8C59.94,84,60.64,85.67,60.54,87.67Z"/><path class="cls-174" d="M55.54,93c2.2.3,1.4,2.9,3.2,2.4.5-.1.5-1.6,1-3a7.87,7.87,0,0,1,.4,6.7c-1.3-.5-3.7.1-3.8,0C54.64,97.37,55.84,95.17,55.54,93Z"/><path class="cls-175" d="M82.44,40.77l1.5.1c-4,3.7-7.3,7.8-7.7,13.5C74.24,48,78.34,44.37,82.44,40.77Z"/><path class="cls-176" d="M76.34,58c0,5.2,2.9,9.1,6.2,12.7l-1.7.1c-3.4-2.9-4.8-6.8-5.7-11C75.34,59.07,75.44,58.17,76.34,58Z"/><path class="cls-177" d="M56.44,73.77l1.2-.2,9.8.3v.9c-3.3.2-6.6.5-9.9.8C56,75.57,55,75.47,56.44,73.77Z"/><path class="cls-178" d="M91.34,98.67c-4.1.4-6.7-1.9-9-4.9,2.7-.5,5.4-2,8.2-.3-.3.9-1.9.7-1.8,2.1.8-.8,1.5-2,2.8-.9v-.1Z"/><path class="cls-179" d="M80.64,94c.8,1.3-.2,3.4,2,4-.6.7-.9,2-2.1.7-.7,1.2-.8-3.2-2-.2-.4,1-1.9-.3-2.9-.7C74.64,93.17,77.64,93.47,80.64,94Z"/><path class="cls-180" d="M73.54,93.67c-2.4,2.8-4.4,2.6-6.1-.7C69.44,92.87,71.64,92.07,73.54,93.67Z"/><path class="cls-157" d="M91.54,94.77a2.92,2.92,0,0,0-.9.2c-1.1.6.5,3.1-1.8,2.7-1.5-.3-1.5-2.5-1.4-3.1.1-1.7,2-.7,3.2-1Z"/><path class="cls-181" d="M75.54,97.77c.3-.9,3.7,2,1.8-1.5,2.5-1,2.1,1.6,3.1,2.4C78.54,100,76.74,100.77,75.54,97.77Z"/><path class="cls-182" d="M89.74,43.17c-3.1,8.5-3,17.1-1.5,25.8-3.3-8.9-3.9-17.7.7-26.5A1.85,1.85,0,0,1,89.74,43.17Z"/></g></g></svg>