<svg xmlns="http://www.w3.org/2000/svg" viewBox="0 0 150.78 152.23"><defs><style>.cls-1{fill:#fdf9f4;}.cls-2{fill:#f9f4f0;}.cls-3{fill:#e4deda;}.cls-4{fill:#35312d;}.cls-5{fill:#706d68;}.cls-6{fill:#655d57;}.cls-7{fill:#43403c;}.cls-8{fill:#827c77;}.cls-9{fill:#e7ded7;}.cls-10{fill:#605a57;}.cls-11{fill:#56514e;}.cls-12{fill:#726b63;}.cls-13{fill:#595451;}.cls-14{fill:#4c4741;}.cls-15{fill:#4c4642;}.cls-16{fill:#66625c;}.cls-17{fill:#a49992;}.cls-18{fill:#a19a97;}.cls-19{fill:#383533;}.cls-20{fill:#756e6c;}.cls-21{fill:#413a36;}.cls-22{fill:#f5e4d6;}.cls-23{fill:#8d6d56;}.cls-24{fill:#745438;}.cls-25{fill:#e6ddd5;}.cls-26{fill:#f3e4d9;}.cls-27{fill:#5c3f2b;}.cls-28{fill:#ecdbce;}.cls-29{fill:#e9dbd1;}.cls-30{fill:#bcafa8;}.cls-31{fill:#5a5149;}.cls-32{fill:#9c8a7e;}.cls-33{fill:#6f5e54;}.cls-34{fill:#f3e6db;}.cls-35{fill:#9b8a7e;}.cls-36{fill:#b9aaa0;}.cls-37{fill:#8c7e71;}.cls-38{fill:#948175;}.cls-39{fill:#938074;}.cls-40{fill:#84756d;}.cls-41{fill:#968576;}.cls-42{fill:#6c5849;}.cls-43{fill:#8f7d73;}.cls-44{fill:#78685d;}.cls-45{fill:#f1e3db;}.cls-46{fill:#5e5044;}.cls-47{fill:#38302b;}.cls-48{fill:#75675b;}.cls-49{fill:#f4e3d6;}.cls-50{fill:#7d6f66;}.cls-51{fill:#7d7670;}.cls-52{fill:#7a6b61;}.cls-53{fill:#aa988b;}.cls-54{fill:#6e5f50;}.cls-55{fill:#83766b;}.cls-56{fill:#7a6b65;}.cls-57{fill:#827064;}.cls-58{fill:#988a7f;}.cls-59{fill:#817975;}.cls-60{fill:#7c7773;}.cls-61{fill:#cfc7c2;}.cls-62{fill:#6f5e56;}.cls-63{fill:#a5a19c;}.cls-64{fill:#fbf5ee;}.cls-65{fill:#efe0d6;}.cls-66{fill:#c9b6a9;}.cls-67{fill:#b6a99e;}.cls-68{fill:#efe4db;}.cls-69{fill:#f0e3d8;}.cls-70{fill:#9a8f85;}.cls-71{fill:#baaea7;}.cls-72{fill:#aa9e95;}.cls-73{fill:#82766c;}.cls-74{fill:#c6bab1;}.cls-75{fill:#7f766f;}.cls-76{fill:#888077;}.cls-77{fill:#95867b;}.cls-78{fill:#efe2d7;}.cls-79{fill:#a7988d;}.cls-80{fill:#ecdcd1;}.cls-81{fill:#f4e7dd;}.cls-82{fill:#ddd5d1;}.cls-83{fill:#a98366;}.cls-84{fill:#be9a78;}.cls-85{fill:#87766a;}.cls-86{fill:#ead3b1;}.cls-87{fill:#948074;}.cls-88{fill:#9c897b;}.cls-89{fill:#68564b;}.cls-90{fill:#a39084;}.cls-91{fill:#857466;}.cls-92{fill:#efd2a1;}.cls-93{fill:#b98f6d;}.cls-94{fill:#937247;}.cls-95{fill:#c79f7d;}.cls-96{fill:#fbf1e7;}.cls-97{fill:#f1e7e0;}.cls-98{fill:#f8f2e9;}.cls-99{fill:#e9dcd2;}.cls-100{fill:#ede4db;}.cls-101{fill:#ebe0d9;}.cls-102{fill:#8a7d73;}.cls-103{fill:#ede2da;}.cls-104{fill:#a18d80;}.cls-105{fill:#8d7e71;}.cls-106{fill:#a09083;}.cls-107{fill:#8b674e;}.cls-108{fill:#9a7559;}.cls-109{fill:#eee1d4;}.cls-110{fill:#ad927d;}.cls-111{fill:#ecddd2;}.cls-112{fill:#a99484;}.cls-113{fill:#f0dfd2;}.cls-114{fill:#cdc3ba;}.cls-115{fill:#a79a91;}.cls-116{fill:#f0ded1;}.cls-117{fill:#cdc1b9;}.cls-118{fill:#82766b;}.cls-119{fill:#866f5d;}.cls-120{fill:#7f7064;}.cls-121{fill:#936c41;}.cls-122{fill:#a39086;}.cls-123{fill:#fcf6f2;}.cls-124{fill:#f5eae2;}.cls-125{fill:#f8ecdf;}.cls-126{fill:#b9aca3;}.cls-127{fill:#f6ede4;}.cls-128{fill:#9e9187;}.cls-129{fill:#f9f0e7;}.cls-130{fill:#b1a59d;}.cls-131{fill:#e8bf91;}.cls-132{fill:#977a5c;}.cls-133{fill:#8e7666;}.cls-134{fill:#8c6c4c;}.cls-135{fill:#f6eae1;}.cls-136{fill:#f3eae2;}.cls-137{fill:#f2e2d7;}.cls-138{fill:#604023;}.cls-139{fill:#b6a79e;}.cls-140{fill:#81746a;}.cls-141{fill:#f6eade;}.cls-142{fill:#f5e9de;}.cls-143{fill:#a39288;}.cls-144{fill:#aa9d91;}.cls-145{fill:#f1d3ac;}.cls-146{fill:#7d5934;}.cls-147{fill:#8b673e;}.cls-148{fill:#7d5731;}.cls-149{fill:#7b5734;}.cls-150{fill:#916c45;}.cls-151{fill:#a77f55;}.cls-152{fill:#926d3f;}.cls-153{fill:#87623b;}.cls-154{fill:#805a3b;}.cls-155{fill:#ad8760;}.cls-156{fill:#a0794f;}.cls-157{fill:#725231;}.cls-158{fill:#7e5b3a;}.cls-159{fill:#86633f;}.cls-160{fill:#ad8b5d;}.cls-161{fill:#ae8357;}.cls-162{fill:#573b20;}.cls-163{fill:#97704a;}.cls-164{fill:#bc9674;}.cls-165{fill:#c6a278;}.cls-166{fill:#c5a179;}.cls-167{fill:#c09978;}.cls-168{fill:#674723;}.cls-169{fill:#9b714b;}.cls-170{fill:#865d37;}.cls-171{fill:#3f2410;}.cls-172{fill:#8d6941;}.cls-173{fill:#d5af84;}.cls-174{fill:#694725;}.cls-175{fill:#674b2d;}.cls-176{fill:#c4a179;}.cls-177{fill:#68492b;}.cls-178{fill:#e9c697;}.cls-179{fill:#deb382;}.cls-180{fill:#88786e;}.cls-181{fill:#d3bfaf;}.cls-182{fill:#f8d5a7;}.cls-183{fill:#e1b88b;}.cls-184{fill:#bc9866;}.cls-185{fill:#684627;}.cls-186{fill:#ecc69e;}.cls-187{fill:#c09b6a;}.cls-188{fill:#d9b48d;}.cls-189{fill:#d1aa84;}.cls-190{fill:#e9c8a4;}.cls-191{fill:#cca67f;}.cls-192{fill:#5f4124;}.cls-193{fill:#e3be91;}.cls-194{fill:#d3ab81;}.cls-195{fill:#d8b289;}.cls-196{fill:#d1ac81;}.cls-197{fill:#d2a67c;}.cls-198{fill:#7f5b38;}.cls-199{fill:#e3ba8c;}.cls-200{fill:#f4d2aa;}.cls-201{fill:#e0bc95;}.cls-202{fill:#b0875c;}.cls-203{fill:#633e1a;}.cls-204{fill:#caa480;}.cls-205{fill:#bd936d;}.cls-206{fill:#e6c195;}.cls-207{fill:#f5d4ad;}.cls-208{fill:#e9c393;}.cls-209{fill:#87633a;}.cls-210{fill:#be9976;}.cls-211{fill:#e3bb93;}</style></defs><g id="Layer_2" data-name="Layer 2"><g id="Layer_1-2" data-name="Layer 1"><path class="cls-1" d="M136.71,37.27c1.32,3.57,4.51,6.11,5.46,9.89-.43,3.22,2.24,5.32,3,8.19,2.83,11.37,4.08,22.75,1.43,34.32-.1,4.43-2,8.4-3.23,12.53a13.8,13.8,0,0,1-.53,1.34c-1.91,3.93-4.16,7.7-5.64,11.83a31.29,31.29,0,0,1-3.37,6,11.85,11.85,0,0,1-2.45,2.45,43.1,43.1,0,0,0-9.66,9.64,16.55,16.55,0,0,1-3.33,2.57c-2.16,1.54-4,3.57-6.66,4.34-10,4.08-20,8.09-31,8.84a33.59,33.59,0,0,1-10.11-.06c-1.65-.53-3.32-1.05-4.17-2.78-.66-5.21-1.45-10.43,1.24-15.38a3.45,3.45,0,0,1,3-.52c3.21,2.87,3.47,6.75,3.79,10.67.06.68-1.09,2.59,1.27,1.92a2.58,2.58,0,0,1,2.31.14,2.53,2.53,0,0,0,2.15,0,4.13,4.13,0,0,1,1.72-.54c2.21.48,4.18-.74,6.29-.92,3.08,1.08,5.77.08,8.33-1.54,1.81-1.59,2.88-4.2,5.83-4.2.54.39.8,1,1.69,1.74-.88-3-3-5.83-.46-8.51,1.42-1.5,3.2-2.41,5.29-1a4.41,4.41,0,0,1,.73,1.12,18.31,18.31,0,0,0,.92,2.67,28.06,28.06,0,0,1-.93-3.1c-.59-1.54-1.46-3.09.27-4.48a6.77,6.77,0,0,1,1.77-.92c1.78-.63,3.4-2.87,5.42-1.42s.23,3.66.25,6a6.88,6.88,0,0,0-.83-7.72,2.75,2.75,0,0,1,.36-2c3.61-1.08,3.72,2.72,5.57,3.87-.31-1-1.79-1.65-1.52-3.12a3.07,3.07,0,0,1,1.41-1.52c1.76-.88,3.76-.26,5.63-.84-.32-1.28-1.71-1.9-1.86-3.22.56-3.66,1.19-3.81,4.63-1.1,2.29-.36,2.71-1.46,1-3-.78-.73-1.94-1-2.24-2.26a6.43,6.43,0,0,1,.83-4.07c2.92-3.49,4,.65,5.87,1.45.44-.79-.12-1.55-.06-2.32.88-5.33,3-10.23,5-15.17a4.48,4.48,0,0,1-.51-1.88c.15-1.31,1.27-2.3,1.23-3.67.12-3.64-.65-7.22-.71-10.84,0-1.12.23-2.21.22-3.32a3,3,0,0,0-1.41-2c-2.68-1.43-4.28-2.87-.35-4.86.63-.31-.07-1.14-.45-1.65-1.1-1.21-1.73-2.81-3-3.83-2.75-2.16-2.92-3.52,1.05-3.78.1,0,.25-.22.25-.32s-.16-.25-.28-.38a18.47,18.47,0,0,1-2.52-2.48c-.72-1.45-.29-3-.3-4.47-.51-2.44-3.53-2.24-4.47-4.24-.68-1.27,1-4-2.2-3.71-3-.94-4-3.69-5.41-6-.54-1.25-1.21-2.29-2.75-2.48-1-.13-2.46-.37-2.3-1.38.68-4.38-2.7-2.36-4.39-3-.85-1.94-3.36-2.56-3.82-4.8-.45-1-1-1.74-1.72-.22-.55,1.13-.92,2.35-2.21,2.91-2.83.23-3.93-1.72-4.82-3.9-.51-1.24-.14-3.12-2.35-3a6.47,6.47,0,0,1-3.76-1.2C92.89,9.5,90,9.27,87.36,9c-1.62-.15-1,1.16-.85,2,.85,2.33,2.22,4.82-2,5.24-1.41.14-.75,1-.29,1.69a2.71,2.71,0,0,1,0,3.58,3.61,3.61,0,0,1-2.16.41c-1.82-.69-4.37.07-5.16-2.63,2.31-4.19,1.31-9.25,3.48-13.49A3.93,3.93,0,0,1,83,4.12a15.58,15.58,0,0,1,5.53.14A76,76,0,0,1,131,28.93a6.33,6.33,0,0,1,.81,1.16A22.33,22.33,0,0,0,136.71,37.27Z"/><path class="cls-2" d="M98.11,4.26c2,2,5,.1,7.06,1.85a3,3,0,0,0-.94,2.37A2.9,2.9,0,0,1,103,9C98.5,7.05,93.75,6.13,89.11,4.82,82.5,3.74,75.86,5,69.25,4.62c-3.67-.09-7,1.69-10.69,1.72a103.53,103.53,0,0,0-11.37,4,18,18,0,0,0-3.68,1.55c-1.92,1-3.64,2.32-5.59,3.26a8.66,8.66,0,0,0-2.86,2.59,11.48,11.48,0,0,1-2.42,2.09A8.49,8.49,0,0,1,30.31,21c-2.72,1.3-4.31,3.88-6.47,5.8a10.92,10.92,0,0,0-3,4.26,6.94,6.94,0,0,1-1.19,1.6c-.32.32-.65.62-1,.92-1.91,1.93-3.11,4.38-4.66,6.55-.94.94-.46,2.47-1.39,3.41A59.52,59.52,0,0,0,7.11,57.28C5.77,63.77,4.22,70.22,4.48,76.93a16.16,16.16,0,0,0,1.27,6.28C5.64,85.74,4.58,87,1.89,86.09c-.15-2-.68-4-.7-6,0-3.16-.09-6.32.07-9.48.6-3.23.45-6.57,1.43-9.75,1.73-10,6-19,11.18-27.61,6.22-7.76,12.52-15.36,21.19-20.72A77,77,0,0,1,69.06.79c6.58.23,13.22-.69,19.72,1C92.05,2.05,95,3.32,98.11,4.26Z"/><path class="cls-3" d="M133.12,121c.33-2.14,2-3.53,3-5.31,2.11-4.13,4.45-8.16,6.06-12.54l-.06.08c1.82-4.31,3.56-8.66,3.84-13.42,2.85-12,1.55-23.8-1.89-35.49-.39-1.31-1.5-2.62-.58-4.15,1.37-1.06,2-1,2.78.9,2,4.94,2.18,10.27,3.86,15.25-.2,6.61-.09,13.22-.47,19.83-2.09,11.51-5.66,22.45-12.49,32.13l.08-.11C135.89,119.16,135.77,121.9,133.12,121Z"/><path class="cls-4" d="M119.11,138.05c-8.18,6.52-17.54,10.08-27.75,12.33a82.33,82.33,0,0,1-22.14,1.71c.09-2.47,2.22-1.83,3.59-2.36.94-.11,2,.81,2.83-.26a6.12,6.12,0,0,1,2-.27c9.81-.52,19.3-2.29,28.1-6.93a24.28,24.28,0,0,1,6-2.31c2.31-.6,3.94-2.49,6.16-3.26C118.7,136.82,119.26,137.12,119.11,138.05Z"/><path class="cls-5" d="M68.22,1.12C61.74,3,55,3.58,48.66,6.26c-13,5.5-23.82,13.56-32.14,25a20.42,20.42,0,0,1-2.08,2.08c-.39.53-.77.51-1.12,0C25.56,14.34,43.4,4.25,65.24.44a15,15,0,0,1,3,0q.45.24.3.48C68.44,1.08,68.33,1.14,68.22,1.12Z"/><path class="cls-6" d="M73.26,150.42c-1.06,1.26-3.16,0-4,1.67a71.53,71.53,0,0,1-43-18.93,1.56,1.56,0,0,1,1.33-1.32A4.12,4.12,0,0,1,30,133a38.41,38.41,0,0,0,8.45,5.63,22.29,22.29,0,0,0,5.48,3c5.78,3.08,12,4.76,18.34,6.24C65.89,148.9,70,148.24,73.26,150.42Z"/><path class="cls-7" d="M2,80.27c.14,2,.29,3.94.43,5.91a4.61,4.61,0,0,1,1.7,3,80,80,0,0,0,17.62,36.26,3.89,3.89,0,0,1,.15,1.52,2.32,2.32,0,0,1-.75,1.31C9.3,115.69,2.19,101,1,83.55,1,82.31-.26,80.74,2,80.27Z"/><path class="cls-8" d="M143.46,50.16c4,12.18,6,24.57,3.74,37.39-.17,1,0,2-.94,2.69-.29.44-.56.45-.83,0,1.37-9.67,2-19.34-.32-29-1-4-2.27-7.93-3.47-11.88-.27-.9-1.11-1.83.53-2.23Z"/><path class="cls-9" d="M104.1,8.55l.07-1.3c6.16.06,10.09,4.62,14.81,7.5a39.21,39.21,0,0,1,8.21,6.94,23.7,23.7,0,0,1,6,6.69,2.11,2.11,0,0,1-.07,2.87c-1.16.63-1.45-.51-2.06-1l.09.06c-6.51-8.41-14.88-14.52-24.2-19.45C105.88,10.28,104.25,10.33,104.1,8.55Z"/><path class="cls-10" d="M137.14,118.27c2.05-4.26,4.05-8.54,6.17-12.77,2.91-5.81,3.66-12.26,5.59-18.35.36-.41.7-.42,1,0C148,98.5,145.25,109.5,137.14,118.27Z"/><path class="cls-11" d="M13.32,33.26h1.12A118.48,118.48,0,0,0,3.17,60.19c-.3.43-.6.46-.9,0C3.64,50.29,7.82,41.5,13.32,33.26Z"/><path class="cls-12" d="M127.14,22.26c-7-6.06-14.17-11.75-23-15-1-1.6,1.07-.41,1-1.14,8.79,3.35,16.19,8.78,22.86,15.3C128.18,22.16,128.08,22.65,127.14,22.26Z"/><path class="cls-13" d="M133.12,121l4.1-2.83a25.61,25.61,0,0,1-12,14.1c-.11-.2-.22-.4-.34-.59.5-2.87,3.52-4.06,4.41-6.66.38-.84,1.26-1.26,1.72-2A2.88,2.88,0,0,1,133.12,121Z"/><path class="cls-14" d="M150,87.18h-1c.07-6,.11-11.93.22-17.89,0-1.06-.6-2.39,1-3A76.52,76.52,0,0,1,150,87.18Z"/><path class="cls-15" d="M68.22,1.12V.4c7.65-.63,15.28-.65,22.85,1,.29.94,0,1.33-1,1.08C82.85.89,75.51,1.41,68.22,1.12Z"/><path class="cls-16" d="M2,80.27c-.34,1.08-.67,2.15-1,3.23A25.63,25.63,0,0,1,1,69c.63.11.68.71,1,1.12C2,73.5,2,76.9,2,80.27Z"/><path class="cls-13" d="M119.11,138.05l-.86-.83a1.53,1.53,0,0,1-.27-2.1l2.8-2.19c1-.2,1.56-1.07,2.48-1.32a1.87,1.87,0,0,1,1.93.62h0A16.46,16.46,0,0,1,119.11,138.05Z"/><path class="cls-17" d="M127.14,22.26l.89-.85c2.42,1.81,4.9,3.57,5.19,7C130.64,26.89,129,24.5,127.14,22.26Z"/><path class="cls-18" d="M90.07,2.5l1-1.08a10.94,10.94,0,0,1,7,2.89C95.23,4.5,92.65,3.5,90.07,2.5Z"/><path class="cls-19" d="M2,70.15,1,69c-.05-3,0-6,1.21-8.8a3.39,3.39,0,0,1,.9,0C2.79,63.5,2.4,66.84,2,70.15Z"/><path class="cls-20" d="M131.09,30.25c1-.37,1.28.86,2.06,1l3.56,6C133.44,36,132.44,33,131.09,30.25Z"/><path class="cls-21" d="M21.19,128.22,21.3,127c3.15.49,4.84,2.57,5.86,5.38l-.91.83A18.59,18.59,0,0,1,21.19,128.22Z"/><path class="cls-22" d="M143,81.94c.63,1.75-1.1,2.2-1.78,3.22-1.58,1.45-3.14.29-4.69,0-3.72-.8-3.72-.82-3.59,3.86.42-3.4,2.31-3.79,5-2.83,1.39.49,2.85,1.1,4.29.07,1.23,1,1.6,2.64.45,3.42-4.59,3.1-3,8.71-5.48,12.61-.16,0-.43.11-.47,0-2.82-4.11-5.91-4.81-9.41-.77-3-.77-2.71-2.93-2-5.08.87-2.5,1.24-5.11,1.91-7.65,1.76-6.66,1.34-13.33.6-20-.24-6.35-2.48-12.12-5.16-17.76-1-2.07-1.75-4.27-3.36-6-3.64-5.68-8.67-9.94-14.07-13.83-6-3.5-12.56-5.88-19-8.49-.74-.86-.94-2.24-.13-2.62,3.8-1.79,2.12-4.24,1-6.63-.74-1.57-.21-2.48,1.3-3.05,2.13-.38,4.1-.25,5.47,1.75a6.27,6.27,0,0,1,4,1.07c1.37,2.59-1.82,3.47-1.78,5.55.9,0,1-1.22,1.76-1.73s1.34-1.13,2.17-.73.8,1.43.7,2.19c-.44,3.57,1.43,4.3,4.42,3.73,1.74-1.63,2-4.64,4.92-5.16-.4,2.62,2.56,3.2,3.16,5.22.06,2.31-2.07,2.05-3.31,2.83a3.36,3.36,0,0,0-1.16.63c.65.67,1.24-.2,1.88-.08,2.25,1.73,4.51,3.17,7.59,1.88a1.84,1.84,0,0,1,2.28,1.24v0c.08,1.63-.9,2.78-2,4.15a38.15,38.15,0,0,0,2.86-3.23c.54-.47,1.09-.91,1.83-.4,1.61,2,2.44,4.58,4.83,5.9,1.66,1.71.84,3.28-.26,4.84-1.42,1.22-2.67-.41-4.15-.24,1.82.7,3.85,1.39,3,3.79-1.28,3.41.3,6.14,1.64,9,1,2,1.82,4.16,2.73,6.24a5.28,5.28,0,0,0,2.39,2.44c2.68,1.39,2.37,3.24.83,5.28-.75,2.39,1.54,2.45,2.63,3.34,1.72,1.4,3.93,2.3,4.33,4.86.08,1.42.42,2.86-.37,4.2-2.24,2.36-4.38.15-6.72-.23,1.33,1.55,3.2,1.57,4.74,2.27a8.55,8.55,0,0,0,3,.66A2.46,2.46,0,0,1,143,81.94Z"/><path class="cls-23" d="M129.07,68.28c1.49,10.08,1.09,20-3,29.49-1,2.38.12,2.89,2,3.24,1.33.11,2.32.63,2.55,2.08-.09,1.19-.94,2.12-1.89,1.78-4.42-1.55-5.81,1.73-7.55,4.47-2.51,4-6,7-9.34,10.22-.48.47-.31-.14-.26.35.08.76.69,0,1.1,0a6.05,6.05,0,0,1,4.3.43c3.75,3.34,2.31,7,.85,10.93-4.94-2.71-.08-6-.92-8.77-2.87-.49-3.72,3.6-6.6,2.61a8.11,8.11,0,0,1-4.4-3c-.23-1.49.77-2.6,1.21-3.89,4.76-5.18,9.64-10.26,13.06-16.53,1.24-2.28,2-4.47,1.08-7-.52-2.5.18-5,.07-7.47,0-1.22.35-2.78,1.48-2.93,5-.66,4-4.32,4.06-7.49v-4C127.14,71.09,126.4,68.82,129.07,68.28Z"/><path class="cls-24" d="M86.31,22.13A55.78,55.78,0,0,1,106,30.4c.32,2.7-.14,2.89-3.8,1.61-6.66-5.09-14.67-6.17-22.57-7.58-.65-.12-1.15,0-.49.07.07,0,.11.27.19.44.63,3.12-.74,4.66-3.27,2.59-4-3.3-8.13-2.28-12.16-1.07C58.8,28,53.57,29.23,49.2,32.52a6.67,6.67,0,0,1-3.72,1.3A1.88,1.88,0,0,1,43.61,32,4.75,4.75,0,0,1,45.37,29a8.6,8.6,0,0,1,1.55-1.27,16,16,0,0,1,2.3-1.16,10.76,10.76,0,0,0,2.19-1.18,7.82,7.82,0,0,1,1.58-1c.38-.21.77-.4,1.15-.58,2.45-1.14,1.36-4,2.83-5.66a1.58,1.58,0,0,1,1.28-.07c.84.77.89,1.89,1.24,2.86s1.24.63,2,.47c1.29-.38,2.55-.85,3.83-1.25a9.52,9.52,0,0,1,3-.54c4.67,0,9.23,1,13.85,1.49l2,.29A2.49,2.49,0,0,1,86.31,22.13Z"/><path class="cls-25" d="M82.18,21.09l-15-.44c-3.05-1.06-2.15-3.51-2-5.69,1.67-3.31.32-7.62,3.44-10.47,4.46-1.39,9-.52,13.56-.64.72,0,1.09.59,1.12,1.31L81.07,6.38A4.89,4.89,0,0,0,79,9.6c-.43,2.07-1.66,2.77-2.61,2.06,2.51,1.46.55,4.75.75,7.61C78.45,21,81,19.41,82.18,21.09Z"/><path class="cls-26" d="M106.14,122.14c2.25-.24,3.1,1.49,4.15,3-1.28,1.32.41,2.72-.12,4.06-.33.48-.68.5-1,0h0c-1.32-1.43-1.9-4-4.91-2.42-2.58,1.37-3.12,3-1.82,5.55.64,1.26,1.26,2.8-.5,3.89l-4.62,4.9-.63-.29c-3.06-2.11-1.13-5.08-1.36-7.9-.92,2.39-2.19,4.07-4.94,3.55a2.46,2.46,0,0,1-.92-1c-.58-1.5-1.19-2.91-2.68-.62a1.91,1.91,0,0,1-1.19.61,7.44,7.44,0,0,1-4.65-3.13l-.12-.74a1.85,1.85,0,0,1,.87-1.14C90.38,129.31,98,124.87,106.14,122.14Z"/><path class="cls-27" d="M106.14,122.14a51.34,51.34,0,0,1-24.85,9.18c-3.4,2.07-6.84,1.38-10.28.1l-2.79-.14c-1,0-1.41-.38-.92-1.37,3.36-1.65,7.13-1.1,10.66-1.92,1.77-.41,3.65-.36,4.84-2.06,1.72-3.58,5.81-2.15,8.37-4,1.82,2.56,3.89,2.91,6.62,1.19,2.06-1.3,4.3-2.34,6.35-3.71,1.32-.53,2.64-1.51,4-.12Z"/><path class="cls-28" d="M113.17,120.23c-1.32.27-1.84,3.16-3.36,1.69-2-1.91.62-2.74,1.71-3.66a47.28,47.28,0,0,0,10.22-12.1c1.57-2.69,2.94-4.21,6-2a1.6,1.6,0,0,0,2.23-.37,1.67,1.67,0,0,0,.23-.44c.14-.48.42-.58.84-.31-.29,1.4-.59,2.8-.89,4.2-1.21.67-2.12-.74-3.55-.4,3.62,1.36,6,3.25,3.7,7.31-1.62-.24-.88-3.16-2.93-2.71-1.1.24-.22,1.4-.42,2.11.74,2.44-3.39-3-1.82,1.13.37,1-1.15,1.34-2.07,1.55-1.58.35-3.23.12-4.81.47C116.35,117.5,115.68,120.2,113.17,120.23Z"/><path class="cls-29" d="M129.86,59.24l-2.67-6.1c.46-1.53-2.36-5.43,2.66-3.68,2.64,1.34,5.54-.91,8.16.59-.35.87,3.8.64.56,2.12-1,.45-2.26.21-3.62.54,3.31.49,3.17,4,5.2,5.53-.18,3.82-2.62,4-5.43,3.22C133,61,131.63,59.67,129.86,59.24Z"/><path class="cls-30" d="M112.23,140.44C101.3,146.27,90,150.58,77.28,150.1c-.42-1.6.82-1.3,1.65-1.38a18.43,18.43,0,0,1,2.35,0c.66,0,1-.28.3-.16-.2,0-.39-.22-.53-.55a98.92,98.92,0,0,0,29.13-8.89c.5-.24,1.29.1,1.95.17C112.75,139.62,112.79,140,112.23,140.44Z"/><path class="cls-31" d="M104.1,8.55c9,4.47,17.39,9.73,24.09,17.34,1.17,1.33,2.8,2.41,3,4.42-5-4.27-9.37-9.2-14.8-13C108,11.46,98.6,8.1,88.86,5.47c.12-.7.75-.75,1.25-1C95,5.08,99.5,7,104.1,8.55Z"/><path class="cls-32" d="M71,131.42l10.28-.1a4.41,4.41,0,0,0-.09.89c-.83,1.26-.43,2.36.19,3.63,1.18,2.41,1.66,4.94-.08,7.38l-1,1.19c-2.79-1.64-2-4.77-3-7.16a28,28,0,0,0-1.81-2.47c1.86,2.74,2.75,5.49.57,8.38-.68,1.24-.49,3-2.9,4.11C73,141.73,73.23,136.33,71,131.42Z"/><path class="cls-33" d="M109.23,24.32l4-2c1.56.66,2.8-2.58,4.78-.1,1.55,1.93.4,2.59-1.21,3.94,3.2-.23,6.35-1.09,6.42,3.2l-1.07.89c-1.2.65-2.14.79-2-1.06-.37-.24-.78-.73-1.11-.68-5.87.91-5.86.93-8.77-1.83C109.29,26.1,108.73,25.43,109.23,24.32Z"/><path class="cls-34" d="M81.31,143.22c-.62-3,.55-6.16-2.52-8.92-1.83-1.65.58-2.43,2.41-2.09l-.06-.06c.71,2.07,2.76,3.38,3,5.85,1-1,1.1-2.24,2.1-2.85l-.08.07c1.48-1,2.92-1.48,4.07.46l-.11.26c.48.58,1.3.65,1.79,1.2,2.14,4.24-1.29,4.29-3.79,5C86,143.86,84,145,81.31,143.22Z"/><path class="cls-35" d="M106,23.13c-.94,1.25-3.45,1.39-3.42,1.09.46-3.7-5.17.59-4.16-3.26.35-1.35,2.06-2.29,1.23-4.09-1.74.7-2.11,2.48-3.07,3.75-.66.89-1.23,1.61-2.38.88s-.88-1.56-.23-2.51c1.33-1.9,2.59-3.85,3.88-5.78,1.42-1.61,2.55-2.27,3,.7.39,2.73.77,5.57,4.28,6.19C106.29,20.85,105.7,22.12,106,23.13Z"/><path class="cls-36" d="M102,136.24a4.68,4.68,0,0,0-.19-3.84c-.64-1.37-3.37-2.36-1.83-4,1.72-1.82,4.24-3.59,6.59-3.89,1.77-.22,2.21,2.81,2.66,4.7-2.25-1.49-4.21-.52-5.55,1.21s1.12,3.59.87,5.52c-.18,1.36,3.48-.35,1.61,2a3.61,3.61,0,0,1-2.53,1.26C101.64,139.18,102.14,137.44,102,136.24Z"/><path class="cls-37" d="M131.05,103a2.08,2.08,0,0,0-.84.31l-2.16-2.3c.62-2,1.11-4.88,3.42-4.86,3.43,0,3.69,4.08,5.65,6.1-.81,1.53,2.4,3.29.2,4.27-1.47.65-3.38-.33-3.63-2.8a1.47,1.47,0,0,0-2.64-.72Z"/><path class="cls-38" d="M129.86,59.24c1.51-2,2.86-.08,3.64.54,3.06,2.43,5,1.21,6.65-1.54,2.57,2.56,2.34,3.09-2.31,4.76,2.22,1,4.59,1.55,5.21,4.12-3.07,1.87-6-1.29-9.07-.21a1.94,1.94,0,0,1-1-.89c1.23-1.65,3.22-3.41-.88-3.94C130.6,61.89,130.3,60.43,129.86,59.24Z"/><path class="cls-39" d="M86.31,22.13a1.78,1.78,0,0,1-2.11-.75c0-1.27.45-2.69-1.46-3.1-1.59-.35-2.26-1.47-1.61-3,.88-2,2.2-.2,3.33-.21h1.63c.84-1.51-.67-2.6-.86-3.91.88-1.36,1.77-2.56,3-.29-1.08,3.8,1,6.21,4.26,8.23C90.15,20.37,86.28,17.5,86.31,22.13Z"/><path class="cls-40" d="M77.18,19.27c-.4-1.49-2.23-.29-2.79-1.48C81.65,13,70.84,11.6,72.58,7.46c1.77,1.15,2.6,3.56,5,3.35,1.34-1.35-.67-5.39,3.53-4.43-.6,3.59-1.26,7.17-1.78,10.77C79.11,18.5,78.69,19.35,77.18,19.27Z"/><path class="cls-41" d="M142.15,86.22c0,2.58-1.51,2.58-3.34,1.86-1.37-.54-2.72-1.14-4.39-1.84-.19,2-.36,3.77-.54,5.59-2.66-1.67-3.71-7-1.95-8.82.87-.9,1.41-.12,2.12.1,2.36.71,4.74,1.37,7.12,2Z"/><path class="cls-42" d="M117.07,115.15c2.13,0,4.27.11,6.4.13.28,0,.56-.24,1-.45-.29-.38-.48-.9-.82-1-1.1-.42-2.31-.68-2.3-2.17a1.28,1.28,0,0,1,1.24-1.28,2.07,2.07,0,0,1,2.56,1.41c0,.07,0,.14,0,.22A2.06,2.06,0,0,0,127,113.5c-.47,2.75,4.61,1,3.1,4.57l-7.73.37C120.62,117.28,117.73,118,117.07,115.15Z"/><path class="cls-43" d="M140.31,74.32c-1.63-2.36-4.23-3.37-6.62-4.65-1.83-1-3.31-1.88-.72-3.65l.28.28c2.8,1.62,6.93.47,8.73,4.18a37.76,37.76,0,0,1,1,11.46c-.23.11-.47.22-.7.31-1.55.57-1.7-.63-1.68-1.55C140.63,78.56,141,76.42,140.31,74.32Z"/><path class="cls-44" d="M130.31,114.11c-.78-2.7.59-7.46-5.21-5.3-1,.37-1.34-.75-1.62-1.44-.39-1,.36-1.54,1.1-1.85,2.29-1,4.07-.06,5.58,1.68.43,1.28,1.54,1,2.47,1a2.33,2.33,0,0,1,2.51,2.15c0,.1,0,.2,0,.3C132.09,109.79,134.69,116.88,130.31,114.11Z"/><path class="cls-45" d="M136,43a11.1,11.1,0,0,0-.81,5,2.91,2.91,0,0,1-1.32,1.08,5.77,5.77,0,0,1-1.87.42c-6.69-.15-7.47-1.59-4.06-7.45C130.76,40.88,133.37,42,136,43Z"/><path class="cls-46" d="M88.23,10.92c-1.15-1.49-2,.12-3,.29-1.93-2.55-1.57-4,1.89-3.5a58.26,58.26,0,0,1,6.23,1.51c2.33.59,1.11,1.81.52,2.92Z"/><path class="cls-47" d="M90.1,4.5l-1.25,1-5.53-.32c-4.9-1.53-9.9-.34-14.85-.49a.64.64,0,0,1-.72-.51v0a.65.65,0,0,1,.67-.64A62.48,62.48,0,0,1,90.1,4.5Z"/><path class="cls-48" d="M88.1,142.19c-.34-2.43,5.92-1,2.91-5,1.71-1.25,2.78-.22,3.46,1.18s1.7,1.93,2.55,2.89l.28-.12C94.3,142.07,91.7,146.5,88.1,142.19Z"/><path class="cls-22" d="M142,70.5c-2.47-2.31-6.82-.69-8.73-4.18,3.46-2,6.52.72,9.8.82C142.69,68.24,142.34,69.36,142,70.5Z"/><path class="cls-49" d="M76.14,143.16c-.45-2.91,1.12-6.29-2.08-8.59a1.3,1.3,0,0,1-.42-1.79,1,1,0,0,1,.27-.31,2.92,2.92,0,0,1,1.86-.29c1.56.14.51,1.07.44,1.69a2.2,2.2,0,0,0,1.4,2.31c1.8,2.58,1.27,5.29.43,8Z"/><path class="cls-30" d="M73.26,150.42l-11.88-1.51c-.1-1.8,1.49-1.61,2.49-2.13a6.05,6.05,0,0,0,2.15-.85,1,1,0,0,1,1.06.19l3.21,1.9c.66,1.6,2,.37,2.94.64s2.42-.14,2.25,1.68C74.79,151.74,74,150.36,73.26,150.42Z"/><path class="cls-50" d="M106,23.13c-.93-.82-.72-2-.89-3,.37-1.26.72-2.52,1.11-3.78a2,2,0,0,1,2.22-1.5c1.49.1,2.13.73,1.6,2.24Z"/><path class="cls-51" d="M123.13,132.68c-.71.7-1.54.38-2.35.25a33,33,0,0,1,10.26-10l-.86,2.16C128.28,128.07,125.4,130.08,123.13,132.68Z"/><path class="cls-52" d="M136,43c-2.63,1-5.15-.16-7.71-.43a1.83,1.83,0,0,1-.68-1.25A2.29,2.29,0,0,1,130,39.18l.13,0C132,40.61,135.17,40,136,43Z"/><path class="cls-53" d="M117.07,115.15c1.43,1.62,4.73.25,5.26,3.3l-.93.81c-1.71,1.39-2.47-2.37-4.22-.78-.07.62-.15,1.23-.22,1.85-1.3,1.11-2.54.51-3.79-.1A11.31,11.31,0,0,0,117.07,115.15Z"/><path class="cls-54" d="M130.18,39.2,128.09,41c-1.12.49-1.3,0-1.06-1a9.83,9.83,0,0,0,1-4.77c.64-.72,1.43-1.94,2.36-1C132,35.75,130.59,37.5,130.18,39.2Z"/><path class="cls-55" d="M117.18,118.5c2-2.75,2.76.81,4.22.78a5.11,5.11,0,0,0,2.92,3c1,.36,1.82.91,1,2.1s-1.75.22-2.43-.25C120.65,122.61,120.33,119.13,117.18,118.5Z"/><path class="cls-56" d="M75.48,150.34c-2-2.54-5-.46-7.84-1.67l2.65-.65H81.05l1.94.4c-1.61,1.66-4.26-.32-5.71,1.69Z"/><path class="cls-57" d="M134.11,48.5l1.07-.4a3,3,0,0,1,2.83,2c-3,.52-5.91,2.62-9,.45C129.59,47.09,132.62,49.69,134.11,48.5Z"/><path class="cls-58" d="M67.08,146.12a4,4,0,0,1-.7-.06c-2.76-5-1.74-10.08-.76-15.22a1.46,1.46,0,0,1,1.62-.62l1,1.06C66.74,136.14,67.78,141.2,67.08,146.12Z"/><path class="cls-59" d="M142.15,103.14c-.58,4.88-2.91,8.91-6.06,12.54C137.24,111.08,139.77,107.15,142.15,103.14Z"/><path class="cls-60" d="M145.43,90.22h.83a23.62,23.62,0,0,1-4.17,13Q143.77,96.71,145.43,90.22Z"/><path class="cls-61" d="M112.23,140.44c0-.39-.07-.77-.1-1.15,2.2-1,3.33-3.58,5.85-4.17l.27,2.1Z"/><path class="cls-62" d="M78,144.2c0-2.68.64-5.4-.44-8,3,2.06.87,5.81,2.76,8.23C79.47,145.59,78.71,145.39,78,144.2Z"/><path class="cls-63" d="M109.12,129.19h1c.82,1.8,1.63,3.62,2.45,5.44C110,133.72,109.09,131.74,109.12,129.19Z"/><path class="cls-64" d="M21.36,126.14C10.79,114.84,5,101.26,2.47,86.14c1.18-.82,2.92-1.17,2.64-3.2C2.73,80,3.86,76.6,3.78,73.4s1-6,1.17-9.6c2.7,1.43,2.41,3.47,2.59,5.31C7.82,72,7,75,8.15,77.89a8.86,8.86,0,0,0,1.65,1.4,5.53,5.53,0,0,1,2,2.08,5.77,5.77,0,0,1,.43,1.43,13.41,13.41,0,0,1-.2,4.42c-1,5.49-.71,11-.92,16.59a50.64,50.64,0,0,1,.22-5.65A2.59,2.59,0,0,1,12.25,97c2.72.67,1.94,3.24,2.74,5,.48,2.09-.57,4.07-.43,5.69,0,1.12.66.59.53.41-.71-1-.41-2.17,0-3.27,1-1.17,2.13-1.56,3.45-.49,1.65,4.55-.26,9.07.12,13.5.31-4.11,0-8.43,1.28-12.58a1.22,1.22,0,0,1,1.58.14c1.86,3.65.67,7.56,1,11.34C21.7,119.79,24.63,123.37,21.36,126.14Z"/><path class="cls-34" d="M18,32.5a4.94,4.94,0,0,1,.95-.27c2.73,2.35,1.42,5.54,1.67,8.38.18,2.13,0,4.29,0,6.44-.21,5.93.36,11.88-.34,17.81-.6,1.4-1.3,3-3.14,2.29-2.24-.85-2.15-3.07-2.29-5V42.78c0-1.05-.07-2.11-.17-3.16C14.88,36.79,17.58,35.18,18,32.5Z"/><path class="cls-65" d="M30.4,20.23l1.79-.94c2.4,5.52,1.53,11.3,1.17,17-.06,1-.67,2.75-2.56,1.56-.15-4.11-.11-8.22,0-12.33-.45,6.39.22,12.75.72,19.11a6,6,0,0,1-.8,2.61c-.62.74-1.24,1.46-2.36,1-1.46-1.21-1.45-2.91-1.47-4.57-.08-5.64,0-11.29,0-16.94C26.81,23.89,27.62,21.5,30.4,20.23Z"/><path class="cls-66" d="M8.15,79.29c-2.09.78-2.08-.51-2.06-2,0-4.07,0-8.13-.26-12.2C5,71,3.21,76.94,5.11,83c-3.49-2.21-1.81-5.7-1.83-8.57A56.57,56.57,0,0,1,6.34,56.11a1.71,1.71,0,0,1,2.19.13c1.88,3,.21,6.66,1.91,9.66C7.27,70,9.23,74.88,8.15,79.29Z"/><path class="cls-67" d="M20.21,31.25c-.56-2.55,1.2-3.8,2.85-5.12a2.7,2.7,0,0,1,2,1.7c1.39,8.74.18,17.54.69,26.3-.24,2.77.48,5.92-2.93,7.45-2.23-1.16-1.88-3.34-1.86-5.23.11-7.58-.57-15.18.56-22.73.12-.8.29-1.66-.76-2.06Z"/><path class="cls-68" d="M31.32,38.24c2.72-4,.44-8.32.84-12.48.2-2.14,0-4.31,0-6.47l2-1.54c2.68-.35,2.32,1.84,2.07,3.06C35,26.71,36,32.68,35.4,38.58c-.72,2.24-1.09,4.83-4.38,4.66C30.69,41.55,30.22,39.85,31.32,38.24Z"/><path class="cls-69" d="M15,39.16a2,2,0,0,1,1.15,2.2c-1.08,6.8-.3,13.63-.48,20.45A2.79,2.79,0,0,1,14,64.5a1.55,1.55,0,0,1-1.43-.82c-1.68-5.69.14-11.61-1.18-17.32a7.3,7.3,0,0,1,.94-4.19l.81-1.94C13.66,39.76,14,38.79,15,39.16Z"/><path class="cls-70" d="M54.36,25l-1.27.09c-2-3.06-1.72-6.36-1.41-9.8C51.81,13.94,53.6,11.18,50,11a5.43,5.43,0,0,1-2.83,0c-.71-.36-1.27-.81-1-1.73,4-1.22,7.73-3.4,12-3.91a3.92,3.92,0,0,1,1,1.38c.78,2.84.2,5.8.8,8.67.26,1.21.28,2.69-1.61,2.9a8.55,8.55,0,0,1-1,.07c-2.09-1.8-1.09-4.29-1.58-6.39C54.89,16.2,56.63,20.85,54.36,25Z"/><path class="cls-71" d="M58.26,6.33a8.27,8.27,0,0,0-.11-1c3.41-.72,6.72-2,10.27-1.85a.71.71,0,0,1-.14.72c-1,.69-1.18,2-2.2,2.69a10.28,10.28,0,0,1-1.23.74c-2.27,2.11-1.06,4.86-1.31,7.32s.15,5.3-2.37,7.1c-.91,1.13-1.83,2.09-2.93.17C60.61,16.92,59.44,11.63,58.26,6.33Z"/><path class="cls-72" d="M34.39,39.38a89.79,89.79,0,0,1,.5-18.25c.17-1.07,1.17-2.63-.73-3.38-.06-2.13,1.57-2.69,3.1-3.35a2.67,2.67,0,0,1,.6,1.56,173,173,0,0,0-.1,20.87C37.46,38.76,36.7,40.1,34.39,39.38Z"/><path class="cls-73" d="M24.11,27.18a1.05,1.05,0,0,1-1-1c2.34-2.11,3.91-5.16,7.34-5.9-.87.95-2.26,1.71-2.21,3.15.28,8.28-.77,16.62.92,24.86,0,1.88-1.08,1.45-2.16,1-2.25-5.54-.56-11.35-1.17-17C25.59,30.5,26.79,28.16,24.11,27.18Z"/><path class="cls-67" d="M19.44,47.39q-.27-7.59-.55-15.19l1.32-1h0c1.73.72,1.73,2.27,1.63,3.73-.27,3.92,0,7.84-.18,11.76C21.18,47.86,20.36,47.77,19.44,47.39Z"/><path class="cls-74" d="M46.17,9.23l1.19,1.27a26.93,26.93,0,0,1-.14,18l-1.08.69-.55-.57c-1.51-4-.21-8.24-1-12.3-.41-1.46-.09-3.23-1.74-4.18a.81.81,0,0,1,.3-1.09Z"/><path class="cls-75" d="M43.18,11.06l.21,1.23c1.88,5.64,1.4,11.37.66,17.1A2.13,2.13,0,0,1,43,30.5c-3.07-1.35-1.57-4.19-2.08-6.39-.63-2.68,1.51-5.82-1.33-8.12a7,7,0,0,1-1.3-.09,1.94,1.94,0,0,1-1.05-.74,5.09,5.09,0,0,0,.06-.77A17.55,17.55,0,0,1,43.18,11.06Z"/><path class="cls-76" d="M12.29,42.2l-.34,4a4.16,4.16,0,0,1-.32,2c-1.26,2.61-1.2,5.81-3.47,8l-1.82-.07C7.76,51.24,9,46.27,12.29,42.2Z"/><path class="cls-77" d="M15,39.16l-1.9,1.1A26.74,26.74,0,0,1,18,32.5C19,35.55,16,36.92,15,39.16Z"/><path class="cls-78" d="M21.36,126.14V117c1.68-4.32.59-8.76.67-13.17.07-3.31-1.44-7,1.63-9.81a2.2,2.2,0,0,1,1.54.79,11.58,11.58,0,0,1,1.73,7.48c-.5,6.86-.1,13.76-.35,17.75-.29-4,.24-10.87.44-17.77,3.23-.41,3.13,2.11,3.63,4.1-.07,6.88.07,13.76-.07,20.64-.46,2.07-.15,4.32-1.35,6.23l-2-.92c-2.1-1.64-3.38-4.16-5.86-5.38A4.38,4.38,0,0,1,21.36,126.14Z"/><path class="cls-79" d="M64.23,147.12c-.4,1.48-2.17.76-2.85,1.79-6.3-1.61-12.61-3.22-18.28-6.57a1.9,1.9,0,0,1,.91-.88c.59-.25,1.21-.41,1.81-.62,1.3-.55,1.36-2.12,2.39-2.9a1.56,1.56,0,0,1,1.27.24c1.37,1.29.21,4.34,3.15,4.52,2.28-1.52.94-3.83,1.23-5.76.5-3.32-.92-6.77.66-10a2.32,2.32,0,0,1,3.21.73l.11.19c1.23,4.16.7,8.4.46,12.61-.28,4.8-.36,4.83,4.63,3.43a1.87,1.87,0,0,1,1.5.3A2.3,2.3,0,0,1,64.23,147.12Z"/><path class="cls-80" d="M29.18,133.25a8.68,8.68,0,0,1,.17-5.31,1.29,1.29,0,0,1,1.2.29c1,.71.71,2.59,2.43,2.5-.22-4.47-.23-8.89-.06-13.3.07-2-.26-4.53,2.95-4.69a2.79,2.79,0,0,1,1.88,2.51c-.16,6.33-.62,12.67.25,19a12.61,12.61,0,0,1,.84,3.94,2.1,2.1,0,0,1-.79,1.35A32.58,32.58,0,0,1,29.18,133.25Z"/><path class="cls-81" d="M38.05,139.5l.13-1.35c.61-.76,1-1.66,1.61-2.44,2.17-4.38.41-9.14,1.31-13.64,2-4.18,3-1.44,4.08.58-.21,5.39-.9,10.78-.11,16.2a4.66,4.66,0,0,1-1,3.25l-1,.21C41.06,142,39.57,140.75,38.05,139.5Z"/><path class="cls-82" d="M123.13,132.68a21.41,21.41,0,0,1,7.05-7.54c-.51,3.17-4.07,4.2-5,7.09Z"/><path class="cls-83" d="M129.07,68.28c-1.51,1.5-.66,3.52-1.13,5.25-1.7,2.66-3.73,2.52-4.52-.29C121.83,67.61,119.74,62,120.3,56c1.44-1.82.4-4.79,2.82-6.18A39.07,39.07,0,0,1,129.07,68.28Z"/><path class="cls-84" d="M102.15,31.26c1.12-1,3.35,3,3.83-.86,5.94,3.37,10.22,8.44,14.2,13.83-.73,1.9-.73,1.9-5.43,1.82-3.38.05-4.46-2.85-6.22-4.88a42,42,0,0,0-3.52-4c-1.32-1.57-2.65-3.13-3.09-5.23C102,31.69,102.07,31.5,102.15,31.26Z"/><path class="cls-85" d="M134.11,48.5c-1.35,1.6-4-.14-5.14,2-.81-.6-1.84-1.35-1.37.58.21.89,1.23,1.64-.41,2.06-1.13-3.57-4.82-6.85-.93-10.6-.56-.59-.73-.93-1-1-1.64-.52-3.85.41-4.75-1.88A1.31,1.31,0,0,1,121,38.5c2.29-.68,4.23.22,6,1.51l1.07,1,.18,1.59-2,5.88Z"/><path class="cls-86" d="M115.31,45.61c.7-.79,1.38-1.36,2.43-.4,1.4,1.29,1.94.13,2.44-1a10.61,10.61,0,0,1,2.94,5.57c-1.73,1.47,1.31,4.51-1.82,5.53-.3.2-.75.33-.87.11A105,105,0,0,1,115.31,45.61Z"/><path class="cls-87" d="M139.17,82.17c-3.21-1-7.35-.72-7.83-5.91,3.26.48,5.54,3.26,8.79,2.91C140.79,80.5,140,81.33,139.17,82.17Z"/><path class="cls-88" d="M120.06,29.15a1.94,1.94,0,0,0,2,1.06,26.87,26.87,0,0,1-5.52,6.18C115.57,32.5,119.09,31.5,120.06,29.15Z"/><path class="cls-89" d="M139.17,82.17l1-3,.18-4.85c2.07,2.29,0,5.61,1.94,7.93C141.17,84.5,140.19,82.33,139.17,82.17Z"/><path class="cls-90" d="M109.23,24.32c.32.77.63,1.55,1,2.32-1.21,1.18-2.83,1.9-3.59,0C105.75,24.57,107.8,24.5,109.23,24.32Z"/><path class="cls-91" d="M137.8,94.29c0,1.18-.5,1.82-1.33,1.91a1.71,1.71,0,0,1-2-1.36,1.08,1.08,0,0,1,0-.31,1.57,1.57,0,0,1,1.31-1.78C137.07,92.5,137.18,93.86,137.8,94.29Z"/><path class="cls-92" d="M115.31,45.61c4.33,1.8,3.75,6.63,6,9.72-.31,6,2,11.49,3,17.24.49,2.78,2.15,1.65,3.63,1,0,2.82.16,5.66-.09,8.46-.16,1.65.21,4.52-3.29,2.81a1.58,1.58,0,0,0-2.11.75,1.53,1.53,0,0,0-.11,1c1.3,3-1.53,5.79-.09,8.65-3.11,9-10,15-16.5,21.36a19.32,19.32,0,0,0-3.19,3.07c-1.79,1.71-4.08,2.58-6.28,3.55-1.87.84-3.74,1.11-5.21-.84-1.31,3.2-5.89.09-7,3.64-6.84.57-13.25,4-20.33,3-4.29-.38-7.76-3-11.75-4.27-2.87-2.46-6.6-3.63-9.42-6.17-1.29-1.15-3.25-1.93-2.41-4.28,1.39-6.18.35-12.44.63-18.66v-48A61.32,61.32,0,0,1,42,37.27a4.33,4.33,0,0,1,3.37-3.89c8.31-5.13,16.9-9.44,27-9.2,1.45,0,3.31-.8,3.23,2.05a1.65,1.65,0,0,0,1.74,1.57,1.75,1.75,0,0,0,.85-.28c2-1,.37-2.16.12-3.26A1.61,1.61,0,0,1,80.14,24c1.1.86,1.18,3.16,3.41,2.4a6,6,0,0,1,4.55.91,4.71,4.71,0,0,0,4.28,1.12,6.47,6.47,0,0,1,3.73,1.27c1,1,2,2.12,3.66,2.13a2.72,2.72,0,0,1,1,.72,18.59,18.59,0,0,0,4.3,3.7c2.84.94,4.32,3.64,5.47,5.79A7,7,0,0,0,115.31,45.61Z"/><path class="cls-93" d="M102,119c-.7-4.12,3.72-3.16,5.35-5.24,4.32-5.52,9.86-10.06,12.79-16.69.34-.79,1.41-1.26,2.15-1.87,1.77,1.79,1.05,3.67,0,5.36-3.71,5.84-6.79,12.2-12.88,16.15a2.62,2.62,0,0,0-1.18,2.59c-1.54-.23-2.63.87-3.94,1.32C103.29,120.33,102.34,120.07,102,119Z"/><path class="cls-94" d="M45.34,33.38c-3.74,3.33-2.78,8-2.87,12C42.11,62.26,42.13,79.14,42,96c-2.7-.63-2-2.92-2.13-4.67s-.07-3.53-.08-5.29V42.93c0-2,.33-4-.68-5.83a4,4,0,0,1-.52-2.34,8,8,0,0,1,3.71-4.52h.8a1.18,1.18,0,0,1,1.12,1.09A2,2,0,0,0,45.34,33.38Z"/><path class="cls-95" d="M88,28.28l-4.79-1c-1.42-.55-1.94-2-2.91-3h-2l-.14-.75c8.67.49,17.19,1.44,24,7.75v-.07c-.48.76-.87,1.68-2.06,1.06h.08C98.89,31.44,97.37,31,96,30.21L92,29.08A6.68,6.68,0,0,0,88,28.28Z"/><path class="cls-96" d="M54.36,25c-.06-4.82-.09-9.64-.19-14.46,0-1.48.17-2.86,1.92-2.84,1.94,0,1.07,1.68,1.11,2.64.13,2.65.08,5.31.11,8C57,20.84,58.61,24.25,54.36,25Z"/><path class="cls-97" d="M61.17,22c1.52-4,.86-8.19.9-12.3,0-2.37.44-3.94,3.27-3.47,1.88,5,.22,9.93-.3,14.87C64,22.41,62.6,22.32,61.17,22Z"/><path class="cls-98" d="M47.22,28.5q.08-9,.14-18l2.84-.25.6.65a39.59,39.59,0,0,1-1.46,16.4Z"/><path class="cls-99" d="M44.21,31.34l-1.12-1.09.3-18c4.58-1.38.63,2.55,2,3.19,1,4.55-.48,9.25.8,13.79v-.07C45.49,29.91,44.85,30.62,44.21,31.34Z"/><path class="cls-100" d="M50.2,10.25c.54-.77.79-2.06,2-1.91,1.75.23,1.12,1.75,1,2.74a85,85,0,0,0-.1,14L52,26c-2.8-.48-1.54-2.75-1.79-4.27-.62-3.84,1.48-7.72-.08-11.57Z"/><path class="cls-101" d="M58.26,6.33c.77,0,2.12-.4,2.12.47,0,4.87-.27,9.75-.55,14.62,0,.29-1,.53-1.59.79l.06-3.94C59.35,14.29,57.55,10.31,58.26,6.33Z"/><path class="cls-70" d="M50.15,10.2c2,3.38.67,7.1,1.09,10.65.21,1.74-.81,3.66.78,5.19-.47,1.31-1.7,1-2.68,1.26Z"/><path class="cls-102" d="M65,21.14l.3-14.87a1,1,0,0,0,.56.15c1.81,2.49.69,5.16.47,7.78.17,2.16-1,4.5.84,6.45Z"/><path class="cls-103" d="M66.37,14.2c-.16-2.6-.31-5.2-.47-7.78a2.34,2.34,0,0,1,2.38-2.23.29.29,0,0,1,.24.34.24.24,0,0,1,0,.14C67.58,7.81,68.32,11.3,66.37,14.2Z"/><path class="cls-104" d="M97,141.26c-1-.59-3.59,1.4-3.06-2,.22-1.41-1.55-1.91-2.95-2L90.1,136c1-1.12,5.89.34,2.47-3.75-.2-.23.23-1.26.62-1.65.71-.72,1.48-.28,2.13.28,1.15,1,2.65,2.24,1.67,3.67C95.32,136.92,96.84,139,97,141.26Z"/><path class="cls-105" d="M86.22,135.15c-.25,1.29-.44,2.6-.78,3.87-.24.89-.3,2.24-1.69,2s-1.19-1.41-.77-2.34c1.23-2.72-3.72-3.66-1.84-6.53C83.34,132.28,84.13,134.81,86.22,135.15Z"/><path class="cls-106" d="M90.21,135.68c-1.27-1-2.71-.37-4.07-.46.13-1.57-.18-3.9,1.93-3.78S90.38,133.79,90.21,135.68Z"/><path class="cls-107" d="M64,128c6.87,1.19,13-4.3,20-2-.48,1.63-1,3.13-3.18,3.08-4.58-.09-9,1.64-13.64,1.15l-1.24.22-.6-.27A3,3,0,0,1,64,128Z"/><path class="cls-108" d="M102,119a2.44,2.44,0,0,1,2.26,1.61c-2.07,2-4.92,2.69-7.28,4.16-3.24,2-5.17,1.41-5.87-2.43C95.47,123.75,98.34,120.15,102,119Z"/><path class="cls-109" d="M64.23,147.12l-.33-3c-1.77-4.52-1.51-9.07-.21-13.63a1.64,1.64,0,0,1,2.3-.36,1.19,1.19,0,0,1,.18.15l-.17.21q.18,7.81.38,15.62C66.16,147.41,65.56,148,64.23,147.12Z"/><path class="cls-110" d="M24.05,94.36c-2.2,6-.15,12.26-1,18.33-.22,1.5,1.2,3.83-1.71,4.32q-.14-5.88-.29-11.76c-1.33-1.76-.78-3.66-.61-5.62.49-5.48,1.21-11-.5-16.41a8.59,8.59,0,0,0-1-1.16,7.78,7.78,0,0,1-1.32-1.81,4.25,4.25,0,0,1-.35-1.39c-.11-2,.05-4-.82-5.86-.73,2.14,1.88,4.2.06,6.34-2.25,1.94-4.83.35-7.23.7l-1.13-.75c-2-6.45-1.32-10.67,2.14-12.91.64-.65,1.5-.48,2.27-.63a1.81,1.81,0,0,0,1.49-1.64l1.07-1.88c.33-.44.68-.47,1,0,.38,1.5-.8,3.49,1.14,4.44,1.09.53,1.67-.56,2.07-1.48a1.55,1.55,0,0,1,1.26-.33c1.12.5,1,1.44,1,2.25.72-1.11-1.54-3.76,1.67-4a4,4,0,0,1,1.41,2.52c-1.64,8.59.49,17,1.21,25.48A3.76,3.76,0,0,1,24.05,94.36Z"/><path class="cls-111" d="M18.14,80.06l1.1,1.17c2.12,3.44,1.26,7.16,1,10.82-.85,2.36-.62,4.84-.71,7.28-.08,1.77.16,3.66-1.55,4.92l-2.67,1a28.39,28.39,0,0,1-.7-13.94c.59-3,.11-6.21.06-9.32C15.22,80.21,16.56,79.91,18.14,80.06Z"/><path class="cls-112" d="M15.24,81.35c1.57,4.16.89,8.32.36,12.58-.47,3.72-.2,7.53-.26,11.3-.16,1.24-.31,2.48-.46,3.72h-.4c-.15-2.25-.31-4.5-.46-6.75-1.15-5.89-1-11.91-1.61-17.85-.37-.7-.71-1.42-1.15-2.09l-.08-1C12.58,79.64,14,78.5,15.24,81.35Z"/><path class="cls-113" d="M20.36,81.26c3.67,6,1.28,12.4,1.39,18.63a37.33,37.33,0,0,1-.73,5.36h-.74a3.19,3.19,0,0,1-1-2.55A131.28,131.28,0,0,1,20.36,81.26Z"/><path class="cls-114" d="M8.84,101.22C4.45,95.09,6.89,88.35,7.06,81.81,8.72,88.18,7.4,94.82,8.84,101.22Z"/><path class="cls-115" d="M20.13,103.14l.15,2.1A37.94,37.94,0,0,1,18,118.91V104.25c.93-4-.74-8.25,1.06-12.19C20.68,95.63,18.78,99.5,20.13,103.14Z"/><path class="cls-116" d="M12.3,83.33c2.38,0,2,1.69,1.93,3.1-.05,5.25-.14,10.51-.21,15.76-1.58-1.3,0-3.72-1.75-5C10.13,92.59,11.39,88,12.3,83.33Z"/><path class="cls-117" d="M12.07,98c.09,3.18.86,6.44-1.52,9.41.08-6.76-1-13.52.53-20.26C12.64,90.65,10.89,94.5,12.07,98Z"/><path class="cls-118" d="M12.07,98c-1.8-3.49-.15-7.28-1-10.85l.18-4.9c.35.36.69.72,1,1.07V97.23A1.17,1.17,0,0,0,12.07,98Z"/><path class="cls-119" d="M15.24,81.35c-1.29-2.08-2.68-.86-4.06-.12L9.27,80c2.09-2.27,4.8,0,7.06-1a1.32,1.32,0,0,1,1.87.14,4.1,4.1,0,0,0-.06.86Z"/><path class="cls-120" d="M20.66,65.24l-1.29-.08q0-8.88.07-17.77l1.63-.07A77.3,77.3,0,0,1,20.66,65.24Z"/><path class="cls-77" d="M16.16,62.2h-1c-.12-7-.95-14,1-20.87Q16.14,51.77,16.16,62.2Z"/><path class="cls-121" d="M24.05,94.36l1.15-3.24c.21-8.85-1.09-17.7-.11-26.57.08-.65-.5.72-1,.53l-1-2a1.41,1.41,0,0,1,0-1.9q1-3,2-6.09a5.4,5.4,0,0,1,2.26-5.81c.79,0,1.53-.14,1.82-1L29.93,47a3.46,3.46,0,0,1,1.42,1.07,8.73,8.73,0,0,1,1.26,5.26q.09,21.48,0,43c0,1.85.45,4.79-2.17,4.76-2.33,0-2.61-2.81-2.35-4.82,1.59-12.08.17-24.21.79-36.3-.51,10.78.47,21.58-.57,32.35-.72,1.8-1.69,3.25-4,3A1.89,1.89,0,0,1,24.05,94.36Z"/><path class="cls-94" d="M34.39,39.38a3.44,3.44,0,0,0,2.74-2.13L38,37a3.57,3.57,0,0,1,1.37,1.19c.95,1.5.8,3.18.79,4.83,0,16.85.28,33.7-.61,50.54-.07,1.48,0,3-.88,4.31a1.34,1.34,0,0,1-1.65.42c-1.59-1.88-1.09-4.16-1.24-6.32.17-6.51-.32-13,.3-19.54,1.53-8.85.3-17.77.73-26.63a11.35,11.35,0,0,1,.1-1.44c0-.14-.18,0-.27.49-.43,2.19.3,4.63-1.42,6.54-1.66.11-1.8-1.17-2.12-2.29.16-2.31-1.55-1.69-2.81-1.79a3,3,0,0,1-.43-.36c.21-.57.42-1.14.62-1.7s.15-1.39.71-1.9C32.72,42.38,33.49,40.83,34.39,39.38Z"/><path class="cls-122" d="M31.2,43.34c-.24.63-.47,1.26-.71,1.9a78.33,78.33,0,0,1,.83-21.13V38.24Z"/><path class="cls-123" d="M12,67.15l-1.66-.77c-3-.61-1.75-3-2-4.78a48.66,48.66,0,0,1-.17-5.41,21,21,0,0,1,3-8.9c2,4.29.53,8.85,1,13.25C11.52,62.72,13.6,65,12,67.15Z"/><path class="cls-124" d="M27.29,49.27,25,55.08c-1.9-2.33-.82-5-.87-7.58C24,40.73,24.11,34,24.11,27.18c.68-.87,1.29-2.15,2.62-1.67,1.16.42.65,1.71.64,2.61C27.26,35.17,26.67,42.21,27.29,49.27Z"/><path class="cls-125" d="M23,61.17v1.9c-1.4,1.47-.45,3.46-1.2,5.08-.38-1-.77-1.93-1.15-2.91-1.17-6,0-12,.41-17.92-.11-5.38.92-10.82-.9-16.1l3.12-3.31a188.43,188.43,0,0,0-1.05,27.6C22.3,57.42,21.55,59.5,23,61.17Z"/><path class="cls-126" d="M11.37,61.36l-.18-14.07L12,46.22c2.35,3.77.78,8,1.24,11.94.23,2,.12,3.94.16,5.91C10.48,64.78,12.46,61.94,11.37,61.36Z"/><path class="cls-77" d="M11.37,61.36c1.16.53.34,2.52,2,2.71a2.73,2.73,0,0,0,.7,0c2.2,3-.56,2.6-2.1,3C12,65.2,10.75,63.37,11.37,61.36Z"/><path class="cls-127" d="M38,36.62l-.88.63c-1.24-7.37-1.79-14.73.07-22.08a2.72,2.72,0,0,1,.93.13c2,2.05.73,4.36.61,6.62C38.49,26.82,38.82,31.75,38,36.62Z"/><path class="cls-128" d="M46.17,29.27c-2-4.5-.52-9.2-.8-13.79C47.27,20,45.58,24.69,46.17,29.27Z"/><path class="cls-129" d="M42.29,30.27c0,2.17-1.43,3.27-3.12,4.18-2-6.41-.63-12.85-.09-19.27,1.74-1.24,3.43-2.73,3.29,1.26C42.21,21.05,42.3,25.66,42.29,30.27Z"/><path class="cls-130" d="M39.08,15.18q.06,9.63.09,19.27c-.05.78-.1,1.55-.16,2.32,0,.4-.25.55-.64.4a.46.46,0,0,1-.36-.54c-1.68-7.12-.19-14.22.12-21.33A7.47,7.47,0,0,1,39.08,15.18Z"/><path class="cls-131" d="M30.3,47.3c1.55-.29,1.49-3,3-2.57s.59,2.24.75,3.44c.67,9.17.48,18.36.51,27.55-.08,8.47,0,17,0,25.43,0,3.56-.9,5.93-5.13,5.12-.22-1.6-.27-3.29-2.1-4-.65-3-1.91-6-.15-9,.64-13.1-1.21-26.33,1.12-39.33h1.56V100.5h1.3V86c0-10.64,0-21.28.14-31.92A23.81,23.81,0,0,0,30.3,47.3Z"/><path class="cls-132" d="M29.45,106.27c.52-2.35,1.66-2.56,3.84-.22V76.36c3,.62,1.88,3.13,2.27,4.94.22,9.33-.47,18.68.57,28,.29,1.35.88,2.71,0,4.07-3-.06-1.68,2.25-1.75,3.54-.3,5.39-.41,10.78-.6,16.17,0,.1-.19.26-.28.26a1.35,1.35,0,0,1-.44-.2c-2.21-4.25-1-8.84-1.28-13.27-.14-2.43,0-4.87-.14-7.53-.71,5.35,1.59,10.7-1.66,15.56l-.31.07h-.32Q29.39,117.11,29.45,106.27Z"/><path class="cls-133" d="M27.2,93.23a32.29,32.29,0,0,1,.15,9V123c-3.15-9.11,1.16-18.87-3.08-27.82Z"/><path class="cls-134" d="M36.13,113.36c-.31-1-.63-2-.94-3,1.61-3.88-.87-8.46,2-12.13h.94c2.22,2.56,1,5.67,1.31,8.54.19,2.11-.44,4.29.46,6.35a6,6,0,0,1,.59,2.17c3.15,4,8.73,4.72,11.94,8.68-.57,1-2.24,1.1-1.93,2.69-.54,3.81,1.32,7.92-1.52,11.4h-.69c-2.15-2-1.22-4.57-1.51-6.93s.74-5-1.52-6.9l-1.13-1c0-1.13.15-2.48-1.37-2.66-.78-.1-.67.91-.78,1.51-1.8.36-1.66-1.44-2.45-2.2a30,30,0,0,0-2-2.34c-.39-.72-1-1.4-.46-2.3Z"/><path class="cls-135" d="M63.42,144.09c-.92,4-4.07,1.89-6,1.74-1.72-.14-1.15-2.24-.81-3.73,1-4.53.52-9.15.57-13.74,1.2-.66,1.81.08,2.35,1-.49,4.22-.15,8.45-.24,12.67.08-3.16,0-6.32.18-9.49.15-2.35,1-3.4,3.37-2.82a1.54,1.54,0,0,1,.82,1.3C63.52,135.38,64,139.74,63.42,144.09Z"/><path class="cls-81" d="M45.33,123.38c2.54-.19,2.9,1.38,2.89,3.42,0,3.75.08,7.5.12,11.25-.68,1.32,1.07,3.84-2,4-.64-.23-1.39-.59-1.45-1.22C44.41,135,43.51,129.16,45.33,123.38Z"/><path class="cls-136" d="M54.21,127.18c2.13,5.27.7,10.79,1,16.18.11,2.24-1.91.56-3,.52a4,4,0,0,1-1-1.47c-.7-3.79-.36-7.61-.29-11.42,0-1.75-.06-3.82,2.49-4.19Z"/><path class="cls-137" d="M52.07,142.89c0,.33.1.66.13,1-5,.19-2.42-3.72-3.17-5.83q.09-6.78.2-13.56c1.44-.66,2.07.25,2.61,1.34C51.75,131.5,51.25,137.22,52.07,142.89Z"/><path class="cls-138" d="M51.1,125.34l-1.87-.85c.75-2.24,2.19-.22,3.25-.53L64,128c.85.6,1.87,1,2.14,2.19l-1.84.11a.81.81,0,0,1-1.12.16.61.61,0,0,1-.16-.16,3.83,3.83,0,0,1-.87-.17c-.89-1-2.23,0-3.16-.72l-1.84-1.07c-.68-1.17-1.85-1.12-3-1.18h0C53.16,126.56,51.83,126.5,51.1,125.34Z"/><path class="cls-139" d="M45.33,123.38c-.06,4.73-.1,9.45-.21,14.18,0,1.65-.16,3.27,1.25,4.5l-2.28.07c-.5-6.32-1.25-12.64.09-19Z"/><path class="cls-140" d="M63.05,130.32h1.28q-.21,6.87-.43,13.73h-.48Q63.24,137.21,63.05,130.32Z"/><path class="cls-141" d="M30,127.89V109l1.54-.13c3.34,7.76,1,16.17,1.54,24.25C30.84,132.08,30.11,130.16,30,127.89Z"/><path class="cls-142" d="M38.18,117.15l2.27,2c.78,6,1.51,11.9-.17,17.83a2.11,2.11,0,0,1-2.1,1.22c-.33-1-.65-2-1-3-1-5.67-.31-11.38-.41-17.07C36.78,117.43,37.43,117.09,38.18,117.15Z"/><path class="cls-143" d="M38.18,117.15c-1.56,6-.5,12-1,18.07a43.87,43.87,0,0,1-.06-20Z"/><path class="cls-144" d="M40.28,137q.09-8.91.17-17.83c1.37.51.48,2.25,1.58,2.9C41.84,127.05,43.77,132.32,40.28,137Z"/><path class="cls-24" d="M100.11,32.25c.69-.35,1.38-.7,2.06-1.06l3,5C103.1,35.37,99.64,36.31,100.11,32.25Z"/><path class="cls-145" d="M82.39,117.13l-1.37.12c-2.43.94-2.64-.94-3-2.46a24.55,24.55,0,0,1-.26-4.28,15.84,15.84,0,0,0-.35-2.26c-.13-11,.58-22.09.3-33.14a3.53,3.53,0,0,1,1.52-3.45c2.73-1.08,5,.13,7.2,1.5a3.52,3.52,0,0,1,1.31,1.75,2.42,2.42,0,0,1-1,2.53c-4,3.11-3,7.88,2.1,10.37.3-.3.58-.61.86-.93a18.41,18.41,0,0,0,4.8-8.17,2.3,2.3,0,0,1,2.65.52c2.21,2.56,1.29,5.88-2.69,9.22l4.8,2c.07,0,.07.32,0,.45a2.17,2.17,0,0,1-.32.37c-1.35,1.78-3.3,2.09-5.33,2.11-2.83,0-5.53.11-8.06,1.87-1.85,1.29-3.76,1.08-4-1.81-.59,1.42.4,2.83.26,4.31-.22,3.47,4.75,4.39,4,8.12-.25,2.06.64,4.13,0,6.2S84.63,116.19,82.39,117.13Z"/><path class="cls-146" d="M48.17,58.17C44.73,53,46.54,47,52.57,45.35c1.7-.46,3.41-3,5.62-1,1,3.14,4.14,3.26,6.37,4.68,2.44.12,3.62,2.42,5.64,3.27l.64.26c1.72,2.7.15,3.33-2.11,3-2.08-.3-3.58.11-4.6,2a2.85,2.85,0,0,1-2,.26c-3.57-.27-3.57-.27-8,3,.51,1,1.81.6,2.39,1.45a3.14,3.14,0,0,1,.33,2.17c-.55,1.24-1.14,2.43-2.86,1.84-2.17-1.48-4.73-.88-7.77-1.18,2.14-2.28.8-4.85,1.85-7C50.7,57,52.41,54.52,55,53.37c3.18-1.41,6.34-2.89,9.92-1.6-4.15-1.62-7.65.71-11.32,2-4-1.74.25-2.93.12-5.08-1.95,1.91-4.89,2.78-2.31,6.16C51,56.56,49.54,57.33,48.17,58.17Z"/><path class="cls-147" d="M79.43,72.37c-1.29,7.35.27,14.76-.52,22.14-.48,4.54-.49,9.12-.71,13.69a1.48,1.48,0,0,1-2.08,0,1.39,1.39,0,0,1-.3-.47c-.41-3.34-.67-6.7-1-10.15-1.73.16-.67,4.33-3.69,2.85a1,1,0,0,1,0-1.24c.15-2.36-.53-4.84,1-7C75,92,76.55,91,74.81,88c.53-2.2,1.54-4.38,0-7-.33,3.2-.91,6-.37,8.94-.32,1.21-1.48,1.59-2.3,2.3-2.83-4.63-.64-9.45-.58-14.19,0-.62-.06-1.24-.1-1.86a1.88,1.88,0,0,1,1.14-.52c2.69-1.14-.93-1.84-.22-2.84a3.19,3.19,0,0,1,.54-2.74,2.6,2.6,0,0,1,2.8.07C77,71,78.61,71,79.43,72.37Z"/><path class="cls-148" d="M73.34,70.1v3.4a2.89,2.89,0,0,1-1.2,2.68l-.31-.05h-.32c-1.44-4.11-3.13-4.11-7.57,0-1.33-.17-1.54-.78-.72-1.81.47-2.17,3.19-2.11,4.54-5-3.44,2.7-5.48-2.7-8.81.26C56.29,72,55.33,75.33,53.17,78c-3.83-4.47-2.53-8.22.86-11.77a3.6,3.6,0,0,0,2.15-2c1.48-2.32,2.73-5.07,6.34-3.23.88.44,1.85.85,2,1.94s-.76,1.62-1.77,1.89c-1.8.46-3,1.74-4.3,3-1.78,1.33-3.93,2.25-4.92,4.56-.35.47,1,.11.38,0,.59-2.3,2.85-2.93,4.36-4.31,1.91-1.86,3.89-3.65,6.86-3.17,1.7.27,2.07-1.47,3.25-2C71.52,64.31,73.66,66.35,73.34,70.1Z"/><path class="cls-149" d="M81.16,98.19a11.38,11.38,0,0,1-.7-3.35c.11-1.5.82-3.06,2.53-3.2.9-.07,3.52.37.52,1.83-.66.32-1.11.63-1,2.73,4.63-6.15,11.19-2.57,16.45-4.92.15,1.76,2.7,2.59,1.88,4.74-.11,2.23-1.29,3.22-3.5,3.15s-4.62.12-6.93,0a83.63,83.63,0,0,0-8.8-.43Z"/><path class="cls-150" d="M100.17,64.22c2.25,0,2.62,1.55,2.86,3.6-3.9-1-8-2-4,4.17,1,1.47-.29,2.17-1.62,2.08a34.75,34.75,0,0,1-4.3-.84A2.68,2.68,0,0,1,90,74.93c-2.46-.93-3.67-2.64-3.3-5.32a1.51,1.51,0,0,1,1.12-.8c1.21,0,2.41.67,3.85.34-1.44-1.62-3.74-.46-5-2a2.9,2.9,0,0,1,1.12-4l.28-.13c1.25-.33,2.33.77,3.58.41,1.08-.33,2.22.75,3.26-.19C97.63,58.76,98.72,62.5,100.17,64.22Z"/><path class="cls-151" d="M82.39,117.13l2.58-5c1.2-1.89,1-4.88,4.27-5.17,3-.26,5.54.25,7,3.24.54,2,1.49,4,0,6.08-3.66,2.09-7.62.92-11.46,1a1.73,1.73,0,0,1-1.58-.15A3.66,3.66,0,0,1,82.39,117.13Z"/><path class="cls-152" d="M81.2,47.19c.73-2.28,2.68-1.68,4.38-2.11,4.56-1.16,8.63-2.19,13.49.17,2.78,1.36,3.26,3.1,3,4.87a36.76,36.76,0,0,0-.06,4.2c-1,.73-1.78.15-2.58-.37-2.85-1.19-3-5.63-7.27-5.49-2.9.1-5.08.61-6.75,2.94-1.62.68-2.62.12-2.46-1.62C83.07,48.29,82.06,47.86,81.2,47.19Z"/><path class="cls-153" d="M54.8,105.92a12.85,12.85,0,0,0-3.24-7c-2.53-2.6,1.14-4.37,1.53-6.66.29-1.73,2.64-2.39,4.2-.42,1.2,1.51,1.51-.22,2.2-.47,1.43-.53,2.82-1.12,3.71.79-.82,1.43-2.75,1.84-3.23,3.58a8.35,8.35,0,0,1-.72,1.07c-.85,1.16-1.73,2.26-3.43,1.72.81.3,2-.15,2.56.88a2.76,2.76,0,0,1-.27,1.89c-.83,1.67-.32,4-2.3,5.12A.89.89,0,0,1,54.8,105.92Z"/><path class="cls-154" d="M63.22,74.34l.72,1.81c2.24.81,4,2.21,4.31,4.66.32,2.7-1.87,3.57-3.88,4.43-1,.94-.94,2.84-2.77,3.11A2.57,2.57,0,0,1,59.76,88c-2.46-1.49.84-3.24-.1-4.42-1.57-2-2.38-3.37.66-4.45Z"/><path class="cls-155" d="M91.18,64.25c-1.67,1.62-1.84,0-2.26-1-.16-1.07,2.37-1.77.4-3.07a5.41,5.41,0,0,1-.14-2.08c2.38-3.88,4.61-4.1,8.77-.86,2.86.17,5.11.62,2.49,4.18-.48.66-.2,1.88-.27,2.85l-3.82-2.14-.3,3.26C94.37,65.25,93.59,61.11,91.18,64.25Z"/><path class="cls-149" d="M84.89,106c-.26-2-.81-3.82-3-4.76-1.27-.54-2.19-1.62-.72-3h0c4.9,1,9.85.18,14.77.46,1.77.1,3.66-.45,5.35.55-.4,1.72-2.35,1.74-3.24,2.93-1.57.83-3.23.19-4.85.33a27.18,27.18,0,0,1-5.84-.43c-.37-.56-.67.92-.32.36,0-.08.5,0,.68.32,1.5,2.26,1.77,4-1.77,4.16A1.73,1.73,0,0,1,84.89,106Z"/><path class="cls-156" d="M73.2,47.19c-3.14-6,1.18-10.5,2.33-16.32,3.6,4.83,4.48,9.36,3.54,14.28a1.56,1.56,0,0,1-2,.29c-1.38-2.94-.8-6.11-1.45-9.2.38,3.27.76,6.57-.72,9.66A2.41,2.41,0,0,1,73.2,47.19Z"/><path class="cls-157" d="M60.32,79.14c-2.8,3.06-.53,3.6,2.16,3.92-.26,1.84-4.74,1.56-2.43,4,1.82,1.93,2.82-1.24,4.32-1.84.33,2.23-.41,4.4-2.51,4.81-2.34.45-3.38-1.76-3.68-3.81-.25-1.66-2-1.71-2.56-2.84-1.14-2.18-1-4.27,1.1-5.72C58.4,76.5,59.89,76.76,60.32,79.14Z"/><path class="cls-158" d="M98,57.19c-2.59.39-5.45-3.53-7.81.48-2.68-.93-6,1.64-8.27-1.54a2,2,0,0,1,.3-1.5c4.63-4,9.67-4.55,15.1-1.81,1,.51,2.24.88,1.89,2.44C98.76,55.91,98.35,56.55,98,57.19Z"/><path class="cls-159" d="M79.11,109.26c1.07,2.56-1.79,6.06,1.91,8-4.69,2.22-9.41,1.26-14.12.07a4.11,4.11,0,0,1,0-2.64c.27-1.08.49-2.19,1.63-2.75,1.06.06,2.1-.33,3.17-.08,1.43.51.3,3.66,3,2.89,2.43-.7,1.12-3.08,2-4.5A2,2,0,0,1,79.11,109.26Z"/><path class="cls-160" d="M40.54,115.28l-1.27-1.18c-.14-7.83-.11-15.65,0-23.47,0-1.64-.75-3.84,1.84-4.54.7,3.29-.69,6.77.93,10,.06,5.23.19,10.46.16,15.69C42.17,113.06,42.72,114.87,40.54,115.28Z"/><path class="cls-153" d="M63.22,92.81c1.67-.37,2.86-3.16,5-1,1.56,1.55,2.59,3.28,1,5.45-.63,1-1.43,2.12-2.65,1.78a10.79,10.79,0,0,0-5.91-.14c-1.23.32-2.44-.87-1.5-2.6l.21-.25C60,94.21,62.21,94.21,63.22,92.81Z"/><path class="cls-161" d="M54.3,115.12c.94-1.25.47-2.62.36-4,3.05-2.61,6.21-4.65,10.27-2a5.54,5.54,0,0,1-4.09,6.67l-.52.1C58.36,116.2,56.12,116.7,54.3,115.12Z"/><path class="cls-162" d="M99.16,55.26C93.4,50.92,87.7,52.37,82,55.47a1.08,1.08,0,0,1-1.26-.7c-.18-1.94.7-3.06,2.66-3a3.39,3.39,0,0,0,2.94-1.13c5.47-2.83,9.85-.78,13.82,3.08l1.82.64a7.1,7.1,0,0,1,.59,1C101.45,56.29,100.32,55.2,99.16,55.26Z"/><path class="cls-163" d="M64.56,49c-3.12-.2-7.38,1.14-6.37-4.68,2-2.79,5.15-.79,6.72-.37C68,44.79,64.15,47.17,64.56,49Z"/><path class="cls-164" d="M59.14,96.25c1.67,1.85,6.61,2.32,10.06,1,.08,1.19.48,2.07,1.91,1.93l.08,1.24a.76.76,0,0,1-.22,1,.85.85,0,0,1-.26.11,14.51,14.51,0,0,1-3.09,0c-3.12-.45-6.54,1-9.34-1.46-1.52-1.64-4.4.19-5.77-2.43C54.46,96,57.66,99.5,59.14,96.25Z"/><path class="cls-156" d="M81.22,55.22a2.11,2.11,0,0,1,.8.24l.15,1c.23,1.72-.79,2.6-2.17,3.24-3.12-.08-4.57-2.2-5.72-4.68a19.58,19.58,0,0,0-4.14-2.8h.06c.12-1.93-.11-4.37,3-2,5.1-3.5,4.37,1.69,5.73,3.79C79.64,54.5,80.6,54.5,81.22,55.22Z"/><path class="cls-165" d="M81.22,55.22l-3.18,1a71.62,71.62,0,0,0-1.37-9.46,2.21,2.21,0,0,1,.51-1.5l1.89-.08c.37,1.85-.52,3.89.81,5.67,2.05-.72,1.47-2.25,1.32-3.63,3.53-.81,1.93,3.23,3.78,4a.76.76,0,0,1,1.08-.12l.12.12C84.84,53,81,51.5,81.22,55.22Z"/><path class="cls-166" d="M54.3,115.12c4.07,1.15,7.14-1.66,10.63-2.79.25-.08,0-1.52.07-2.33-.41-1.2-.27-2,1.28-1.91,2.11,2,0,5,1.75,7l-1.13,2.22a1.78,1.78,0,0,1-.57-.07c-4-.63-8.3,1.09-12.19-1.16A7.67,7.67,0,0,0,54.3,115.12Z"/><path class="cls-153" d="M66.1,108.12c-.36.63-.73,1.26-1.1,1.88-3.74-2.22-7,.19-10.34,1.15.74-1.72-1.47-3.53.14-5.23l.61.37c3.56,0,7.15-.33,10.66.63a.85.85,0,0,1,.24.79C66.24,108,66.18,108.12,66.1,108.12Z"/><path class="cls-167" d="M101.26,99.19c-5.71,0-11.43,0-17.14.1-1.16,0-2.32.15-3-1.11,5.46,0,10.93-.22,16.4-.07A3.2,3.2,0,0,0,100.87,96C100.8,97.1,102.12,98,101.26,99.19Z"/><path class="cls-168" d="M54.14,116.09c4,.83,8.32-1.24,12.19,1.16-4.19,1.82-8.37,1.11-12.54-.08a.45.45,0,0,1-.14-.42A3.53,3.53,0,0,1,54.14,116.09Z"/><path class="cls-169" d="M93.07,101.3a8.57,8.57,0,0,1,5,.82l-1,5.12a2.36,2.36,0,0,1-1.32.33C91,106.08,90.79,105.72,93.07,101.3Z"/><path class="cls-170" d="M77.24,46.32c2,3.14.6,6.57.8,9.87-1.1-1-.77-2.39-.88-3.66-.24-2.66-1.68-3.26-4-2.28,0-1,0-2,0-3.06l.87-.92A6.89,6.89,0,0,1,77.24,46.32Z"/><path class="cls-171" d="M83.22,117.2,84.3,117a56,56,0,0,1,11.93-.14l.55,1.2C92.17,119.11,87.55,120.29,83.22,117.2Z"/><path class="cls-149" d="M96.06,107.12a7.16,7.16,0,0,1,1,.12c-.26,1-.53,2-.8,3-5.28-3.37-8.12-2.89-11.26,1.93,1-2.07-1.3-4.11-.08-6.19l.23.18C88.73,106.93,92.51,105.67,96.06,107.12Z"/><path class="cls-172" d="M90,74.27l3.17-1c0,2.93,5.14,2.35,4.07,6L94,79.21c-1.37.42-1.84-.51-2.28-1.5C91.4,76.41,89.62,75.89,90,74.27Z"/><path class="cls-173" d="M96.23,116.9,84.3,117c3.89-1.88,8-.34,12-.71A1.6,1.6,0,0,1,96.23,116.9Z"/><path class="cls-174" d="M96,30.23c2.49-1.52,3.42.1,4.19,2.06C97.53,34.17,96.38,33,96,30.23Z"/><path class="cls-175" d="M88,28.28c2.21-4.23,2.78-.43,3.88.8C90.24,30.69,89.06,29.88,88,28.28Z"/><path class="cls-176" d="M63.22,92.81c.07,2.73-2.37,2.39-3.87,3.19-.58-3.16,2-3.13,3.85-3.79A.67.67,0,0,1,63.22,92.81Z"/><path class="cls-177" d="M80.34,24.29c2.24-.24,2.6,1.34,2.91,3C80.23,28.43,80,28.1,80.34,24.29Z"/><path class="cls-178" d="M41.08,86.09c-1.56,7.76-.32,15.63-.93,23.42-.12,1.55.69,3.31-.88,4.59-2.58-2.55-.38-5.61-.87-8.41a46.76,46.76,0,0,1-.22-7.48c.36-18.39.75-36.79,1-55.19a37.16,37.16,0,0,0-.85-5.85.68.68,0,0,0,.64-.4c3.2-1.74,2.23.92,2.23,2.23,0,10.74,0,21.48-.06,32.22C41.17,76.18,41.12,81.14,41.08,86.09Z"/><path class="cls-179" d="M24,65.08a9,9,0,0,1,2.48-5.76c-1.06,11.22.87,21.56-1.32,31.8C23.47,82.5,21.56,73.88,24,65.08Z"/><path class="cls-180" d="M20.13,103.14C18,99.62,20,95.7,19.07,92.06q.06-5.41.17-10.83h1.12Q20.26,92.21,20.13,103.14Z"/><path class="cls-181" d="M18.2,79.2l-1.87-.14c-.11-1,.15-2.31-.39-2.88-2.86-3-.18-3.88,2.26-5.9Z"/><path class="cls-66" d="M10,71.93c1,.3,1.91.43,2,1.4.26,1.66-1.22,2.28-2.24,2.75-.82.38-.63-.86-.56-1.33C9.4,73.79,8.68,72.5,10,71.93Z"/><path class="cls-182" d="M37.31,72.43,37.07,92.2c-.45.63-.26,1.79-1.24,1.91-1.16.13-1.08-.92-1.09-1.66-.06-3.91,0-7.82,0-11.74-.69-8.1-.51-16.21-.5-24.32,0-1.8-.3-3.67.83-5.31.49-2.55-.53-5.25.69-7.7.3-.61,1.16-1,1.76-1.41.17.77.33,1.53.5,2.3-.7,7.58-.11,15.18-.33,22.76C37.61,68.83,38,70.67,37.31,72.43Z"/><path class="cls-183" d="M35.13,81.17c0,3.59-.05,7.19.09,10.77.11,2.8,1.18.5,1.85.26.06,2,.11,4,.17,6,0,2.75,0,5.51-.15,8.26-.09,1.48.42,3.42-1.9,3.87-.51-1-1.57-2-1.44-2.91,1.28-8.68-.09-17.4.57-26.08C34.48,80.82,34.75,80.78,35.13,81.17Z"/><path class="cls-184" d="M35.13,81.17a5.31,5.31,0,0,0-.81.19c-.51-1.63.58-3.59-1-5V51.43c0-1.15-.2-2.35.79-3.26.25,1-.08,2.17,1,2.91Z"/><path class="cls-178" d="M37.31,72.43c.16-9.39-1.06-18.81.68-28.16C37.82,53.66,39.25,63.08,37.31,72.43Z"/><path class="cls-79" d="M59,129.43a2.62,2.62,0,0,1,3.16.72c-2.24.1-2,1.75-2,3.2a82.81,82.81,0,0,1-.46,10.44C57.65,139.12,58.38,134.27,59,129.43Z"/><path class="cls-79" d="M51.1,125.34l3.09,1.83c-2.42.45-1.78,2.41-1.85,3.92-.15,3.93-.19,7.87-.27,11.81C50.1,137.13,51.74,131.18,51.1,125.34Z"/><path class="cls-185" d="M92.12,77.41,94,79.17c2,2.17,1.38,4.8-.71,5.53s-1.57,2.9-3.1,3.57c-.57-.62-.46-1.49-.84-2.18a4.13,4.13,0,0,0,.86,2.16c-.64,1.19-1.88,2.77-2.86,1.48a29.51,29.51,0,0,1-5.19-9.18c-1-3.44,2.44-3.69,4.83-4.36.14,0,.13-.61.19-.93C89.4,74.68,90.32,77.05,92.12,77.41Z"/><path class="cls-148" d="M79.43,72.37c-1.4-.4-3.06.31-4.23-1,1.46-2-.23-5.08,2.3-6.72a6.2,6.2,0,0,1,3.23-2.49c1.16-.27,2.32-.54,3,.86-.33,2.45.11,4.58,2.54,5.86a2.71,2.71,0,0,1,.38,1.34c.11,1.42,1,2.84,0,4.25C84.23,73.75,82.16,71.9,79.43,72.37Z"/><path class="cls-186" d="M86.62,74.5c-.16-1.76-.31-3.52-.46-5.28a.68.68,0,0,1,.91.09c.54,1.92,1.13,3.8,2.9,5-.26,1.71,3.13.92,2.15,3.14-2.6,1.47-3.4-1.16-4.93-2.15Z"/><path class="cls-187" d="M79.11,109.26l-1.65.94c-1.53,1.61-3.17,2.75-5.37,1.11a2.55,2.55,0,0,1-.42-1.33c1.2-1.5,2.43-2.94,4.65-2.67.35.88,1.11.9,1.88.89Z"/><path class="cls-188" d="M68.42,63.42c-.13,1.53-.75,3.83-2.24,3-3.52-1.92-5.46.82-8,1.79v.07c.86-2.87,2-5.34,5.83-4.55-2.86-3-3.33-2.88-5.57.16-.32.44-1.51.25-2.29.36l.18-2.11a2.54,2.54,0,0,1,1.2-2.66c3.72-1.17,7.45-1.82,11.18,0A3.47,3.47,0,0,1,68.42,63.42Z"/><path class="cls-189" d="M70.14,52.24a6.16,6.16,0,0,1,5,2c.7.81.44,1.77.42,2.69-2.13,4.79-2.13,4.79-6.84,1.7-1.37-.82-3.35.16-4.41-1.52-.94-2.52-.16-3.2,3.68-2.62C70.17,54.81,71.56,55,70.14,52.24Z"/><path class="cls-190" d="M53.22,53.36c4-2.53,8-4.3,12.81-1.35-7.25-1.47-11.69,4.79-17.92,6.09l.06.07,2.91-3A3.39,3.39,0,0,1,53.22,53.36Z"/><path class="cls-191" d="M53.22,53.36l-2.14,1.81c-1.67-.5-.57-1.61-1.24-3-2.23-4.67,3.49-2.51,3.73-5,.07-.79,1.5,0,2,.51.86.8.74,1.66-.27,2.48S52,51.06,53.22,53.36Z"/><path class="cls-189" d="M57.14,60.42a1.62,1.62,0,0,1-.78,1.73c-1.71.61-3.86,1.22-4.66-.64-.37-.87,1.24-2.55,3.37-2.7,1.41-.1,2.88-1.53,4-2.66,1.86-1.82,2.27-.15,3,1C61,59,58.49,58.88,57.14,60.42Z"/><path class="cls-192" d="M57.14,60.42c.54-2.74,3-2.66,4.93-3.29h2.28c1.65.21,3.45-.27,4.82,1.12.21,1-.17,1.35-1.13,1.17C64.41,59.8,60.7,59.36,57.14,60.42Z"/><path class="cls-156" d="M68,59.39l1.13-1.17c2.75-1.61,2.06,2,3.63,2.32A4.9,4.9,0,0,1,75,57.05a17.09,17.09,0,0,1,3.11,8.19c-.11,1.35-3,1.94-.31,4.29,1.75,1.54-2.31.26-2.61,1.83L73.34,70.1a28.62,28.62,0,0,0-4.92-6.68C68.3,62.08,68.17,60.73,68,59.39Z"/><path class="cls-193" d="M76.32,107.31c-1.53.18-1.54,3.76-4,1.82-1.82-.46-2-1.83-1.91-3.36a23.65,23.65,0,0,1,.91-4l-.11-1.41c4-.55.17-3.19,1.23-4.53s2,1.61,3.31.23c.78-.81,1.87-.14,1.33.73C75,100.25,78.05,103.94,76.32,107.31Z"/><path class="cls-194" d="M74,90.17c-2.38-1.42.35-4.06-1.33-5.65,2.84-1.52-.38-3,0-4.84,1.42.39,4-.86,4,.8,0,2.4,1.49,5.52-1.49,7.45C75.8,89.19,76,90.24,74,90.17Z"/><path class="cls-195" d="M74,90.17c1-.41,1.12-1.33,1.23-2.24,3.42.18-.18,3.68,2.08,4.41-1.79,1.61-3.51.89-5.21-.18l0,.07a1.86,1.86,0,0,1,1.67-2Z"/><path class="cls-196" d="M72.14,76.22l1.2-2.68L77,76.35C75.17,77.92,73.66,76.94,72.14,76.22Z"/><path class="cls-197" d="M58.17,68.22C56.76,70.4,54.45,72,53.66,75c-2.18-5.13.84-6.15,4.55-6.67Z"/><path class="cls-198" d="M87.07,69.27l-.45-.11h-.46l0,.07c-2.69-1-2.37-3.54-2.84-5.66C82.85,62.2,82,63,81.19,63.2c-1.23-.73-2-1.64-1.22-3.15,3.44-1.83,6.88-3.81,10.19.23,1.61,1.82-.73,2-1.23,2.9-1.79,1-1.76,2.58-1.58,4.26.71.38,1.36.79.75,1.74Z"/><path class="cls-199" d="M88.1,69.2l-.75-1.7a3.83,3.83,0,0,0,1.46-.2c1.94-1.16,3.09,1.59,4.89.94-.23.76-.31,2.06-.74,2.19C91.21,70.9,89.22,71.61,88.1,69.2Z"/><path class="cls-200" d="M91.18,64.25c.78-1.06.71-3.08,2.64-2.84,2.3.28.57,3.12,2.23,3.93C93.84,67.58,93.41,61.93,91.18,64.25Z"/><path class="cls-201" d="M86.18,51.24H85c.91-2.78.9-2.63,3.67-2.53,1.84.07,1.32-2.5,2.79-3,1,5.63,2.77.12,4.5.42-2.31,4.48,4.32,4.09,4.24,7.63C95.8,51.2,91.29,49.5,86.18,51.24Z"/><path class="cls-202" d="M66,107.27c-3.59.26-7.22.9-10.61-1,1.8-1.35.25-3.94,2-5.32,3.41-.53,6.84-.17,10.27-.2C69.66,103.57,67.69,105.38,66,107.27Z"/><path class="cls-203" d="M68.29,101.4,57.38,101l.9-.87,11,.11C69.51,101.08,69.05,101.37,68.29,101.4Z"/><path class="cls-204" d="M90.16,60.3c-3.17-2.69-6.54-.56-9.83-.42-.36-.1-.49-.24-.41-.41s.19-.28.3-.28l2-2.71C84,56.19,85.7,58,87.6,56.05c2.13-2.15,1,2.21,2.59,1.62C90.14,58.55,90.15,59.42,90.16,60.3Z"/><path class="cls-205" d="M96.06,107.12c-3.63-.47-7.45,1.18-10.94-1,5.93-.64,1-2.67.53-4.48,2.37-1,4.94-.25,7.42-.39C92,104.33,93,106.22,96.06,107.12Z"/><path class="cls-206" d="M77.24,46.32c-1.08,1.39-2.13,1-3.17,0,0-3.61,2-7,1-11.36a11.81,11.81,0,0,1,2.16,10.32Z"/><path class="cls-207" d="M68.29,101.4l1-1.19,2,1.57c.7,1.11,1.33,2.21.08,3.35-1.61,2.12.46,5.34-2.15,7.15-1.07.66-.86,1.85-1.19,2.82-3.59-1.51-1.17-4.68-1.93-7a1.09,1.09,0,0,0-.08-.85A9.24,9.24,0,0,1,68.29,101.4Z"/><path class="cls-208" d="M72.18,110.36c1.81,1.72,3.53.31,5.28-.16-1.9,1.45,3.16,5-1.8,5.65-3,.37-5.2.29-4.5-3.65-.72-.44-1.36-1.13-.91-1.89S71.55,109.58,72.18,110.36Z"/><path class="cls-209" d="M72.18,110.36c-2.33-.49-1.07,1-1,1.84-.65.07-1.25,1.1-1.94.08.38-2.48-.11-5.23,2.15-7.15a5.33,5.33,0,0,0,.93,4Z"/><path class="cls-170" d="M80.22,59.19c0,.22.08.45.11.69-.3,1.26.35,2.28.86,3.34-1.57-.15-2,1.46-3.07,2A11.93,11.93,0,0,1,75,57c.06-.94.12-1.88.17-2.82C76.43,56.33,77.19,58.9,80.22,59.19Z"/><path class="cls-210" d="M90.22,88.25c-.12-.1-.35-.21-.35-.32,0-2.27-3.84.53-3.18-2.41.11-.47,1-1.17,1.41-1.1,2.27.34,1.78,2.34,2.1,3.85Z"/><path class="cls-211" d="M83.37,63.59c.7-.08,2.11-.6,1.49.78-1,2.21.59,3.35,1.35,4.88-1.94-.08-3.16-1.63-4.79-2.24C82.1,65.82,82.73,64.7,83.37,63.59Z"/></g></g></svg>